<?xml version="1.0" encoding="UTF-8" standalone="no"?>
<!DOCTYPE svg PUBLIC "-//W3C//DTD SVG 1.1//EN" "http://www.w3.org/Graphics/SVG/1.1/DTD/svg11.dtd">
<svg width="100%" height="100%" viewBox="0 0 20 20" version="1.1" xmlns="http://www.w3.org/2000/svg" xmlns:xlink="http://www.w3.org/1999/xlink" xml:space="preserve" xmlns:serif="http://www.serif.com/" style="fill-rule:evenodd;clip-rule:evenodd;stroke-linejoin:round;stroke-miterlimit:2;">
    <g transform="matrix(1,0,0,1,-225,-30)">
        <g transform="matrix(1.10876,0,0,1.26098,-91.0415,-15.3672)">
            <g id="Save">
            </g>
        </g>
        <g id="StatusGood">
        </g>
        <g id="StatusBad">
        </g>
        <g id="StatusPaused">
        </g>
        <g id="StatusPlaying">
        </g>
        <g id="StatusUnknown">
        </g>
        <g transform="matrix(1.10876,0,0,1.26098,-66.3229,-15.3672)">
            <g id="Load">
            </g>
        </g>
        <g id="vThis">
        </g>
        <g id="vBegin">
        </g>
        <g id="vMin">
        </g>
        <g transform="matrix(1.1523,0,0,1.31051,-21.9614,-46.8621)">
            <g id="vMax">
            </g>
        </g>
        <g id="vEnd">
        </g>
        <g id="Reconnect">
        </g>
        <g id="Menu">
        </g>
        <g id="EnterFullscreen">
        </g>
        <g id="LeaveFullscreen">
        </g>
        <g id="Switch2Video">
        </g>
        <g id="Switch2Audio">
        </g>
        <g id="Artist" transform="matrix(1.2,0,0,1.2,-22.6,-16)">
            <g id="Member-Right" serif:id="Member Right">
            </g>
            <g id="Member-Left" serif:id="Member Left">
            </g>
            <g id="Lead-Member" serif:id="Lead Member">
            </g>
        </g>
        <g id="Album">
        </g>
        <g id="Song">
        </g>
        <g id="Video">
        </g>
        <g id="Remove">
        </g>
        <g id="Insert">
        </g>
        <g id="Append">
        </g>
        <g id="Next">
        </g>
        <g id="Pause">
        </g>
        <g id="Play">
        </g>
        <g id="Disable">
        </g>
        <g id="Hate">
        </g>
        <g id="LiveRecording" transform="matrix(1.2,0,0,1.2,102.4,-65.9962)">
            <g id="Member-Right1" serif:id="Member Right">
            </g>
            <g id="Member-Left1" serif:id="Member Left">
            </g>
            <g id="Lead-Member1" serif:id="Lead Member">
            </g>
        </g>
        <g id="LyricsVideo">
        </g>
        <g id="BadAudio">
            <path d="M234,46L234,49C234,49.552 234.448,50 235,50C235.552,50 236,49.552 236,49L236,46C236,45.448 235.552,45 235,45C234.448,45 234,45.448 234,46Z"/>
            <path d="M232,50L238,50C238.552,50 239,49.552 239,49C239,48.448 238.552,48 238,48L232,48C231.448,48 231,48.448 231,49C231,49.552 231.448,50 232,50Z"/>
            <path d="M242.99,34.861C242.997,34.906 243,34.953 243,35L243,41.905C243,42.01 242.983,42.114 242.951,42.214C242.951,42.214 241.456,46.998 235.5,47C233.92,47.001 232.654,46.671 231.647,46.187L233.196,44.64C233.841,44.861 234.603,45 235.5,45C239.378,44.999 240.74,42.328 241,41.718L241,38L239.846,38L242.99,34.861ZM228.654,43.523C228.216,42.833 228.051,42.316 228.051,42.316C228.017,42.214 228,42.107 228,42L228,35C228,34.448 228.448,34 229,34C229.552,34 230,34.448 230,35L230,36L232,36L232,31.75C232,30.784 232.784,30 233.75,30L237.25,30C238.216,30 239,30.784 239,31.75L239,33.193L232,40.182L232,38L230,38L230,41.808C230.028,41.871 230.068,41.956 230.121,42.058L228.654,43.523ZM239,38.845L239,41.25C239,42.216 238.216,43 237.25,43L234.838,43L239,38.845Z"/>
            <path d="M227.707,48.708L243.707,32.733C244.097,32.343 244.098,31.709 243.708,31.318C243.318,30.928 242.684,30.927 242.293,31.317L226.293,47.292C225.903,47.682 225.902,48.316 226.292,48.707C226.682,49.097 227.316,49.098 227.707,48.708Z"/>
        </g>
        <g id="Like">
        </g>
        <g id="Dislike">
        </g>
        <g id="Favorite">
        </g>
    </g>
</svg>
