<?xml version="1.0" encoding="UTF-8" standalone="no"?>
<!DOCTYPE svg PUBLIC "-//W3C//DTD SVG 1.1//EN" "http://www.w3.org/Graphics/SVG/1.1/DTD/svg11.dtd">
<svg width="100%" height="100%" viewBox="0 0 20 20" version="1.1" xmlns="http://www.w3.org/2000/svg" xmlns:xlink="http://www.w3.org/1999/xlink" xml:space="preserve" xmlns:serif="http://www.serif.com/" style="fill-rule:evenodd;clip-rule:evenodd;stroke-linejoin:round;stroke-miterlimit:2;">
    <g transform="matrix(1,0,0,1,-250,-205)">
        <g id="ArtworkFile">
        </g>
        <g id="VideoFile">
        </g>
        <g id="AlbumFile">
        </g>
        <g id="SongFile">
        </g>
        <g id="File">
        </g>
        <g id="BadFile" transform="matrix(1,0,0,1,200,3.6863e-11)">
            <g transform="matrix(1,0,0,1,-150,152)">
                <path d="M207.879,65L205.939,63.061C205.354,62.475 205.354,61.525 205.939,60.939C206.525,60.354 207.475,60.354 208.061,60.939L210,62.879L211.939,60.939C212.525,60.354 213.475,60.354 214.061,60.939C214.646,61.525 214.646,62.475 214.061,63.061L212.121,65L214.061,66.939C214.646,67.525 214.646,68.475 214.061,69.061C213.475,69.646 212.525,69.646 211.939,69.061L210,67.121L208.061,69.061C207.475,69.646 206.525,69.646 205.939,69.061C205.354,68.475 205.354,67.525 205.939,66.939L207.879,65Z"/>
            </g>
            <g transform="matrix(1,0,0,1,-100,-1.18234e-11)">
                <path d="M156.503,205.568C156.867,205.204 157.36,205 157.875,205C159.586,205 163.632,205 166.06,205C166.574,205 167.068,205.204 167.432,205.568C167.796,205.932 168,206.426 168,206.94C168,210.764 168,219.236 168,223.06C168,223.574 167.796,224.068 167.432,224.432C167.068,224.796 166.574,225 166.06,225C162.983,225 157.017,225 153.94,225C152.869,225 152,224.131 152,223.06C152,219.753 152,213.162 152,210.875C152,210.36 152.204,209.867 152.568,209.503C153.544,208.527 155.527,206.544 156.503,205.568ZM166,212.438C166,211.644 165.356,211 164.562,211L155.438,211C154.644,211 154,211.644 154,212.438L154,221.562C154,222.356 154.644,223 155.438,223L164.562,223C165.356,223 166,222.356 166,221.562L166,212.438Z"/>
            </g>
        </g>
        <g id="Integrate">
        </g>
        <g id="RenameFile">
        </g>
        <g id="AlbumFolder">
        </g>
        <g id="Folder">
        </g>
        <g id="RenameFolder">
        </g>
        <g id="Save">
        </g>
        <g id="Repair">
        </g>
        <g id="Repair2">
        </g>
        <g id="Import">
        </g>
        <g id="Import--Alternativ-" serif:id="Import (Alternativ)">
        </g>
        <g id="Integrate1" serif:id="Integrate">
        </g>
        <g id="TaskList">
        </g>
        <g id="StatusGood">
        </g>
        <g id="StatusBad">
        </g>
        <g id="StatusPaused">
        </g>
        <g id="StatusPlaying">
        </g>
        <g id="StatusUnknown">
        </g>
        <g id="StatusInfo">
        </g>
        <g id="StatusWarning">
        </g>
        <g id="StatusOpen">
        </g>
        <g id="StatusActive">
        </g>
        <g id="Load">
        </g>
        <g id="vThis">
        </g>
        <g id="vBegin">
        </g>
        <g id="vMin">
        </g>
        <g id="vMax">
        </g>
        <g id="vEnd">
        </g>
        <g id="Reconnect">
        </g>
        <g id="NextView">
        </g>
        <g id="Back">
        </g>
        <g id="Menu">
        </g>
        <g id="DropDown">
        </g>
        <g id="EnterFullscreen">
        </g>
        <g id="LeaveFullscreen">
        </g>
        <g id="Switch2Video">
        </g>
        <g id="Switch2Audio">
        </g>
        <g id="Artist">
        </g>
        <g id="Album">
        </g>
        <g id="Song">
        </g>
        <g id="Video">
        </g>
        <g id="Approve">
        </g>
        <g id="Remove">
        </g>
        <g id="Insert">
        </g>
        <g id="Append">
        </g>
        <g id="Append1" serif:id="Append">
        </g>
        <g id="Next">
        </g>
        <g id="Pause">
        </g>
        <g id="Play">
        </g>
        <g id="Disable">
        </g>
        <g id="Hate">
        </g>
        <g id="LiveRecording">
        </g>
        <g id="LyricsVideo">
        </g>
        <g id="BadAudio">
        </g>
        <g id="Like">
        </g>
        <g id="Dislike">
        </g>
        <g id="Favorite">
        </g>
        <g id="Tags">
        </g>
        <g id="TimeFrame">
        </g>
        <g id="Artwork">
        </g>
        <g id="Link">
        </g>
        <g id="MusicDB">
        </g>
        <g id="Ralation">
        </g>
        <g id="ToMainView">
        </g>
        <g id="MoveLeft">
        </g>
        <g id="MoveRight">
        </g>
        <g id="MoveToTopRow">
        </g>
        <g id="MoveToBottomRow">
        </g>
        <g id="Search">
        </g>
        <g id="CutRelation">
        </g>
        <g id="LyricsTemplate">
        </g>
        <g id="LyricsNone">
        </g>
        <g id="LyricsFromUser">
        </g>
        <g id="LyricsFromNet">
        </g>
        <g id="LyricsFromFile">
        </g>
        <g id="LyricsEmpty">
        </g>
        <g id="Edit">
        </g>
        <g id="FMTComment">
        </g>
        <g id="FMTBackground">
        </g>
        <g id="FMTRefrein">
        </g>
        <g id="Checked">
        </g>
        <g id="Unchecked">
        </g>
        <g id="Settings">
        </g>
        <g id="Hide">
        </g>
        <g id="Disconnect">
        </g>
    </g>
</svg>
