<?xml version="1.0" encoding="UTF-8" standalone="no"?>
<!DOCTYPE svg PUBLIC "-//W3C//DTD SVG 1.1//EN" "http://www.w3.org/Graphics/SVG/1.1/DTD/svg11.dtd">
<svg width="100%" height="100%" viewBox="0 0 20 20" version="1.1" xmlns="http://www.w3.org/2000/svg" xmlns:xlink="http://www.w3.org/1999/xlink" xml:space="preserve" xmlns:serif="http://www.serif.com/" style="fill-rule:evenodd;clip-rule:evenodd;stroke-linejoin:round;stroke-miterlimit:2;">
    <g transform="matrix(1,0,0,1,-300,-80)">
        <g id="VideoFile">
        </g>
        <g id="AlbumFile">
        </g>
        <g id="SongFile">
        </g>
        <g id="File">
        </g>
        <g transform="matrix(1.10876,0,0,1.26098,-91.0415,-15.3672)">
            <g id="Save">
            </g>
        </g>
        <g id="Import">
        </g>
        <g id="Import--Alternativ-" serif:id="Import (Alternativ)">
        </g>
        <g id="StatusGood">
        </g>
        <g id="StatusBad">
        </g>
        <g id="StatusPaused">
        </g>
        <g id="StatusPlaying">
        </g>
        <g id="StatusUnknown">
        </g>
        <g id="StatusInfo">
        </g>
        <g id="StatusOpen">
        </g>
        <g id="StatusActive">
        </g>
        <g transform="matrix(1.10876,0,0,1.26098,-66.3229,-15.3672)">
            <g id="Load">
            </g>
        </g>
        <g id="vThis">
        </g>
        <g id="vBegin">
        </g>
        <g id="vMin">
        </g>
        <g transform="matrix(1.1523,0,0,1.31051,-21.9614,-46.8621)">
            <g id="vMax">
            </g>
        </g>
        <g id="vEnd">
        </g>
        <g id="Reconnect">
        </g>
        <g id="Back">
        </g>
        <g id="Menu">
        </g>
        <g id="DropDown">
        </g>
        <g id="EnterFullscreen">
        </g>
        <g id="LeaveFullscreen">
        </g>
        <g id="Switch2Video">
        </g>
        <g id="Switch2Audio">
        </g>
        <g id="Artist" transform="matrix(1.2,0,0,1.2,-22.6,-16)">
            <g id="Member-Right" serif:id="Member Right">
            </g>
            <g id="Member-Left" serif:id="Member Left">
            </g>
            <g id="Lead-Member" serif:id="Lead Member">
            </g>
        </g>
        <g id="Album">
        </g>
        <g id="Song">
        </g>
        <g id="Video">
        </g>
        <g id="Approve">
        </g>
        <g id="Remove">
        </g>
        <g id="Insert">
        </g>
        <g id="Append">
        </g>
        <g id="Append1" serif:id="Append">
        </g>
        <g id="Next">
        </g>
        <g id="Pause">
        </g>
        <g id="Play">
        </g>
        <g id="Disable">
        </g>
        <g id="Hate">
        </g>
        <g id="LiveRecording" transform="matrix(1.2,0,0,1.2,102.4,-65.9962)">
            <g id="Member-Right1" serif:id="Member Right">
            </g>
            <g id="Member-Left1" serif:id="Member Left">
            </g>
            <g id="Lead-Member1" serif:id="Lead Member">
            </g>
        </g>
        <g id="LyricsVideo">
        </g>
        <g id="BadAudio">
        </g>
        <g id="Like">
        </g>
        <g id="Dislike">
        </g>
        <g id="Favorite">
        </g>
        <g id="Tags">
        </g>
        <g id="TimeFrame">
        </g>
        <g id="Artwork">
        </g>
        <g id="Link">
        </g>
        <g id="MusicDB">
        </g>
        <g id="Ralation">
        </g>
        <g id="ToMainView">
        </g>
        <g id="MoveLeft">
        </g>
        <g id="MoveRight">
        </g>
        <g id="MoveToTopRow">
        </g>
        <g id="MoveToBottomRow">
        </g>
        <g id="Search">
        </g>
        <g id="CutRelation">
        </g>
        <g id="LyricsTemplate">
        </g>
        <g id="LyricsNone">
        </g>
        <g id="LyricsFromUser">
        </g>
        <g transform="matrix(0.6,0,0,0.6,-31,109)">
            <g id="LyricsFromNet">
                <g id="Link1" serif:id="Link">
                </g>
            </g>
        </g>
        <g id="LyricsFromFile">
        </g>
        <g id="LyricsEmpty">
        </g>
        <g id="Edit">
        </g>
        <g id="FMTComment">
        </g>
        <g id="FMTBackground">
        </g>
        <g id="FMTRefrein">
        </g>
        <g id="Checked">
        </g>
        <g id="Unchecked">
        </g>
        <g id="Settings">
        </g>
        <g id="Hide">
        </g>
        <g id="Disconnect">
            <path d="M312.5,82.465C312.5,82.202 312.63,81.956 312.848,81.808C313.066,81.66 313.342,81.63 313.587,81.727C316.769,83.127 319,86.305 319,90C319,94.967 314.967,99 310,99C305.033,99 301,94.967 301,90C301,86.305 303.231,83.127 306.419,81.742C306.659,81.646 306.93,81.676 307.144,81.821C307.357,81.966 307.485,82.207 307.485,82.465C307.5,83.013 307.5,83.645 307.5,84.067C307.5,84.36 307.338,84.629 307.08,84.766C305.242,85.787 304,87.75 304,90C304,93.311 306.689,96 310,96C313.311,96 316,93.311 316,90C316,87.75 314.758,85.787 312.923,84.76C312.667,84.624 312.508,84.357 312.508,84.067C312.5,83.645 312.5,83.013 312.5,82.465Z"/>
            <g transform="matrix(1,0,0,1,53,20.5)">
                <path d="M255.5,61L255.5,69C255.5,69.828 256.172,70.5 257,70.5C257.828,70.5 258.5,69.828 258.5,69L258.5,61C258.5,60.172 257.828,59.5 257,59.5C256.172,59.5 255.5,60.172 255.5,61Z"/>
            </g>
        </g>
    </g>
</svg>
