<?xml version="1.0" encoding="UTF-8" standalone="no"?>
<!DOCTYPE svg PUBLIC "-//W3C//DTD SVG 1.1//EN" "http://www.w3.org/Graphics/SVG/1.1/DTD/svg11.dtd">
<svg width="100%" height="100%" viewBox="0 0 20 20" version="1.1" xmlns="http://www.w3.org/2000/svg" xmlns:xlink="http://www.w3.org/1999/xlink" xml:space="preserve" xmlns:serif="http://www.serif.com/" style="fill-rule:evenodd;clip-rule:evenodd;stroke-linejoin:round;stroke-miterlimit:2;">
    <g transform="matrix(1,0,0,1,-325,-30)">
        <g id="ArtworkFile">
        </g>
        <g id="VideoFile">
        </g>
        <g id="AlbumFile">
        </g>
        <g id="SongFile">
        </g>
        <g id="File">
        </g>
        <g id="BadFile">
        </g>
        <g id="Integrate">
        </g>
        <g id="RenameFile">
        </g>
        <g id="AlbumFolder">
        </g>
        <g id="Folder">
        </g>
        <g id="RenameFolder">
        </g>
        <g id="Save">
        </g>
        <g id="Repair">
        </g>
        <g id="Repair2">
        </g>
        <g id="Import">
        </g>
        <g id="Import--Alternativ-" serif:id="Import (Alternativ)">
        </g>
        <g id="Integrate1" serif:id="Integrate">
        </g>
        <g id="TaskList">
        </g>
        <g id="StatusGood">
        </g>
        <g id="StatusBad">
        </g>
        <g id="StatusPaused">
        </g>
        <g id="StatusPlaying">
        </g>
        <g id="StatusUnknown">
        </g>
        <g id="StatusInfo">
        </g>
        <g id="StatusWarning">
        </g>
        <g id="StatusOpen">
        </g>
        <g id="StatusActive">
        </g>
        <g id="Load">
        </g>
        <g id="vThis">
        </g>
        <g id="vBegin">
        </g>
        <g id="vMin">
        </g>
        <g id="vMax">
        </g>
        <g id="vEnd">
        </g>
        <g id="Reconnect">
        </g>
        <g id="NextView">
        </g>
        <g id="Back">
        </g>
        <g id="Menu">
        </g>
        <g id="DropDown">
        </g>
        <g id="EnterFullscreen">
        </g>
        <g id="LeaveFullscreen">
        </g>
        <g id="Switch2Video">
        </g>
        <g id="Switch2Audio">
        </g>
        <g id="Artist">
        </g>
        <g id="Album">
        </g>
        <g id="Song">
        </g>
        <g id="Video">
        </g>
        <g id="Approve">
        </g>
        <g id="Remove">
        </g>
        <g id="Insert">
        </g>
        <g id="Append">
        </g>
        <g id="Append1" serif:id="Append">
        </g>
        <g id="Next">
        </g>
        <g id="Pause">
        </g>
        <g id="Play">
        </g>
        <g id="Disable">
        </g>
        <g transform="matrix(1,0,0,1,25,0)">
            <g id="Hate2">
                <path d="M303.378,34L302,34C301.724,34 301.5,33.776 301.5,33.5C301.5,33.224 301.724,33 302,33L305.78,33L306.519,30.413C306.581,30.198 306.777,30.05 307,30.05L313,30.05C313.223,30.05 313.419,30.198 313.481,30.413L314.22,33L318,33C318.276,33 318.5,33.224 318.5,33.5C318.5,33.776 318.276,34 318,34L316.622,34C316.861,34.357 317,34.786 317,35.247L317,47.753C317,48.993 315.993,50 314.753,50L305.247,50C304.007,50 303,48.993 303,47.753L303,35.247C303,34.786 303.139,34.357 303.378,34ZM309,37L309,46C309,46.552 309.448,47 310,47C310.552,47 311,46.552 311,46C311,46 311,37 311,37C311,36.448 310.552,36 310,36C309.448,36 309,36.448 309,37ZM305,37L305,46C305,46.552 305.448,47 306,47C306.552,47 307,46.552 307,46C307,46 307,37 307,37C307,36.448 306.552,36 306,36C305.448,36 305,36.448 305,37ZM313,37L313,46C313,46.552 313.448,47 314,47C314.552,47 315,46.552 315,46C315,46 315,37 315,37C315,36.448 314.552,36 314,36C313.448,36 313,36.448 313,37ZM313.18,33L312.623,31.05L307.377,31.05L306.82,33L313.18,33Z"/>
            </g>
        </g>
        <g id="Favorite2">
        </g>
        <g id="Dislike2">
        </g>
        <g id="Like2">
        </g>
        <g id="Hate">
        </g>
        <g id="LiveRecording">
        </g>
        <g id="LyricsVideo">
        </g>
        <g id="BadAudio">
        </g>
        <g id="Like">
        </g>
        <g id="Dislike">
        </g>
        <g id="Favorite">
        </g>
        <g id="Tags">
        </g>
        <g id="TimeFrame">
        </g>
        <g id="Artwork">
        </g>
        <g id="Link">
        </g>
        <g id="MusicDB">
        </g>
        <g id="Ralation">
        </g>
        <g id="ToMainView">
        </g>
        <g id="MoveLeft">
        </g>
        <g id="MoveRight">
        </g>
        <g id="MoveToTopRow">
        </g>
        <g id="MoveToBottomRow">
        </g>
        <g id="Search">
        </g>
        <g id="CutRelation">
        </g>
        <g id="LyricsTemplate">
        </g>
        <g id="LyricsNone">
        </g>
        <g id="LyricsFromUser">
        </g>
        <g id="LyricsFromNet">
        </g>
        <g id="LyricsFromFile">
        </g>
        <g id="LyricsEmpty">
        </g>
        <g id="Edit">
        </g>
        <g id="FMTComment">
        </g>
        <g id="FMTBackground">
        </g>
        <g id="FMTRefrein">
        </g>
        <g id="Checked">
        </g>
        <g id="Unchecked">
        </g>
        <g id="Settings">
        </g>
        <g id="Hide">
        </g>
        <g id="Disconnect">
        </g>
    </g>
</svg>
