<?xml version="1.0" encoding="UTF-8" standalone="no"?>
<!DOCTYPE svg PUBLIC "-//W3C//DTD SVG 1.1//EN" "http://www.w3.org/Graphics/SVG/1.1/DTD/svg11.dtd">
<svg width="100%" height="100%" viewBox="0 0 20 20" version="1.1" xmlns="http://www.w3.org/2000/svg" xmlns:xlink="http://www.w3.org/1999/xlink" xml:space="preserve" xmlns:serif="http://www.serif.com/" style="fill-rule:evenodd;clip-rule:evenodd;stroke-linejoin:round;stroke-miterlimit:2;">
    <g transform="matrix(1,0,0,1,-175,-5)">
        <g transform="matrix(1.10876,0,0,1.26098,-91.0415,-15.3672)">
            <g id="Save">
            </g>
        </g>
        <g id="StatusGood">
        </g>
        <g id="StatusBad">
        </g>
        <g id="StatusPaused">
        </g>
        <g id="StatusPlaying">
        </g>
        <g id="StatusUnknown">
        </g>
        <g transform="matrix(1.10876,0,0,1.26098,-66.3229,-15.3672)">
            <g id="Load">
            </g>
        </g>
        <g id="vThis">
        </g>
        <g id="vBegin">
        </g>
        <g id="vMin">
        </g>
        <g transform="matrix(1.1523,0,0,1.31051,-21.9614,-46.8621)">
            <g id="vMax">
            </g>
        </g>
        <g id="vEnd">
        </g>
        <g id="Reconnect">
        </g>
        <g id="Menu">
        </g>
        <g id="EnterFullscreen">
        </g>
        <g id="LeaveFullscreen">
        </g>
        <g id="Switch2Video">
        </g>
        <g id="Switch2Audio">
        </g>
        <g id="Artist" transform="matrix(1.2,0,0,1.2,-22.6,-16)">
            <g id="Member-Right" serif:id="Member Right">
            </g>
            <g id="Member-Left" serif:id="Member Left">
            </g>
            <g id="Lead-Member" serif:id="Lead Member">
            </g>
        </g>
        <g id="Album">
        </g>
        <g id="Song">
        </g>
        <g id="Video">
        </g>
        <g id="Remove">
        </g>
        <g id="Insert">
        </g>
        <g id="Append">
        </g>
        <g id="Next">
        </g>
        <g id="Pause">
        </g>
        <g id="Play">
        </g>
        <g id="Disable">
        </g>
        <g id="Hate">
        </g>
        <g id="LiveRecording" transform="matrix(1.2,0,0,1.2,102.4,-65.9962)">
            <g id="Member-Right1" serif:id="Member Right">
            </g>
            <g id="Member-Left1" serif:id="Member Left">
            </g>
            <g id="Lead-Member1" serif:id="Lead Member">
            </g>
        </g>
        <g id="LyricsVideo">
        </g>
        <g id="BadAudio">
        </g>
        <g id="Like">
            <path d="M177.11,22.949L176.644,22.949C175.737,22.949 175,22.259 175,21.41L175,14.231C175,13.382 175.737,12.692 176.644,12.692L179.933,12.692C180.202,12.692 180.457,12.753 180.681,12.861L180.686,12.851C180.817,12.589 181.008,12.349 181.259,12.15C183.392,10.467 184.103,9.232 185.275,6.327C185.703,5.268 186.969,4.733 188.101,5.133C189.233,5.533 189.805,6.717 189.378,7.776C188.717,9.413 188.154,10.632 187.503,11.667L192.808,11.667C194.018,11.667 195,12.586 195,13.718C195,14.393 194.651,14.993 194.112,15.366C194.496,15.736 194.732,16.24 194.732,16.795C194.732,17.615 194.217,18.323 193.473,18.651C193.744,18.992 193.904,19.414 193.904,19.872C193.904,20.767 193.291,21.528 192.437,21.808C192.666,22.127 192.801,22.509 192.807,22.921C192.824,24.053 191.855,24.984 190.645,25C187.238,25.043 184.712,24.743 183.05,24.186C182.097,23.867 181.362,23.447 180.813,22.967C180.712,22.989 180.607,23 180.5,23L177.5,23C177.365,23 177.234,22.982 177.11,22.949ZM181.997,21.599C182.385,21.879 182.862,22.126 183.44,22.326C184.769,22.785 186.79,23.032 189.516,22.997C190.484,22.984 191.259,22.216 191.246,21.282C191.241,20.942 191.133,20.627 190.95,20.364C191.633,20.133 192.123,19.505 192.123,18.767C192.123,18.39 191.995,18.041 191.779,17.76C192.373,17.489 192.785,16.905 192.785,16.229C192.785,15.771 192.607,15.805 192.3,15.5C192.731,15.192 193,14.557 193,14C193,13.066 192.468,13 191.5,13C186.756,13 185.756,13 185.756,13C185.806,12.918 185.947,12.102 186,12C186.499,11.043 187.024,10.01 187.502,8.79C187.844,7.916 188.386,6.939 187.481,6.609C186.575,6.279 186.562,6.721 186.22,7.594C185.283,9.99 183.689,12.034 182.323,13.592C182.21,13.684 182.072,13.911 181.954,14.13C181.984,14.249 182,14.372 182,14.5L182,21.5C182,21.533 181.999,21.566 181.997,21.599ZM180,15.4C180,14.986 179.664,14.65 179.25,14.65L177.75,14.65C177.336,14.65 177,14.986 177,15.4L177,20.2C177,20.614 177.336,20.95 177.75,20.95L179.25,20.95C179.664,20.95 180,20.614 180,20.2L180,15.4Z"/>
        </g>
        <g id="Dislike">
        </g>
        <g id="Favorite">
        </g>
    </g>
</svg>
