<?xml version="1.0" encoding="UTF-8" standalone="no"?>
<!DOCTYPE svg PUBLIC "-//W3C//DTD SVG 1.1//EN" "http://www.w3.org/Graphics/SVG/1.1/DTD/svg11.dtd">
<svg width="100%" height="100%" viewBox="0 0 20 20" version="1.1" xmlns="http://www.w3.org/2000/svg" xmlns:xlink="http://www.w3.org/1999/xlink" xml:space="preserve" xmlns:serif="http://www.serif.com/" style="fill-rule:evenodd;clip-rule:evenodd;stroke-linejoin:round;stroke-miterlimit:2;">
    <g transform="matrix(1,0,0,1,-225,-80)">
        <g transform="matrix(1.10876,0,0,1.26098,-91.0415,-15.3672)">
            <g id="Save">
            </g>
        </g>
        <g id="StatusGood">
        </g>
        <g id="StatusBad">
        </g>
        <g id="StatusPaused">
        </g>
        <g id="StatusPlaying">
        </g>
        <g id="StatusUnknown">
        </g>
        <g transform="matrix(1.10876,0,0,1.26098,-66.3229,-15.3672)">
            <g id="Load">
            </g>
        </g>
        <g id="vThis">
        </g>
        <g id="vBegin">
        </g>
        <g id="vMin">
        </g>
        <g transform="matrix(1.1523,0,0,1.31051,-21.9614,-46.8621)">
            <g id="vMax">
            </g>
        </g>
        <g id="vEnd">
        </g>
        <g id="Reconnect">
        </g>
        <g id="Menu">
        </g>
        <g id="DropDown">
        </g>
        <g id="EnterFullscreen">
        </g>
        <g id="LeaveFullscreen">
        </g>
        <g id="Switch2Video">
        </g>
        <g id="Switch2Audio">
        </g>
        <g id="Artist" transform="matrix(1.2,0,0,1.2,-22.6,-16)">
            <g id="Member-Right" serif:id="Member Right">
            </g>
            <g id="Member-Left" serif:id="Member Left">
            </g>
            <g id="Lead-Member" serif:id="Lead Member">
            </g>
        </g>
        <g id="Album">
        </g>
        <g id="Song">
        </g>
        <g id="Video">
        </g>
        <g id="Approve">
        </g>
        <g id="Remove">
        </g>
        <g id="Insert">
        </g>
        <g id="Append">
        </g>
        <g id="Append1" serif:id="Append">
        </g>
        <g id="Next">
        </g>
        <g id="Pause">
        </g>
        <g id="Play">
        </g>
        <g id="Disable">
        </g>
        <g id="Hate">
        </g>
        <g id="LiveRecording" transform="matrix(1.2,0,0,1.2,102.4,-65.9962)">
            <g id="Member-Right1" serif:id="Member Right">
            </g>
            <g id="Member-Left1" serif:id="Member Left">
            </g>
            <g id="Lead-Member1" serif:id="Lead Member">
            </g>
        </g>
        <g id="LyricsVideo">
        </g>
        <g id="BadAudio">
        </g>
        <g id="Like">
        </g>
        <g id="Dislike">
        </g>
        <g id="Favorite">
        </g>
        <g id="Tags">
        </g>
        <g id="TimeFrame">
        </g>
        <g id="Artwork">
        </g>
        <g id="Link">
            <g transform="matrix(1,0,0,1,-25,0)">
                <path d="M260,80C265.519,80 270,84.481 270,90C270,95.519 265.519,100 260,100C254.481,100 250,95.519 250,90C250,84.481 254.481,80 260,80ZM260,81C264.967,81 269,85.033 269,90C269,94.967 264.967,99 260,99C255.033,99 251,94.967 251,90C251,85.033 255.033,81 260,81Z"/>
            </g>
            <g transform="matrix(1,0,0,1,-25,0)">
                <path d="M263.498,81.706C263.065,81.74 262.685,82.066 262.247,82.07C261.664,82.075 260.431,82.187 259.891,82.561C259.563,82.788 259.18,83.205 259.145,83.392C259.094,83.658 259.46,83.671 259.647,83.675C259.783,83.677 259.935,83.624 260.03,83.584C260.112,83.549 260.12,83.678 260.163,83.811C260.221,83.991 260.526,84.064 260.706,83.919C260.855,83.799 260.921,83.249 261.108,83.184C261.295,83.119 261.792,83.401 261.829,83.528C261.866,83.655 261.45,83.8 261.331,83.946C261.223,84.078 261.273,84.349 261.113,84.408C260.901,84.487 260.288,84.498 260.057,84.421C259.875,84.36 259.819,83.992 259.728,83.946C259.641,83.902 259.545,84.053 259.511,84.145C259.461,84.281 259.634,84.729 259.429,84.761C259.008,84.827 258.411,85.129 258.37,85.386C258.349,85.514 257.876,85.328 257.718,85.495C257.665,85.551 257.724,85.729 257.8,85.712C258.023,85.66 258.348,85.796 258.263,86.025C258.226,86.128 258.183,86.284 258.071,86.309C257.903,86.348 257.401,86.119 257.256,86.255C257.111,86.391 257.062,86.948 257.202,87.124C257.342,87.301 257.831,87.441 258.098,87.314C258.365,87.188 258.525,86.548 258.805,86.364C259.079,86.184 259.524,86.138 259.777,86.211C260.031,86.283 260.25,86.643 260.326,86.798C260.378,86.906 260.218,87.076 260.233,87.144C260.245,87.205 260.382,87.258 260.41,87.202C260.472,87.077 260.884,87.065 260.907,86.945C260.944,86.749 260.281,86.199 260.247,86.053C260.214,85.906 260.57,85.995 260.706,86.065C260.86,86.145 261.076,86.35 261.171,86.53C261.266,86.71 261.198,87.043 261.275,87.145C261.347,87.24 261.534,87.208 261.633,87.143C261.777,87.047 261.979,86.768 262.141,86.572C262.319,86.355 262.403,85.873 262.702,85.843C263.002,85.813 263.745,86.227 263.938,86.391C264.05,86.486 264.001,86.785 263.86,86.826C263.593,86.903 262.607,86.779 262.336,86.853C262.198,86.89 262.204,87.156 262.231,87.269C262.258,87.382 262.38,87.492 262.499,87.532C262.67,87.589 263.132,87.518 263.259,87.613C263.386,87.708 263.416,88.059 263.259,88.102C262.897,88.202 261.602,88.195 261.086,88.211C260.778,88.22 260.37,88.328 260.161,88.196C259.953,88.065 260.101,87.515 259.837,87.423C259.543,87.321 258.826,87.471 258.397,87.586C257.995,87.694 257.497,87.803 257.266,88.115C257.046,88.411 256.713,88.674 256.523,88.971C256.251,89.399 256.156,90.456 256.333,91.009C256.509,91.561 257.284,92.054 257.582,92.285C257.728,92.398 257.944,92.429 258.126,92.394C258.361,92.349 258.732,92.004 258.995,92.014C259.257,92.023 259.541,92.223 259.701,92.448C259.932,92.774 260.317,93.548 260.38,93.969C260.432,94.315 260.003,94.634 260.081,94.974C260.185,95.427 260.679,96.423 261.005,96.685C261.275,96.903 261.85,96.842 262.037,96.55C262.307,96.127 263.265,95.027 263.775,94.567C264.085,94.288 263.429,93.502 263.802,93.317C264.272,93.085 265.318,91.874 265.295,91.239C265.286,90.979 264.39,91.66 264.02,91.497C263.811,91.406 264.104,90.976 264.02,90.737C263.888,90.366 263.341,89.578 263.232,89.27C263.187,89.143 263.235,88.868 263.368,88.89C263.951,88.987 264.233,90.555 264.4,90.9C264.641,91.397 266.215,90.253 266.491,90.004C266.674,89.839 266.211,89.51 266.057,89.406C265.922,89.315 265.692,89.485 265.568,89.379C265.409,89.243 265.074,88.645 265.106,88.591C265.138,88.537 265.518,88.962 265.758,89.053C265.998,89.143 266.31,89.016 266.546,89.134C266.872,89.297 267.501,89.687 267.714,90.031C267.919,90.363 267.732,90.95 267.822,91.199C267.884,91.369 268.103,91.619 268.257,91.525C268.456,91.402 268.862,90.871 269.018,90.465C269.253,89.85 269.819,88.723 269.669,87.831C269.488,86.753 268.66,85.001 267.931,84.001C267.261,83.081 266.035,82.21 265.296,81.828C264.763,81.552 264.006,81.666 263.498,81.706ZM265.294,85.784C265.184,85.849 264.843,86.031 264.803,86.254C264.748,86.557 264.819,87.388 264.966,87.606C265.101,87.806 265.555,87.669 265.686,87.564C265.816,87.458 265.785,87.12 265.75,86.973C265.718,86.842 265.505,86.811 265.472,86.681C265.425,86.496 265.495,86.011 265.465,85.862C265.453,85.8 265.348,85.752 265.294,85.784Z"/>
            </g>
            <g transform="matrix(1,0,0,1,-25,0)">
                <path d="M258.125,82.293C258.016,82.291 257.793,82.371 257.727,82.506C257.66,82.641 257.759,82.97 257.727,83.104C257.705,83.196 257.544,83.217 257.534,83.311C257.52,83.457 257.558,83.829 257.641,83.98C257.715,84.113 257.907,84.179 258.033,84.215C258.15,84.248 258.288,84.249 258.396,84.194C258.516,84.132 258.678,83.971 258.752,83.845C258.822,83.725 258.887,83.568 258.837,83.439C258.788,83.308 258.529,83.216 258.453,83.062C258.377,82.907 258.436,82.641 258.382,82.513C258.338,82.41 258.235,82.294 258.125,82.293Z"/>
            </g>
            <g transform="matrix(1,0,0,1,-25,0)">
                <path d="M257.314,83.225C257.397,83.235 257.513,83.778 257.499,83.909C257.488,84.004 257.311,84.018 257.228,84.009C257.145,83.999 256.99,83.944 257,83.852C257.015,83.721 257.231,83.216 257.314,83.225Z"/>
            </g>
            <g transform="matrix(1,0,0,1,-25,0)">
                <path d="M264.672,94.12C264.614,94.176 264.68,94.411 264.609,94.53C264.516,94.684 264.206,94.864 264.114,95.048C264.026,95.224 264.019,95.496 264.057,95.635C264.09,95.756 264.218,95.875 264.341,95.88C264.493,95.885 264.666,95.543 264.695,95.259C264.711,95.099 264.936,95.022 264.974,94.866C265.017,94.687 265.007,94.312 264.957,94.188C264.92,94.097 264.73,94.063 264.672,94.12Z"/>
            </g>
            <g transform="matrix(1,0,0,1,-25,0)">
                <path d="M254.437,82.74C254.618,82.843 254.615,83.288 254.473,83.497C254.237,83.843 253.567,84.476 253.476,84.814C253.404,85.083 253.203,85.458 253.024,85.455C252.923,85.454 252.756,85.398 252.7,85.29C252.632,85.158 252.766,84.528 252.613,84.66C252.461,84.791 251.775,85.644 251.787,86.079C251.795,86.386 252.247,86.91 252.265,87.244C252.27,87.33 252.246,87.496 252.157,87.566C251.971,87.711 251.379,87.822 251.149,88.112C250.92,88.403 250.795,88.892 250.779,89.309C250.756,89.915 250.935,91.233 251.01,91.748C251.044,91.974 251.091,92.218 251.233,92.398C251.384,92.591 251.756,92.671 251.918,92.905C252.15,93.239 252.131,94.17 252.622,94.403C253.01,94.587 253.921,94.674 254.124,95.16C254.283,95.539 253.987,96.25 253.841,96.545C253.736,96.757 253.41,97.099 253.246,96.93C252.762,96.431 251.408,94.831 250.937,93.55C250.457,92.246 250.29,90.465 250.367,89.1C250.439,87.809 250.893,86.395 251.396,85.359C251.858,84.407 252.878,83.32 253.385,82.884C253.653,82.653 254.256,82.638 254.437,82.74Z"/>
            </g>
        </g>
    </g>
</svg>
