<?xml version="1.0" encoding="UTF-8" standalone="no"?>
<!DOCTYPE svg PUBLIC "-//W3C//DTD SVG 1.1//EN" "http://www.w3.org/Graphics/SVG/1.1/DTD/svg11.dtd">
<svg width="100%" height="100%" viewBox="0 0 20 20" version="1.1" xmlns="http://www.w3.org/2000/svg" xmlns:xlink="http://www.w3.org/1999/xlink" xml:space="preserve" xmlns:serif="http://www.serif.com/" style="fill-rule:evenodd;clip-rule:evenodd;stroke-linejoin:round;stroke-miterlimit:2;">
    <g transform="matrix(1,0,0,1,-75,-155)">
        <g transform="matrix(1.10876,0,0,1.26098,-91.0415,-15.3672)">
            <g id="Save">
            </g>
        </g>
        <g id="StatusGood">
        </g>
        <g id="StatusBad">
        </g>
        <g id="StatusPaused">
        </g>
        <g id="StatusPlaying">
        </g>
        <g id="StatusUnknown">
        </g>
        <g transform="matrix(1.10876,0,0,1.26098,-66.3229,-15.3672)">
            <g id="Load">
            </g>
        </g>
        <g id="vThis">
        </g>
        <g id="vBegin">
        </g>
        <g id="vMin">
        </g>
        <g transform="matrix(1.1523,0,0,1.31051,-21.9614,-46.8621)">
            <g id="vMax">
            </g>
        </g>
        <g id="vEnd">
        </g>
        <g id="Reconnect">
        </g>
        <g id="Back">
        </g>
        <g id="Menu">
        </g>
        <g id="DropDown">
        </g>
        <g id="EnterFullscreen">
        </g>
        <g id="LeaveFullscreen">
        </g>
        <g id="Switch2Video">
        </g>
        <g id="Switch2Audio">
        </g>
        <g id="Artist" transform="matrix(1.2,0,0,1.2,-22.6,-16)">
            <g id="Member-Right" serif:id="Member Right">
            </g>
            <g id="Member-Left" serif:id="Member Left">
            </g>
            <g id="Lead-Member" serif:id="Lead Member">
            </g>
        </g>
        <g id="Album">
        </g>
        <g id="Song">
        </g>
        <g id="Video">
        </g>
        <g id="Approve">
        </g>
        <g id="Remove">
        </g>
        <g id="Insert">
        </g>
        <g id="Append">
        </g>
        <g id="Append1" serif:id="Append">
        </g>
        <g id="Next">
        </g>
        <g id="Pause">
        </g>
        <g id="Play">
        </g>
        <g id="Disable">
        </g>
        <g id="Hate">
        </g>
        <g id="LiveRecording" transform="matrix(1.2,0,0,1.2,102.4,-65.9962)">
            <g id="Member-Right1" serif:id="Member Right">
            </g>
            <g id="Member-Left1" serif:id="Member Left">
            </g>
            <g id="Lead-Member1" serif:id="Lead Member">
            </g>
        </g>
        <g id="LyricsVideo">
        </g>
        <g id="BadAudio">
        </g>
        <g id="Like">
        </g>
        <g id="Dislike">
        </g>
        <g id="Favorite">
        </g>
        <g id="Tags">
        </g>
        <g id="TimeFrame">
        </g>
        <g id="Artwork">
        </g>
        <g id="Link">
        </g>
        <g id="MusicDB">
        </g>
        <g id="Ralation">
        </g>
        <g id="ToMainView">
        </g>
        <g id="Search">
        </g>
        <g id="CutRelation">
        </g>
        <g id="LyricsTemplate">
        </g>
        <g id="LyricsNone">
        </g>
        <g id="LyricsFromUser">
        </g>
        <g transform="matrix(0.6,0,0,0.6,-31,109)">
            <g id="LyricsFromNet">
                <g id="Link1" serif:id="Link">
                </g>
            </g>
        </g>
        <g id="LyricsFromFile" transform="matrix(1,0,0,1,50,0)">
            <g transform="matrix(0.9,0,0,0.9,-199,151.5)">
                <path d="M252.584,18.685C250.211,17.069 248.889,14.761 248.889,12.362C248.889,7.79 253.789,3.889 260,3.889C266.211,3.889 271.111,7.79 271.111,12.362C271.111,16.935 266.211,20.836 260,20.836C259.742,20.836 259.483,20.829 259.226,20.815L253.602,25.829C253.255,26.139 252.752,26.199 252.342,25.982C251.931,25.764 251.7,25.314 251.761,24.853L252.584,18.685ZM254.36,22.176L258.096,18.845C258.324,18.642 258.627,18.541 258.931,18.567C259.286,18.598 259.643,18.613 260,18.613C262.984,18.613 265.642,17.572 267.282,15.925C268.279,14.924 268.889,13.698 268.889,12.362C268.889,11.027 268.279,9.801 267.282,8.799C265.642,7.152 262.984,6.111 260,6.111C257.016,6.111 254.358,7.152 252.718,8.799C251.721,9.801 251.111,11.027 251.111,12.362C251.111,14.248 252.335,15.994 254.34,17.167C254.727,17.394 254.94,17.83 254.88,18.273L254.36,22.176Z"/>
            </g>
            <g transform="matrix(1.16667,0,0,1.11111,-64.6667,-18.0556)">
                <path d="M88,158.586C88,158.262 87.75,158 87.442,158C86.723,158 85.519,158 85.127,158C85.046,158 84.967,158.033 84.908,158.092C84.474,158.526 82.631,160.369 82.128,160.872C82.046,160.954 82,161.067 82,161.185C82,161.974 82,165.08 82,166.401C82,166.732 82.255,167 82.571,167C83.714,167 86.274,167 87.423,167C87.742,167 88,166.729 88,166.394C88,164.748 88,160.208 88,158.586ZM87,159L85.307,159C85.138,159 85,159.145 85,159.323C85,159.668 85,160.218 85,160.593C85,160.701 84.959,160.804 84.886,160.881C84.814,160.957 84.715,161 84.612,161C84.252,161 83.719,161 83.366,161C83.269,161 83.176,161.041 83.107,161.113C83.039,161.185 83,161.283 83,161.385C83,162.556 83,166 83,166L87,166L87,159Z"/>
            </g>
        </g>
        <g id="LyricsEmpty">
        </g>
    </g>
</svg>
