<?xml version="1.0" encoding="UTF-8" standalone="no"?>
<!DOCTYPE svg PUBLIC "-//W3C//DTD SVG 1.1//EN" "http://www.w3.org/Graphics/SVG/1.1/DTD/svg11.dtd">
<svg width="100%" height="100%" viewBox="0 0 20 20" version="1.1" xmlns="http://www.w3.org/2000/svg" xmlns:xlink="http://www.w3.org/1999/xlink" xml:space="preserve" xmlns:serif="http://www.serif.com/" style="fill-rule:evenodd;clip-rule:evenodd;stroke-linejoin:round;stroke-miterlimit:2;">
    <g transform="matrix(1,0,0,1,-150,-80)">
        <g id="Menu">
            <g transform="matrix(1.66667,0,0,1,101.667,16)">
                <path d="M41,66C41,64.896 40.462,64 39.8,64L30.2,64C29.538,64 29,64.896 29,66C29,67.104 29.538,68 30.2,68L39.8,68C40.462,68 41,67.104 41,66Z"/>
            </g>
            <g transform="matrix(1.66667,0,0,1,101.667,24)">
                <path d="M41,66C41,64.896 40.462,64 39.8,64L30.2,64C29.538,64 29,64.896 29,66C29,67.104 29.538,68 30.2,68L39.8,68C40.462,68 41,67.104 41,66Z"/>
            </g>
            <g transform="matrix(1.66667,0,0,1,101.667,32)">
                <path d="M41,66C41,64.896 40.462,64 39.8,64L30.2,64C29.538,64 29,64.896 29,66C29,67.104 29.538,68 30.2,68L39.8,68C40.462,68 41,67.104 41,66Z"/>
            </g>
        </g>
        <g id="Switch2Video">
        </g>
        <g id="Switch2Audio">
        </g>
        <g id="Artist" transform="matrix(1.2,0,0,1.2,-22.6,-16)">
            <g id="Member-Right" serif:id="Member Right">
            </g>
            <g id="Member-Left" serif:id="Member Left">
            </g>
            <g id="Lead-Member" serif:id="Lead Member">
            </g>
        </g>
        <g id="Album">
        </g>
        <g id="Song">
        </g>
        <g id="Video">
        </g>
        <g id="Remove">
        </g>
        <g id="Insert">
        </g>
        <g id="Append">
        </g>
        <g id="Next">
        </g>
        <g id="Pause">
        </g>
        <g id="Play">
        </g>
        <g id="Insert-Template" serif:id="Insert Template">
        </g>
        <g id="Play-Template" serif:id="Play Template">
        </g>
    </g>
</svg>
