<?xml version="1.0" encoding="UTF-8" standalone="no"?>
<!DOCTYPE svg PUBLIC "-//W3C//DTD SVG 1.1//EN" "http://www.w3.org/Graphics/SVG/1.1/DTD/svg11.dtd">
<svg width="100%" height="100%" viewBox="0 0 20 20" version="1.1" xmlns="http://www.w3.org/2000/svg" xmlns:xlink="http://www.w3.org/1999/xlink" xml:space="preserve" xmlns:serif="http://www.serif.com/" style="fill-rule:evenodd;clip-rule:evenodd;stroke-linejoin:round;stroke-miterlimit:2;">
    <g transform="matrix(1,0,0,1,-250,-80)">
        <g transform="matrix(1.10876,0,0,1.26098,-91.0415,-15.3672)">
            <g id="Save">
            </g>
        </g>
        <g id="StatusGood">
        </g>
        <g id="StatusBad">
        </g>
        <g id="StatusPaused">
        </g>
        <g id="StatusPlaying">
        </g>
        <g id="StatusUnknown">
        </g>
        <g transform="matrix(1.10876,0,0,1.26098,-66.3229,-15.3672)">
            <g id="Load">
            </g>
        </g>
        <g id="vThis">
        </g>
        <g id="vBegin">
        </g>
        <g id="vMin">
        </g>
        <g transform="matrix(1.1523,0,0,1.31051,-21.9614,-46.8621)">
            <g id="vMax">
            </g>
        </g>
        <g id="vEnd">
        </g>
        <g id="Reconnect">
        </g>
        <g id="Menu">
        </g>
        <g id="DropDown">
        </g>
        <g id="EnterFullscreen">
        </g>
        <g id="LeaveFullscreen">
        </g>
        <g id="Switch2Video">
        </g>
        <g id="Switch2Audio">
        </g>
        <g id="Artist" transform="matrix(1.2,0,0,1.2,-22.6,-16)">
            <g id="Member-Right" serif:id="Member Right">
            </g>
            <g id="Member-Left" serif:id="Member Left">
            </g>
            <g id="Lead-Member" serif:id="Lead Member">
            </g>
        </g>
        <g id="Album">
        </g>
        <g id="Song">
        </g>
        <g id="Video">
        </g>
        <g id="Approve">
        </g>
        <g id="Remove">
        </g>
        <g id="Insert">
        </g>
        <g id="Append">
        </g>
        <g id="Append1" serif:id="Append">
        </g>
        <g id="Next">
        </g>
        <g id="Pause">
        </g>
        <g id="Play">
        </g>
        <g id="Disable">
        </g>
        <g id="Hate">
        </g>
        <g id="LiveRecording" transform="matrix(1.2,0,0,1.2,102.4,-65.9962)">
            <g id="Member-Right1" serif:id="Member Right">
            </g>
            <g id="Member-Left1" serif:id="Member Left">
            </g>
            <g id="Lead-Member1" serif:id="Lead Member">
            </g>
        </g>
        <g id="LyricsVideo">
        </g>
        <g id="BadAudio">
        </g>
        <g id="Like">
        </g>
        <g id="Dislike">
        </g>
        <g id="Favorite">
        </g>
        <g id="Tags">
        </g>
        <g id="TimeFrame">
        </g>
        <g id="Artwork">
        </g>
        <g id="Link">
        </g>
        <g id="MusicDB">
            <path d="M258.006,82.156C258.002,82.104 258,82.052 258,82C258,80.896 258.896,80 260,80C261.104,80 262,80.896 262,82C262,82.042 261.999,82.084 261.996,82.125L266.506,85.111C266.775,84.976 267.079,84.9 267.4,84.9C268.504,84.9 269.4,85.796 269.4,86.9C269.4,87.739 268.883,88.457 268.15,88.754L268.15,91.446C268.883,91.743 269.4,92.461 269.4,93.3C269.4,94.404 268.504,95.3 267.4,95.3C267.012,95.3 266.649,95.189 266.342,94.997L261.959,97.9C261.96,97.933 261.961,97.966 261.961,98C261.961,99.104 261.065,100 259.961,100C258.858,100 257.961,99.104 257.961,98C257.961,97.939 257.964,97.879 257.969,97.82L253.683,94.981C253.371,95.183 252.999,95.3 252.6,95.3C251.496,95.3 250.6,94.404 250.6,93.3C250.6,92.461 251.117,91.743 251.85,91.446L251.85,88.754C251.117,88.457 250.6,87.739 250.6,86.9C250.6,85.796 251.496,84.9 252.6,84.9C252.932,84.9 253.246,84.981 253.522,85.125L258.006,82.156ZM260.938,89.745C260.649,89.907 260.316,90 259.961,90C259.647,90 259.349,89.927 259.085,89.798L254.578,92.999C254.592,93.097 254.6,93.198 254.6,93.3C254.6,93.457 254.582,93.609 254.548,93.755L258.662,96.48C259.012,96.181 259.466,96 259.961,96C260.483,96 260.958,96.2 261.314,96.528L265.459,93.783C265.42,93.628 265.4,93.467 265.4,93.3C265.4,93.176 265.411,93.055 265.433,92.938L260.938,89.745ZM254.305,87.945C254.083,88.307 253.748,88.593 253.35,88.754L253.35,91.446C253.515,91.512 253.668,91.6 253.808,91.706L258.078,88.673C258.055,88.61 258.035,88.545 258.019,88.479L254.305,87.945ZM265.695,87.945L261.901,88.49C261.894,88.518 261.886,88.545 261.878,88.573L266.24,91.671C266.366,91.581 266.504,91.505 266.65,91.446L266.65,88.754C266.252,88.593 265.917,88.307 265.695,87.945ZM261.337,83.487C261.165,83.641 260.967,83.766 260.75,83.854L260.75,86.162C261.149,86.333 261.481,86.631 261.696,87.004L265.447,86.465C265.464,86.392 265.484,86.32 265.508,86.25L261.337,83.487ZM258.684,83.506L254.501,86.276C254.521,86.338 254.538,86.401 254.553,86.465L258.233,86.994C258.462,86.602 258.821,86.294 259.25,86.13L259.25,83.854C259.042,83.77 258.851,83.651 258.684,83.506Z"/>
        </g>
    </g>
</svg>
