<?xml version="1.0" encoding="UTF-8" standalone="no"?>
<!DOCTYPE svg PUBLIC "-//W3C//DTD SVG 1.1//EN" "http://www.w3.org/Graphics/SVG/1.1/DTD/svg11.dtd">
<svg width="100%" height="100%" viewBox="0 0 20 20" version="1.1" xmlns="http://www.w3.org/2000/svg" xmlns:xlink="http://www.w3.org/1999/xlink" xml:space="preserve" xmlns:serif="http://www.serif.com/" style="fill-rule:evenodd;clip-rule:evenodd;stroke-linejoin:round;stroke-miterlimit:2;">
    <g transform="matrix(1,0,0,1,-75,-5)">
        <g id="Menu">
        </g>
        <g id="Switch2Video">
        </g>
        <g id="Switch2Audio">
        </g>
        <g id="Artist" transform="matrix(1.2,0,0,1.2,-22.6,-16)">
            <g id="Member-Right" serif:id="Member Right">
            </g>
            <g id="Member-Left" serif:id="Member Left">
            </g>
            <g id="Lead-Member" serif:id="Lead Member">
            </g>
        </g>
        <g id="Album">
        </g>
        <g id="Song">
        </g>
        <g id="Video">
        </g>
        <g id="Remove">
        </g>
        <g id="Insert">
        </g>
        <g id="Append">
        </g>
        <g id="Next">
        </g>
        <g id="Pause">
            <path d="M85,5C90.519,5 95,9.481 95,15C95,20.519 90.519,25 85,25C79.481,25 75,20.519 75,15C75,9.481 79.481,5 85,5ZM88,9.5C87.172,9.5 86.5,10.172 86.5,11L86.5,19C86.5,19.828 87.172,20.5 88,20.5C88.828,20.5 89.5,19.828 89.5,19L89.5,11C89.5,10.172 88.828,9.5 88,9.5ZM82,9.5C81.172,9.5 80.5,10.172 80.5,11L80.5,19C80.5,19.828 81.172,20.5 82,20.5C82.828,20.5 83.5,19.828 83.5,19L83.5,11C83.5,10.172 82.828,9.5 82,9.5Z"/>
        </g>
        <g id="Play">
        </g>
        <g id="Insert-Template" serif:id="Insert Template">
        </g>
        <g id="Play-Template" serif:id="Play Template">
        </g>
    </g>
</svg>
