<?xml version="1.0" encoding="UTF-8" standalone="no"?>
<!DOCTYPE svg PUBLIC "-//W3C//DTD SVG 1.1//EN" "http://www.w3.org/Graphics/SVG/1.1/DTD/svg11.dtd">
<svg width="100%" height="100%" viewBox="0 0 20 20" version="1.1" xmlns="http://www.w3.org/2000/svg" xmlns:xlink="http://www.w3.org/1999/xlink" xml:space="preserve" xmlns:serif="http://www.serif.com/" style="fill-rule:evenodd;clip-rule:evenodd;stroke-linejoin:round;stroke-miterlimit:2;">
    <g transform="matrix(1,0,0,1,-50,-5)">
        <g id="Menu">
        </g>
        <g id="Switch2Video">
        </g>
        <g id="Switch2Audio">
        </g>
        <g id="Artist" transform="matrix(1.2,0,0,1.2,-22.6,-16)">
            <g id="Member-Right" serif:id="Member Right">
            </g>
            <g id="Member-Left" serif:id="Member Left">
            </g>
            <g id="Lead-Member" serif:id="Lead Member">
            </g>
        </g>
        <g id="Album">
        </g>
        <g id="Song">
        </g>
        <g id="Video">
        </g>
        <g id="Remove">
        </g>
        <g id="Insert">
        </g>
        <g id="Append">
        </g>
        <g id="Next">
        </g>
        <g id="Pause">
        </g>
        <g id="Play">
            <path d="M60,5C65.519,5 70,9.481 70,15C70,20.519 65.519,25 60,25C54.481,25 50,20.519 50,15C50,9.481 54.481,5 60,5ZM64.906,13.861C65.273,14.118 65.491,14.537 65.491,14.983C65.491,15.43 65.273,15.849 64.906,16.106C63.265,17.255 60.695,19.053 58.831,20.358C58.38,20.674 57.792,20.712 57.303,20.458C56.815,20.204 56.509,19.7 56.509,19.149C56.509,16.745 56.509,13.31 56.509,10.886C56.509,10.323 56.823,9.806 57.323,9.546C57.823,9.286 58.426,9.325 58.888,9.648C60.747,10.95 63.281,12.724 64.906,13.861Z"/>
        </g>
        <g id="Insert-Template" serif:id="Insert Template">
        </g>
        <g id="Play-Template" serif:id="Play Template">
        </g>
    </g>
</svg>
