<?xml version="1.0" encoding="UTF-8" standalone="no"?>
<!DOCTYPE svg PUBLIC "-//W3C//DTD SVG 1.1//EN" "http://www.w3.org/Graphics/SVG/1.1/DTD/svg11.dtd">
<svg width="100%" height="100%" viewBox="0 0 20 20" version="1.1" xmlns="http://www.w3.org/2000/svg" xmlns:xlink="http://www.w3.org/1999/xlink" xml:space="preserve" xmlns:serif="http://www.serif.com/" style="fill-rule:evenodd;clip-rule:evenodd;stroke-linecap:round;stroke-linejoin:round;stroke-miterlimit:1.5;">
    <g transform="matrix(1,0,0,1,-275,-30)">
        <g transform="matrix(1.10876,0,0,1.26098,-91.0415,-15.3672)">
            <g id="Save">
            </g>
        </g>
        <g id="StatusGood">
        </g>
        <g id="StatusBad">
        </g>
        <g id="StatusPaused">
        </g>
        <g id="StatusPlaying">
        </g>
        <g id="StatusUnknown">
        </g>
        <g transform="matrix(1.10876,0,0,1.26098,-66.3229,-15.3672)">
            <g id="Load">
            </g>
        </g>
        <g id="vThis">
        </g>
        <g id="vBegin">
        </g>
        <g id="vMin">
        </g>
        <g transform="matrix(1.1523,0,0,1.31051,-21.9614,-46.8621)">
            <g id="vMax">
            </g>
        </g>
        <g id="vEnd">
        </g>
        <g id="Reconnect">
        </g>
        <g id="Menu">
        </g>
        <g id="DropDown">
        </g>
        <g id="EnterFullscreen">
        </g>
        <g id="LeaveFullscreen">
        </g>
        <g id="Switch2Video">
        </g>
        <g id="Switch2Audio">
        </g>
        <g id="Artist" transform="matrix(1.2,0,0,1.2,-22.6,-16)">
            <g id="Member-Right" serif:id="Member Right">
            </g>
            <g id="Member-Left" serif:id="Member Left">
            </g>
            <g id="Lead-Member" serif:id="Lead Member">
            </g>
        </g>
        <g id="Album">
        </g>
        <g id="Song">
        </g>
        <g id="Video">
        </g>
        <g id="Approve">
        </g>
        <g id="Remove">
        </g>
        <g id="Insert">
        </g>
        <g id="Append">
        </g>
        <g id="Append1" serif:id="Append">
        </g>
        <g id="Next">
        </g>
        <g id="Pause">
        </g>
        <g id="Play">
        </g>
        <g id="Disable">
        </g>
        <g id="Hate">
        </g>
        <g id="LiveRecording" transform="matrix(1.2,0,0,1.2,102.4,-65.9962)">
            <g id="Member-Right1" serif:id="Member Right">
            </g>
            <g id="Member-Left1" serif:id="Member Left">
            </g>
            <g id="Lead-Member1" serif:id="Lead Member">
            </g>
        </g>
        <g id="LyricsVideo">
        </g>
        <g id="BadAudio">
        </g>
        <g id="Like">
        </g>
        <g id="Dislike">
        </g>
        <g id="Favorite">
        </g>
        <g id="Tags">
        </g>
        <g id="TimeFrame">
        </g>
        <g id="Artwork">
        </g>
        <g id="Link">
        </g>
        <g id="MusicDB">
        </g>
        <g id="Ralation">
            <g transform="matrix(0.356828,0,-4.39825e-33,0.356828,270.914,23.3198)">
                <path d="M54.5,69.495L54.5,60C54.5,59.983 54.5,59.966 54.501,59.949C54.474,59.285 54.894,58.66 55.56,58.455L64.973,55.566C65.765,55.323 66.604,55.768 66.847,56.56L67.434,58.472C67.484,58.635 67.505,58.801 67.5,58.963C67.5,58.975 67.5,58.988 67.5,59L67.5,69C67.5,69.134 67.482,69.264 67.45,69.387C67.468,70.521 66.486,71.749 64.979,72.343C63.182,73.051 61.314,72.589 60.811,71.313C60.308,70.036 61.359,68.425 63.156,67.717C63.607,67.539 64.063,67.435 64.5,67.399L64.5,60.941L57.5,63.09L57.5,71.5C57.5,71.737 57.445,71.962 57.346,72.162C57.058,73.078 56.187,73.962 54.979,74.438C53.182,75.147 51.314,74.685 50.811,73.409C50.308,72.132 51.359,70.521 53.156,69.813C53.607,69.635 54.063,69.531 54.5,69.495Z"/>
            </g>
            <g transform="matrix(0.356828,0,-4.39825e-33,0.356828,263.914,23.3198)">
                <path d="M54.5,69.495L54.5,60C54.5,59.983 54.5,59.966 54.501,59.949C54.474,59.285 54.894,58.66 55.56,58.455L64.973,55.566C65.765,55.323 66.604,55.768 66.847,56.56L67.434,58.472C67.484,58.635 67.505,58.801 67.5,58.963C67.5,58.975 67.5,58.988 67.5,59L67.5,69C67.5,69.134 67.482,69.264 67.45,69.387C67.468,70.521 66.486,71.749 64.979,72.343C63.182,73.051 61.314,72.589 60.811,71.313C60.308,70.036 61.359,68.425 63.156,67.717C63.607,67.539 64.063,67.435 64.5,67.399L64.5,60.941L57.5,63.09L57.5,71.5C57.5,71.737 57.445,71.962 57.346,72.162C57.058,73.078 56.187,73.962 54.979,74.438C53.182,75.147 51.314,74.685 50.811,73.409C50.308,72.132 51.359,70.521 53.156,69.813C53.607,69.635 54.063,69.531 54.5,69.495Z"/>
            </g>
            <g transform="matrix(0.356828,0,-4.39825e-33,0.363325,256.914,22.834)">
                <path d="M54.5,69.495L54.5,60C54.5,59.983 54.5,59.966 54.501,59.949C54.474,59.285 54.894,58.66 55.56,58.455L64.973,55.566C65.765,55.323 66.604,55.768 66.847,56.56L67.434,58.472C67.484,58.635 67.505,58.801 67.5,58.963C67.5,58.975 67.5,58.988 67.5,59L67.5,69C67.5,69.134 67.482,69.264 67.45,69.387C67.468,70.521 66.486,71.749 64.979,72.343C63.182,73.051 61.314,72.589 60.811,71.313C60.308,70.036 61.359,68.425 63.156,67.717C63.607,67.539 64.063,67.435 64.5,67.399L64.5,60.941L57.5,63.09L57.5,71.5C57.5,71.737 57.445,71.962 57.346,72.162C57.058,73.078 56.187,73.962 54.979,74.438C53.182,75.147 51.314,74.685 50.811,73.409C50.308,72.132 51.359,70.521 53.156,69.813C53.607,69.635 54.063,69.531 54.5,69.495Z"/>
            </g>
            <g transform="matrix(0.356828,0,-4.39825e-33,0.356828,263.914,10.1962)">
                <path d="M54.5,69.495L54.5,60C54.5,59.983 54.5,59.966 54.501,59.949C54.474,59.285 54.894,58.66 55.56,58.455L64.973,55.566C65.765,55.323 66.604,55.768 66.847,56.56L67.434,58.472C67.484,58.635 67.505,58.801 67.5,58.963C67.5,58.975 67.5,58.988 67.5,59L67.5,69C67.5,69.134 67.482,69.264 67.45,69.387C67.468,70.521 66.486,71.749 64.979,72.343C63.182,73.051 61.314,72.589 60.811,71.313C60.308,70.036 61.359,68.425 63.156,67.717C63.607,67.539 64.063,67.435 64.5,67.399L64.5,60.941L57.5,63.09L57.5,71.5C57.5,71.737 57.445,71.962 57.346,72.162C57.058,73.078 56.187,73.962 54.979,74.438C53.182,75.147 51.314,74.685 50.811,73.409C50.308,72.132 51.359,70.521 53.156,69.813C53.607,69.635 54.063,69.531 54.5,69.495Z"/>
            </g>
            <path d="M285,38L285,42" style="fill:none;stroke:#000;stroke-width:2px;"/>
            <path d="M279,42L279,40L292,40L292,42" style="fill:none;stroke:#000;stroke-width:2px;"/>
        </g>
    </g>
</svg>
