<?xml version="1.0" encoding="UTF-8" standalone="no"?>
<!DOCTYPE svg PUBLIC "-//W3C//DTD SVG 1.1//EN" "http://www.w3.org/Graphics/SVG/1.1/DTD/svg11.dtd">
<svg width="100%" height="100%" viewBox="0 0 20 20" version="1.1" xmlns="http://www.w3.org/2000/svg" xmlns:xlink="http://www.w3.org/1999/xlink" xml:space="preserve" xmlns:serif="http://www.serif.com/" style="fill-rule:evenodd;clip-rule:evenodd;stroke-linejoin:round;stroke-miterlimit:2;">
    <g transform="matrix(1,0,0,1,-350,-105)">
        <g id="ArtworkFile">
        </g>
        <g id="VideoFile">
        </g>
        <g id="AlbumFile">
        </g>
        <g id="SongFile">
        </g>
        <g id="File">
        </g>
        <g id="AlbumFolder">
        </g>
        <g id="Folder">
        </g>
        <g id="Save">
        </g>
        <g id="Repair" transform="matrix(1,0,0,1,0,10.9098)">
            <g transform="matrix(1,0,0,1,0,-10.9098)">
                <path d="M351.85,115.878C352.891,116.586 354.148,117 355.5,117C355.673,117 355.843,116.993 356.013,116.98L354.578,117.999C354.592,118.097 354.6,118.198 354.6,118.3C354.6,118.457 354.582,118.609 354.548,118.755L358.662,121.48C359.012,121.181 359.466,121 359.961,121C360.483,121 360.958,121.2 361.314,121.528L362.117,120.996L363.2,122.078L361.959,122.9C361.96,122.933 361.961,122.966 361.961,123C361.961,124.104 361.065,125 359.961,125C358.858,125 357.961,124.104 357.961,123C357.961,122.939 357.964,122.879 357.969,122.82L353.683,119.981C353.371,120.183 352.999,120.3 352.6,120.3C351.496,120.3 350.6,119.404 350.6,118.3C350.6,117.461 351.117,116.743 351.85,116.446L351.85,115.878ZM359.153,105.188C359.41,105.067 359.697,105 360,105C361.104,105 362,105.896 362,107C362,107.042 361.999,107.084 361.996,107.125L366.506,110.111C366.775,109.976 367.079,109.9 367.4,109.9C368.504,109.9 369.4,110.796 369.4,111.9C369.4,112.739 368.883,113.457 368.15,113.754L368.15,116.446C368.883,116.743 369.4,117.461 369.4,118.3C369.4,118.908 369.128,119.453 368.699,119.82C367.573,118.694 365.543,116.663 363.87,114.988L366.24,116.671C366.366,116.581 366.504,116.505 366.65,116.446L366.65,113.754C366.252,113.593 365.917,113.307 365.695,112.945L362.316,113.431C362.039,113.153 361.799,112.912 361.609,112.721C361.697,112.482 361.77,112.236 361.829,111.985L365.447,111.465C365.464,111.392 365.484,111.32 365.508,111.25L361.768,108.773C361.402,107.444 360.626,106.283 359.586,105.436C359.579,105.43 359.572,105.424 359.565,105.419C359.436,105.32 359.297,105.243 359.153,105.188ZM356.255,108.315C356.33,108.463 356.43,108.601 356.553,108.725L357.27,109.442L354.501,111.276C354.521,111.338 354.538,111.401 354.553,111.465L357.01,111.818L356.328,112.5C356.328,112.5 354.672,112.5 354.672,112.5L353.725,111.553C353.092,110.92 352.065,110.92 351.432,111.553C351.432,111.553 351.432,111.553 351.432,111.553C351.19,111.795 350.892,112.093 350.649,112.343C350.617,112.2 350.6,112.052 350.6,111.9C350.6,110.796 351.496,109.9 352.6,109.9C352.932,109.9 353.246,109.981 353.522,110.125L356.255,108.315Z"/>
            </g>
            <g transform="matrix(1,0,0,1,-7.10543e-15,-10.9098)">
                <path d="M358.408,115.873C358.143,115.608 357.746,115.523 357.396,115.657C356.807,115.881 356.167,116 355.5,116C353.77,116 352.226,115.2 351.217,113.949C351.029,113.705 351.051,113.358 351.27,113.14C351.522,112.877 351.867,112.532 352.139,112.261C352.382,112.018 352.775,112.018 353.018,112.261C353.515,112.758 354.257,113.5 354.257,113.5L356.743,113.5L358.5,111.743L358.5,109.257C358.5,109.257 357.758,108.515 357.261,108.018C357.018,107.775 357.018,107.382 357.261,107.139C357.532,106.867 357.877,106.522 358.135,106.265C358.356,106.043 358.707,106.02 358.954,106.211C360.2,107.226 361,108.77 361,110.5C361,111.167 360.881,111.807 360.663,112.398C360.53,112.746 360.614,113.14 360.877,113.403C362.621,115.156 368.85,121.385 368.85,121.385C369.013,121.548 369.104,121.769 369.104,122C369.104,122.231 369.013,122.452 368.85,122.615C368.473,122.992 367.992,123.473 367.615,123.85C367.452,124.013 367.231,124.104 367,124.104C366.769,124.104 366.548,124.013 366.385,123.85C366.385,123.85 360.156,117.621 358.408,115.873Z"/>
            </g>
        </g>
        <g id="Repair2">
        </g>
        <g id="Import">
        </g>
        <g id="Import--Alternativ-" serif:id="Import (Alternativ)">
        </g>
        <g id="Integrate">
        </g>
        <g id="TaskList">
        </g>
        <g id="StatusGood">
        </g>
        <g id="StatusBad">
        </g>
        <g id="StatusPaused">
        </g>
        <g id="StatusPlaying">
        </g>
        <g id="StatusUnknown">
        </g>
        <g id="StatusInfo">
        </g>
        <g id="StatusWarning">
        </g>
        <g id="StatusOpen">
        </g>
        <g id="StatusActive">
        </g>
        <g id="Load">
        </g>
        <g id="vThis">
        </g>
        <g id="vBegin">
        </g>
        <g id="vMin">
        </g>
        <g id="vMax">
        </g>
        <g id="vEnd">
        </g>
        <g id="Reconnect">
        </g>
        <g id="NextView">
        </g>
        <g id="Back">
        </g>
        <g id="Menu">
        </g>
        <g id="DropDown">
        </g>
        <g id="EnterFullscreen">
        </g>
        <g id="LeaveFullscreen">
        </g>
        <g id="Switch2Video">
        </g>
        <g id="Switch2Audio">
        </g>
        <g id="Artist">
        </g>
        <g id="Album">
        </g>
        <g id="Song">
        </g>
        <g id="Video">
        </g>
        <g id="Approve">
        </g>
        <g id="Remove">
        </g>
        <g id="Insert">
        </g>
        <g id="Append">
        </g>
        <g id="Append1" serif:id="Append">
        </g>
        <g id="Next">
        </g>
        <g id="Pause">
        </g>
        <g id="Play">
        </g>
        <g id="Disable">
        </g>
        <g id="Hate">
        </g>
        <g id="LiveRecording">
        </g>
        <g id="LyricsVideo">
        </g>
        <g id="BadAudio">
        </g>
        <g id="Like">
        </g>
        <g id="Dislike">
        </g>
        <g id="Favorite">
        </g>
        <g id="Tags">
        </g>
        <g id="TimeFrame">
        </g>
        <g id="Artwork">
        </g>
        <g id="Link">
        </g>
        <g id="MusicDB">
        </g>
        <g id="Ralation">
        </g>
        <g id="ToMainView">
        </g>
        <g id="MoveLeft">
        </g>
        <g id="MoveRight">
        </g>
        <g id="MoveToTopRow">
        </g>
        <g id="MoveToBottomRow">
        </g>
        <g id="Search">
        </g>
        <g id="CutRelation">
        </g>
        <g id="LyricsTemplate">
        </g>
        <g id="LyricsNone">
        </g>
        <g id="LyricsFromUser">
        </g>
        <g id="LyricsFromNet">
        </g>
        <g id="LyricsFromFile">
        </g>
        <g id="LyricsEmpty">
        </g>
        <g id="Edit">
        </g>
        <g id="FMTComment">
        </g>
        <g id="FMTBackground">
        </g>
        <g id="FMTRefrein">
        </g>
        <g id="Checked">
        </g>
        <g id="Unchecked">
        </g>
        <g id="Settings">
        </g>
        <g id="Hide">
        </g>
        <g id="Disconnect">
        </g>
    </g>
</svg>
