<?xml version="1.0" encoding="UTF-8" standalone="no"?>
<!DOCTYPE svg PUBLIC "-//W3C//DTD SVG 1.1//EN" "http://www.w3.org/Graphics/SVG/1.1/DTD/svg11.dtd">
<svg width="100%" height="100%" viewBox="0 0 20 20" version="1.1" xmlns="http://www.w3.org/2000/svg" xmlns:xlink="http://www.w3.org/1999/xlink" xml:space="preserve" xmlns:serif="http://www.serif.com/" style="fill-rule:evenodd;clip-rule:evenodd;stroke-linejoin:round;stroke-miterlimit:2;">
    <g transform="matrix(1,0,0,1,-275,-130)">
        <g transform="matrix(1.10876,0,0,1.26098,-91.0415,-15.3672)">
            <g id="Save">
            </g>
        </g>
        <g id="StatusGood">
        </g>
        <g id="StatusBad">
        </g>
        <g id="StatusPaused">
        </g>
        <g id="StatusPlaying">
        </g>
        <g id="StatusUnknown">
        </g>
        <g transform="matrix(1.10876,0,0,1.26098,-66.3229,-15.3672)">
            <g id="Load">
            </g>
        </g>
        <g id="vThis">
        </g>
        <g id="vBegin">
        </g>
        <g id="vMin">
        </g>
        <g transform="matrix(1.1523,0,0,1.31051,-21.9614,-46.8621)">
            <g id="vMax">
            </g>
        </g>
        <g id="vEnd">
        </g>
        <g id="Reconnect">
        </g>
        <g id="Back">
        </g>
        <g id="Menu">
        </g>
        <g id="DropDown">
        </g>
        <g id="EnterFullscreen">
        </g>
        <g id="LeaveFullscreen">
        </g>
        <g id="Switch2Video">
        </g>
        <g id="Switch2Audio">
        </g>
        <g id="Artist" transform="matrix(1.2,0,0,1.2,-22.6,-16)">
            <g id="Member-Right" serif:id="Member Right">
            </g>
            <g id="Member-Left" serif:id="Member Left">
            </g>
            <g id="Lead-Member" serif:id="Lead Member">
            </g>
        </g>
        <g id="Album">
        </g>
        <g id="Song">
        </g>
        <g id="Video">
        </g>
        <g id="Approve">
        </g>
        <g id="Remove">
        </g>
        <g id="Insert">
        </g>
        <g id="Append">
        </g>
        <g id="Append1" serif:id="Append">
        </g>
        <g id="Next">
        </g>
        <g id="Pause">
        </g>
        <g id="Play">
        </g>
        <g id="Disable">
        </g>
        <g id="Hate">
        </g>
        <g id="LiveRecording" transform="matrix(1.2,0,0,1.2,102.4,-65.9962)">
            <g id="Member-Right1" serif:id="Member Right">
            </g>
            <g id="Member-Left1" serif:id="Member Left">
            </g>
            <g id="Lead-Member1" serif:id="Lead Member">
            </g>
        </g>
        <g id="LyricsVideo">
        </g>
        <g id="BadAudio">
        </g>
        <g id="Like">
        </g>
        <g id="Dislike">
        </g>
        <g id="Favorite">
        </g>
        <g id="Tags">
        </g>
        <g id="TimeFrame">
        </g>
        <g id="Artwork">
        </g>
        <g id="Link">
        </g>
        <g id="MusicDB">
        </g>
        <g id="Ralation">
        </g>
        <g id="ToMainView">
        </g>
        <g id="Search">
        </g>
        <g id="CutRelation">
        </g>
        <g id="LyricsTemplate">
        </g>
        <g id="LyricsNone">
        </g>
        <g id="LyricsFromUser">
        </g>
        <g transform="matrix(0.6,0,0,0.6,-31,109)">
            <g id="LyricsFromNet">
                <g id="Link1" serif:id="Link">
                </g>
            </g>
        </g>
        <g id="LyricsFromFile">
        </g>
        <g id="LyricsEmpty">
        </g>
        <g id="Edit">
        </g>
        <g id="FMTComment">
        </g>
        <g id="FMTBackground">
        </g>
        <g id="FMTRefrein">
        </g>
        <g id="Checked">
        </g>
        <g id="Unchecked">
        </g>
        <g id="Settings" transform="matrix(1,0,0,1,100,0)">
            <path d="M186.119,130.539C186.107,130.26 185.887,130.036 185.609,130.017C185.203,129.994 184.797,129.994 184.391,130.019C184.114,130.037 183.895,130.261 183.882,130.539C183.864,130.919 183.841,131.446 183.825,131.804C183.814,132.035 183.648,132.229 183.421,132.274C183.111,132.337 182.804,132.419 182.504,132.519C182.285,132.593 182.045,132.509 181.92,132.314C181.727,132.012 181.443,131.568 181.238,131.247C181.088,131.012 180.786,130.927 180.536,131.05C180.173,131.233 179.821,131.436 179.482,131.66C179.251,131.815 179.173,132.119 179.301,132.365C179.476,132.704 179.719,133.171 179.885,133.49C179.991,133.695 179.943,133.946 179.77,134.098C179.532,134.308 179.308,134.532 179.098,134.77C178.946,134.943 178.695,134.99 178.49,134.884C178.171,134.719 177.704,134.476 177.366,134.301C177.118,134.172 176.814,134.25 176.659,134.481C176.436,134.821 176.233,135.173 176.051,135.536C175.929,135.786 176.013,136.088 176.247,136.237C176.568,136.443 177.012,136.727 177.315,136.92C177.509,137.044 177.594,137.285 177.52,137.504C177.419,137.804 177.337,138.111 177.273,138.421C177.228,138.648 177.035,138.814 176.804,138.824C176.446,138.841 175.919,138.864 175.539,138.881C175.26,138.893 175.036,139.113 175.017,139.391C174.994,139.797 174.994,140.203 175.019,140.609C175.037,140.886 175.261,141.105 175.539,141.118C175.919,141.136 176.446,141.159 176.804,141.175C177.035,141.186 177.229,141.352 177.274,141.579C177.337,141.889 177.419,142.196 177.519,142.496C177.593,142.715 177.509,142.955 177.314,143.08C177.012,143.273 176.568,143.557 176.247,143.762C176.012,143.912 175.927,144.214 176.05,144.464C176.233,144.827 176.436,145.179 176.66,145.518C176.815,145.749 177.119,145.827 177.365,145.699C177.704,145.524 178.171,145.281 178.49,145.115C178.695,145.009 178.946,145.057 179.098,145.23C179.308,145.468 179.532,145.692 179.77,145.902C179.943,146.054 179.99,146.305 179.884,146.51C179.719,146.829 179.476,147.296 179.301,147.634C179.172,147.882 179.25,148.186 179.481,148.341C179.821,148.564 180.173,148.767 180.536,148.949C180.786,149.071 181.088,148.987 181.237,148.753C181.443,148.432 181.727,147.988 181.92,147.685C182.044,147.491 182.285,147.406 182.504,147.48C182.804,147.581 183.111,147.663 183.421,147.727C183.648,147.772 183.814,147.965 183.824,148.196C183.841,148.554 183.864,149.081 183.881,149.461C183.893,149.74 184.113,149.964 184.391,149.983C184.797,150.006 185.203,150.006 185.609,149.981C185.886,149.963 186.105,149.739 186.118,149.461C186.136,149.081 186.159,148.554 186.175,148.196C186.186,147.965 186.352,147.771 186.579,147.726C186.889,147.663 187.196,147.581 187.496,147.481C187.715,147.407 187.955,147.491 188.08,147.686C188.273,147.988 188.557,148.432 188.762,148.753C188.912,148.988 189.214,149.073 189.464,148.95C189.827,148.767 190.179,148.564 190.518,148.34C190.749,148.185 190.827,147.881 190.699,147.635C190.524,147.296 190.281,146.829 190.115,146.51C190.009,146.305 190.057,146.054 190.23,145.902C190.468,145.692 190.692,145.468 190.902,145.23C191.054,145.057 191.305,145.01 191.51,145.116C191.829,145.281 192.296,145.524 192.634,145.699C192.882,145.828 193.186,145.75 193.341,145.519C193.564,145.179 193.767,144.827 193.949,144.464C194.071,144.214 193.987,143.912 193.753,143.763C193.432,143.557 192.988,143.273 192.685,143.08C192.491,142.956 192.406,142.715 192.48,142.496C192.581,142.196 192.663,141.889 192.727,141.579C192.772,141.352 192.965,141.186 193.196,141.176C193.554,141.159 194.081,141.136 194.461,141.119C194.74,141.107 194.964,140.887 194.983,140.609C195.006,140.203 195.006,139.797 194.981,139.391C194.963,139.114 194.739,138.895 194.461,138.882C194.081,138.864 193.554,138.841 193.196,138.825C192.965,138.814 192.771,138.648 192.726,138.421C192.663,138.111 192.581,137.804 192.481,137.504C192.407,137.285 192.491,137.045 192.686,136.92C192.988,136.727 193.432,136.443 193.753,136.238C193.988,136.088 194.073,135.786 193.95,135.536C193.767,135.173 193.564,134.821 193.34,134.482C193.185,134.251 192.881,134.173 192.635,134.301C192.296,134.476 191.829,134.719 191.51,134.885C191.305,134.991 191.054,134.943 190.902,134.77C190.692,134.532 190.468,134.308 190.23,134.098C190.057,133.946 190.01,133.695 190.116,133.49C190.281,133.171 190.524,132.704 190.699,132.366C190.828,132.118 190.75,131.814 190.519,131.659C190.179,131.436 189.827,131.233 189.464,131.051C189.214,130.929 188.912,131.013 188.763,131.247C188.557,131.568 188.273,132.012 188.08,132.315C187.956,132.509 187.715,132.594 187.496,132.52C187.196,132.419 186.889,132.337 186.579,132.273C186.352,132.228 186.186,132.035 186.176,131.804C186.159,131.446 186.136,130.919 186.119,130.539ZM185,135.967C187.226,135.967 189.033,137.774 189.033,140C189.033,142.226 187.226,144.033 185,144.033C182.774,144.033 180.967,142.226 180.967,140C180.967,137.774 182.774,135.967 185,135.967Z"/>
        </g>
    </g>
</svg>
