<?xml version="1.0" encoding="UTF-8" standalone="no"?>
<!DOCTYPE svg PUBLIC "-//W3C//DTD SVG 1.1//EN" "http://www.w3.org/Graphics/SVG/1.1/DTD/svg11.dtd">
<svg width="100%" height="100%" viewBox="0 0 20 20" version="1.1" xmlns="http://www.w3.org/2000/svg" xmlns:xlink="http://www.w3.org/1999/xlink" xml:space="preserve" xmlns:serif="http://www.serif.com/" style="fill-rule:evenodd;clip-rule:evenodd;stroke-linejoin:round;stroke-miterlimit:2;">
    <g transform="matrix(1,0,0,1,-375,-55)">
        <g id="VideoFile">
        </g>
        <g id="AlbumFile">
        </g>
        <g id="SongFile">
        </g>
        <g id="File">
        </g>
        <g transform="matrix(1.10876,0,0,1.26098,-91.0415,-15.3672)">
            <g id="Save">
            </g>
        </g>
        <g id="Import">
        </g>
        <g id="Import--Alternativ-" serif:id="Import (Alternativ)">
        </g>
        <g id="StatusGood">
        </g>
        <g id="StatusBad">
        </g>
        <g id="StatusPaused">
        </g>
        <g id="StatusPlaying">
        </g>
        <g id="StatusUnknown">
        </g>
        <g id="StatusInfo">
        </g>
        <g id="StatusWarning" transform="matrix(1,0,0,1,200,0)">
            <path id="Circle" d="M185,55C190.519,55 195,59.481 195,65C195,70.519 190.519,75 185,75C179.481,75 175,70.519 175,65C175,59.481 179.481,55 185,55ZM185,57C189.415,57 193,60.585 193,65C193,69.415 189.415,73 185,73C180.585,73 177,69.415 177,65C177,60.585 180.585,57 185,57Z"/>
            <g transform="matrix(-18,-2.20436e-15,2.20436e-15,-18,187.484,58.376)">
                <path d="M0.065,-0.459C0.065,-0.469 0.069,-0.478 0.076,-0.485C0.083,-0.492 0.092,-0.496 0.102,-0.496C0.124,-0.496 0.153,-0.496 0.175,-0.496C0.185,-0.496 0.194,-0.492 0.201,-0.485C0.208,-0.478 0.212,-0.469 0.212,-0.459C0.212,-0.368 0.212,-0.128 0.212,-0.037C0.212,-0.027 0.208,-0.018 0.201,-0.011C0.194,-0.004 0.185,-0 0.175,0C0.153,-0 0.124,-0 0.102,0C0.092,-0 0.083,-0.004 0.076,-0.011C0.069,-0.018 0.065,-0.027 0.065,-0.037C0.065,-0.128 0.065,-0.368 0.065,-0.459ZM0.138,-0.569C0.113,-0.569 0.093,-0.576 0.077,-0.591C0.061,-0.605 0.053,-0.623 0.053,-0.646C0.053,-0.669 0.061,-0.687 0.077,-0.701C0.093,-0.715 0.113,-0.722 0.138,-0.722C0.163,-0.722 0.184,-0.715 0.2,-0.701C0.215,-0.687 0.223,-0.669 0.223,-0.646C0.223,-0.623 0.215,-0.605 0.2,-0.591C0.184,-0.576 0.163,-0.569 0.138,-0.569Z" style="fill-rule:nonzero;"/>
            </g>
        </g>
        <g id="StatusOpen">
        </g>
        <g id="StatusActive">
        </g>
        <g transform="matrix(1.10876,0,0,1.26098,-66.3229,-15.3672)">
            <g id="Load">
            </g>
        </g>
        <g id="vThis">
        </g>
        <g id="vBegin">
        </g>
        <g id="vMin">
        </g>
        <g transform="matrix(1.1523,0,0,1.31051,-21.9614,-46.8621)">
            <g id="vMax">
            </g>
        </g>
        <g id="vEnd">
        </g>
        <g id="Reconnect">
        </g>
        <g id="Back">
        </g>
        <g id="Menu">
        </g>
        <g id="DropDown">
        </g>
        <g id="EnterFullscreen">
        </g>
        <g id="LeaveFullscreen">
        </g>
        <g id="Switch2Video">
        </g>
        <g id="Switch2Audio">
        </g>
        <g id="Artist" transform="matrix(1.2,0,0,1.2,-22.6,-16)">
            <g id="Member-Right" serif:id="Member Right">
            </g>
            <g id="Member-Left" serif:id="Member Left">
            </g>
            <g id="Lead-Member" serif:id="Lead Member">
            </g>
        </g>
        <g id="Album">
        </g>
        <g id="Song">
        </g>
        <g id="Video">
        </g>
        <g id="Approve">
        </g>
        <g id="Remove">
        </g>
        <g id="Insert">
        </g>
        <g id="Append">
        </g>
        <g id="Append1" serif:id="Append">
        </g>
        <g id="Next">
        </g>
        <g id="Pause">
        </g>
        <g id="Play">
        </g>
        <g id="Disable">
        </g>
        <g id="Hate">
        </g>
        <g id="LiveRecording" transform="matrix(1.2,0,0,1.2,102.4,-65.9962)">
            <g id="Member-Right1" serif:id="Member Right">
            </g>
            <g id="Member-Left1" serif:id="Member Left">
            </g>
            <g id="Lead-Member1" serif:id="Lead Member">
            </g>
        </g>
        <g id="LyricsVideo">
        </g>
        <g id="BadAudio">
        </g>
        <g id="Like">
        </g>
        <g id="Dislike">
        </g>
        <g id="Favorite">
        </g>
        <g id="Tags">
        </g>
        <g id="TimeFrame">
        </g>
        <g id="Artwork">
        </g>
        <g id="Link">
        </g>
        <g id="MusicDB">
        </g>
        <g id="Ralation">
        </g>
        <g id="ToMainView">
        </g>
        <g id="MoveLeft">
        </g>
        <g id="MoveRight">
        </g>
        <g id="MoveToTopRow">
        </g>
        <g id="MoveToBottomRow">
        </g>
        <g id="Search">
        </g>
        <g id="CutRelation">
        </g>
        <g id="LyricsTemplate">
        </g>
        <g id="LyricsNone">
        </g>
        <g id="LyricsFromUser">
        </g>
        <g transform="matrix(0.6,0,0,0.6,-31,109)">
            <g id="LyricsFromNet">
                <g id="Link1" serif:id="Link">
                </g>
            </g>
        </g>
        <g id="LyricsFromFile">
        </g>
        <g id="LyricsEmpty">
        </g>
        <g id="Edit">
        </g>
        <g id="FMTComment">
        </g>
        <g id="FMTBackground">
        </g>
        <g id="FMTRefrein">
        </g>
        <g id="Checked">
        </g>
        <g id="Unchecked">
        </g>
        <g id="Settings">
        </g>
        <g id="Hide">
        </g>
        <g id="Disconnect">
        </g>
    </g>
</svg>
