<?xml version="1.0" encoding="UTF-8" standalone="no"?>
<!DOCTYPE svg PUBLIC "-//W3C//DTD SVG 1.1//EN" "http://www.w3.org/Graphics/SVG/1.1/DTD/svg11.dtd">
<svg width="100%" height="100%" viewBox="0 0 20 20" version="1.1" xmlns="http://www.w3.org/2000/svg" xmlns:xlink="http://www.w3.org/1999/xlink" xml:space="preserve" xmlns:serif="http://www.serif.com/" style="fill-rule:evenodd;clip-rule:evenodd;stroke-linejoin:round;stroke-miterlimit:2;">
    <g transform="matrix(1,0,0,1,-350,-55)">
        <g transform="matrix(1.10876,0,0,1.26098,-91.0415,-15.3672)">
            <g id="Save">
            </g>
        </g>
        <g id="Import">
        </g>
        <g id="Import--Alternativ-" serif:id="Import (Alternativ)">
        </g>
        <g id="StatusGood">
        </g>
        <g id="StatusBad">
        </g>
        <g id="StatusPaused">
        </g>
        <g id="StatusPlaying">
        </g>
        <g id="StatusUnknown">
        </g>
        <g id="StatusInfo">
        </g>
        <g id="StatusOpen">
        </g>
        <g id="StatusActive" transform="matrix(1,0,0,1,175,0)">
            <path id="Circle" d="M185,55C190.519,55 195,59.481 195,65C195,70.519 190.519,75 185,75C179.481,75 175,70.519 175,65C175,59.481 179.481,55 185,55ZM185,57C189.415,57 193,60.585 193,65C193,69.415 189.415,73 185,73C180.585,73 177,69.415 177,65C177,60.585 180.585,57 185,57Z"/>
            <g transform="matrix(0.700001,0,0,0.699991,55.5001,-32.9986)">
                <path d="M186.128,130.751C186.111,130.346 185.786,130.022 185.381,130.005C185.127,129.998 184.873,129.998 184.619,130.007C184.215,130.024 183.892,130.347 183.874,130.751C183.859,131.038 183.844,131.367 183.832,131.639C183.817,131.963 183.587,132.236 183.27,132.306C183.062,132.353 182.855,132.408 182.651,132.472C182.342,132.57 182.006,132.448 181.832,132.175C181.684,131.946 181.507,131.668 181.352,131.426C181.135,131.084 180.692,130.966 180.333,131.153C180.109,131.274 179.889,131.401 179.674,131.537C179.332,131.753 179.214,132.195 179.4,132.553C179.531,132.809 179.683,133.101 179.808,133.343C179.957,133.631 179.894,133.983 179.655,134.202C179.498,134.347 179.347,134.498 179.202,134.655C178.983,134.894 178.631,134.956 178.344,134.807C178.101,134.683 177.809,134.531 177.554,134.398C177.195,134.211 176.752,134.33 176.534,134.672C176.401,134.889 176.274,135.109 176.155,135.334C175.968,135.692 176.086,136.134 176.427,136.351C176.668,136.507 176.946,136.684 177.175,136.831C177.448,137.006 177.57,137.342 177.472,137.651C177.408,137.855 177.353,138.062 177.306,138.27C177.236,138.586 176.963,138.816 176.639,138.831C176.367,138.844 176.038,138.859 175.751,138.872C175.346,138.889 175.022,139.214 175.005,139.619C174.998,139.873 174.998,140.127 175.007,140.381C175.024,140.785 175.347,141.108 175.751,141.126C176.038,141.141 176.367,141.156 176.639,141.168C176.963,141.183 177.236,141.413 177.306,141.73C177.353,141.938 177.408,142.145 177.472,142.349C177.57,142.658 177.448,142.994 177.175,143.168C176.946,143.316 176.668,143.493 176.426,143.648C176.084,143.865 175.966,144.308 176.153,144.667C176.274,144.891 176.401,145.111 176.537,145.326C176.753,145.668 177.195,145.786 177.553,145.6C177.809,145.469 178.101,145.317 178.343,145.192C178.631,145.043 178.983,145.106 179.202,145.345C179.347,145.502 179.498,145.653 179.655,145.798C179.894,146.017 179.956,146.369 179.807,146.656C179.683,146.899 179.531,147.191 179.398,147.446C179.211,147.805 179.33,148.248 179.672,148.466C179.889,148.599 180.109,148.726 180.334,148.845C180.692,149.032 181.134,148.914 181.351,148.573C181.507,148.332 181.684,148.054 181.831,147.825C182.006,147.552 182.342,147.43 182.651,147.528C182.855,147.592 183.062,147.647 183.27,147.694C183.586,147.764 183.816,148.037 183.831,148.361C183.844,148.633 183.859,148.962 183.872,149.249C183.889,149.654 184.214,149.978 184.619,149.995C184.873,150.002 185.127,150.002 185.381,149.993C185.785,149.976 186.108,149.653 186.126,149.249C186.141,148.962 186.156,148.633 186.168,148.361C186.183,148.037 186.413,147.764 186.73,147.694C186.938,147.647 187.145,147.592 187.349,147.528C187.658,147.43 187.994,147.552 188.168,147.825C188.316,148.054 188.493,148.332 188.648,148.574C188.865,148.916 189.308,149.034 189.667,148.847C189.891,148.726 190.111,148.599 190.326,148.463C190.668,148.247 190.786,147.805 190.6,147.447C190.469,147.191 190.317,146.899 190.192,146.657C190.043,146.369 190.106,146.017 190.345,145.798C190.502,145.653 190.653,145.502 190.798,145.345C191.017,145.106 191.369,145.044 191.656,145.193C191.899,145.317 192.191,145.469 192.446,145.602C192.805,145.789 193.248,145.67 193.466,145.328C193.599,145.111 193.726,144.891 193.845,144.666C194.032,144.308 193.914,143.866 193.573,143.649C193.332,143.493 193.054,143.316 192.825,143.169C192.552,142.994 192.43,142.658 192.528,142.349C192.592,142.145 192.647,141.938 192.694,141.73C192.764,141.414 193.037,141.184 193.361,141.169C193.633,141.156 193.962,141.141 194.249,141.128C194.654,141.111 194.978,140.786 194.995,140.381C195.002,140.127 195.002,139.873 194.993,139.619C194.976,139.215 194.653,138.892 194.249,138.874C193.962,138.859 193.633,138.844 193.361,138.832C193.037,138.817 192.764,138.587 192.694,138.27C192.647,138.062 192.592,137.855 192.528,137.651C192.43,137.342 192.552,137.006 192.825,136.832C193.054,136.684 193.332,136.507 193.574,136.352C193.916,136.135 194.034,135.692 193.847,135.333C193.726,135.109 193.599,134.889 193.463,134.674C193.247,134.332 192.805,134.214 192.447,134.4C192.191,134.531 191.899,134.683 191.657,134.808C191.369,134.957 191.017,134.894 190.798,134.655C190.653,134.498 190.502,134.347 190.345,134.202C190.106,133.983 190.044,133.631 190.193,133.344C190.317,133.101 190.469,132.809 190.602,132.554C190.789,132.195 190.67,131.752 190.328,131.534C190.111,131.401 189.891,131.274 189.666,131.155C189.308,130.968 188.866,131.086 188.649,131.427C188.493,131.668 188.316,131.946 188.169,132.175C187.994,132.448 187.658,132.57 187.349,132.472C187.145,132.408 186.938,132.353 186.73,132.306C186.414,132.236 186.184,131.963 186.169,131.639C186.156,131.367 186.141,131.038 186.128,130.751ZM185,135.967C187.226,135.967 189.033,137.774 189.033,140C189.033,142.226 187.226,144.033 185,144.033C182.774,144.033 180.967,142.226 180.967,140C180.967,137.774 182.774,135.967 185,135.967Z"/>
            </g>
        </g>
        <g transform="matrix(1.10876,0,0,1.26098,-66.3229,-15.3672)">
            <g id="Load">
            </g>
        </g>
        <g id="vThis">
        </g>
        <g id="vBegin">
        </g>
        <g id="vMin">
        </g>
        <g transform="matrix(1.1523,0,0,1.31051,-21.9614,-46.8621)">
            <g id="vMax">
            </g>
        </g>
        <g id="vEnd">
        </g>
        <g id="Reconnect">
        </g>
        <g id="Back">
        </g>
        <g id="Menu">
        </g>
        <g id="DropDown">
        </g>
        <g id="EnterFullscreen">
        </g>
        <g id="LeaveFullscreen">
        </g>
        <g id="Switch2Video">
        </g>
        <g id="Switch2Audio">
        </g>
        <g id="Artist" transform="matrix(1.2,0,0,1.2,-22.6,-16)">
            <g id="Member-Right" serif:id="Member Right">
            </g>
            <g id="Member-Left" serif:id="Member Left">
            </g>
            <g id="Lead-Member" serif:id="Lead Member">
            </g>
        </g>
        <g id="Album">
        </g>
        <g id="Song">
        </g>
        <g id="Video">
        </g>
        <g id="Approve">
        </g>
        <g id="Remove">
        </g>
        <g id="Insert">
        </g>
        <g id="Append">
        </g>
        <g id="Append1" serif:id="Append">
        </g>
        <g id="Next">
        </g>
        <g id="Pause">
        </g>
        <g id="Play">
        </g>
        <g id="Disable">
        </g>
        <g id="Hate">
        </g>
        <g id="LiveRecording" transform="matrix(1.2,0,0,1.2,102.4,-65.9962)">
            <g id="Member-Right1" serif:id="Member Right">
            </g>
            <g id="Member-Left1" serif:id="Member Left">
            </g>
            <g id="Lead-Member1" serif:id="Lead Member">
            </g>
        </g>
        <g id="LyricsVideo">
        </g>
        <g id="BadAudio">
        </g>
        <g id="Like">
        </g>
        <g id="Dislike">
        </g>
        <g id="Favorite">
        </g>
        <g id="Tags">
        </g>
        <g id="TimeFrame">
        </g>
        <g id="Artwork">
        </g>
        <g id="Link">
        </g>
        <g id="MusicDB">
        </g>
        <g id="Ralation">
        </g>
        <g id="ToMainView">
        </g>
        <g id="MoveLeft">
        </g>
        <g id="MoveRight">
        </g>
        <g id="MoveToTopRow">
        </g>
        <g id="MoveToBottomRow">
        </g>
        <g id="Search">
        </g>
        <g id="CutRelation">
        </g>
        <g id="LyricsTemplate">
        </g>
        <g id="LyricsNone">
        </g>
        <g id="LyricsFromUser">
        </g>
        <g transform="matrix(0.6,0,0,0.6,-31,109)">
            <g id="LyricsFromNet">
                <g id="Link1" serif:id="Link">
                </g>
            </g>
        </g>
        <g id="LyricsFromFile">
        </g>
        <g id="LyricsEmpty">
        </g>
        <g id="Edit">
        </g>
        <g id="FMTComment">
        </g>
        <g id="FMTBackground">
        </g>
        <g id="FMTRefrein">
        </g>
        <g id="Checked">
        </g>
        <g id="Unchecked">
        </g>
        <g id="Settings">
        </g>
        <g id="Hide">
        </g>
    </g>
</svg>
