<?xml version="1.0" encoding="UTF-8" standalone="no"?>
<!DOCTYPE svg PUBLIC "-//W3C//DTD SVG 1.1//EN" "http://www.w3.org/Graphics/SVG/1.1/DTD/svg11.dtd">
<svg width="100%" height="100%" viewBox="0 0 20 20" version="1.1" xmlns="http://www.w3.org/2000/svg" xmlns:xlink="http://www.w3.org/1999/xlink" xml:space="preserve" xmlns:serif="http://www.serif.com/" style="fill-rule:evenodd;clip-rule:evenodd;stroke-linejoin:round;stroke-miterlimit:2;">
    <g transform="matrix(1,0,0,1,-275,-55)">
        <g transform="matrix(1.10876,0,0,1.26098,-91.0415,-15.3672)">
            <g id="Save">
            </g>
        </g>
        <g id="StatusGood">
        </g>
        <g id="StatusBad">
        </g>
        <g id="StatusPaused">
        </g>
        <g id="StatusPlaying" transform="matrix(1,0,0,1,100,0)">
            <path id="Circle" d="M185,55C190.519,55 195,59.481 195,65C195,70.519 190.519,75 185,75C179.481,75 175,70.519 175,65C175,59.481 179.481,55 185,55ZM185,57C189.415,57 193,60.585 193,65C193,69.415 189.415,73 185,73C180.585,73 177,69.415 177,65C177,60.585 180.585,57 185,57Z"/>
            <g transform="matrix(1.07157e-16,1.75,-1.42857,8.74748e-17,311.509,28.2335)">
                <path d="M20.359,85.122C20.505,84.866 20.745,84.713 21,84.713C21.255,84.713 21.495,84.866 21.641,85.122C22.298,86.271 23.326,88.07 24.071,89.375C24.252,89.69 24.274,90.102 24.128,90.444C23.983,90.786 23.695,91 23.381,91C22.007,91 20.044,91 18.659,91C18.337,91 18.042,90.781 17.893,90.431C17.744,90.081 17.767,89.658 17.951,89.335C18.695,88.034 19.709,86.26 20.359,85.122Z"/>
            </g>
        </g>
        <g id="StatusUnknown">
        </g>
        <g transform="matrix(1.10876,0,0,1.26098,-66.3229,-15.3672)">
            <g id="Load">
            </g>
        </g>
        <g id="vThis">
        </g>
        <g id="vBegin">
        </g>
        <g id="vMin">
        </g>
        <g transform="matrix(1.1523,0,0,1.31051,-21.9614,-46.8621)">
            <g id="vMax">
            </g>
        </g>
        <g id="vEnd">
        </g>
        <g id="Menu">
        </g>
        <g id="EnterFullscreen">
        </g>
        <g id="LeaveFullscreen">
        </g>
        <g id="Switch2Video">
        </g>
        <g id="Switch2Audio">
        </g>
        <g id="Artist" transform="matrix(1.2,0,0,1.2,-22.6,-16)">
            <g id="Member-Right" serif:id="Member Right">
            </g>
            <g id="Member-Left" serif:id="Member Left">
            </g>
            <g id="Lead-Member" serif:id="Lead Member">
            </g>
        </g>
        <g id="Album">
        </g>
        <g id="Song">
        </g>
        <g id="Video">
        </g>
        <g id="Remove">
        </g>
        <g id="Insert">
        </g>
        <g id="Append">
        </g>
        <g id="Next">
        </g>
        <g id="Pause">
        </g>
        <g id="Play">
        </g>
        <g id="Insert-Template" serif:id="Insert Template">
        </g>
        <g id="Play-Template" serif:id="Play Template">
        </g>
    </g>
</svg>
