<?xml version="1.0" encoding="UTF-8" standalone="no"?>
<!DOCTYPE svg PUBLIC "-//W3C//DTD SVG 1.1//EN" "http://www.w3.org/Graphics/SVG/1.1/DTD/svg11.dtd">
<svg width="100%" height="100%" viewBox="0 0 20 20" version="1.1" xmlns="http://www.w3.org/2000/svg" xmlns:xlink="http://www.w3.org/1999/xlink" xml:space="preserve" xmlns:serif="http://www.serif.com/" style="fill-rule:evenodd;clip-rule:evenodd;stroke-linejoin:round;stroke-miterlimit:2;">
    <g transform="matrix(1,0,0,1,-125,-80)">
        <g id="Menu">
        </g>
        <g id="Switch2Video" transform="matrix(1,0,0,1,0,25)">
            <g transform="matrix(1,0,0,1,0,-25)">
                <path d="M125,83.436L125,81.778C125,80.797 125.797,80 126.778,80L143.222,80C144.203,80 145,80.797 145,81.778L145,98.222C145,99.203 144.203,100 143.222,100L126.778,100C125.797,100 125,99.203 125,98.222L125,96.551C125.372,96.714 125.765,96.805 126.159,96.827C126.057,97.029 126,97.258 126,97.5C126,98.328 126.672,99 127.5,99C128.328,99 129,98.328 129,97.5C129,96.956 128.709,96.479 128.275,96.216L128.284,96.209L130,94.983L130,96C130,96.828 130.672,97.5 131.5,97.5L138.5,97.5C139.328,97.5 140,96.828 140,96L140,93C140,92.172 139.328,91.5 138.5,91.5L134.877,91.5L135.44,91.098C135.8,90.841 136.013,90.426 136.013,89.983C136.013,89.541 135.8,89.126 135.44,88.869L134.923,88.5L138.5,88.5C139.328,88.5 140,87.828 140,87L140,84C140,83.172 139.328,82.5 138.5,82.5L131.5,82.5C130.672,82.5 130,83.172 130,84L130,84.983L128.308,83.775L128.3,83.769C128.72,83.503 129,83.034 129,82.5C129,81.672 128.328,81 127.5,81C126.672,81 126,81.672 126,82.5C126,82.735 126.054,82.958 126.151,83.156C125.759,83.18 125.369,83.273 125,83.436ZM142.5,96C143.328,96 144,96.672 144,97.5C144,98.328 143.328,99 142.5,99C141.672,99 141,98.328 141,97.5C141,96.672 141.672,96 142.5,96ZM142.5,91C143.328,91 144,91.672 144,92.5C144,93.328 143.328,94 142.5,94C141.672,94 141,93.328 141,92.5C141,91.672 141.672,91 142.5,91ZM142.5,86C143.328,86 144,86.672 144,87.5C144,88.328 143.328,89 142.5,89C141.672,89 141,88.328 141,87.5C141,86.672 141.672,86 142.5,86ZM142.5,81C143.328,81 144,81.672 144,82.5C144,83.328 143.328,84 142.5,84C141.672,84 141,83.328 141,82.5C141,81.672 141.672,81 142.5,81Z"/>
            </g>
            <g transform="matrix(1.07157e-16,1.75,-1.42857,8.74748e-17,255,28.2335)">
                <path d="M20.359,85.122C20.505,84.866 20.745,84.713 21,84.713C21.255,84.713 21.495,84.866 21.641,85.122C22.298,86.271 23.326,88.07 24.071,89.375C24.252,89.69 24.274,90.102 24.128,90.444C23.983,90.786 23.695,91 23.381,91C22.007,91 20.044,91 18.659,91C18.337,91 18.042,90.781 17.893,90.431C17.744,90.081 17.767,89.658 17.951,89.335C18.695,88.034 19.709,86.26 20.359,85.122Z"/>
            </g>
        </g>
        <g id="Switch2Audio">
        </g>
        <g id="Artist" transform="matrix(1.2,0,0,1.2,-22.6,-16)">
            <g id="Member-Right" serif:id="Member Right">
            </g>
            <g id="Member-Left" serif:id="Member Left">
            </g>
            <g id="Lead-Member" serif:id="Lead Member">
            </g>
        </g>
        <g id="Album">
        </g>
        <g id="Song">
        </g>
        <g id="Video">
        </g>
        <g id="Remove">
        </g>
        <g id="Insert">
        </g>
        <g id="Append">
        </g>
        <g id="Next">
        </g>
        <g id="Pause">
        </g>
        <g id="Play">
        </g>
        <g id="Insert-Template" serif:id="Insert Template">
        </g>
        <g id="Play-Template" serif:id="Play Template">
        </g>
    </g>
</svg>
