<?xml version="1.0" encoding="UTF-8" standalone="no"?>
<!DOCTYPE svg PUBLIC "-//W3C//DTD SVG 1.1//EN" "http://www.w3.org/Graphics/SVG/1.1/DTD/svg11.dtd">
<svg width="100%" height="100%" viewBox="0 0 20 20" version="1.1" xmlns="http://www.w3.org/2000/svg" xmlns:xlink="http://www.w3.org/1999/xlink" xml:space="preserve" xmlns:serif="http://www.serif.com/" style="fill-rule:evenodd;clip-rule:evenodd;stroke-linejoin:round;stroke-miterlimit:2;">
    <g transform="matrix(1,0,0,1,-125,-205)">
        <g id="VideoFile">
            <path d="M131.503,205.568C131.867,205.204 132.36,205 132.875,205C134.586,205 138.632,205 141.06,205C141.574,205 142.068,205.204 142.432,205.568C142.796,205.932 143,206.426 143,206.94C143,210.764 143,219.236 143,223.06C143,223.574 142.796,224.068 142.432,224.432C142.068,224.796 141.574,225 141.06,225C137.983,225 132.017,225 128.94,225C127.869,225 127,224.131 127,223.06C127,219.753 127,213.162 127,210.875C127,210.36 127.204,209.867 127.568,209.503C128.544,208.527 130.527,206.544 131.503,205.568ZM141,212.067C141,211.478 140.522,211 139.933,211L130.067,211C129.478,211 129,211.478 129,212.067L129,221.933C129,222.522 129.478,223 130.067,223L139.933,223C140.522,223 141,222.522 141,221.933L141,212.067ZM130.5,220.6C130.997,220.6 131.4,221.003 131.4,221.5C131.4,221.997 130.997,222.4 130.5,222.4C130.003,222.4 129.6,221.997 129.6,221.5C129.6,221.003 130.003,220.6 130.5,220.6ZM139.5,220.6C139.997,220.6 140.4,221.003 140.4,221.5C140.4,221.997 139.997,222.4 139.5,222.4C139.003,222.4 138.6,221.997 138.6,221.5C138.6,221.003 139.003,220.6 139.5,220.6ZM138,218.8C138,218.303 137.597,217.9 137.1,217.9L132.9,217.9C132.403,217.9 132,218.303 132,218.8L132,220.6C132,221.097 132.403,221.5 132.9,221.5L137.1,221.5C137.597,221.5 138,221.097 138,220.6L138,218.8ZM130.5,217.6C130.997,217.6 131.4,218.003 131.4,218.5C131.4,218.997 130.997,219.4 130.5,219.4C130.003,219.4 129.6,218.997 129.6,218.5C129.6,218.003 130.003,217.6 130.5,217.6ZM139.5,217.6C139.997,217.6 140.4,218.003 140.4,218.5C140.4,218.997 139.997,219.4 139.5,219.4C139.003,219.4 138.6,218.997 138.6,218.5C138.6,218.003 139.003,217.6 139.5,217.6ZM130.5,214.6C130.997,214.6 131.4,215.003 131.4,215.5C131.4,215.997 130.997,216.4 130.5,216.4C130.003,216.4 129.6,215.997 129.6,215.5C129.6,215.003 130.003,214.6 130.5,214.6ZM139.5,214.6C139.997,214.6 140.4,215.003 140.4,215.5C140.4,215.997 139.997,216.4 139.5,216.4C139.003,216.4 138.6,215.997 138.6,215.5C138.6,215.003 139.003,214.6 139.5,214.6ZM138,213.4C138,212.903 137.597,212.5 137.1,212.5L132.9,212.5C132.403,212.5 132,212.903 132,213.4L132,215.2C132,215.697 132.403,216.1 132.9,216.1L137.1,216.1C137.597,216.1 138,215.697 138,215.2L138,213.4ZM130.5,211.6C130.997,211.6 131.4,212.003 131.4,212.5C131.4,212.997 130.997,213.4 130.5,213.4C130.003,213.4 129.6,212.997 129.6,212.5C129.6,212.003 130.003,211.6 130.5,211.6ZM139.5,211.6C139.997,211.6 140.4,212.003 140.4,212.5C140.4,212.997 139.997,213.4 139.5,213.4C139.003,213.4 138.6,212.997 138.6,212.5C138.6,212.003 139.003,211.6 139.5,211.6Z"/>
        </g>
        <g id="AlbumFile">
        </g>
        <g id="SongFile">
        </g>
        <g id="File">
        </g>
        <g transform="matrix(1.10876,0,0,1.26098,-91.0415,-15.3672)">
            <g id="Save">
            </g>
        </g>
        <g id="Import">
        </g>
        <g id="Import--Alternativ-" serif:id="Import (Alternativ)">
        </g>
        <g id="StatusGood">
        </g>
        <g id="StatusBad">
        </g>
        <g id="StatusPaused">
        </g>
        <g id="StatusPlaying">
        </g>
        <g id="StatusUnknown">
        </g>
        <g id="StatusInfo">
        </g>
        <g id="StatusOpen">
        </g>
        <g id="StatusActive">
        </g>
        <g transform="matrix(1.10876,0,0,1.26098,-66.3229,-15.3672)">
            <g id="Load">
            </g>
        </g>
        <g id="vThis">
        </g>
        <g id="vBegin">
        </g>
        <g id="vMin">
        </g>
        <g transform="matrix(1.1523,0,0,1.31051,-21.9614,-46.8621)">
            <g id="vMax">
            </g>
        </g>
        <g id="vEnd">
        </g>
        <g id="Reconnect">
        </g>
        <g id="Back">
        </g>
        <g id="Menu">
        </g>
        <g id="DropDown">
        </g>
        <g id="EnterFullscreen">
        </g>
        <g id="LeaveFullscreen">
        </g>
        <g id="Switch2Video">
        </g>
        <g id="Switch2Audio">
        </g>
        <g id="Artist" transform="matrix(1.2,0,0,1.2,-22.6,-16)">
            <g id="Member-Right" serif:id="Member Right">
            </g>
            <g id="Member-Left" serif:id="Member Left">
            </g>
            <g id="Lead-Member" serif:id="Lead Member">
            </g>
        </g>
        <g id="Album">
        </g>
        <g id="Song">
        </g>
        <g id="Video">
        </g>
        <g id="Approve">
        </g>
        <g id="Remove">
        </g>
        <g id="Insert">
        </g>
        <g id="Append">
        </g>
        <g id="Append1" serif:id="Append">
        </g>
        <g id="Next">
        </g>
        <g id="Pause">
        </g>
        <g id="Play">
        </g>
        <g id="Disable">
        </g>
        <g id="Hate">
        </g>
        <g id="LiveRecording" transform="matrix(1.2,0,0,1.2,102.4,-65.9962)">
            <g id="Member-Right1" serif:id="Member Right">
            </g>
            <g id="Member-Left1" serif:id="Member Left">
            </g>
            <g id="Lead-Member1" serif:id="Lead Member">
            </g>
        </g>
        <g id="LyricsVideo">
        </g>
        <g id="BadAudio">
        </g>
        <g id="Like">
        </g>
        <g id="Dislike">
        </g>
        <g id="Favorite">
        </g>
        <g id="Tags">
        </g>
        <g id="TimeFrame">
        </g>
        <g id="Artwork">
        </g>
        <g id="Link">
        </g>
        <g id="MusicDB">
        </g>
        <g id="Ralation">
        </g>
        <g id="ToMainView">
        </g>
        <g id="MoveLeft">
        </g>
        <g id="MoveRight">
        </g>
        <g id="MoveToTopRow">
        </g>
        <g id="MoveToBottomRow">
        </g>
        <g id="Search">
        </g>
        <g id="CutRelation">
        </g>
        <g id="LyricsTemplate">
        </g>
        <g id="LyricsNone">
        </g>
        <g id="LyricsFromUser">
        </g>
        <g transform="matrix(0.6,0,0,0.6,-31,109)">
            <g id="LyricsFromNet">
                <g id="Link1" serif:id="Link">
                </g>
            </g>
        </g>
        <g id="LyricsFromFile">
        </g>
        <g id="LyricsEmpty">
        </g>
        <g id="Edit">
        </g>
        <g id="FMTComment">
        </g>
        <g id="FMTBackground">
        </g>
        <g id="FMTRefrein">
        </g>
        <g id="Checked">
        </g>
        <g id="Unchecked">
        </g>
        <g id="Settings">
        </g>
        <g id="Hide">
        </g>
    </g>
</svg>
