<?xml version="1.0" encoding="UTF-8" standalone="no"?>
<!DOCTYPE svg PUBLIC "-//W3C//DTD SVG 1.1//EN" "http://www.w3.org/Graphics/SVG/1.1/DTD/svg11.dtd">
<svg width="100%" height="100%" viewBox="0 0 20 20" version="1.1" xmlns="http://www.w3.org/2000/svg" xmlns:xlink="http://www.w3.org/1999/xlink" xml:space="preserve" xmlns:serif="http://www.serif.com/" style="fill-rule:evenodd;clip-rule:evenodd;stroke-linejoin:round;stroke-miterlimit:2;">
    <g transform="matrix(1,0,0,1,-125,-55)">
        <g id="Menu">
        </g>
        <g id="Switch2Video">
        </g>
        <g id="Switch2Audio">
        </g>
        <g id="Artist" transform="matrix(1.2,0,0,1.2,-22.6,-16)">
            <g id="Member-Right" serif:id="Member Right">
            </g>
            <g id="Member-Left" serif:id="Member Left">
            </g>
            <g id="Lead-Member" serif:id="Lead Member">
            </g>
        </g>
        <g id="Album">
        </g>
        <g id="Song">
        </g>
        <g id="Video">
            <path d="M145,56.778C145,55.797 144.203,55 143.222,55L126.778,55C125.797,55 125,55.797 125,56.778L125,73.222C125,74.203 125.797,75 126.778,75L143.222,75C144.203,75 145,74.203 145,73.222L145,56.778ZM127.5,71C128.328,71 129,71.672 129,72.5C129,73.328 128.328,74 127.5,74C126.672,74 126,73.328 126,72.5C126,71.672 126.672,71 127.5,71ZM142.5,71C143.328,71 144,71.672 144,72.5C144,73.328 143.328,74 142.5,74C141.672,74 141,73.328 141,72.5C141,71.672 141.672,71 142.5,71ZM140,68C140,67.172 139.328,66.5 138.5,66.5L131.5,66.5C130.672,66.5 130,67.172 130,68L130,71C130,71.828 130.672,72.5 131.5,72.5L138.5,72.5C139.328,72.5 140,71.828 140,71L140,68ZM127.5,66C128.328,66 129,66.672 129,67.5C129,68.328 128.328,69 127.5,69C126.672,69 126,68.328 126,67.5C126,66.672 126.672,66 127.5,66ZM142.5,66C143.328,66 144,66.672 144,67.5C144,68.328 143.328,69 142.5,69C141.672,69 141,68.328 141,67.5C141,66.672 141.672,66 142.5,66ZM127.5,61C128.328,61 129,61.672 129,62.5C129,63.328 128.328,64 127.5,64C126.672,64 126,63.328 126,62.5C126,61.672 126.672,61 127.5,61ZM142.5,61C143.328,61 144,61.672 144,62.5C144,63.328 143.328,64 142.5,64C141.672,64 141,63.328 141,62.5C141,61.672 141.672,61 142.5,61ZM140,59C140,58.172 139.328,57.5 138.5,57.5L131.5,57.5C130.672,57.5 130,58.172 130,59L130,62C130,62.828 130.672,63.5 131.5,63.5L138.5,63.5C139.328,63.5 140,62.828 140,62L140,59ZM127.5,56C128.328,56 129,56.672 129,57.5C129,58.328 128.328,59 127.5,59C126.672,59 126,58.328 126,57.5C126,56.672 126.672,56 127.5,56ZM142.5,56C143.328,56 144,56.672 144,57.5C144,58.328 143.328,59 142.5,59C141.672,59 141,58.328 141,57.5C141,56.672 141.672,56 142.5,56Z"/>
        </g>
        <g id="Remove">
        </g>
        <g id="Insert">
        </g>
        <g id="Append">
        </g>
        <g id="Next">
        </g>
        <g id="Pause">
        </g>
        <g id="Play">
        </g>
        <g id="Insert-Template" serif:id="Insert Template">
        </g>
        <g id="Play-Template" serif:id="Play Template">
        </g>
    </g>
</svg>
