<?xml version="1.0" encoding="UTF-8" standalone="no"?>
<!DOCTYPE svg PUBLIC "-//W3C//DTD SVG 1.1//EN" "http://www.w3.org/Graphics/SVG/1.1/DTD/svg11.dtd">
<svg width="100%" height="100%" viewBox="0 0 20 20" version="1.1" xmlns="http://www.w3.org/2000/svg" xmlns:xlink="http://www.w3.org/1999/xlink" xml:space="preserve" xmlns:serif="http://www.serif.com/" style="fill-rule:evenodd;clip-rule:evenodd;stroke-linejoin:round;stroke-miterlimit:2;">
    <g transform="matrix(1,0,0,1,-100,-105)">
        <g id="vThis">
        </g>
        <g id="vBegin">
        </g>
        <g id="vMin" transform="matrix(1,0,0,1,50,0.000192637)">
            <path d="M70,108.75C70,107.784 69.216,107 68.25,107L51.75,107C50.784,107 50,107.784 50,108.75L50,112.25C50,113.216 50.784,114 51.75,114L68.25,114C69.216,114 70,113.216 70,112.25L70,108.75ZM68,109.75C68,109.336 67.664,109 67.25,109L52.75,109C52.336,109 52,109.336 52,109.75L52,111.25C52,111.664 52.336,112 52.75,112L67.25,112C67.664,112 68,111.664 68,111.25L68,109.75Z"/>
            <g transform="matrix(1,0,0,0.882363,-50,13.3515)">
                <path d="M100,106L100,121C100,121.552 100.448,122 101,122C101.552,122 102,121.552 102,121L102,106C102,105.448 101.552,105 101,105C100.448,105 100,105.448 100,106Z"/>
            </g>
            <g id="_0" serif:id="0" transform="matrix(1.1523,0,0,1.31051,-92.3352,-46.7152)">
                <text x="126.878px" y="131.029px" style="font-family:'SourceSansPro-Semibold', 'Source Sans Pro', sans-serif;font-weight:600;font-size:9.4px;">0</text>
            </g>
        </g>
        <g id="vMax">
        </g>
        <g id="vEnd">
        </g>
        <g id="Menu">
        </g>
        <g id="EnterFullscreen">
        </g>
        <g id="LeaveFullscreen">
        </g>
        <g id="Switch2Video">
        </g>
        <g id="Switch2Audio">
        </g>
        <g id="Artist" transform="matrix(1.2,0,0,1.2,-22.6,-16)">
            <g id="Member-Right" serif:id="Member Right">
            </g>
            <g id="Member-Left" serif:id="Member Left">
            </g>
            <g id="Lead-Member" serif:id="Lead Member">
            </g>
        </g>
        <g id="Album">
        </g>
        <g id="Song">
        </g>
        <g id="Video">
        </g>
        <g id="Remove">
        </g>
        <g id="Insert">
        </g>
        <g id="Append">
        </g>
        <g id="Next">
        </g>
        <g id="Pause">
        </g>
        <g id="Play">
        </g>
        <g id="Insert-Template" serif:id="Insert Template">
        </g>
        <g id="Play-Template" serif:id="Play Template">
        </g>
    </g>
</svg>
