<?xml version="1.0" encoding="UTF-8"?>
<!DOCTYPE svg PUBLIC "-//W3C//DTD SVG 1.1//EN" "http://www.w3.org/Graphics/SVG/1.1/DTD/svg11.dtd">
<svg version="1.2" width="100mm" height="100mm" viewBox="0 0 10000 10000" preserveAspectRatio="xMidYMid" fill-rule="evenodd" stroke-width="28.222" stroke-linejoin="round" xmlns="http://www.w3.org/2000/svg" xmlns:ooo="http://xml.openoffice.org/svg/export" xmlns:xlink="http://www.w3.org/1999/xlink" xmlns:presentation="http://sun.com/xmlns/staroffice/presentation" xmlns:smil="http://www.w3.org/2001/SMIL20/" xmlns:anim="urn:oasis:names:tc:opendocument:xmlns:animation:1.0" xml:space="preserve">
 <defs class="ClipPathGroup">
  <clipPath id="presentation_clip_path" clipPathUnits="userSpaceOnUse">
   <rect x="0" y="0" width="10000" height="10000"/>
  </clipPath>
  <clipPath id="presentation_clip_path_shrink" clipPathUnits="userSpaceOnUse">
   <rect x="10" y="10" width="9980" height="9980"/>
  </clipPath>
 </defs>
 <defs class="TextShapeIndex">
  <g ooo:slide="id1" ooo:id-list="id3 id4 id5 id6 id7 id8 id9 id10 id11 id12 id13 id14 id15 id16 id17 id18 id19 id20 id21 id22 id23 id24 id25 id26 id27"/>
 </defs>
 <defs class="EmbeddedBulletChars">
  <g id="bullet-char-template-57356" transform="scale(0.00048828125,-0.00048828125)">
   <path d="M 580,1141 L 1163,571 580,0 -4,571 580,1141 Z"/>
  </g>
  <g id="bullet-char-template-57354" transform="scale(0.00048828125,-0.00048828125)">
   <path d="M 8,1128 L 1137,1128 1137,0 8,0 8,1128 Z"/>
  </g>
  <g id="bullet-char-template-10146" transform="scale(0.00048828125,-0.00048828125)">
   <path d="M 174,0 L 602,739 174,1481 1456,739 174,0 Z M 1358,739 L 309,1346 659,739 1358,739 Z"/>
  </g>
  <g id="bullet-char-template-10132" transform="scale(0.00048828125,-0.00048828125)">
   <path d="M 2015,739 L 1276,0 717,0 1260,543 174,543 174,936 1260,936 717,1481 1274,1481 2015,739 Z"/>
  </g>
  <g id="bullet-char-template-10007" transform="scale(0.00048828125,-0.00048828125)">
   <path d="M 0,-2 C -7,14 -16,27 -25,37 L 356,567 C 262,823 215,952 215,954 215,979 228,992 255,992 264,992 276,990 289,987 310,991 331,999 354,1012 L 381,999 492,748 772,1049 836,1024 860,1049 C 881,1039 901,1025 922,1006 886,937 835,863 770,784 769,783 710,716 594,584 L 774,223 C 774,196 753,168 711,139 L 727,119 C 717,90 699,76 672,76 641,76 570,178 457,381 L 164,-76 C 142,-110 111,-127 72,-127 30,-127 9,-110 8,-76 1,-67 -2,-52 -2,-32 -2,-23 -1,-13 0,-2 Z"/>
  </g>
  <g id="bullet-char-template-10004" transform="scale(0.00048828125,-0.00048828125)">
   <path d="M 285,-33 C 182,-33 111,30 74,156 52,228 41,333 41,471 41,549 55,616 82,672 116,743 169,778 240,778 293,778 328,747 346,684 L 369,508 C 377,444 397,411 428,410 L 1163,1116 C 1174,1127 1196,1133 1229,1133 1271,1133 1292,1118 1292,1087 L 1292,965 C 1292,929 1282,901 1262,881 L 442,47 C 390,-6 338,-33 285,-33 Z"/>
  </g>
  <g id="bullet-char-template-9679" transform="scale(0.00048828125,-0.00048828125)">
   <path d="M 813,0 C 632,0 489,54 383,161 276,268 223,411 223,592 223,773 276,916 383,1023 489,1130 632,1184 813,1184 992,1184 1136,1130 1245,1023 1353,916 1407,772 1407,592 1407,412 1353,268 1245,161 1136,54 992,0 813,0 Z"/>
  </g>
  <g id="bullet-char-template-8226" transform="scale(0.00048828125,-0.00048828125)">
   <path d="M 346,457 C 273,457 209,483 155,535 101,586 74,649 74,723 74,796 101,859 155,911 209,963 273,989 346,989 419,989 480,963 531,910 582,859 608,796 608,723 608,648 583,586 532,535 482,483 420,457 346,457 Z"/>
  </g>
  <g id="bullet-char-template-8211" transform="scale(0.00048828125,-0.00048828125)">
   <path d="M -4,459 L 1135,459 1135,606 -4,606 -4,459 Z"/>
  </g>
  <g id="bullet-char-template-61548" transform="scale(0.00048828125,-0.00048828125)">
   <path d="M 173,740 C 173,903 231,1043 346,1159 462,1274 601,1332 765,1332 928,1332 1067,1274 1183,1159 1299,1043 1357,903 1357,740 1357,577 1299,437 1183,322 1067,206 928,148 765,148 601,148 462,206 346,322 231,437 173,577 173,740 Z"/>
  </g>
 </defs>
 <g>
  <g id="id2" class="Master_Slide">
   <g id="bg-id2" class="Background"/>
   <g id="bo-id2" class="BackgroundObjects"/>
  </g>
 </g>
 <g class="SlideGroup">
  <g>
   <g id="container-id1">
    <g id="id1" class="Slide" clip-path="url(#presentation_clip_path)">
     <g class="Page">
      <g class="com.sun.star.drawing.CustomShape">
       <g id="id3">
        <rect class="BoundingBox" stroke="none" fill="none" x="1399" y="3399" width="304" height="304"/>
        <path fill="rgb(238,238,238)" stroke="none" d="M 1701,3551 C 1701,3577 1694,3603 1681,3626 1668,3649 1649,3668 1626,3681 1603,3694 1577,3701 1551,3701 1524,3701 1498,3694 1475,3681 1452,3668 1433,3649 1420,3626 1407,3603 1400,3577 1400,3551 1400,3524 1407,3498 1420,3475 1433,3452 1452,3433 1475,3420 1498,3407 1524,3400 1551,3400 1577,3400 1603,3407 1626,3420 1649,3433 1668,3452 1681,3475 1694,3498 1701,3524 1701,3551 L 1701,3551 Z"/>
        <path fill="none" stroke="rgb(238,238,238)" d="M 1701,3551 C 1701,3577 1694,3603 1681,3626 1668,3649 1649,3668 1626,3681 1603,3694 1577,3701 1551,3701 1524,3701 1498,3694 1475,3681 1452,3668 1433,3649 1420,3626 1407,3603 1400,3577 1400,3551 1400,3524 1407,3498 1420,3475 1433,3452 1452,3433 1475,3420 1498,3407 1524,3400 1551,3400 1577,3400 1603,3407 1626,3420 1649,3433 1668,3452 1681,3475 1694,3498 1701,3524 1701,3551 Z"/>
       </g>
      </g>
      <g class="com.sun.star.drawing.CustomShape">
       <g id="id4">
        <rect class="BoundingBox" stroke="none" fill="none" x="4849" y="1101" width="304" height="304"/>
        <path fill="rgb(238,238,238)" stroke="none" d="M 5151,1253 C 5151,1279 5144,1305 5131,1328 5118,1351 5099,1370 5076,1383 5053,1396 5027,1403 5001,1403 4974,1403 4948,1396 4925,1383 4902,1370 4883,1351 4870,1328 4857,1305 4850,1279 4850,1253 4850,1226 4857,1200 4870,1177 4883,1154 4902,1135 4925,1122 4948,1109 4974,1102 5001,1102 5027,1102 5053,1109 5076,1122 5099,1135 5118,1154 5131,1177 5144,1200 5151,1226 5151,1253 L 5151,1253 Z"/>
        <path fill="none" stroke="rgb(238,238,238)" d="M 5151,1253 C 5151,1279 5144,1305 5131,1328 5118,1351 5099,1370 5076,1383 5053,1396 5027,1403 5001,1403 4974,1403 4948,1396 4925,1383 4902,1370 4883,1351 4870,1328 4857,1305 4850,1279 4850,1253 4850,1226 4857,1200 4870,1177 4883,1154 4902,1135 4925,1122 4948,1109 4974,1102 5001,1102 5027,1102 5053,1109 5076,1122 5099,1135 5118,1154 5131,1177 5144,1200 5151,1226 5151,1253 Z"/>
       </g>
      </g>
      <g class="com.sun.star.drawing.CustomShape">
       <g id="id5">
        <rect class="BoundingBox" stroke="none" fill="none" x="4849" y="3949" width="304" height="304"/>
        <path fill="rgb(238,238,238)" stroke="none" d="M 5151,4101 C 5151,4127 5144,4153 5131,4176 5118,4199 5099,4218 5076,4231 5053,4244 5027,4251 5001,4251 4974,4251 4948,4244 4925,4231 4902,4218 4883,4199 4870,4176 4857,4153 4850,4127 4850,4101 4850,4074 4857,4048 4870,4025 4883,4002 4902,3983 4925,3970 4948,3957 4974,3950 5001,3950 5027,3950 5053,3957 5076,3970 5099,3983 5118,4002 5131,4025 5144,4048 5151,4074 5151,4101 L 5151,4101 Z"/>
        <path fill="none" stroke="rgb(238,238,238)" d="M 5151,4101 C 5151,4127 5144,4153 5131,4176 5118,4199 5099,4218 5076,4231 5053,4244 5027,4251 5001,4251 4974,4251 4948,4244 4925,4231 4902,4218 4883,4199 4870,4176 4857,4153 4850,4127 4850,4101 4850,4074 4857,4048 4870,4025 4883,4002 4902,3983 4925,3970 4948,3957 4974,3950 5001,3950 5027,3950 5053,3957 5076,3970 5099,3983 5118,4002 5131,4025 5144,4048 5151,4074 5151,4101 Z"/>
       </g>
      </g>
      <g class="com.sun.star.drawing.ConnectorShape">
       <g id="id6">
        <rect class="BoundingBox" stroke="none" fill="none" x="1329" y="3179" width="3893" height="1293"/>
        <path fill="none" stroke="rgb(238,238,238)" stroke-width="741" stroke-linejoin="round" d="M 1700,3550 L 4850,4100"/>
       </g>
      </g>
      <g class="com.sun.star.drawing.ConnectorShape">
       <g id="id7">
        <rect class="BoundingBox" stroke="none" fill="none" x="1179" y="881" width="4043" height="2891"/>
        <path fill="none" stroke="rgb(238,238,238)" stroke-width="741" stroke-linejoin="round" d="M 1550,3400 L 4850,1252"/>
       </g>
      </g>
      <g class="com.sun.star.drawing.ConnectorShape">
       <g id="id8">
        <rect class="BoundingBox" stroke="none" fill="none" x="4629" y="1031" width="743" height="3291"/>
        <path fill="none" stroke="rgb(238,238,238)" stroke-width="741" stroke-linejoin="round" d="M 5000,1402 L 5000,3950"/>
       </g>
      </g>
      <g class="com.sun.star.drawing.CustomShape">
       <g id="id9">
        <rect class="BoundingBox" stroke="none" fill="none" x="1399" y="6400" width="304" height="304"/>
        <path fill="rgb(238,238,238)" stroke="none" d="M 1701,6552 C 1701,6578 1694,6604 1681,6627 1668,6650 1649,6669 1626,6682 1603,6695 1577,6702 1551,6702 1524,6702 1498,6695 1475,6682 1452,6669 1433,6650 1420,6627 1407,6604 1400,6578 1400,6552 1400,6525 1407,6499 1420,6476 1433,6453 1452,6434 1475,6421 1498,6408 1524,6401 1551,6401 1577,6401 1603,6408 1626,6421 1649,6434 1668,6453 1681,6476 1694,6499 1701,6525 1701,6552 L 1701,6552 Z"/>
        <path fill="none" stroke="rgb(238,238,238)" d="M 1701,6552 C 1701,6578 1694,6604 1681,6627 1668,6650 1649,6669 1626,6682 1603,6695 1577,6702 1551,6702 1524,6702 1498,6695 1475,6682 1452,6669 1433,6650 1420,6627 1407,6604 1400,6578 1400,6552 1400,6525 1407,6499 1420,6476 1433,6453 1452,6434 1475,6421 1498,6408 1524,6401 1551,6401 1577,6401 1603,6408 1626,6421 1649,6434 1668,6453 1681,6476 1694,6499 1701,6525 1701,6552 Z"/>
       </g>
      </g>
      <g class="com.sun.star.drawing.CustomShape">
       <g id="id10">
        <rect class="BoundingBox" stroke="none" fill="none" x="4849" y="8601" width="304" height="304"/>
        <path fill="rgb(238,238,238)" stroke="none" d="M 5151,8753 C 5151,8779 5144,8805 5131,8828 5118,8851 5099,8870 5076,8883 5053,8896 5027,8903 5001,8903 4974,8903 4948,8896 4925,8883 4902,8870 4883,8851 4870,8828 4857,8805 4850,8779 4850,8753 4850,8726 4857,8700 4870,8677 4883,8654 4902,8635 4925,8622 4948,8609 4974,8602 5001,8602 5027,8602 5053,8609 5076,8622 5099,8635 5118,8654 5131,8677 5144,8700 5151,8726 5151,8753 L 5151,8753 Z"/>
        <path fill="none" stroke="rgb(238,238,238)" d="M 5151,8753 C 5151,8779 5144,8805 5131,8828 5118,8851 5099,8870 5076,8883 5053,8896 5027,8903 5001,8903 4974,8903 4948,8896 4925,8883 4902,8870 4883,8851 4870,8828 4857,8805 4850,8779 4850,8753 4850,8726 4857,8700 4870,8677 4883,8654 4902,8635 4925,8622 4948,8609 4974,8602 5001,8602 5027,8602 5053,8609 5076,8622 5099,8635 5118,8654 5131,8677 5144,8700 5151,8726 5151,8753 Z"/>
       </g>
      </g>
      <g class="com.sun.star.drawing.CustomShape">
       <g id="id11">
        <rect class="BoundingBox" stroke="none" fill="none" x="8299" y="6401" width="304" height="304"/>
        <path fill="rgb(238,238,238)" stroke="none" d="M 8601,6553 C 8601,6579 8594,6605 8581,6628 8568,6651 8549,6670 8526,6683 8503,6696 8477,6703 8451,6703 8424,6703 8398,6696 8375,6683 8352,6670 8333,6651 8320,6628 8307,6605 8300,6579 8300,6553 8300,6526 8307,6500 8320,6477 8333,6454 8352,6435 8375,6422 8398,6409 8424,6402 8451,6402 8477,6402 8503,6409 8526,6422 8549,6435 8568,6454 8581,6477 8594,6500 8601,6526 8601,6553 L 8601,6553 Z"/>
        <path fill="none" stroke="rgb(238,238,238)" d="M 8601,6553 C 8601,6579 8594,6605 8581,6628 8568,6651 8549,6670 8526,6683 8503,6696 8477,6703 8451,6703 8424,6703 8398,6696 8375,6683 8352,6670 8333,6651 8320,6628 8307,6605 8300,6579 8300,6553 8300,6526 8307,6500 8320,6477 8333,6454 8352,6435 8375,6422 8398,6409 8424,6402 8451,6402 8477,6402 8503,6409 8526,6422 8549,6435 8568,6454 8581,6477 8594,6500 8601,6526 8601,6553 Z"/>
       </g>
      </g>
      <g class="com.sun.star.drawing.CustomShape">
       <g id="id12">
        <rect class="BoundingBox" stroke="none" fill="none" x="8299" y="3400" width="304" height="304"/>
        <path fill="rgb(238,238,238)" stroke="none" d="M 8601,3552 C 8601,3578 8594,3604 8581,3627 8568,3650 8549,3669 8526,3682 8503,3695 8477,3702 8451,3702 8424,3702 8398,3695 8375,3682 8352,3669 8333,3650 8320,3627 8307,3604 8300,3578 8300,3552 8300,3525 8307,3499 8320,3476 8333,3453 8352,3434 8375,3421 8398,3408 8424,3401 8451,3401 8477,3401 8503,3408 8526,3421 8549,3434 8568,3453 8581,3476 8594,3499 8601,3525 8601,3552 L 8601,3552 Z"/>
        <path fill="none" stroke="rgb(238,238,238)" d="M 8601,3552 C 8601,3578 8594,3604 8581,3627 8568,3650 8549,3669 8526,3682 8503,3695 8477,3702 8451,3702 8424,3702 8398,3695 8375,3682 8352,3669 8333,3650 8320,3627 8307,3604 8300,3578 8300,3552 8300,3525 8307,3499 8320,3476 8333,3453 8352,3434 8375,3421 8398,3408 8424,3401 8451,3401 8477,3401 8503,3408 8526,3421 8549,3434 8568,3453 8581,3476 8594,3499 8601,3525 8601,3552 Z"/>
       </g>
      </g>
      <g class="com.sun.star.drawing.ConnectorShape">
       <g id="id13">
        <rect class="BoundingBox" stroke="none" fill="none" x="4779" y="6287" width="3937" height="2837"/>
        <path fill="none" stroke="rgb(238,238,238)" stroke-width="741" stroke-linejoin="round" d="M 5150,8752 L 8344,6658"/>
       </g>
      </g>
      <g class="com.sun.star.drawing.ConnectorShape">
       <g id="id14">
        <rect class="BoundingBox" stroke="none" fill="none" x="1329" y="3835" width="3937" height="3088"/>
        <path fill="none" stroke="rgb(238,238,238)" stroke-width="741" stroke-linejoin="round" d="M 1700,6551 L 4894,4206"/>
       </g>
      </g>
      <g class="com.sun.star.drawing.ConnectorShape">
       <g id="id15">
        <rect class="BoundingBox" stroke="none" fill="none" x="1285" y="6286" width="3937" height="2838"/>
        <path fill="none" stroke="rgb(238,238,238)" stroke-width="741" stroke-linejoin="round" d="M 1656,6657 L 4850,8752"/>
       </g>
      </g>
      <g class="com.sun.star.drawing.ConnectorShape">
       <g id="id16">
        <rect class="BoundingBox" stroke="none" fill="none" x="4779" y="3180" width="3893" height="1292"/>
        <path fill="none" stroke="rgb(238,238,238)" stroke-width="741" stroke-linejoin="round" d="M 5150,4100 L 8300,3551"/>
       </g>
      </g>
      <g class="com.sun.star.drawing.ConnectorShape">
       <g id="id17">
        <rect class="BoundingBox" stroke="none" fill="none" x="4735" y="3835" width="3937" height="3089"/>
        <path fill="none" stroke="rgb(238,238,238)" stroke-width="741" stroke-linejoin="round" d="M 5106,4206 L 8300,6552"/>
       </g>
      </g>
      <g class="com.sun.star.drawing.ConnectorShape">
       <g id="id18">
        <rect class="BoundingBox" stroke="none" fill="none" x="1179" y="3329" width="743" height="3444"/>
        <path fill="none" stroke="rgb(238,238,238)" stroke-width="741" stroke-linejoin="round" d="M 1550,6401 L 1550,3700"/>
       </g>
      </g>
      <g class="com.sun.star.drawing.ConnectorShape">
       <g id="id19">
        <rect class="BoundingBox" stroke="none" fill="none" x="8079" y="3330" width="743" height="3444"/>
        <path fill="none" stroke="rgb(238,238,238)" stroke-width="741" stroke-linejoin="round" d="M 8450,6402 L 8450,3701"/>
       </g>
      </g>
      <g class="com.sun.star.drawing.ConnectorShape">
       <g id="id20">
        <rect class="BoundingBox" stroke="none" fill="none" x="4779" y="881" width="4043" height="2892"/>
        <path fill="none" stroke="rgb(238,238,238)" stroke-width="741" stroke-linejoin="round" d="M 8450,3401 L 5150,1252"/>
       </g>
      </g>
      <g class="com.sun.star.drawing.CustomShape">
       <g id="id21">
        <rect class="BoundingBox" stroke="none" fill="none" x="599" y="2600" width="1903" height="1902"/>
        <g>
         <defs>
          <linearGradient id="gradient1" x1="901" y1="2426" x2="2200" y2="4675" gradientUnits="userSpaceOnUse">
           <stop offset="0" style="stop-color:rgb(122,143,200)"/>
           <stop offset="1" style="stop-color:rgb(31,51,150)"/>
          </linearGradient>
         </defs>
         <path style="fill:url(#gradient1)" d="M 2501,3551 L 2499,3613 2493,3675 2483,3736 2469,3797 2451,3856 2429,3914 2403,3971 2374,4026 2341,4079 2304,4129 2265,4177 2223,4223 2177,4265 2129,4304 2079,4341 2026,4374 1971,4403 1914,4429 1856,4451 1797,4469 1736,4483 1675,4493 1613,4499 1551,4501 1488,4499 1426,4493 1365,4483 1304,4469 1245,4451 1187,4429 1130,4403 1075,4374 1022,4341 972,4304 924,4265 878,4223 836,4177 797,4129 760,4079 727,4026 698,3971 672,3914 650,3856 632,3797 618,3736 608,3675 602,3613 600,3551 602,3488 608,3426 618,3365 632,3304 650,3245 672,3187 698,3130 727,3075 760,3022 797,2972 836,2924 878,2878 924,2836 972,2797 1022,2760 1075,2727 1130,2698 1187,2672 1245,2650 1304,2632 1365,2618 1426,2608 1488,2602 1550,2600 1613,2602 1675,2608 1736,2618 1797,2632 1856,2650 1914,2672 1971,2698 2026,2727 2079,2760 2129,2797 2177,2836 2223,2878 2265,2924 2304,2972 2341,3022 2374,3075 2403,3130 2429,3187 2451,3245 2469,3304 2483,3365 2493,3426 2499,3488 2501,3550 2501,3551 Z"/>
        </g>
       </g>
      </g>
      <g class="com.sun.star.drawing.CustomShape">
       <g id="id22">
        <rect class="BoundingBox" stroke="none" fill="none" x="7499" y="2601" width="1903" height="1902"/>
        <g>
         <defs>
          <linearGradient id="gradient2" x1="7801" y1="2427" x2="9100" y2="4676" gradientUnits="userSpaceOnUse">
           <stop offset="0" style="stop-color:rgb(122,143,200)"/>
           <stop offset="1" style="stop-color:rgb(31,51,150)"/>
          </linearGradient>
         </defs>
         <path style="fill:url(#gradient2)" d="M 9401,3552 L 9399,3614 9393,3676 9383,3737 9369,3798 9351,3857 9329,3915 9303,3972 9274,4027 9241,4080 9204,4130 9165,4178 9123,4224 9077,4266 9029,4305 8979,4342 8926,4375 8871,4404 8814,4430 8756,4452 8697,4470 8636,4484 8575,4494 8513,4500 8451,4502 8388,4500 8326,4494 8265,4484 8204,4470 8145,4452 8087,4430 8030,4404 7975,4375 7922,4342 7872,4305 7824,4266 7778,4224 7736,4178 7697,4130 7660,4080 7627,4027 7598,3972 7572,3915 7550,3857 7532,3798 7518,3737 7508,3676 7502,3614 7500,3552 7502,3489 7508,3427 7518,3366 7532,3305 7550,3246 7572,3188 7598,3131 7627,3076 7660,3023 7697,2973 7736,2925 7778,2879 7824,2837 7872,2798 7922,2761 7975,2728 8030,2699 8087,2673 8145,2651 8204,2633 8265,2619 8326,2609 8388,2603 8451,2601 8513,2603 8575,2609 8636,2619 8697,2633 8756,2651 8814,2673 8871,2699 8926,2728 8979,2761 9029,2798 9077,2837 9123,2879 9165,2925 9204,2973 9241,3023 9274,3076 9303,3131 9329,3188 9351,3246 9369,3305 9383,3366 9393,3427 9399,3489 9401,3551 9401,3552 Z"/>
        </g>
       </g>
      </g>
      <g class="com.sun.star.drawing.CustomShape">
       <g id="id23">
        <rect class="BoundingBox" stroke="none" fill="none" x="599" y="5601" width="1903" height="1902"/>
        <g>
         <defs>
          <linearGradient id="gradient3" x1="901" y1="5427" x2="2200" y2="7676" gradientUnits="userSpaceOnUse">
           <stop offset="0" style="stop-color:rgb(122,143,200)"/>
           <stop offset="1" style="stop-color:rgb(31,51,150)"/>
          </linearGradient>
         </defs>
         <path style="fill:url(#gradient3)" d="M 2501,6552 L 2499,6614 2493,6676 2483,6737 2469,6798 2451,6857 2429,6915 2403,6972 2374,7027 2341,7080 2304,7130 2265,7178 2223,7224 2177,7266 2129,7305 2079,7342 2026,7375 1971,7404 1914,7430 1856,7452 1797,7470 1736,7484 1675,7494 1613,7500 1551,7502 1488,7500 1426,7494 1365,7484 1304,7470 1245,7452 1187,7430 1130,7404 1075,7375 1022,7342 972,7305 924,7266 878,7224 836,7178 797,7130 760,7080 727,7027 698,6972 672,6915 650,6857 632,6798 618,6737 608,6676 602,6614 600,6552 602,6489 608,6427 618,6366 632,6305 650,6246 672,6188 698,6131 727,6076 760,6023 797,5973 836,5925 878,5879 924,5837 972,5798 1022,5761 1075,5728 1130,5699 1187,5673 1245,5651 1304,5633 1365,5619 1426,5609 1488,5603 1550,5601 1613,5603 1675,5609 1736,5619 1797,5633 1856,5651 1914,5673 1971,5699 2026,5728 2079,5761 2129,5798 2177,5837 2223,5879 2265,5925 2304,5973 2341,6023 2374,6076 2403,6131 2429,6188 2451,6246 2469,6305 2483,6366 2493,6427 2499,6489 2501,6551 2501,6552 Z"/>
        </g>
       </g>
      </g>
      <g class="com.sun.star.drawing.CustomShape">
       <g id="id24">
        <rect class="BoundingBox" stroke="none" fill="none" x="7499" y="5602" width="1903" height="1902"/>
        <g>
         <defs>
          <linearGradient id="gradient4" x1="7801" y1="5428" x2="9100" y2="7677" gradientUnits="userSpaceOnUse">
           <stop offset="0" style="stop-color:rgb(122,143,200)"/>
           <stop offset="1" style="stop-color:rgb(31,51,150)"/>
          </linearGradient>
         </defs>
         <path style="fill:url(#gradient4)" d="M 9401,6553 L 9399,6615 9393,6677 9383,6738 9369,6799 9351,6858 9329,6916 9303,6973 9274,7028 9241,7081 9204,7131 9165,7179 9123,7225 9077,7267 9029,7306 8979,7343 8926,7376 8871,7405 8814,7431 8756,7453 8697,7471 8636,7485 8575,7495 8513,7501 8451,7503 8388,7501 8326,7495 8265,7485 8204,7471 8145,7453 8087,7431 8030,7405 7975,7376 7922,7343 7872,7306 7824,7267 7778,7225 7736,7179 7697,7131 7660,7081 7627,7028 7598,6973 7572,6916 7550,6858 7532,6799 7518,6738 7508,6677 7502,6615 7500,6553 7502,6490 7508,6428 7518,6367 7532,6306 7550,6247 7572,6189 7598,6132 7627,6077 7660,6024 7697,5974 7736,5926 7778,5880 7824,5838 7872,5799 7922,5762 7975,5729 8030,5700 8087,5674 8145,5652 8204,5634 8265,5620 8326,5610 8388,5604 8451,5602 8513,5604 8575,5610 8636,5620 8697,5634 8756,5652 8814,5674 8871,5700 8926,5729 8979,5762 9029,5799 9077,5838 9123,5880 9165,5926 9204,5974 9241,6024 9274,6077 9303,6132 9329,6189 9351,6247 9369,6306 9383,6367 9393,6428 9399,6490 9401,6552 9401,6553 Z"/>
        </g>
       </g>
      </g>
      <g class="com.sun.star.drawing.CustomShape">
       <g id="id25">
        <rect class="BoundingBox" stroke="none" fill="none" x="4050" y="3150" width="1902" height="1902"/>
        <g>
         <defs>
          <linearGradient id="gradient5" x1="4351" y1="2976" x2="5650" y2="5225" gradientUnits="userSpaceOnUse">
           <stop offset="0" style="stop-color:rgb(200,122,128)"/>
           <stop offset="1" style="stop-color:rgb(150,32,32)"/>
          </linearGradient>
         </defs>
         <path style="fill:url(#gradient5)" d="M 5951,4101 L 5949,4163 5943,4225 5933,4286 5919,4347 5901,4406 5879,4464 5853,4521 5824,4576 5791,4629 5754,4679 5715,4727 5673,4773 5627,4815 5579,4854 5529,4891 5476,4924 5421,4953 5364,4979 5306,5001 5247,5019 5186,5033 5125,5043 5063,5049 5001,5051 4938,5049 4876,5043 4815,5033 4754,5019 4695,5001 4637,4979 4580,4953 4525,4924 4472,4891 4422,4854 4374,4815 4328,4773 4286,4727 4247,4679 4210,4629 4177,4576 4148,4521 4122,4464 4100,4406 4082,4347 4068,4286 4058,4225 4052,4163 4050,4101 4052,4038 4058,3976 4068,3915 4082,3854 4100,3795 4122,3737 4148,3680 4177,3625 4210,3572 4247,3522 4286,3474 4328,3428 4374,3386 4422,3347 4472,3310 4525,3277 4580,3248 4637,3222 4695,3200 4754,3182 4815,3168 4876,3158 4938,3152 5000,3150 5063,3152 5125,3158 5186,3168 5247,3182 5306,3200 5364,3222 5421,3248 5476,3277 5529,3310 5579,3347 5627,3386 5673,3428 5715,3474 5754,3522 5791,3572 5824,3625 5853,3680 5879,3737 5901,3795 5919,3854 5933,3915 5943,3976 5949,4038 5951,4100 5951,4101 Z"/>
        </g>
       </g>
      </g>
      <g class="com.sun.star.drawing.CustomShape">
       <g id="id26">
        <rect class="BoundingBox" stroke="none" fill="none" x="4050" y="302" width="1902" height="1902"/>
        <g>
         <defs>
          <linearGradient id="gradient6" x1="4351" y1="128" x2="5650" y2="2377" gradientUnits="userSpaceOnUse">
           <stop offset="0" style="stop-color:rgb(156,200,122)"/>
           <stop offset="1" style="stop-color:rgb(71,150,31)"/>
          </linearGradient>
         </defs>
         <path style="fill:url(#gradient6)" d="M 5951,1253 L 5949,1315 5943,1377 5933,1438 5919,1499 5901,1558 5879,1616 5853,1673 5824,1728 5791,1781 5754,1831 5715,1879 5673,1925 5627,1967 5579,2006 5529,2043 5476,2076 5421,2105 5364,2131 5306,2153 5247,2171 5186,2185 5125,2195 5063,2201 5001,2203 4938,2201 4876,2195 4815,2185 4754,2171 4695,2153 4637,2131 4580,2105 4525,2076 4472,2043 4422,2006 4374,1967 4328,1925 4286,1879 4247,1831 4210,1781 4177,1728 4148,1673 4122,1616 4100,1558 4082,1499 4068,1438 4058,1377 4052,1315 4050,1253 4052,1190 4058,1128 4068,1067 4082,1006 4100,947 4122,889 4148,832 4177,777 4210,724 4247,674 4286,626 4328,580 4374,538 4422,499 4472,462 4525,429 4580,400 4637,374 4695,352 4754,334 4815,320 4876,310 4938,304 5000,302 5063,304 5125,310 5186,320 5247,334 5306,352 5364,374 5421,400 5476,429 5529,462 5579,499 5627,538 5673,580 5715,626 5754,674 5791,724 5824,777 5853,832 5879,889 5901,947 5919,1006 5933,1067 5943,1128 5949,1190 5951,1252 5951,1253 Z"/>
        </g>
       </g>
      </g>
      <g class="com.sun.star.drawing.CustomShape">
       <g id="id27">
        <rect class="BoundingBox" stroke="none" fill="none" x="4050" y="7802" width="1902" height="1902"/>
        <g>
         <defs>
          <linearGradient id="gradient7" x1="4351" y1="7628" x2="5650" y2="9877" gradientUnits="userSpaceOnUse">
           <stop offset="0" style="stop-color:rgb(200,122,128)"/>
           <stop offset="1" style="stop-color:rgb(150,32,32)"/>
          </linearGradient>
         </defs>
         <path style="fill:url(#gradient7)" d="M 5951,8753 L 5949,8815 5943,8877 5933,8938 5919,8999 5901,9058 5879,9116 5853,9173 5824,9228 5791,9281 5754,9331 5715,9379 5673,9425 5627,9467 5579,9506 5529,9543 5476,9576 5421,9605 5364,9631 5306,9653 5247,9671 5186,9685 5125,9695 5063,9701 5001,9703 4938,9701 4876,9695 4815,9685 4754,9671 4695,9653 4637,9631 4580,9605 4525,9576 4472,9543 4422,9506 4374,9467 4328,9425 4286,9379 4247,9331 4210,9281 4177,9228 4148,9173 4122,9116 4100,9058 4082,8999 4068,8938 4058,8877 4052,8815 4050,8753 4052,8690 4058,8628 4068,8567 4082,8506 4100,8447 4122,8389 4148,8332 4177,8277 4210,8224 4247,8174 4286,8126 4328,8080 4374,8038 4422,7999 4472,7962 4525,7929 4580,7900 4637,7874 4695,7852 4754,7834 4815,7820 4876,7810 4938,7804 5000,7802 5063,7804 5125,7810 5186,7820 5247,7834 5306,7852 5364,7874 5421,7900 5476,7929 5529,7962 5579,7999 5627,8038 5673,8080 5715,8126 5754,8174 5791,8224 5824,8277 5853,8332 5879,8389 5901,8447 5919,8506 5933,8567 5943,8628 5949,8690 5951,8752 5951,8753 Z"/>
        </g>
       </g>
      </g>
     </g>
    </g>
   </g>
  </g>
 </g>
</svg>