<?xml version="1.0" encoding="UTF-8" standalone="no"?>
<svg
   xmlns:dc="http://purl.org/dc/elements/1.1/"
   xmlns:cc="http://creativecommons.org/ns#"
   xmlns:rdf="http://www.w3.org/1999/02/22-rdf-syntax-ns#"
   xmlns:svg="http://www.w3.org/2000/svg"
   xmlns="http://www.w3.org/2000/svg"
   xmlns:sodipodi="http://sodipodi.sourceforge.net/DTD/sodipodi-0.dtd"
   xmlns:inkscape="http://www.inkscape.org/namespaces/inkscape"
   width="210mm"
   height="220mm"
   viewBox="0 0 210 220"
   version="1.1"
   id="svg8"
   inkscape:version="1.0 (4035a4fb49, 2020-05-01)"
   sodipodi:docname="MDBTextLogo.svg">
  <title
     id="title769">MusicDB Text Logo</title>
  <defs
     id="defs2">
    <rect
       x="5"
       y="5"
       width="170"
       height="55"
       id="rect573" />
    <rect
       x="-0.79867772"
       y="0.74767031"
       width="126.08634"
       height="23.932832"
       id="rect547" />
    <clipPath
       clipPathUnits="userSpaceOnUse"
       id="presentation_clip_path">
      <rect
         id="rect10"
         height="10000"
         width="10000"
         y="0"
         x="0" />
    </clipPath>
    <linearGradient
       gradientUnits="userSpaceOnUse"
       y2="4675"
       x2="2200"
       y1="2426"
       x1="901"
       id="gradient1">
      <stop
         id="stop201"
         style="stop-color:rgb(122,143,200)"
         offset="0" />
      <stop
         id="stop203"
         style="stop-color:rgb(31,51,150)"
         offset="1" />
    </linearGradient>
    <linearGradient
       gradientUnits="userSpaceOnUse"
       y2="4676"
       x2="9100"
       y1="2427"
       x1="7801"
       id="gradient2">
      <stop
         id="stop217"
         style="stop-color:rgb(122,143,200)"
         offset="0" />
      <stop
         id="stop219"
         style="stop-color:rgb(31,51,150)"
         offset="1" />
    </linearGradient>
    <linearGradient
       gradientUnits="userSpaceOnUse"
       y2="7676"
       x2="2200"
       y1="5427"
       x1="901"
       id="gradient3">
      <stop
         id="stop233"
         style="stop-color:rgb(122,143,200)"
         offset="0" />
      <stop
         id="stop235"
         style="stop-color:rgb(31,51,150)"
         offset="1" />
    </linearGradient>
    <linearGradient
       gradientUnits="userSpaceOnUse"
       y2="7677"
       x2="9100"
       y1="5428"
       x1="7801"
       id="gradient4">
      <stop
         id="stop249"
         style="stop-color:rgb(122,143,200)"
         offset="0" />
      <stop
         id="stop251"
         style="stop-color:rgb(31,51,150)"
         offset="1" />
    </linearGradient>
    <linearGradient
       gradientUnits="userSpaceOnUse"
       y2="5225"
       x2="5650"
       y1="2976"
       x1="4351"
       id="gradient5">
      <stop
         id="stop265"
         style="stop-color:rgb(200,122,128)"
         offset="0" />
      <stop
         id="stop267"
         style="stop-color:rgb(150,32,32)"
         offset="1" />
    </linearGradient>
    <linearGradient
       gradientUnits="userSpaceOnUse"
       y2="2377"
       x2="5650"
       y1="128"
       x1="4351"
       id="gradient6">
      <stop
         id="stop281"
         style="stop-color:rgb(156,200,122)"
         offset="0" />
      <stop
         id="stop283"
         style="stop-color:rgb(71,150,31)"
         offset="1" />
    </linearGradient>
    <linearGradient
       gradientUnits="userSpaceOnUse"
       y2="9877"
       x2="5650"
       y1="7628"
       x1="4351"
       id="gradient7">
      <stop
         id="stop297"
         style="stop-color:rgb(200,122,128)"
         offset="0" />
      <stop
         id="stop299"
         style="stop-color:rgb(150,32,32)"
         offset="1" />
    </linearGradient>
    <rect
       id="rect573-5"
       height="54.60205"
       width="208.52352"
       y="5"
       x="5" />
  </defs>
  <sodipodi:namedview
     id="base"
     pagecolor="#000000"
     bordercolor="#666666"
     borderopacity="1.0"
     inkscape:pageopacity="0"
     inkscape:pageshadow="2"
     inkscape:zoom="0.7"
     inkscape:cx="476.56844"
     inkscape:cy="252.72592"
     inkscape:document-units="mm"
     inkscape:current-layer="layer1"
     inkscape:document-rotation="0"
     showgrid="true"
     inkscape:pagecheckerboard="false"
     inkscape:window-width="1961"
     inkscape:window-height="1346"
     inkscape:window-x="1004"
     inkscape:window-y="407"
     inkscape:window-maximized="0">
    <inkscape:grid
       type="xygrid"
       id="grid569"
       units="mm"
       spacingx="1"
       spacingy="1" />
  </sodipodi:namedview>
  <metadata
     id="metadata5">
    <rdf:RDF>
      <cc:Work
         rdf:about="">
        <dc:format>image/svg+xml</dc:format>
        <dc:type
           rdf:resource="http://purl.org/dc/dcmitype/StillImage" />
        <dc:title>MusicDB Text Logo</dc:title>
        <dc:creator>
          <cc:Agent>
            <dc:title>Ralf Stemmer</dc:title>
          </cc:Agent>
        </dc:creator>
        <dc:date>05.08.2020</dc:date>
        <cc:license
           rdf:resource="http://creativecommons.org/licenses/by-sa/4.0/" />
      </cc:Work>
      <cc:License
         rdf:about="http://creativecommons.org/licenses/by-sa/4.0/">
        <cc:permits
           rdf:resource="http://creativecommons.org/ns#Reproduction" />
        <cc:permits
           rdf:resource="http://creativecommons.org/ns#Distribution" />
        <cc:requires
           rdf:resource="http://creativecommons.org/ns#Notice" />
        <cc:requires
           rdf:resource="http://creativecommons.org/ns#Attribution" />
        <cc:permits
           rdf:resource="http://creativecommons.org/ns#DerivativeWorks" />
        <cc:requires
           rdf:resource="http://creativecommons.org/ns#ShareAlike" />
      </cc:License>
    </rdf:RDF>
  </metadata>
  <g
     inkscape:label="Ebene 1"
     inkscape:groupmode="layer"
     id="layer1">
    <g
       style="fill-rule:evenodd;stroke-width:28.222;stroke-linejoin:round"
       id="g543"
       transform="matrix(0.01,0,0,0.01,54.995,57.324165)">
      <g
         id="g57">
        <g
           class="Master_Slide"
           id="id2">
          <g
             class="Background"
             id="bg-id2" />
          <g
             class="BackgroundObjects"
             id="bo-id2" />
        </g>
      </g>
      <g
         id="g317"
         class="SlideGroup">
        <g
           id="g315">
          <g
             id="container-id1">
            <g
               clip-path="url(#presentation_clip_path)"
               class="Slide"
               id="id1">
              <g
                 id="g311"
                 class="Page">
                <g
                   id="g66"
                   class="com.sun.star.drawing.CustomShape">
                  <g
                     id="id3">
                    <rect
                       id="rect59"
                       height="304"
                       width="304"
                       y="3399"
                       x="1399"
                       fill="none"
                       stroke="none"
                       class="BoundingBox" />
                    <path
                       id="path61"
                       d="m 1701,3551 c 0,26 -7,52 -20,75 -13,23 -32,42 -55,55 -23,13 -49,20 -75,20 -27,0 -53,-7 -76,-20 -23,-13 -42,-32 -55,-55 -13,-23 -20,-49 -20,-75 0,-27 7,-53 20,-76 13,-23 32,-42 55,-55 23,-13 49,-20 76,-20 26,0 52,7 75,20 23,13 42,32 55,55 13,23 20,49 20,76 z"
                       stroke="none"
                       fill="#eeeeee" />
                    <path
                       id="path63"
                       d="m 1701,3551 c 0,26 -7,52 -20,75 -13,23 -32,42 -55,55 -23,13 -49,20 -75,20 -27,0 -53,-7 -76,-20 -23,-13 -42,-32 -55,-55 -13,-23 -20,-49 -20,-75 0,-27 7,-53 20,-76 13,-23 32,-42 55,-55 23,-13 49,-20 76,-20 26,0 52,7 75,20 23,13 42,32 55,55 13,23 20,49 20,76 z"
                       stroke="#eeeeee"
                       fill="none" />
                  </g>
                </g>
                <g
                   id="g75"
                   class="com.sun.star.drawing.CustomShape">
                  <g
                     id="id4">
                    <rect
                       id="rect68"
                       height="304"
                       width="304"
                       y="1101"
                       x="4849"
                       fill="none"
                       stroke="none"
                       class="BoundingBox" />
                    <path
                       id="path70"
                       d="m 5151,1253 c 0,26 -7,52 -20,75 -13,23 -32,42 -55,55 -23,13 -49,20 -75,20 -27,0 -53,-7 -76,-20 -23,-13 -42,-32 -55,-55 -13,-23 -20,-49 -20,-75 0,-27 7,-53 20,-76 13,-23 32,-42 55,-55 23,-13 49,-20 76,-20 26,0 52,7 75,20 23,13 42,32 55,55 13,23 20,49 20,76 z"
                       stroke="none"
                       fill="#eeeeee" />
                    <path
                       id="path72"
                       d="m 5151,1253 c 0,26 -7,52 -20,75 -13,23 -32,42 -55,55 -23,13 -49,20 -75,20 -27,0 -53,-7 -76,-20 -23,-13 -42,-32 -55,-55 -13,-23 -20,-49 -20,-75 0,-27 7,-53 20,-76 13,-23 32,-42 55,-55 23,-13 49,-20 76,-20 26,0 52,7 75,20 23,13 42,32 55,55 13,23 20,49 20,76 z"
                       stroke="#eeeeee"
                       fill="none" />
                  </g>
                </g>
                <g
                   id="g84"
                   class="com.sun.star.drawing.CustomShape">
                  <g
                     id="id5">
                    <rect
                       id="rect77"
                       height="304"
                       width="304"
                       y="3949"
                       x="4849"
                       fill="none"
                       stroke="none"
                       class="BoundingBox" />
                    <path
                       id="path79"
                       d="m 5151,4101 c 0,26 -7,52 -20,75 -13,23 -32,42 -55,55 -23,13 -49,20 -75,20 -27,0 -53,-7 -76,-20 -23,-13 -42,-32 -55,-55 -13,-23 -20,-49 -20,-75 0,-27 7,-53 20,-76 13,-23 32,-42 55,-55 23,-13 49,-20 76,-20 26,0 52,7 75,20 23,13 42,32 55,55 13,23 20,49 20,76 z"
                       stroke="none"
                       fill="#eeeeee" />
                    <path
                       id="path81"
                       d="m 5151,4101 c 0,26 -7,52 -20,75 -13,23 -32,42 -55,55 -23,13 -49,20 -75,20 -27,0 -53,-7 -76,-20 -23,-13 -42,-32 -55,-55 -13,-23 -20,-49 -20,-75 0,-27 7,-53 20,-76 13,-23 32,-42 55,-55 23,-13 49,-20 76,-20 26,0 52,7 75,20 23,13 42,32 55,55 13,23 20,49 20,76 z"
                       stroke="#eeeeee"
                       fill="none" />
                  </g>
                </g>
                <g
                   id="g91"
                   class="com.sun.star.drawing.ConnectorShape">
                  <g
                     id="id6">
                    <rect
                       id="rect86"
                       height="1293"
                       width="3893"
                       y="3179"
                       x="1329"
                       fill="none"
                       stroke="none"
                       class="BoundingBox" />
                    <path
                       id="path88"
                       d="m 1700,3550 3150,550"
                       stroke-linejoin="round"
                       stroke-width="741"
                       stroke="#eeeeee"
                       fill="none" />
                  </g>
                </g>
                <g
                   id="g98"
                   class="com.sun.star.drawing.ConnectorShape">
                  <g
                     id="id7">
                    <rect
                       id="rect93"
                       height="2891"
                       width="4043"
                       y="881"
                       x="1179"
                       fill="none"
                       stroke="none"
                       class="BoundingBox" />
                    <path
                       id="path95"
                       d="M 1550,3400 4850,1252"
                       stroke-linejoin="round"
                       stroke-width="741"
                       stroke="#eeeeee"
                       fill="none" />
                  </g>
                </g>
                <g
                   id="g105"
                   class="com.sun.star.drawing.ConnectorShape">
                  <g
                     id="id8">
                    <rect
                       id="rect100"
                       height="3291"
                       width="743"
                       y="1031"
                       x="4629"
                       fill="none"
                       stroke="none"
                       class="BoundingBox" />
                    <path
                       id="path102"
                       d="M 5000,1402 V 3950"
                       stroke-linejoin="round"
                       stroke-width="741"
                       stroke="#eeeeee"
                       fill="none" />
                  </g>
                </g>
                <g
                   id="g114"
                   class="com.sun.star.drawing.CustomShape">
                  <g
                     id="id9">
                    <rect
                       id="rect107"
                       height="304"
                       width="304"
                       y="6400"
                       x="1399"
                       fill="none"
                       stroke="none"
                       class="BoundingBox" />
                    <path
                       id="path109"
                       d="m 1701,6552 c 0,26 -7,52 -20,75 -13,23 -32,42 -55,55 -23,13 -49,20 -75,20 -27,0 -53,-7 -76,-20 -23,-13 -42,-32 -55,-55 -13,-23 -20,-49 -20,-75 0,-27 7,-53 20,-76 13,-23 32,-42 55,-55 23,-13 49,-20 76,-20 26,0 52,7 75,20 23,13 42,32 55,55 13,23 20,49 20,76 z"
                       stroke="none"
                       fill="#eeeeee" />
                    <path
                       id="path111"
                       d="m 1701,6552 c 0,26 -7,52 -20,75 -13,23 -32,42 -55,55 -23,13 -49,20 -75,20 -27,0 -53,-7 -76,-20 -23,-13 -42,-32 -55,-55 -13,-23 -20,-49 -20,-75 0,-27 7,-53 20,-76 13,-23 32,-42 55,-55 23,-13 49,-20 76,-20 26,0 52,7 75,20 23,13 42,32 55,55 13,23 20,49 20,76 z"
                       stroke="#eeeeee"
                       fill="none" />
                  </g>
                </g>
                <g
                   id="g123"
                   class="com.sun.star.drawing.CustomShape">
                  <g
                     id="id10">
                    <rect
                       id="rect116"
                       height="304"
                       width="304"
                       y="8601"
                       x="4849"
                       fill="none"
                       stroke="none"
                       class="BoundingBox" />
                    <path
                       id="path118"
                       d="m 5151,8753 c 0,26 -7,52 -20,75 -13,23 -32,42 -55,55 -23,13 -49,20 -75,20 -27,0 -53,-7 -76,-20 -23,-13 -42,-32 -55,-55 -13,-23 -20,-49 -20,-75 0,-27 7,-53 20,-76 13,-23 32,-42 55,-55 23,-13 49,-20 76,-20 26,0 52,7 75,20 23,13 42,32 55,55 13,23 20,49 20,76 z"
                       stroke="none"
                       fill="#eeeeee" />
                    <path
                       id="path120"
                       d="m 5151,8753 c 0,26 -7,52 -20,75 -13,23 -32,42 -55,55 -23,13 -49,20 -75,20 -27,0 -53,-7 -76,-20 -23,-13 -42,-32 -55,-55 -13,-23 -20,-49 -20,-75 0,-27 7,-53 20,-76 13,-23 32,-42 55,-55 23,-13 49,-20 76,-20 26,0 52,7 75,20 23,13 42,32 55,55 13,23 20,49 20,76 z"
                       stroke="#eeeeee"
                       fill="none" />
                  </g>
                </g>
                <g
                   id="g132"
                   class="com.sun.star.drawing.CustomShape">
                  <g
                     id="id11">
                    <rect
                       id="rect125"
                       height="304"
                       width="304"
                       y="6401"
                       x="8299"
                       fill="none"
                       stroke="none"
                       class="BoundingBox" />
                    <path
                       id="path127"
                       d="m 8601,6553 c 0,26 -7,52 -20,75 -13,23 -32,42 -55,55 -23,13 -49,20 -75,20 -27,0 -53,-7 -76,-20 -23,-13 -42,-32 -55,-55 -13,-23 -20,-49 -20,-75 0,-27 7,-53 20,-76 13,-23 32,-42 55,-55 23,-13 49,-20 76,-20 26,0 52,7 75,20 23,13 42,32 55,55 13,23 20,49 20,76 z"
                       stroke="none"
                       fill="#eeeeee" />
                    <path
                       id="path129"
                       d="m 8601,6553 c 0,26 -7,52 -20,75 -13,23 -32,42 -55,55 -23,13 -49,20 -75,20 -27,0 -53,-7 -76,-20 -23,-13 -42,-32 -55,-55 -13,-23 -20,-49 -20,-75 0,-27 7,-53 20,-76 13,-23 32,-42 55,-55 23,-13 49,-20 76,-20 26,0 52,7 75,20 23,13 42,32 55,55 13,23 20,49 20,76 z"
                       stroke="#eeeeee"
                       fill="none" />
                  </g>
                </g>
                <g
                   id="g141"
                   class="com.sun.star.drawing.CustomShape">
                  <g
                     id="id12">
                    <rect
                       id="rect134"
                       height="304"
                       width="304"
                       y="3400"
                       x="8299"
                       fill="none"
                       stroke="none"
                       class="BoundingBox" />
                    <path
                       id="path136"
                       d="m 8601,3552 c 0,26 -7,52 -20,75 -13,23 -32,42 -55,55 -23,13 -49,20 -75,20 -27,0 -53,-7 -76,-20 -23,-13 -42,-32 -55,-55 -13,-23 -20,-49 -20,-75 0,-27 7,-53 20,-76 13,-23 32,-42 55,-55 23,-13 49,-20 76,-20 26,0 52,7 75,20 23,13 42,32 55,55 13,23 20,49 20,76 z"
                       stroke="none"
                       fill="#eeeeee" />
                    <path
                       id="path138"
                       d="m 8601,3552 c 0,26 -7,52 -20,75 -13,23 -32,42 -55,55 -23,13 -49,20 -75,20 -27,0 -53,-7 -76,-20 -23,-13 -42,-32 -55,-55 -13,-23 -20,-49 -20,-75 0,-27 7,-53 20,-76 13,-23 32,-42 55,-55 23,-13 49,-20 76,-20 26,0 52,7 75,20 23,13 42,32 55,55 13,23 20,49 20,76 z"
                       stroke="#eeeeee"
                       fill="none" />
                  </g>
                </g>
                <g
                   id="g148"
                   class="com.sun.star.drawing.ConnectorShape">
                  <g
                     id="id13">
                    <rect
                       id="rect143"
                       height="2837"
                       width="3937"
                       y="6287"
                       x="4779"
                       fill="none"
                       stroke="none"
                       class="BoundingBox" />
                    <path
                       id="path145"
                       d="M 5150,8752 8344,6658"
                       stroke-linejoin="round"
                       stroke-width="741"
                       stroke="#eeeeee"
                       fill="none" />
                  </g>
                </g>
                <g
                   id="g155"
                   class="com.sun.star.drawing.ConnectorShape">
                  <g
                     id="id14">
                    <rect
                       id="rect150"
                       height="3088"
                       width="3937"
                       y="3835"
                       x="1329"
                       fill="none"
                       stroke="none"
                       class="BoundingBox" />
                    <path
                       id="path152"
                       d="M 1700,6551 4894,4206"
                       stroke-linejoin="round"
                       stroke-width="741"
                       stroke="#eeeeee"
                       fill="none" />
                  </g>
                </g>
                <g
                   id="g162"
                   class="com.sun.star.drawing.ConnectorShape">
                  <g
                     id="id15">
                    <rect
                       id="rect157"
                       height="2838"
                       width="3937"
                       y="6286"
                       x="1285"
                       fill="none"
                       stroke="none"
                       class="BoundingBox" />
                    <path
                       id="path159"
                       d="M 1656,6657 4850,8752"
                       stroke-linejoin="round"
                       stroke-width="741"
                       stroke="#eeeeee"
                       fill="none" />
                  </g>
                </g>
                <g
                   id="g169"
                   class="com.sun.star.drawing.ConnectorShape">
                  <g
                     id="id16">
                    <rect
                       id="rect164"
                       height="1292"
                       width="3893"
                       y="3180"
                       x="4779"
                       fill="none"
                       stroke="none"
                       class="BoundingBox" />
                    <path
                       id="path166"
                       d="M 5150,4100 8300,3551"
                       stroke-linejoin="round"
                       stroke-width="741"
                       stroke="#eeeeee"
                       fill="none" />
                  </g>
                </g>
                <g
                   id="g176"
                   class="com.sun.star.drawing.ConnectorShape">
                  <g
                     id="id17">
                    <rect
                       id="rect171"
                       height="3089"
                       width="3937"
                       y="3835"
                       x="4735"
                       fill="none"
                       stroke="none"
                       class="BoundingBox" />
                    <path
                       id="path173"
                       d="M 5106,4206 8300,6552"
                       stroke-linejoin="round"
                       stroke-width="741"
                       stroke="#eeeeee"
                       fill="none" />
                  </g>
                </g>
                <g
                   id="g183"
                   class="com.sun.star.drawing.ConnectorShape">
                  <g
                     id="id18">
                    <rect
                       id="rect178"
                       height="3444"
                       width="743"
                       y="3329"
                       x="1179"
                       fill="none"
                       stroke="none"
                       class="BoundingBox" />
                    <path
                       id="path180"
                       d="M 1550,6401 V 3700"
                       stroke-linejoin="round"
                       stroke-width="741"
                       stroke="#eeeeee"
                       fill="none" />
                  </g>
                </g>
                <g
                   id="g190"
                   class="com.sun.star.drawing.ConnectorShape">
                  <g
                     id="id19">
                    <rect
                       id="rect185"
                       height="3444"
                       width="743"
                       y="3330"
                       x="8079"
                       fill="none"
                       stroke="none"
                       class="BoundingBox" />
                    <path
                       id="path187"
                       d="M 8450,6402 V 3701"
                       stroke-linejoin="round"
                       stroke-width="741"
                       stroke="#eeeeee"
                       fill="none" />
                  </g>
                </g>
                <g
                   id="g197"
                   class="com.sun.star.drawing.ConnectorShape">
                  <g
                     id="id20">
                    <rect
                       id="rect192"
                       height="2892"
                       width="4043"
                       y="881"
                       x="4779"
                       fill="none"
                       stroke="none"
                       class="BoundingBox" />
                    <path
                       id="path194"
                       d="M 8450,3401 5150,1252"
                       stroke-linejoin="round"
                       stroke-width="741"
                       stroke="#eeeeee"
                       fill="none" />
                  </g>
                </g>
                <g
                   id="g213"
                   class="com.sun.star.drawing.CustomShape">
                  <g
                     id="id21">
                    <rect
                       id="rect199"
                       height="1902"
                       width="1903"
                       y="2600"
                       x="599"
                       fill="none"
                       stroke="none"
                       class="BoundingBox" />
                    <g
                       id="g210">
                      <defs
                         id="defs206" />
                      <path
                         id="path208"
                         d="m 2501,3551 -2,62 -6,62 -10,61 -14,61 -18,59 -22,58 -26,57 -29,55 -33,53 -37,50 -39,48 -42,46 -46,42 -48,39 -50,37 -53,33 -55,29 -57,26 -58,22 -59,18 -61,14 -61,10 -62,6 -62,2 -63,-2 -62,-6 -61,-10 -61,-14 -59,-18 -58,-22 -57,-26 -55,-29 -53,-33 -50,-37 -48,-39 -46,-42 -42,-46 -39,-48 -37,-50 -33,-53 -29,-55 -26,-57 -22,-58 -18,-59 -14,-61 -10,-61 -6,-62 -2,-62 2,-63 6,-62 10,-61 14,-61 18,-59 22,-58 26,-57 29,-55 33,-53 37,-50 39,-48 42,-46 46,-42 48,-39 50,-37 53,-33 55,-29 57,-26 58,-22 59,-18 61,-14 61,-10 62,-6 62,-2 63,2 62,6 61,10 61,14 59,18 58,22 57,26 55,29 53,33 50,37 48,39 46,42 42,46 39,48 37,50 33,53 29,55 26,57 22,58 18,59 14,61 10,61 6,62 2,62 z"
                         style="fill:url(#gradient1)" />
                    </g>
                  </g>
                </g>
                <g
                   id="g229"
                   class="com.sun.star.drawing.CustomShape">
                  <g
                     id="id22">
                    <rect
                       id="rect215"
                       height="1902"
                       width="1903"
                       y="2601"
                       x="7499"
                       fill="none"
                       stroke="none"
                       class="BoundingBox" />
                    <g
                       id="g226">
                      <defs
                         id="defs222" />
                      <path
                         id="path224"
                         d="m 9401,3552 -2,62 -6,62 -10,61 -14,61 -18,59 -22,58 -26,57 -29,55 -33,53 -37,50 -39,48 -42,46 -46,42 -48,39 -50,37 -53,33 -55,29 -57,26 -58,22 -59,18 -61,14 -61,10 -62,6 -62,2 -63,-2 -62,-6 -61,-10 -61,-14 -59,-18 -58,-22 -57,-26 -55,-29 -53,-33 -50,-37 -48,-39 -46,-42 -42,-46 -39,-48 -37,-50 -33,-53 -29,-55 -26,-57 -22,-58 -18,-59 -14,-61 -10,-61 -6,-62 -2,-62 2,-63 6,-62 10,-61 14,-61 18,-59 22,-58 26,-57 29,-55 33,-53 37,-50 39,-48 42,-46 46,-42 48,-39 50,-37 53,-33 55,-29 57,-26 58,-22 59,-18 61,-14 61,-10 62,-6 63,-2 62,2 62,6 61,10 61,14 59,18 58,22 57,26 55,29 53,33 50,37 48,39 46,42 42,46 39,48 37,50 33,53 29,55 26,57 22,58 18,59 14,61 10,61 6,62 2,62 z"
                         style="fill:url(#gradient2)" />
                    </g>
                  </g>
                </g>
                <g
                   id="g245"
                   class="com.sun.star.drawing.CustomShape">
                  <g
                     id="id23">
                    <rect
                       id="rect231"
                       height="1902"
                       width="1903"
                       y="5601"
                       x="599"
                       fill="none"
                       stroke="none"
                       class="BoundingBox" />
                    <g
                       id="g242">
                      <defs
                         id="defs238" />
                      <path
                         id="path240"
                         d="m 2501,6552 -2,62 -6,62 -10,61 -14,61 -18,59 -22,58 -26,57 -29,55 -33,53 -37,50 -39,48 -42,46 -46,42 -48,39 -50,37 -53,33 -55,29 -57,26 -58,22 -59,18 -61,14 -61,10 -62,6 -62,2 -63,-2 -62,-6 -61,-10 -61,-14 -59,-18 -58,-22 -57,-26 -55,-29 -53,-33 -50,-37 -48,-39 -46,-42 -42,-46 -39,-48 -37,-50 -33,-53 -29,-55 -26,-57 -22,-58 -18,-59 -14,-61 -10,-61 -6,-62 -2,-62 2,-63 6,-62 10,-61 14,-61 18,-59 22,-58 26,-57 29,-55 33,-53 37,-50 39,-48 42,-46 46,-42 48,-39 50,-37 53,-33 55,-29 57,-26 58,-22 59,-18 61,-14 61,-10 62,-6 62,-2 63,2 62,6 61,10 61,14 59,18 58,22 57,26 55,29 53,33 50,37 48,39 46,42 42,46 39,48 37,50 33,53 29,55 26,57 22,58 18,59 14,61 10,61 6,62 2,62 z"
                         style="fill:url(#gradient3)" />
                    </g>
                  </g>
                </g>
                <g
                   id="g261"
                   class="com.sun.star.drawing.CustomShape">
                  <g
                     id="id24">
                    <rect
                       id="rect247"
                       height="1902"
                       width="1903"
                       y="5602"
                       x="7499"
                       fill="none"
                       stroke="none"
                       class="BoundingBox" />
                    <g
                       id="g258">
                      <defs
                         id="defs254" />
                      <path
                         id="path256"
                         d="m 9401,6553 -2,62 -6,62 -10,61 -14,61 -18,59 -22,58 -26,57 -29,55 -33,53 -37,50 -39,48 -42,46 -46,42 -48,39 -50,37 -53,33 -55,29 -57,26 -58,22 -59,18 -61,14 -61,10 -62,6 -62,2 -63,-2 -62,-6 -61,-10 -61,-14 -59,-18 -58,-22 -57,-26 -55,-29 -53,-33 -50,-37 -48,-39 -46,-42 -42,-46 -39,-48 -37,-50 -33,-53 -29,-55 -26,-57 -22,-58 -18,-59 -14,-61 -10,-61 -6,-62 -2,-62 2,-63 6,-62 10,-61 14,-61 18,-59 22,-58 26,-57 29,-55 33,-53 37,-50 39,-48 42,-46 46,-42 48,-39 50,-37 53,-33 55,-29 57,-26 58,-22 59,-18 61,-14 61,-10 62,-6 63,-2 62,2 62,6 61,10 61,14 59,18 58,22 57,26 55,29 53,33 50,37 48,39 46,42 42,46 39,48 37,50 33,53 29,55 26,57 22,58 18,59 14,61 10,61 6,62 2,62 z"
                         style="fill:url(#gradient4)" />
                    </g>
                  </g>
                </g>
                <g
                   id="g277"
                   class="com.sun.star.drawing.CustomShape">
                  <g
                     id="id25">
                    <rect
                       id="rect263"
                       height="1902"
                       width="1902"
                       y="3150"
                       x="4050"
                       fill="none"
                       stroke="none"
                       class="BoundingBox" />
                    <g
                       id="g274">
                      <defs
                         id="defs270" />
                      <path
                         id="path272"
                         d="m 5951,4101 -2,62 -6,62 -10,61 -14,61 -18,59 -22,58 -26,57 -29,55 -33,53 -37,50 -39,48 -42,46 -46,42 -48,39 -50,37 -53,33 -55,29 -57,26 -58,22 -59,18 -61,14 -61,10 -62,6 -62,2 -63,-2 -62,-6 -61,-10 -61,-14 -59,-18 -58,-22 -57,-26 -55,-29 -53,-33 -50,-37 -48,-39 -46,-42 -42,-46 -39,-48 -37,-50 -33,-53 -29,-55 -26,-57 -22,-58 -18,-59 -14,-61 -10,-61 -6,-62 -2,-62 2,-63 6,-62 10,-61 14,-61 18,-59 22,-58 26,-57 29,-55 33,-53 37,-50 39,-48 42,-46 46,-42 48,-39 50,-37 53,-33 55,-29 57,-26 58,-22 59,-18 61,-14 61,-10 62,-6 62,-2 63,2 62,6 61,10 61,14 59,18 58,22 57,26 55,29 53,33 50,37 48,39 46,42 42,46 39,48 37,50 33,53 29,55 26,57 22,58 18,59 14,61 10,61 6,62 2,62 z"
                         style="fill:url(#gradient5)" />
                    </g>
                  </g>
                </g>
                <g
                   id="g293"
                   class="com.sun.star.drawing.CustomShape">
                  <g
                     id="id26">
                    <rect
                       id="rect279"
                       height="1902"
                       width="1902"
                       y="302"
                       x="4050"
                       fill="none"
                       stroke="none"
                       class="BoundingBox" />
                    <g
                       id="g290">
                      <defs
                         id="defs286" />
                      <path
                         id="path288"
                         d="m 5951,1253 -2,62 -6,62 -10,61 -14,61 -18,59 -22,58 -26,57 -29,55 -33,53 -37,50 -39,48 -42,46 -46,42 -48,39 -50,37 -53,33 -55,29 -57,26 -58,22 -59,18 -61,14 -61,10 -62,6 -62,2 -63,-2 -62,-6 -61,-10 -61,-14 -59,-18 -58,-22 -57,-26 -55,-29 -53,-33 -50,-37 -48,-39 -46,-42 -42,-46 -39,-48 -37,-50 -33,-53 -29,-55 -26,-57 -22,-58 -18,-59 -14,-61 -10,-61 -6,-62 -2,-62 2,-63 6,-62 10,-61 14,-61 18,-59 22,-58 26,-57 29,-55 33,-53 37,-50 39,-48 42,-46 46,-42 48,-39 50,-37 53,-33 55,-29 57,-26 58,-22 59,-18 61,-14 61,-10 62,-6 62,-2 63,2 62,6 61,10 61,14 59,18 58,22 57,26 55,29 53,33 50,37 48,39 46,42 42,46 39,48 37,50 33,53 29,55 26,57 22,58 18,59 14,61 10,61 6,62 2,62 z"
                         style="fill:url(#gradient6)" />
                    </g>
                  </g>
                </g>
                <g
                   id="g309"
                   class="com.sun.star.drawing.CustomShape">
                  <g
                     id="id27">
                    <rect
                       id="rect295"
                       height="1902"
                       width="1902"
                       y="7802"
                       x="4050"
                       fill="none"
                       stroke="none"
                       class="BoundingBox" />
                    <g
                       id="g306">
                      <defs
                         id="defs302" />
                      <path
                         id="path304"
                         d="m 5951,8753 -2,62 -6,62 -10,61 -14,61 -18,59 -22,58 -26,57 -29,55 -33,53 -37,50 -39,48 -42,46 -46,42 -48,39 -50,37 -53,33 -55,29 -57,26 -58,22 -59,18 -61,14 -61,10 -62,6 -62,2 -63,-2 -62,-6 -61,-10 -61,-14 -59,-18 -58,-22 -57,-26 -55,-29 -53,-33 -50,-37 -48,-39 -46,-42 -42,-46 -39,-48 -37,-50 -33,-53 -29,-55 -26,-57 -22,-58 -18,-59 -14,-61 -10,-61 -6,-62 -2,-62 2,-63 6,-62 10,-61 14,-61 18,-59 22,-58 26,-57 29,-55 33,-53 37,-50 39,-48 42,-46 46,-42 48,-39 50,-37 53,-33 55,-29 57,-26 58,-22 59,-18 61,-14 61,-10 62,-6 62,-2 63,2 62,6 61,10 61,14 59,18 58,22 57,26 55,29 53,33 50,37 48,39 46,42 42,46 39,48 37,50 33,53 29,55 26,57 22,58 18,59 14,61 10,61 6,62 2,62 z"
                         style="fill:url(#gradient7)" />
                    </g>
                  </g>
                </g>
              </g>
            </g>
          </g>
        </g>
      </g>
    </g>
    <text
       xml:space="preserve"
       id="text545"
       style="fill:black;fill-opacity:1;line-height:1.25;stroke:none;font-family:sans-serif;font-style:normal;font-weight:normal;font-size:10.58333333px;white-space:pre;shape-inside:url(#rect547);" />
    <text
       xml:space="preserve"
       id="text571"
       style="font-style:normal;font-weight:normal;font-size:38.8056px;line-height:1.25;font-family:sans-serif;letter-spacing:2.11667px;white-space:pre;shape-inside:url(#rect573);fill:#000000;fill-opacity:1;stroke:none;"
       transform="translate(22.907476,-2.6458334)"><tspan
         x="5"
         y="39.33386"><tspan
           style="font-style:normal;font-variant:normal;font-weight:normal;font-stretch:normal;font-size:38.8056px;font-family:'Source Sans Pro';-inkscape-font-specification:'Source Sans Pro, Normal';font-variant-ligatures:normal;font-variant-caps:normal;font-variant-numeric:normal;font-variant-east-asian:normal;fill:#ffffff">MusicDB</tspan></tspan></text>
    <text
       xml:space="preserve"
       style="font-style:normal;font-weight:normal;font-size:10.5833px;line-height:1.25;font-family:sans-serif;fill:#000000;fill-opacity:1;stroke:none;stroke-width:0.264583"
       x="40"
       y="190"
       id="text579"><tspan
         sodipodi:role="line"
         id="tspan577"
         x="40"
         y="190"
         style="stroke-width:0.264583" /></text>
    <text
       transform="translate(19.900077,165.68965)"
       style="font-style:normal;font-weight:normal;font-size:38.8056px;line-height:1.25;font-family:sans-serif;letter-spacing:2.11667px;white-space:pre;shape-inside:url(#rect573-5);fill:#000000;fill-opacity:1;stroke:none;"
       id="text571-7"
       xml:space="preserve"><tspan
         x="5"
         y="39.33386"><tspan
           style="font-style:normal;font-variant:normal;font-weight:normal;font-stretch:normal;font-size:38.8056px;font-family:'Source Sans Pro';-inkscape-font-specification:'Source Sans Pro, Normal';font-variant-ligatures:normal;font-variant-caps:normal;font-variant-numeric:normal;font-variant-east-asian:normal;fill:#999999">@GitHub</tspan></tspan></text>
  </g>
</svg>
