<?xml version="1.0" encoding="UTF-8" standalone="no"?>
<svg
   xmlns:dc="http://purl.org/dc/elements/1.1/"
   xmlns:cc="http://creativecommons.org/ns#"
   xmlns:rdf="http://www.w3.org/1999/02/22-rdf-syntax-ns#"
   xmlns:svg="http://www.w3.org/2000/svg"
   xmlns="http://www.w3.org/2000/svg"
   xmlns:sodipodi="http://sodipodi.sourceforge.net/DTD/sodipodi-0.dtd"
   xmlns:inkscape="http://www.inkscape.org/namespaces/inkscape"
   sodipodi:docname="MDBTextLogo.svg"
   inkscape:version="1.0 (4035a4fb49, 2020-05-01)"
   id="svg8"
   version="1.1"
   viewBox="0 0 210 220"
   height="220mm"
   width="210mm">
  <title
     id="title769">MusicDB Text Logo</title>
  <defs
     id="defs2">
    <rect
       id="rect573"
       height="55"
       width="170"
       y="5"
       x="5" />
    <rect
       id="rect547"
       height="23.932832"
       width="126.08634"
       y="0.74767031"
       x="-0.79867772" />
    <clipPath
       id="presentation_clip_path"
       clipPathUnits="userSpaceOnUse">
   <rect
   x="0"
   y="0"
   width="10000"
   height="10000"
   id="rect10" />

  </clipPath>
    <linearGradient
       id="gradient1"
       x1="901"
       y1="2426"
       x2="2200"
       y2="4675"
       gradientUnits="userSpaceOnUse">
           <stop
   offset="0"
   style="stop-color:rgb(122,143,200)"
   id="stop201" />

           <stop
   offset="1"
   style="stop-color:rgb(31,51,150)"
   id="stop203" />

          </linearGradient>
    <linearGradient
       id="gradient2"
       x1="7801"
       y1="2427"
       x2="9100"
       y2="4676"
       gradientUnits="userSpaceOnUse">
           <stop
   offset="0"
   style="stop-color:rgb(122,143,200)"
   id="stop217" />

           <stop
   offset="1"
   style="stop-color:rgb(31,51,150)"
   id="stop219" />

          </linearGradient>
    <linearGradient
       id="gradient3"
       x1="901"
       y1="5427"
       x2="2200"
       y2="7676"
       gradientUnits="userSpaceOnUse">
           <stop
   offset="0"
   style="stop-color:rgb(122,143,200)"
   id="stop233" />

           <stop
   offset="1"
   style="stop-color:rgb(31,51,150)"
   id="stop235" />

          </linearGradient>
    <linearGradient
       id="gradient4"
       x1="7801"
       y1="5428"
       x2="9100"
       y2="7677"
       gradientUnits="userSpaceOnUse">
           <stop
   offset="0"
   style="stop-color:rgb(122,143,200)"
   id="stop249" />

           <stop
   offset="1"
   style="stop-color:rgb(31,51,150)"
   id="stop251" />

          </linearGradient>
    <linearGradient
       id="gradient5"
       x1="4351"
       y1="2976"
       x2="5650"
       y2="5225"
       gradientUnits="userSpaceOnUse">
           <stop
   offset="0"
   style="stop-color:rgb(200,122,128)"
   id="stop265" />

           <stop
   offset="1"
   style="stop-color:rgb(150,32,32)"
   id="stop267" />

          </linearGradient>
    <linearGradient
       id="gradient6"
       x1="4351"
       y1="128"
       x2="5650"
       y2="2377"
       gradientUnits="userSpaceOnUse">
           <stop
   offset="0"
   style="stop-color:rgb(156,200,122)"
   id="stop281" />

           <stop
   offset="1"
   style="stop-color:rgb(71,150,31)"
   id="stop283" />

          </linearGradient>
    <linearGradient
       id="gradient7"
       x1="4351"
       y1="7628"
       x2="5650"
       y2="9877"
       gradientUnits="userSpaceOnUse">
           <stop
   offset="0"
   style="stop-color:rgb(200,122,128)"
   id="stop297" />

           <stop
   offset="1"
   style="stop-color:rgb(150,32,32)"
   id="stop299" />

          </linearGradient>
    <rect
       x="5"
       y="5"
       width="208.52352"
       height="54.60205"
       id="rect573-5" />
  </defs>
  <sodipodi:namedview
     inkscape:window-maximized="0"
     inkscape:window-y="407"
     inkscape:window-x="1004"
     inkscape:window-height="1289"
     inkscape:window-width="1835"
     inkscape:pagecheckerboard="false"
     showgrid="true"
     inkscape:document-rotation="0"
     inkscape:current-layer="layer1"
     inkscape:document-units="mm"
     inkscape:cy="252.72592"
     inkscape:cx="476.56844"
     inkscape:zoom="0.7"
     inkscape:pageshadow="2"
     inkscape:pageopacity="0"
     borderopacity="1.0"
     bordercolor="#666666"
     pagecolor="#000000"
     id="base">
    <inkscape:grid
       spacingy="1"
       spacingx="1"
       units="mm"
       id="grid569"
       type="xygrid" />
  </sodipodi:namedview>
  <metadata
     id="metadata5">
    <rdf:RDF>
      <cc:Work
         rdf:about="">
        <dc:format>image/svg+xml</dc:format>
        <dc:type
           rdf:resource="http://purl.org/dc/dcmitype/StillImage" />
        <dc:title>MusicDB Text Logo</dc:title>
        <dc:creator>
          <cc:Agent>
            <dc:title>Ralf Stemmer</dc:title>
          </cc:Agent>
        </dc:creator>
        <dc:date>05.08.2020</dc:date>
        <cc:license
           rdf:resource="http://creativecommons.org/licenses/by-sa/4.0/" />
      </cc:Work>
      <cc:License
         rdf:about="http://creativecommons.org/licenses/by-sa/4.0/">
        <cc:permits
           rdf:resource="http://creativecommons.org/ns#Reproduction" />
        <cc:permits
           rdf:resource="http://creativecommons.org/ns#Distribution" />
        <cc:requires
           rdf:resource="http://creativecommons.org/ns#Notice" />
        <cc:requires
           rdf:resource="http://creativecommons.org/ns#Attribution" />
        <cc:permits
           rdf:resource="http://creativecommons.org/ns#DerivativeWorks" />
        <cc:requires
           rdf:resource="http://creativecommons.org/ns#ShareAlike" />
      </cc:License>
    </rdf:RDF>
  </metadata>
  <g
     id="layer1"
     inkscape:groupmode="layer"
     inkscape:label="Ebene 1">
    <g
       transform="matrix(0.01,0,0,0.01,54.995,57.324165)"
       id="g543"
       style="fill-rule:evenodd;stroke-width:28.222;stroke-linejoin:round">
      <g
         id="g57">
  <g
   id="id2"
   class="Master_Slide">
   <g
   id="bg-id2"
   class="Background" />

   <g
   id="bo-id2"
   class="BackgroundObjects" />

  </g>

 </g>
      <g
         class="SlideGroup"
         id="g317">
  <g
   id="g315">
   <g
   id="container-id1">
    <g
   id="id1"
   class="Slide"
   clip-path="url(#presentation_clip_path)">
     <g
   class="Page"
   id="g311">
      <g
   class="com.sun.star.drawing.CustomShape"
   id="g66">
       <g
   id="id3">
        <rect
   class="BoundingBox"
   stroke="none"
   fill="none"
   x="1399"
   y="3399"
   width="304"
   height="304"
   id="rect59" />

        <path
   fill="#eeeeee"
   stroke="none"
   d="m 1701,3551 c 0,26 -7,52 -20,75 -13,23 -32,42 -55,55 -23,13 -49,20 -75,20 -27,0 -53,-7 -76,-20 -23,-13 -42,-32 -55,-55 -13,-23 -20,-49 -20,-75 0,-27 7,-53 20,-76 13,-23 32,-42 55,-55 23,-13 49,-20 76,-20 26,0 52,7 75,20 23,13 42,32 55,55 13,23 20,49 20,76 z"
   id="path61" />

        <path
   fill="none"
   stroke="#eeeeee"
   d="m 1701,3551 c 0,26 -7,52 -20,75 -13,23 -32,42 -55,55 -23,13 -49,20 -75,20 -27,0 -53,-7 -76,-20 -23,-13 -42,-32 -55,-55 -13,-23 -20,-49 -20,-75 0,-27 7,-53 20,-76 13,-23 32,-42 55,-55 23,-13 49,-20 76,-20 26,0 52,7 75,20 23,13 42,32 55,55 13,23 20,49 20,76 z"
   id="path63" />

       </g>

      </g>

      <g
   class="com.sun.star.drawing.CustomShape"
   id="g75">
       <g
   id="id4">
        <rect
   class="BoundingBox"
   stroke="none"
   fill="none"
   x="4849"
   y="1101"
   width="304"
   height="304"
   id="rect68" />

        <path
   fill="#eeeeee"
   stroke="none"
   d="m 5151,1253 c 0,26 -7,52 -20,75 -13,23 -32,42 -55,55 -23,13 -49,20 -75,20 -27,0 -53,-7 -76,-20 -23,-13 -42,-32 -55,-55 -13,-23 -20,-49 -20,-75 0,-27 7,-53 20,-76 13,-23 32,-42 55,-55 23,-13 49,-20 76,-20 26,0 52,7 75,20 23,13 42,32 55,55 13,23 20,49 20,76 z"
   id="path70" />

        <path
   fill="none"
   stroke="#eeeeee"
   d="m 5151,1253 c 0,26 -7,52 -20,75 -13,23 -32,42 -55,55 -23,13 -49,20 -75,20 -27,0 -53,-7 -76,-20 -23,-13 -42,-32 -55,-55 -13,-23 -20,-49 -20,-75 0,-27 7,-53 20,-76 13,-23 32,-42 55,-55 23,-13 49,-20 76,-20 26,0 52,7 75,20 23,13 42,32 55,55 13,23 20,49 20,76 z"
   id="path72" />

       </g>

      </g>

      <g
   class="com.sun.star.drawing.CustomShape"
   id="g84">
       <g
   id="id5">
        <rect
   class="BoundingBox"
   stroke="none"
   fill="none"
   x="4849"
   y="3949"
   width="304"
   height="304"
   id="rect77" />

        <path
   fill="#eeeeee"
   stroke="none"
   d="m 5151,4101 c 0,26 -7,52 -20,75 -13,23 -32,42 -55,55 -23,13 -49,20 -75,20 -27,0 -53,-7 -76,-20 -23,-13 -42,-32 -55,-55 -13,-23 -20,-49 -20,-75 0,-27 7,-53 20,-76 13,-23 32,-42 55,-55 23,-13 49,-20 76,-20 26,0 52,7 75,20 23,13 42,32 55,55 13,23 20,49 20,76 z"
   id="path79" />

        <path
   fill="none"
   stroke="#eeeeee"
   d="m 5151,4101 c 0,26 -7,52 -20,75 -13,23 -32,42 -55,55 -23,13 -49,20 -75,20 -27,0 -53,-7 -76,-20 -23,-13 -42,-32 -55,-55 -13,-23 -20,-49 -20,-75 0,-27 7,-53 20,-76 13,-23 32,-42 55,-55 23,-13 49,-20 76,-20 26,0 52,7 75,20 23,13 42,32 55,55 13,23 20,49 20,76 z"
   id="path81" />

       </g>

      </g>

      <g
   class="com.sun.star.drawing.ConnectorShape"
   id="g91">
       <g
   id="id6">
        <rect
   class="BoundingBox"
   stroke="none"
   fill="none"
   x="1329"
   y="3179"
   width="3893"
   height="1293"
   id="rect86" />

        <path
   fill="none"
   stroke="#eeeeee"
   stroke-width="741"
   stroke-linejoin="round"
   d="m 1700,3550 3150,550"
   id="path88" />

       </g>

      </g>

      <g
   class="com.sun.star.drawing.ConnectorShape"
   id="g98">
       <g
   id="id7">
        <rect
   class="BoundingBox"
   stroke="none"
   fill="none"
   x="1179"
   y="881"
   width="4043"
   height="2891"
   id="rect93" />

        <path
   fill="none"
   stroke="#eeeeee"
   stroke-width="741"
   stroke-linejoin="round"
   d="M 1550,3400 4850,1252"
   id="path95" />

       </g>

      </g>

      <g
   class="com.sun.star.drawing.ConnectorShape"
   id="g105">
       <g
   id="id8">
        <rect
   class="BoundingBox"
   stroke="none"
   fill="none"
   x="4629"
   y="1031"
   width="743"
   height="3291"
   id="rect100" />

        <path
   fill="none"
   stroke="#eeeeee"
   stroke-width="741"
   stroke-linejoin="round"
   d="M 5000,1402 V 3950"
   id="path102" />

       </g>

      </g>

      <g
   class="com.sun.star.drawing.CustomShape"
   id="g114">
       <g
   id="id9">
        <rect
   class="BoundingBox"
   stroke="none"
   fill="none"
   x="1399"
   y="6400"
   width="304"
   height="304"
   id="rect107" />

        <path
   fill="#eeeeee"
   stroke="none"
   d="m 1701,6552 c 0,26 -7,52 -20,75 -13,23 -32,42 -55,55 -23,13 -49,20 -75,20 -27,0 -53,-7 -76,-20 -23,-13 -42,-32 -55,-55 -13,-23 -20,-49 -20,-75 0,-27 7,-53 20,-76 13,-23 32,-42 55,-55 23,-13 49,-20 76,-20 26,0 52,7 75,20 23,13 42,32 55,55 13,23 20,49 20,76 z"
   id="path109" />

        <path
   fill="none"
   stroke="#eeeeee"
   d="m 1701,6552 c 0,26 -7,52 -20,75 -13,23 -32,42 -55,55 -23,13 -49,20 -75,20 -27,0 -53,-7 -76,-20 -23,-13 -42,-32 -55,-55 -13,-23 -20,-49 -20,-75 0,-27 7,-53 20,-76 13,-23 32,-42 55,-55 23,-13 49,-20 76,-20 26,0 52,7 75,20 23,13 42,32 55,55 13,23 20,49 20,76 z"
   id="path111" />

       </g>

      </g>

      <g
   class="com.sun.star.drawing.CustomShape"
   id="g123">
       <g
   id="id10">
        <rect
   class="BoundingBox"
   stroke="none"
   fill="none"
   x="4849"
   y="8601"
   width="304"
   height="304"
   id="rect116" />

        <path
   fill="#eeeeee"
   stroke="none"
   d="m 5151,8753 c 0,26 -7,52 -20,75 -13,23 -32,42 -55,55 -23,13 -49,20 -75,20 -27,0 -53,-7 -76,-20 -23,-13 -42,-32 -55,-55 -13,-23 -20,-49 -20,-75 0,-27 7,-53 20,-76 13,-23 32,-42 55,-55 23,-13 49,-20 76,-20 26,0 52,7 75,20 23,13 42,32 55,55 13,23 20,49 20,76 z"
   id="path118" />

        <path
   fill="none"
   stroke="#eeeeee"
   d="m 5151,8753 c 0,26 -7,52 -20,75 -13,23 -32,42 -55,55 -23,13 -49,20 -75,20 -27,0 -53,-7 -76,-20 -23,-13 -42,-32 -55,-55 -13,-23 -20,-49 -20,-75 0,-27 7,-53 20,-76 13,-23 32,-42 55,-55 23,-13 49,-20 76,-20 26,0 52,7 75,20 23,13 42,32 55,55 13,23 20,49 20,76 z"
   id="path120" />

       </g>

      </g>

      <g
   class="com.sun.star.drawing.CustomShape"
   id="g132">
       <g
   id="id11">
        <rect
   class="BoundingBox"
   stroke="none"
   fill="none"
   x="8299"
   y="6401"
   width="304"
   height="304"
   id="rect125" />

        <path
   fill="#eeeeee"
   stroke="none"
   d="m 8601,6553 c 0,26 -7,52 -20,75 -13,23 -32,42 -55,55 -23,13 -49,20 -75,20 -27,0 -53,-7 -76,-20 -23,-13 -42,-32 -55,-55 -13,-23 -20,-49 -20,-75 0,-27 7,-53 20,-76 13,-23 32,-42 55,-55 23,-13 49,-20 76,-20 26,0 52,7 75,20 23,13 42,32 55,55 13,23 20,49 20,76 z"
   id="path127" />

        <path
   fill="none"
   stroke="#eeeeee"
   d="m 8601,6553 c 0,26 -7,52 -20,75 -13,23 -32,42 -55,55 -23,13 -49,20 -75,20 -27,0 -53,-7 -76,-20 -23,-13 -42,-32 -55,-55 -13,-23 -20,-49 -20,-75 0,-27 7,-53 20,-76 13,-23 32,-42 55,-55 23,-13 49,-20 76,-20 26,0 52,7 75,20 23,13 42,32 55,55 13,23 20,49 20,76 z"
   id="path129" />

       </g>

      </g>

      <g
   class="com.sun.star.drawing.CustomShape"
   id="g141">
       <g
   id="id12">
        <rect
   class="BoundingBox"
   stroke="none"
   fill="none"
   x="8299"
   y="3400"
   width="304"
   height="304"
   id="rect134" />

        <path
   fill="#eeeeee"
   stroke="none"
   d="m 8601,3552 c 0,26 -7,52 -20,75 -13,23 -32,42 -55,55 -23,13 -49,20 -75,20 -27,0 -53,-7 -76,-20 -23,-13 -42,-32 -55,-55 -13,-23 -20,-49 -20,-75 0,-27 7,-53 20,-76 13,-23 32,-42 55,-55 23,-13 49,-20 76,-20 26,0 52,7 75,20 23,13 42,32 55,55 13,23 20,49 20,76 z"
   id="path136" />

        <path
   fill="none"
   stroke="#eeeeee"
   d="m 8601,3552 c 0,26 -7,52 -20,75 -13,23 -32,42 -55,55 -23,13 -49,20 -75,20 -27,0 -53,-7 -76,-20 -23,-13 -42,-32 -55,-55 -13,-23 -20,-49 -20,-75 0,-27 7,-53 20,-76 13,-23 32,-42 55,-55 23,-13 49,-20 76,-20 26,0 52,7 75,20 23,13 42,32 55,55 13,23 20,49 20,76 z"
   id="path138" />

       </g>

      </g>

      <g
   class="com.sun.star.drawing.ConnectorShape"
   id="g148">
       <g
   id="id13">
        <rect
   class="BoundingBox"
   stroke="none"
   fill="none"
   x="4779"
   y="6287"
   width="3937"
   height="2837"
   id="rect143" />

        <path
   fill="none"
   stroke="#eeeeee"
   stroke-width="741"
   stroke-linejoin="round"
   d="M 5150,8752 8344,6658"
   id="path145" />

       </g>

      </g>

      <g
   class="com.sun.star.drawing.ConnectorShape"
   id="g155">
       <g
   id="id14">
        <rect
   class="BoundingBox"
   stroke="none"
   fill="none"
   x="1329"
   y="3835"
   width="3937"
   height="3088"
   id="rect150" />

        <path
   fill="none"
   stroke="#eeeeee"
   stroke-width="741"
   stroke-linejoin="round"
   d="M 1700,6551 4894,4206"
   id="path152" />

       </g>

      </g>

      <g
   class="com.sun.star.drawing.ConnectorShape"
   id="g162">
       <g
   id="id15">
        <rect
   class="BoundingBox"
   stroke="none"
   fill="none"
   x="1285"
   y="6286"
   width="3937"
   height="2838"
   id="rect157" />

        <path
   fill="none"
   stroke="#eeeeee"
   stroke-width="741"
   stroke-linejoin="round"
   d="M 1656,6657 4850,8752"
   id="path159" />

       </g>

      </g>

      <g
   class="com.sun.star.drawing.ConnectorShape"
   id="g169">
       <g
   id="id16">
        <rect
   class="BoundingBox"
   stroke="none"
   fill="none"
   x="4779"
   y="3180"
   width="3893"
   height="1292"
   id="rect164" />

        <path
   fill="none"
   stroke="#eeeeee"
   stroke-width="741"
   stroke-linejoin="round"
   d="M 5150,4100 8300,3551"
   id="path166" />

       </g>

      </g>

      <g
   class="com.sun.star.drawing.ConnectorShape"
   id="g176">
       <g
   id="id17">
        <rect
   class="BoundingBox"
   stroke="none"
   fill="none"
   x="4735"
   y="3835"
   width="3937"
   height="3089"
   id="rect171" />

        <path
   fill="none"
   stroke="#eeeeee"
   stroke-width="741"
   stroke-linejoin="round"
   d="M 5106,4206 8300,6552"
   id="path173" />

       </g>

      </g>

      <g
   class="com.sun.star.drawing.ConnectorShape"
   id="g183">
       <g
   id="id18">
        <rect
   class="BoundingBox"
   stroke="none"
   fill="none"
   x="1179"
   y="3329"
   width="743"
   height="3444"
   id="rect178" />

        <path
   fill="none"
   stroke="#eeeeee"
   stroke-width="741"
   stroke-linejoin="round"
   d="M 1550,6401 V 3700"
   id="path180" />

       </g>

      </g>

      <g
   class="com.sun.star.drawing.ConnectorShape"
   id="g190">
       <g
   id="id19">
        <rect
   class="BoundingBox"
   stroke="none"
   fill="none"
   x="8079"
   y="3330"
   width="743"
   height="3444"
   id="rect185" />

        <path
   fill="none"
   stroke="#eeeeee"
   stroke-width="741"
   stroke-linejoin="round"
   d="M 8450,6402 V 3701"
   id="path187" />

       </g>

      </g>

      <g
   class="com.sun.star.drawing.ConnectorShape"
   id="g197">
       <g
   id="id20">
        <rect
   class="BoundingBox"
   stroke="none"
   fill="none"
   x="4779"
   y="881"
   width="4043"
   height="2892"
   id="rect192" />

        <path
   fill="none"
   stroke="#eeeeee"
   stroke-width="741"
   stroke-linejoin="round"
   d="M 8450,3401 5150,1252"
   id="path194" />

       </g>

      </g>

      <g
   class="com.sun.star.drawing.CustomShape"
   id="g213">
       <g
   id="id21">
        <rect
   class="BoundingBox"
   stroke="none"
   fill="none"
   x="599"
   y="2600"
   width="1903"
   height="1902"
   id="rect199" />

        <g
   id="g210">
         <defs
   id="defs206" />

         <path
   style="fill:url(#gradient1)"
   d="m 2501,3551 -2,62 -6,62 -10,61 -14,61 -18,59 -22,58 -26,57 -29,55 -33,53 -37,50 -39,48 -42,46 -46,42 -48,39 -50,37 -53,33 -55,29 -57,26 -58,22 -59,18 -61,14 -61,10 -62,6 -62,2 -63,-2 -62,-6 -61,-10 -61,-14 -59,-18 -58,-22 -57,-26 -55,-29 -53,-33 -50,-37 -48,-39 -46,-42 -42,-46 -39,-48 -37,-50 -33,-53 -29,-55 -26,-57 -22,-58 -18,-59 -14,-61 -10,-61 -6,-62 -2,-62 2,-63 6,-62 10,-61 14,-61 18,-59 22,-58 26,-57 29,-55 33,-53 37,-50 39,-48 42,-46 46,-42 48,-39 50,-37 53,-33 55,-29 57,-26 58,-22 59,-18 61,-14 61,-10 62,-6 62,-2 63,2 62,6 61,10 61,14 59,18 58,22 57,26 55,29 53,33 50,37 48,39 46,42 42,46 39,48 37,50 33,53 29,55 26,57 22,58 18,59 14,61 10,61 6,62 2,62 z"
   id="path208" />

        </g>

       </g>

      </g>

      <g
   class="com.sun.star.drawing.CustomShape"
   id="g229">
       <g
   id="id22">
        <rect
   class="BoundingBox"
   stroke="none"
   fill="none"
   x="7499"
   y="2601"
   width="1903"
   height="1902"
   id="rect215" />

        <g
   id="g226">
         <defs
   id="defs222" />

         <path
   style="fill:url(#gradient2)"
   d="m 9401,3552 -2,62 -6,62 -10,61 -14,61 -18,59 -22,58 -26,57 -29,55 -33,53 -37,50 -39,48 -42,46 -46,42 -48,39 -50,37 -53,33 -55,29 -57,26 -58,22 -59,18 -61,14 -61,10 -62,6 -62,2 -63,-2 -62,-6 -61,-10 -61,-14 -59,-18 -58,-22 -57,-26 -55,-29 -53,-33 -50,-37 -48,-39 -46,-42 -42,-46 -39,-48 -37,-50 -33,-53 -29,-55 -26,-57 -22,-58 -18,-59 -14,-61 -10,-61 -6,-62 -2,-62 2,-63 6,-62 10,-61 14,-61 18,-59 22,-58 26,-57 29,-55 33,-53 37,-50 39,-48 42,-46 46,-42 48,-39 50,-37 53,-33 55,-29 57,-26 58,-22 59,-18 61,-14 61,-10 62,-6 63,-2 62,2 62,6 61,10 61,14 59,18 58,22 57,26 55,29 53,33 50,37 48,39 46,42 42,46 39,48 37,50 33,53 29,55 26,57 22,58 18,59 14,61 10,61 6,62 2,62 z"
   id="path224" />

        </g>

       </g>

      </g>

      <g
   class="com.sun.star.drawing.CustomShape"
   id="g245">
       <g
   id="id23">
        <rect
   class="BoundingBox"
   stroke="none"
   fill="none"
   x="599"
   y="5601"
   width="1903"
   height="1902"
   id="rect231" />

        <g
   id="g242">
         <defs
   id="defs238" />

         <path
   style="fill:url(#gradient3)"
   d="m 2501,6552 -2,62 -6,62 -10,61 -14,61 -18,59 -22,58 -26,57 -29,55 -33,53 -37,50 -39,48 -42,46 -46,42 -48,39 -50,37 -53,33 -55,29 -57,26 -58,22 -59,18 -61,14 -61,10 -62,6 -62,2 -63,-2 -62,-6 -61,-10 -61,-14 -59,-18 -58,-22 -57,-26 -55,-29 -53,-33 -50,-37 -48,-39 -46,-42 -42,-46 -39,-48 -37,-50 -33,-53 -29,-55 -26,-57 -22,-58 -18,-59 -14,-61 -10,-61 -6,-62 -2,-62 2,-63 6,-62 10,-61 14,-61 18,-59 22,-58 26,-57 29,-55 33,-53 37,-50 39,-48 42,-46 46,-42 48,-39 50,-37 53,-33 55,-29 57,-26 58,-22 59,-18 61,-14 61,-10 62,-6 62,-2 63,2 62,6 61,10 61,14 59,18 58,22 57,26 55,29 53,33 50,37 48,39 46,42 42,46 39,48 37,50 33,53 29,55 26,57 22,58 18,59 14,61 10,61 6,62 2,62 z"
   id="path240" />

        </g>

       </g>

      </g>

      <g
   class="com.sun.star.drawing.CustomShape"
   id="g261">
       <g
   id="id24">
        <rect
   class="BoundingBox"
   stroke="none"
   fill="none"
   x="7499"
   y="5602"
   width="1903"
   height="1902"
   id="rect247" />

        <g
   id="g258">
         <defs
   id="defs254" />

         <path
   style="fill:url(#gradient4)"
   d="m 9401,6553 -2,62 -6,62 -10,61 -14,61 -18,59 -22,58 -26,57 -29,55 -33,53 -37,50 -39,48 -42,46 -46,42 -48,39 -50,37 -53,33 -55,29 -57,26 -58,22 -59,18 -61,14 -61,10 -62,6 -62,2 -63,-2 -62,-6 -61,-10 -61,-14 -59,-18 -58,-22 -57,-26 -55,-29 -53,-33 -50,-37 -48,-39 -46,-42 -42,-46 -39,-48 -37,-50 -33,-53 -29,-55 -26,-57 -22,-58 -18,-59 -14,-61 -10,-61 -6,-62 -2,-62 2,-63 6,-62 10,-61 14,-61 18,-59 22,-58 26,-57 29,-55 33,-53 37,-50 39,-48 42,-46 46,-42 48,-39 50,-37 53,-33 55,-29 57,-26 58,-22 59,-18 61,-14 61,-10 62,-6 63,-2 62,2 62,6 61,10 61,14 59,18 58,22 57,26 55,29 53,33 50,37 48,39 46,42 42,46 39,48 37,50 33,53 29,55 26,57 22,58 18,59 14,61 10,61 6,62 2,62 z"
   id="path256" />

        </g>

       </g>

      </g>

      <g
   class="com.sun.star.drawing.CustomShape"
   id="g277">
       <g
   id="id25">
        <rect
   class="BoundingBox"
   stroke="none"
   fill="none"
   x="4050"
   y="3150"
   width="1902"
   height="1902"
   id="rect263" />

        <g
   id="g274">
         <defs
   id="defs270" />

         <path
   style="fill:url(#gradient5)"
   d="m 5951,4101 -2,62 -6,62 -10,61 -14,61 -18,59 -22,58 -26,57 -29,55 -33,53 -37,50 -39,48 -42,46 -46,42 -48,39 -50,37 -53,33 -55,29 -57,26 -58,22 -59,18 -61,14 -61,10 -62,6 -62,2 -63,-2 -62,-6 -61,-10 -61,-14 -59,-18 -58,-22 -57,-26 -55,-29 -53,-33 -50,-37 -48,-39 -46,-42 -42,-46 -39,-48 -37,-50 -33,-53 -29,-55 -26,-57 -22,-58 -18,-59 -14,-61 -10,-61 -6,-62 -2,-62 2,-63 6,-62 10,-61 14,-61 18,-59 22,-58 26,-57 29,-55 33,-53 37,-50 39,-48 42,-46 46,-42 48,-39 50,-37 53,-33 55,-29 57,-26 58,-22 59,-18 61,-14 61,-10 62,-6 62,-2 63,2 62,6 61,10 61,14 59,18 58,22 57,26 55,29 53,33 50,37 48,39 46,42 42,46 39,48 37,50 33,53 29,55 26,57 22,58 18,59 14,61 10,61 6,62 2,62 z"
   id="path272" />

        </g>

       </g>

      </g>

      <g
   class="com.sun.star.drawing.CustomShape"
   id="g293">
       <g
   id="id26">
        <rect
   class="BoundingBox"
   stroke="none"
   fill="none"
   x="4050"
   y="302"
   width="1902"
   height="1902"
   id="rect279" />

        <g
   id="g290">
         <defs
   id="defs286" />

         <path
   style="fill:url(#gradient6)"
   d="m 5951,1253 -2,62 -6,62 -10,61 -14,61 -18,59 -22,58 -26,57 -29,55 -33,53 -37,50 -39,48 -42,46 -46,42 -48,39 -50,37 -53,33 -55,29 -57,26 -58,22 -59,18 -61,14 -61,10 -62,6 -62,2 -63,-2 -62,-6 -61,-10 -61,-14 -59,-18 -58,-22 -57,-26 -55,-29 -53,-33 -50,-37 -48,-39 -46,-42 -42,-46 -39,-48 -37,-50 -33,-53 -29,-55 -26,-57 -22,-58 -18,-59 -14,-61 -10,-61 -6,-62 -2,-62 2,-63 6,-62 10,-61 14,-61 18,-59 22,-58 26,-57 29,-55 33,-53 37,-50 39,-48 42,-46 46,-42 48,-39 50,-37 53,-33 55,-29 57,-26 58,-22 59,-18 61,-14 61,-10 62,-6 62,-2 63,2 62,6 61,10 61,14 59,18 58,22 57,26 55,29 53,33 50,37 48,39 46,42 42,46 39,48 37,50 33,53 29,55 26,57 22,58 18,59 14,61 10,61 6,62 2,62 z"
   id="path288" />

        </g>

       </g>

      </g>

      <g
   class="com.sun.star.drawing.CustomShape"
   id="g309">
       <g
   id="id27">
        <rect
   class="BoundingBox"
   stroke="none"
   fill="none"
   x="4050"
   y="7802"
   width="1902"
   height="1902"
   id="rect295" />

        <g
   id="g306">
         <defs
   id="defs302" />

         <path
   style="fill:url(#gradient7)"
   d="m 5951,8753 -2,62 -6,62 -10,61 -14,61 -18,59 -22,58 -26,57 -29,55 -33,53 -37,50 -39,48 -42,46 -46,42 -48,39 -50,37 -53,33 -55,29 -57,26 -58,22 -59,18 -61,14 -61,10 -62,6 -62,2 -63,-2 -62,-6 -61,-10 -61,-14 -59,-18 -58,-22 -57,-26 -55,-29 -53,-33 -50,-37 -48,-39 -46,-42 -42,-46 -39,-48 -37,-50 -33,-53 -29,-55 -26,-57 -22,-58 -18,-59 -14,-61 -10,-61 -6,-62 -2,-62 2,-63 6,-62 10,-61 14,-61 18,-59 22,-58 26,-57 29,-55 33,-53 37,-50 39,-48 42,-46 46,-42 48,-39 50,-37 53,-33 55,-29 57,-26 58,-22 59,-18 61,-14 61,-10 62,-6 62,-2 63,2 62,6 61,10 61,14 59,18 58,22 57,26 55,29 53,33 50,37 48,39 46,42 42,46 39,48 37,50 33,53 29,55 26,57 22,58 18,59 14,61 10,61 6,62 2,62 z"
   id="path304" />

        </g>

       </g>

      </g>

     </g>

    </g>

   </g>

  </g>

 </g>
    </g>
    <text
       style="fill:black;fill-opacity:1;line-height:1.25;stroke:none;font-family:sans-serif;font-style:normal;font-weight:normal;font-size:10.58333333px;white-space:pre;shape-inside:url(#rect547);"
       id="text545"
       xml:space="preserve" />
    <text
       transform="translate(22.907476,-2.6458334)"
       style="font-style:normal;font-weight:normal;font-size:38.8056px;line-height:1.25;font-family:sans-serif;letter-spacing:2.11667px;white-space:pre;shape-inside:url(#rect573);fill:#000000;fill-opacity:1;stroke:none;"
       id="text571"
       xml:space="preserve"><tspan
         x="5"
         y="39.33386"><tspan
           style="font-style:normal;font-variant:normal;font-weight:normal;font-stretch:normal;font-size:38.8056px;font-family:'Source Sans Pro';-inkscape-font-specification:'Source Sans Pro, Normal';font-variant-ligatures:normal;font-variant-caps:normal;font-variant-numeric:normal;font-variant-east-asian:normal;fill:#ffffff">MusicDB</tspan></tspan></text>
    <text
       id="text579"
       y="190"
       x="40"
       style="font-style:normal;font-weight:normal;font-size:10.5833px;line-height:1.25;font-family:sans-serif;fill:#000000;fill-opacity:1;stroke:none;stroke-width:0.264583"
       xml:space="preserve"><tspan
         style="stroke-width:0.264583"
         y="190"
         x="40"
         id="tspan577"
         sodipodi:role="line"></tspan></text>
    <text
       xml:space="preserve"
       id="text571-7"
       style="font-style:normal;font-weight:normal;font-size:38.8056px;line-height:1.25;font-family:sans-serif;letter-spacing:2.11667px;white-space:pre;shape-inside:url(#rect573-5);fill:#000000;fill-opacity:1;stroke:none;"
       transform="translate(6.7921459,168.86467)"><tspan
         x="5"
         y="39.33386"><tspan
           style="font-size:38.8056px;fill:#999999">@GitHub</tspan></tspan></text>
  </g>
</svg>
