<?xml version="1.0" encoding="UTF-8" standalone="no"?>
<!DOCTYPE svg PUBLIC "-//W3C//DTD SVG 1.1//EN"
 "http://www.w3.org/Graphics/SVG/1.1/DTD/svg11.dtd">
<!-- Generated by graphviz version 2.44.0 (0)
 -->
<!-- Title: hierarchy Pages: 1 -->
<svg width="279pt" height="214pt"
 viewBox="0.00 0.00 279.00 214.00" xmlns="http://www.w3.org/2000/svg" xmlns:xlink="http://www.w3.org/1999/xlink">
<g id="graph0" class="graph" transform="scale(1 1) rotate(0) translate(4 210)">
<title>hierarchy</title>
<polygon fill="white" stroke="transparent" points="-4,4 -4,-210 275,-210 275,4 -4,4"/>
<!-- mdbmod -->
<g id="node1" class="node">
<title>mdbmod</title>
<polygon fill="#f2f2f2" stroke="black" points="2.5,-121.5 2.5,-205.5 268.5,-205.5 268.5,-121.5 2.5,-121.5"/>
<text text-anchor="middle" x="135.5" y="-190.3" font-family="Times,serif" font-size="14.00">MDBModule</text>
<polyline fill="none" stroke="black" points="2.5,-182.5 268.5,-182.5 "/>
<text text-anchor="middle" x="135.5" y="-167.3" font-family="Times,serif" font-size="14.00"> </text>
<polyline fill="none" stroke="black" points="2.5,-159.5 268.5,-159.5 "/>
<text text-anchor="start" x="10.5" y="-144.3" font-family="Times,serif" font-size="14.00">+ MDBM_CreateArgumentParser()</text>
<text text-anchor="start" x="10.5" y="-129.3" font-family="Times,serif" font-size="14.00">+ MDBM_Main()</text>
</g>
<!-- example -->
<g id="node2" class="node">
<title>example</title>
<polygon fill="#f2f2f2" stroke="black" points="0,-0.5 0,-84.5 271,-84.5 271,-0.5 0,-0.5"/>
<text text-anchor="middle" x="135.5" y="-69.3" font-family="Times,serif" font-size="14.00">module</text>
<polyline fill="none" stroke="black" points="0,-61.5 271,-61.5 "/>
<text text-anchor="middle" x="135.5" y="-46.3" font-family="Times,serif" font-size="14.00"> </text>
<polyline fill="none" stroke="black" points="0,-38.5 271,-38.5 "/>
<text text-anchor="start" x="8" y="-23.3" font-family="Times,serif" font-size="14.00">/+ MDBM_CreateArgumentParser()</text>
<text text-anchor="start" x="8" y="-8.3" font-family="Times,serif" font-size="14.00">/+ MDBM_Main()</text>
</g>
<!-- mdbmod&#45;&gt;example -->
<g id="edge1" class="edge">
<title>mdbmod&#45;&gt;example</title>
<path fill="none" stroke="black" d="M135.5,-111.04C135.5,-102.24 135.5,-93.2 135.5,-84.71"/>
<polygon fill="none" stroke="black" points="132,-111.21 135.5,-121.21 139,-111.21 132,-111.21"/>
</g>
</g>
</svg>
