<?xml version="1.0" encoding="UTF-8" standalone="no"?>
<!DOCTYPE svg PUBLIC "-//W3C//DTD SVG 1.1//EN"
 "http://www.w3.org/Graphics/SVG/1.1/DTD/svg11.dtd">
<!-- Generated by graphviz version 2.46.0 (0)
 -->
<!-- Title: hierarchy Pages: 1 -->
<svg width="360pt" height="345pt"
 viewBox="0.00 0.00 360.00 344.63" xmlns="http://www.w3.org/2000/svg" xmlns:xlink="http://www.w3.org/1999/xlink">
<g id="graph0" class="graph" transform="scale(0.98 0.98) rotate(0) translate(4 346)">
<title>hierarchy</title>
<polygon fill="white" stroke="transparent" points="-4,4 -4,-346 361.61,-346 361.61,4 -4,4"/>
<!-- start -->
<g id="node1" class="node">
<title>start</title>
<ellipse fill="none" stroke="black" cx="230" cy="-324" rx="34.39" ry="18"/>
<text text-anchor="middle" x="230" y="-320.3" font-family="Times,serif" font-size="14.00">Start</text>
</g>
<!-- readmp3header -->
<g id="node2" class="node">
<title>readmp3header</title>
<polygon fill="none" stroke="black" points="329,-269 131,-269 131,-233 329,-233 329,-269"/>
<text text-anchor="middle" x="230" y="-247.3" font-family="Times,serif" font-size="14.00">Read MP3 Frame Header</text>
</g>
<!-- start&#45;&gt;readmp3header -->
<g id="edge1" class="edge">
<title>start&#45;&gt;readmp3header</title>
<path fill="none" stroke="black" d="M230,-305.81C230,-297.79 230,-288.05 230,-279.07"/>
<polygon fill="black" stroke="black" points="233.5,-279.03 230,-269.03 226.5,-279.03 233.5,-279.03"/>
</g>
<!-- analyzeheader -->
<g id="node3" class="node">
<title>analyzeheader</title>
<polygon fill="none" stroke="black" points="218,-182 0,-182 0,-146 218,-146 218,-182"/>
<text text-anchor="middle" x="109" y="-160.3" font-family="Times,serif" font-size="14.00">Analyze MP3 Frame Header</text>
</g>
<!-- readmp3header&#45;&gt;analyzeheader -->
<g id="edge2" class="edge">
<title>readmp3header&#45;&gt;analyzeheader</title>
<path fill="none" stroke="black" d="M205.51,-232.8C187.15,-219.9 161.81,-202.1 141.71,-187.98"/>
<polygon fill="black" stroke="black" points="143.64,-185.06 133.45,-182.18 139.62,-190.79 143.64,-185.06"/>
</g>
<!-- end -->
<g id="node6" class="node">
<title>end</title>
<ellipse fill="none" stroke="black" cx="265" cy="-164" rx="29.5" ry="18"/>
<text text-anchor="middle" x="265" y="-160.3" font-family="Times,serif" font-size="14.00">End</text>
</g>
<!-- readmp3header&#45;&gt;end -->
<g id="edge6" class="edge">
<title>readmp3header&#45;&gt;end</title>
<path fill="none" stroke="black" d="M227.29,-232.69C226.47,-222.76 226.72,-210.26 231,-200 233.16,-194.82 236.48,-189.98 240.22,-185.64"/>
<polygon fill="black" stroke="black" points="242.77,-188.04 247.22,-178.43 237.74,-183.17 242.77,-188.04"/>
<text text-anchor="middle" x="287" y="-203.8" font-family="Times,serif" font-size="14.00">No further data</text>
</g>
<!-- readmp3frame -->
<g id="node4" class="node">
<title>readmp3frame</title>
<polygon fill="none" stroke="black" points="282.5,-109 141.5,-109 141.5,-73 282.5,-73 282.5,-109"/>
<text text-anchor="middle" x="212" y="-87.3" font-family="Times,serif" font-size="14.00">Read MP3 Frame</text>
</g>
<!-- analyzeheader&#45;&gt;readmp3frame -->
<g id="edge3" class="edge">
<title>analyzeheader&#45;&gt;readmp3frame</title>
<path fill="none" stroke="black" d="M133.67,-145.99C147.2,-136.67 164.16,-124.97 178.84,-114.86"/>
<polygon fill="black" stroke="black" points="180.93,-117.67 187.17,-109.11 176.95,-111.91 180.93,-117.67"/>
</g>
<!-- savemp3frame -->
<g id="node5" class="node">
<title>savemp3frame</title>
<polygon fill="none" stroke="black" points="354,-36 214,-36 214,0 354,0 354,-36"/>
<text text-anchor="middle" x="284" y="-14.3" font-family="Times,serif" font-size="14.00">Yield MP3 Frame</text>
</g>
<!-- readmp3frame&#45;&gt;savemp3frame -->
<g id="edge4" class="edge">
<title>readmp3frame&#45;&gt;savemp3frame</title>
<path fill="none" stroke="black" d="M229.43,-72.81C238.45,-63.92 249.61,-52.91 259.49,-43.17"/>
<polygon fill="black" stroke="black" points="262.07,-45.54 266.73,-36.03 257.15,-40.56 262.07,-45.54"/>
</g>
<!-- savemp3frame&#45;&gt;readmp3header -->
<g id="edge5" class="edge">
<title>savemp3frame&#45;&gt;readmp3header</title>
<path fill="none" stroke="black" d="M298.36,-36.18C326.92,-72.52 384.64,-158.51 343,-215 339.61,-219.6 335.62,-223.61 331.21,-227.11"/>
<polygon fill="black" stroke="black" points="329.09,-224.32 322.84,-232.87 333.06,-230.08 329.09,-224.32"/>
</g>
</g>
</svg>
