<?xml version="1.0" encoding="UTF-8" standalone="no"?>
<!DOCTYPE svg PUBLIC "-//W3C//DTD SVG 1.1//EN"
 "http://www.w3.org/Graphics/SVG/1.1/DTD/svg11.dtd">
<!-- Generated by graphviz version 2.40.1 (20161225.0304)
 -->
<!-- Title: finite_state_machine Pages: 1 -->
<svg width="576pt" height="258pt"
 viewBox="0.00 0.00 576.00 258.07" xmlns="http://www.w3.org/2000/svg" xmlns:xlink="http://www.w3.org/1999/xlink">
<g id="graph0" class="graph" transform="scale(.5885 .5885) rotate(0) translate(4 434.5437)">
<title>finite_state_machine</title>
<polygon fill="#ffffff" stroke="transparent" points="-4,4 -4,-434.5437 974.795,-434.5437 974.795,4 -4,4"/>
<!-- idle -->
<g id="node1" class="node">
<title>idle</title>
<ellipse fill="none" stroke="#000000" cx="448.795" cy="-406.4085" rx="24.2711" ry="24.2711"/>
<text text-anchor="middle" x="448.795" y="-403.9085" font-family="Times,serif" font-size="10.00" fill="#000000">IDLE</text>
</g>
<!-- running -->
<g id="node2" class="node">
<title>running</title>
<ellipse fill="none" stroke="#000000" cx="63.795" cy="-276.2442" rx="40.0582" ry="40.0582"/>
<text text-anchor="middle" x="63.795" y="-273.7442" font-family="Times,serif" font-size="10.00" fill="#000000">RUNNING</text>
</g>
<!-- idle&#45;&gt;running -->
<g id="edge1" class="edge">
<title>idle&#45;&gt;running</title>
<path fill="none" stroke="#000000" d="M424.2783,-405.0777C361.2714,-401.3302 195.2423,-389.2933 146.795,-364.2733 125.7845,-353.4227 107.2019,-335.0917 92.9751,-317.9578"/>
<polygon fill="#000000" stroke="#000000" points="95.331,-315.3003 86.3493,-309.6808 89.8663,-319.6748 95.331,-315.3003"/>
<text text-anchor="middle" x="290.795" y="-353.0733" font-family="Times,serif" font-size="14.00" fill="#000000">GStreamerInterface.Execute()</text>
<text text-anchor="middle" x="290.795" y="-338.0733" font-family="Times,serif" font-size="14.00" fill="#000000">/ GStreamer Pipeline State := PLAYING</text>
</g>
<!-- error -->
<g id="node4" class="node">
<title>error</title>
<ellipse fill="none" stroke="#000000" cx="350.795" cy="-31.7878" rx="31.577" ry="31.577"/>
<text text-anchor="middle" x="350.795" y="-29.2878" font-family="Times,serif" font-size="10.00" fill="#000000">ERROR</text>
</g>
<!-- idle&#45;&gt;error -->
<g id="edge2" class="edge">
<title>idle&#45;&gt;error</title>
<path fill="none" stroke="#000000" d="M472.8647,-402.2599C534.475,-391.1018 695.1867,-358.4211 725.795,-316.2733 746.703,-287.4828 733.9412,-270.8515 725.795,-236.2152 708.217,-161.4769 710.5073,-127.2526 648.795,-81.5756 608.8616,-52.0185 464.8539,-38.9425 392.6626,-34.1407"/>
<polygon fill="#000000" stroke="#000000" points="392.7574,-30.6397 382.5535,-33.4913 392.3085,-37.6253 392.7574,-30.6397"/>
<text text-anchor="middle" x="845.795" y="-207.0152" font-family="Times,serif" font-size="14.00" fill="#000000">Starting GStreamer Pipeline failed</text>
</g>
<!-- cancel -->
<g id="node3" class="node">
<title>cancel</title>
<ellipse fill="none" stroke="#000000" cx="350.795" cy="-149.8954" rx="35.1405" ry="35.1405"/>
<text text-anchor="middle" x="350.795" y="-147.3954" font-family="Times,serif" font-size="10.00" fill="#000000">CANCEL</text>
</g>
<!-- running&#45;&gt;cancel -->
<g id="edge3" class="edge">
<title>running&#45;&gt;cancel</title>
<path fill="none" stroke="#000000" d="M39.2063,-244.479C31.4036,-230.4109 27.2299,-214.5251 37.795,-203.2152 57.8654,-181.7297 274.1391,-195.1951 301.795,-185.2152 306.4218,-183.5455 310.9982,-181.302 315.3872,-178.7508"/>
<polygon fill="#000000" stroke="#000000" points="317.5626,-181.5136 324.0894,-173.1678 313.7827,-175.6219 317.5626,-181.5136"/>
<text text-anchor="middle" x="132.795" y="-207.0152" font-family="Times,serif" font-size="14.00" fill="#000000">GStreamer Error Message</text>
</g>
<!-- running&#45;&gt;cancel -->
<g id="edge4" class="edge">
<title>running&#45;&gt;cancel</title>
<path fill="none" stroke="#000000" d="M102.6259,-265.3646C136.5396,-255.1981 186.6394,-238.5542 227.795,-218.2152 238.7359,-212.8082 239.8519,-208.6178 250.795,-203.2152 272.3484,-192.5742 280.4957,-196.356 301.795,-185.2152 306.0433,-182.993 310.337,-180.4381 314.5244,-177.7402"/>
<polygon fill="#000000" stroke="#000000" points="316.5982,-180.563 322.9216,-172.0621 312.6772,-174.7642 316.5982,-180.563"/>
<text text-anchor="middle" x="342.795" y="-207.0152" font-family="Times,serif" font-size="14.00" fill="#000000">GStreamer EOS Message</text>
</g>
<!-- running&#45;&gt;error -->
<g id="edge6" class="edge">
<title>running&#45;&gt;error</title>
<path fill="none" stroke="#000000" d="M38.3613,-244.9165C13.2178,-209.919 -17.4538,-153.1275 12.795,-114.5756 49.2297,-68.1398 226.9508,-44.36 309.0581,-35.7032"/>
<polygon fill="#000000" stroke="#000000" points="309.4609,-39.1803 319.05,-34.6748 308.7442,-32.2171 309.4609,-39.1803"/>
<text text-anchor="middle" x="159.795" y="-146.1954" font-family="Times,serif" font-size="14.00" fill="#000000">Tried to start pipeline that was not IDLE</text>
</g>
<!-- cancel&#45;&gt;idle -->
<g id="edge5" class="edge">
<title>cancel&#45;&gt;idle</title>
<path fill="none" stroke="#000000" d="M384.3121,-162.307C402.4845,-170.8875 423.4845,-184.2174 434.795,-203.2152 466.0447,-255.7039 461.4935,-329.8836 455.2295,-372.576"/>
<polygon fill="#000000" stroke="#000000" points="451.7708,-372.04 453.6642,-382.4643 458.6848,-373.1345 451.7708,-372.04"/>
<text text-anchor="middle" x="590.295" y="-272.5442" font-family="Times,serif" font-size="14.00" fill="#000000">/ GStreamer Pipeline State := NULL</text>
</g>
<!-- cancel&#45;&gt;error -->
<g id="edge7" class="edge">
<title>cancel&#45;&gt;error</title>
<path fill="none" stroke="#000000" d="M350.795,-114.4592C350.795,-101.6988 350.795,-87.177 350.795,-73.9026"/>
<polygon fill="#000000" stroke="#000000" points="354.2951,-73.5816 350.795,-63.5817 347.2951,-73.5817 354.2951,-73.5816"/>
<text text-anchor="middle" x="497.795" y="-85.3756" font-family="Times,serif" font-size="14.00" fill="#000000">Tried to start pipeline that was not IDLE</text>
</g>
</g>
</svg>
