<?xml version="1.0" encoding="UTF-8" standalone="no"?>
<!DOCTYPE svg PUBLIC "-//W3C//DTD SVG 1.1//EN"
 "http://www.w3.org/Graphics/SVG/1.1/DTD/svg11.dtd">
<!-- Generated by graphviz version 2.44.0 (0)
 -->
<!-- Title: hierarchy Pages: 1 -->
<svg width="200pt" height="411pt"
 viewBox="0.00 0.00 200.00 411.00" xmlns="http://www.w3.org/2000/svg" xmlns:xlink="http://www.w3.org/1999/xlink">
<g id="graph0" class="graph" transform="scale(1 1) rotate(0) translate(4 407)">
<title>hierarchy</title>
<polygon fill="white" stroke="transparent" points="-4,4 -4,-407 196,-407 196,4 -4,4"/>
<!-- files -->
<g id="node1" class="node">
<title>files</title>
<polygon fill="#dfcce4" stroke="#69015a" stroke-width="3" points="132,-403 0,-403 0,-365 132,-365 132,-403"/>
<text text-anchor="middle" x="66" y="-387.8" font-family="Times,serif" font-size="14.00">Audio files</text>
<text text-anchor="middle" x="66" y="-372.8" font-family="Times,serif" font-size="14.00">(mp3, m4a, flac)</text>
</g>
<!-- gstreamer -->
<g id="node2" class="node">
<title>gstreamer</title>
<polygon fill="#8ccfb7" stroke="#016c3c" stroke-width="3" points="113.5,-299 18.5,-299 18.5,-263 113.5,-263 113.5,-299"/>
<text text-anchor="middle" x="66" y="-277.3" font-family="Times,serif" font-size="14.00">GStreamer</text>
</g>
<!-- files&#45;&gt;gstreamer -->
<g id="edge1" class="edge">
<title>files&#45;&gt;gstreamer</title>
<path fill="none" stroke="#69015a" stroke-width="3" d="M66,-364.94C66,-349.53 66,-327.13 66,-309.49"/>
<polygon fill="#69015a" stroke="#69015a" stroke-width="3" points="69.5,-309.23 66,-299.23 62.5,-309.23 69.5,-309.23"/>
<text text-anchor="middle" x="129" y="-335.8" font-family="Times,serif" font-size="14.00">Using GStreamer</text>
<text text-anchor="middle" x="129" y="-320.8" font-family="Times,serif" font-size="14.00">filesrc element</text>
</g>
<!-- mp3stream -->
<g id="node3" class="node">
<title>mp3stream</title>
<polygon fill="#8ccfb7" stroke="#016c3c" stroke-width="3" points="118,-212 14,-212 14,-174 118,-174 118,-212"/>
<text text-anchor="middle" x="66" y="-196.8" font-family="Times,serif" font-size="14.00">MP3 stream</text>
<text text-anchor="middle" x="66" y="-181.8" font-family="Times,serif" font-size="14.00">(mp3)</text>
</g>
<!-- gstreamer&#45;&gt;mp3stream -->
<g id="edge2" class="edge">
<title>gstreamer&#45;&gt;mp3stream</title>
<path fill="none" stroke="#69015a" stroke-width="3" d="M66,-262.6C66,-251.06 66,-235.65 66,-222.36"/>
<polygon fill="#69015a" stroke="#69015a" stroke-width="3" points="69.5,-222.27 66,-212.27 62.5,-222.27 69.5,-222.27"/>
<text text-anchor="middle" x="127" y="-233.8" font-family="Times,serif" font-size="14.00">Using UNIX Pipe</text>
</g>
<!-- icecast -->
<g id="node4" class="node">
<title>icecast</title>
<polygon fill="#cccccc" stroke="#121212" stroke-width="3" points="99.5,-123 32.5,-123 32.5,-87 99.5,-87 99.5,-123"/>
<text text-anchor="middle" x="66" y="-101.3" font-family="Times,serif" font-size="14.00">Icecast</text>
</g>
<!-- mp3stream&#45;&gt;icecast -->
<g id="edge3" class="edge">
<title>mp3stream&#45;&gt;icecast</title>
<path fill="none" stroke="#69015a" stroke-width="3" d="M66,-173.76C66,-161.93 66,-146.32 66,-133.05"/>
<polygon fill="#69015a" stroke="#69015a" stroke-width="3" points="69.5,-133.04 66,-123.04 62.5,-133.04 69.5,-133.04"/>
<text text-anchor="middle" x="118.5" y="-144.8" font-family="Times,serif" font-size="14.00">Using libshout</text>
</g>
<!-- listener -->
<g id="node5" class="node">
<title>listener</title>
<polygon fill="#fedcc6" stroke="#683705" stroke-width="3" points="104,-36 28,-36 28,0 104,0 104,-36"/>
<text text-anchor="middle" x="66" y="-14.3" font-family="Times,serif" font-size="14.00">Listener</text>
</g>
<!-- icecast&#45;&gt;listener -->
<g id="edge4" class="edge">
<title>icecast&#45;&gt;listener</title>
<path fill="none" stroke="#69015a" stroke-width="3" d="M66,-86.8C66,-75.16 66,-59.55 66,-46.24"/>
<polygon fill="#69015a" stroke="#69015a" stroke-width="3" points="69.5,-46.18 66,-36.18 62.5,-46.18 69.5,-46.18"/>
<text text-anchor="middle" x="99.5" y="-57.8" font-family="Times,serif" font-size="14.00">via HTTP</text>
</g>
</g>
</svg>
