<?xml version="1.0" encoding="UTF-8" standalone="no"?>
<!DOCTYPE svg PUBLIC "-//W3C//DTD SVG 1.1//EN"
 "http://www.w3.org/Graphics/SVG/1.1/DTD/svg11.dtd">
<!-- Generated by graphviz version 2.40.1 (20161225.0304)
 -->
<!-- Title: hierarchy Pages: 1 -->
<svg width="360pt" height="343pt"
 viewBox="0.00 0.00 360.00 343.18" xmlns="http://www.w3.org/2000/svg" xmlns:xlink="http://www.w3.org/1999/xlink">
<g id="graph0" class="graph" transform="scale(.9805 .9805) rotate(0) translate(4 346)">
<title>hierarchy</title>
<polygon fill="#ffffff" stroke="transparent" points="-4,4 -4,-346 363.1594,-346 363.1594,4 -4,4"/>
<!-- start -->
<g id="node1" class="node">
<title>start</title>
<ellipse fill="none" stroke="#000000" cx="230.5" cy="-324" rx="34.394" ry="18"/>
<text text-anchor="middle" x="230.5" y="-320.3" font-family="Times,serif" font-size="14.00" fill="#000000">Start</text>
</g>
<!-- readmp3header -->
<g id="node2" class="node">
<title>readmp3header</title>
<polygon fill="none" stroke="#000000" points="330,-269 131,-269 131,-233 330,-233 330,-269"/>
<text text-anchor="middle" x="230.5" y="-247.3" font-family="Times,serif" font-size="14.00" fill="#000000">Read MP3 Frame Header</text>
</g>
<!-- start&#45;&gt;readmp3header -->
<g id="edge1" class="edge">
<title>start&#45;&gt;readmp3header</title>
<path fill="none" stroke="#000000" d="M230.5,-305.9551C230.5,-297.8828 230.5,-288.1764 230.5,-279.1817"/>
<polygon fill="#000000" stroke="#000000" points="234.0001,-279.0903 230.5,-269.0904 227.0001,-279.0904 234.0001,-279.0903"/>
</g>
<!-- analyzeheader -->
<g id="node3" class="node">
<title>analyzeheader</title>
<polygon fill="none" stroke="#000000" points="219,-182 0,-182 0,-146 219,-146 219,-182"/>
<text text-anchor="middle" x="109.5" y="-160.3" font-family="Times,serif" font-size="14.00" fill="#000000">Analyze MP3 Frame Header</text>
</g>
<!-- readmp3header&#45;&gt;analyzeheader -->
<g id="edge2" class="edge">
<title>readmp3header&#45;&gt;analyzeheader</title>
<path fill="none" stroke="#000000" d="M205.4287,-232.9735C187.258,-219.9086 162.5038,-202.1102 142.6932,-187.8662"/>
<polygon fill="#000000" stroke="#000000" points="144.7016,-184.9994 134.5392,-182.0034 140.6151,-190.6829 144.7016,-184.9994"/>
</g>
<!-- end -->
<g id="node6" class="node">
<title>end</title>
<ellipse fill="none" stroke="#000000" cx="266.5" cy="-164" rx="29.4969" ry="18"/>
<text text-anchor="middle" x="266.5" y="-160.3" font-family="Times,serif" font-size="14.00" fill="#000000">End</text>
</g>
<!-- readmp3header&#45;&gt;end -->
<g id="edge6" class="edge">
<title>readmp3header&#45;&gt;end</title>
<path fill="none" stroke="#000000" d="M227.6862,-232.8685C226.892,-222.8128 227.2014,-210.2972 231.5,-200 233.6827,-194.7713 237.0134,-189.8769 240.7684,-185.4842"/>
<polygon fill="#000000" stroke="#000000" points="243.4118,-187.7851 247.8294,-178.1552 238.3707,-182.9284 243.4118,-187.7851"/>
<text text-anchor="middle" x="288" y="-203.8" font-family="Times,serif" font-size="14.00" fill="#000000">No further data</text>
</g>
<!-- readmp3frame -->
<g id="node4" class="node">
<title>readmp3frame</title>
<polygon fill="none" stroke="#000000" points="284,-109 143,-109 143,-73 284,-73 284,-109"/>
<text text-anchor="middle" x="213.5" y="-87.3" font-family="Times,serif" font-size="14.00" fill="#000000">Read MP3 Frame</text>
</g>
<!-- analyzeheader&#45;&gt;readmp3frame -->
<g id="edge3" class="edge">
<title>analyzeheader&#45;&gt;readmp3frame</title>
<path fill="none" stroke="#000000" d="M135.2079,-145.9551C148.583,-136.5667 165.1075,-124.9678 179.5232,-114.8491"/>
<polygon fill="#000000" stroke="#000000" points="181.5533,-117.7003 187.7274,-109.0904 177.5317,-111.9709 181.5533,-117.7003"/>
</g>
<!-- savemp3frame -->
<g id="node5" class="node">
<title>savemp3frame</title>
<polygon fill="none" stroke="#000000" points="356,-36 215,-36 215,0 356,0 356,-36"/>
<text text-anchor="middle" x="285.5" y="-14.3" font-family="Times,serif" font-size="14.00" fill="#000000">Yield MP3 Frame</text>
</g>
<!-- readmp3frame&#45;&gt;savemp3frame -->
<g id="edge4" class="edge">
<title>readmp3frame&#45;&gt;savemp3frame</title>
<path fill="none" stroke="#000000" d="M231.2978,-72.9551C240.1248,-64.0054 250.9331,-53.047 260.5693,-43.2769"/>
<polygon fill="#000000" stroke="#000000" points="263.1272,-45.6678 267.6575,-36.0904 258.1434,-40.7523 263.1272,-45.6678"/>
</g>
<!-- savemp3frame&#45;&gt;readmp3header -->
<g id="edge5" class="edge">
<title>savemp3frame&#45;&gt;readmp3header</title>
<path fill="none" stroke="#000000" d="M300.5205,-36.0907C329.3052,-73.0653 385.8652,-158.5586 344.5,-215 340.6034,-220.3168 331.6221,-225.2114 320.3192,-229.5662"/>
<polygon fill="#000000" stroke="#000000" points="319.0633,-226.2979 310.8095,-232.9406 321.4043,-232.8949 319.0633,-226.2979"/>
</g>
</g>
</svg>
