<?xml version="1.0" encoding="UTF-8" standalone="no"?>
<!DOCTYPE svg PUBLIC "-//W3C//DTD SVG 1.1//EN"
 "http://www.w3.org/Graphics/SVG/1.1/DTD/svg11.dtd">
<!-- Generated by graphviz version 2.40.1 (20161225.0304)
 -->
<!-- Title: hierarchy Pages: 1 -->
<svg width="360pt" height="236pt"
 viewBox="0.00 0.00 360.00 235.70" xmlns="http://www.w3.org/2000/svg" xmlns:xlink="http://www.w3.org/1999/xlink">
<g id="graph0" class="graph" transform="scale(.8602 .8602) rotate(0) translate(4 270)">
<title>hierarchy</title>
<polygon fill="#ffffff" stroke="transparent" points="-4,4 -4,-270 414.5,-270 414.5,4 -4,4"/>
<!-- config -->
<g id="node1" class="node">
<title>config</title>
<polygon fill="#f2f2f2" stroke="#000000" points="126,-121.5 126,-265.5 284,-265.5 284,-121.5 126,-121.5"/>
<text text-anchor="middle" x="205" y="-250.3" font-family="Times,serif" font-size="14.00" fill="#000000">Config</text>
<polyline fill="none" stroke="#000000" points="126,-242.5 284,-242.5 "/>
<text text-anchor="middle" x="205" y="-227.3" font-family="Times,serif" font-size="14.00" fill="#000000"> </text>
<polyline fill="none" stroke="#000000" points="126,-219.5 284,-219.5 "/>
<text text-anchor="start" x="134" y="-204.3" font-family="Times,serif" font-size="14.00" fill="#000000">+ Load()</text>
<text text-anchor="start" x="134" y="-189.3" font-family="Times,serif" font-size="14.00" fill="#000000">+ Reload()</text>
<text text-anchor="start" x="134" y="-174.3" font-family="Times,serif" font-size="14.00" fill="#000000">+ Save()</text>
<text text-anchor="start" x="134" y="-159.3" font-family="Times,serif" font-size="14.00" fill="#000000">+ OptionAvailable()</text>
<text text-anchor="start" x="134" y="-144.3" font-family="Times,serif" font-size="14.00" fill="#000000">+ Get()</text>
<text text-anchor="start" x="134" y="-129.3" font-family="Times,serif" font-size="14.00" fill="#000000">+ Set()</text>
</g>
<!-- musicdb -->
<g id="node2" class="node">
<title>musicdb</title>
<polygon fill="#f2f2f2" stroke="#000000" points="0,-.5 0,-84.5 130,-84.5 130,-.5 0,-.5"/>
<text text-anchor="middle" x="65" y="-69.3" font-family="Times,serif" font-size="14.00" fill="#000000">MusicDBConfig</text>
<polyline fill="none" stroke="#000000" points="0,-61.5 130,-61.5 "/>
<text text-anchor="middle" x="65" y="-46.3" font-family="Times,serif" font-size="14.00" fill="#000000"> </text>
<polyline fill="none" stroke="#000000" points="0,-38.5 130,-38.5 "/>
<text text-anchor="start" x="8" y="-23.3" font-family="Times,serif" font-size="14.00" fill="#000000">&#45; GetDirectory()</text>
<text text-anchor="start" x="8" y="-8.3" font-family="Times,serif" font-size="14.00" fill="#000000">&#45; GetFile()</text>
</g>
<!-- config&#45;&gt;musicdb -->
<g id="edge1" class="edge">
<title>config&#45;&gt;musicdb</title>
<path fill="none" stroke="#000000" d="M130.8548,-113.5291C121.6911,-103.6454 112.6225,-93.8643 104.2801,-84.8663"/>
<polygon fill="none" stroke="#000000" points="128.5048,-116.1424 137.8704,-121.0959 133.638,-111.3831 128.5048,-116.1424"/>
</g>
<!-- extern -->
<g id="node3" class="node">
<title>extern</title>
<polygon fill="#f2f2f2" stroke="#000000" points="148.5,-8 148.5,-77 261.5,-77 261.5,-8 148.5,-8"/>
<text text-anchor="middle" x="205" y="-61.8" font-family="Times,serif" font-size="14.00" fill="#000000">ExternConfig</text>
<polyline fill="none" stroke="#000000" points="148.5,-54 261.5,-54 "/>
<text text-anchor="middle" x="205" y="-38.8" font-family="Times,serif" font-size="14.00" fill="#000000"> </text>
<polyline fill="none" stroke="#000000" points="148.5,-31 261.5,-31 "/>
<text text-anchor="middle" x="205" y="-15.8" font-family="Times,serif" font-size="14.00" fill="#000000"> </text>
</g>
<!-- config&#45;&gt;extern -->
<g id="edge2" class="edge">
<title>config&#45;&gt;extern</title>
<path fill="none" stroke="#000000" d="M205,-111.0642C205,-99.1554 205,-87.4787 205,-77.2328"/>
<polygon fill="none" stroke="#000000" points="201.5001,-111.0959 205,-121.0959 208.5001,-111.0959 201.5001,-111.0959"/>
</g>
<!-- mdbstate -->
<g id="node4" class="node">
<title>mdbstate</title>
<polygon fill="#f2f2f2" stroke="#000000" points="279.5,-8 279.5,-77 410.5,-77 410.5,-8 279.5,-8"/>
<text text-anchor="middle" x="345" y="-61.8" font-family="Times,serif" font-size="14.00" fill="#000000">MDBState</text>
<polyline fill="none" stroke="#000000" points="279.5,-54 410.5,-54 "/>
<text text-anchor="middle" x="345" y="-38.8" font-family="Times,serif" font-size="14.00" fill="#000000"> </text>
<polyline fill="none" stroke="#000000" points="279.5,-31 410.5,-31 "/>
<text text-anchor="start" x="287.5" y="-15.8" font-family="Times,serif" font-size="14.00" fill="#000000">+ GetFilterlist()</text>
</g>
<!-- config&#45;&gt;mdbstate -->
<g id="edge3" class="edge">
<title>config&#45;&gt;mdbstate</title>
<path fill="none" stroke="#000000" d="M279.1091,-113.5681C290.9496,-100.7972 302.6329,-88.196 312.7974,-77.2328"/>
<polygon fill="none" stroke="#000000" points="276.362,-111.3831 272.1296,-121.0959 281.4952,-116.1424 276.362,-111.3831"/>
</g>
</g>
</svg>
