<?xml version="1.0" encoding="UTF-8" standalone="no"?>
<!DOCTYPE svg PUBLIC "-//W3C//DTD SVG 1.1//EN"
 "http://www.w3.org/Graphics/SVG/1.1/DTD/svg11.dtd">
<!-- Generated by graphviz version 2.44.0 (0)
 -->
<!-- Title: hierarchy Pages: 1 -->
<svg width="360pt" height="425pt"
 viewBox="0.00 0.00 360.00 424.84" xmlns="http://www.w3.org/2000/svg" xmlns:xlink="http://www.w3.org/1999/xlink">
<g id="graph0" class="graph" transform="scale(0.72 0.72) rotate(0) translate(4 589)">
<title>hierarchy</title>
<polygon fill="white" stroke="transparent" points="-4,4 -4,-589 498.5,-589 498.5,4 -4,4"/>
<!-- Text -->
<g id="node1" class="node">
<title>Text</title>
<polygon fill="#f2f2f2" stroke="black" points="242.5,-515.5 242.5,-584.5 296.5,-584.5 296.5,-515.5 242.5,-515.5"/>
<text text-anchor="middle" x="269.5" y="-569.3" font-family="Times,serif" font-size="14.00">Text</text>
<polyline fill="none" stroke="black" points="242.5,-561.5 296.5,-561.5 "/>
<text text-anchor="middle" x="269.5" y="-546.3" font-family="Times,serif" font-size="14.00"> </text>
<polyline fill="none" stroke="black" points="242.5,-538.5 296.5,-538.5 "/>
<text text-anchor="middle" x="269.5" y="-523.3" font-family="Times,serif" font-size="14.00"> </text>
</g>
<!-- Frame -->
<g id="node2" class="node">
<title>Frame</title>
<polygon fill="#f2f2f2" stroke="black" points="98.5,-402 98.5,-471 180.5,-471 180.5,-402 98.5,-402"/>
<text text-anchor="middle" x="139.5" y="-455.8" font-family="Times,serif" font-size="14.00">Frame</text>
<polyline fill="none" stroke="black" points="98.5,-448 180.5,-448 "/>
<text text-anchor="middle" x="139.5" y="-432.8" font-family="Times,serif" font-size="14.00"> </text>
<polyline fill="none" stroke="black" points="98.5,-425 180.5,-425 "/>
<text text-anchor="start" x="106.5" y="-409.8" font-family="Times,serif" font-size="14.00">+ Draw()</text>
</g>
<!-- Text&#45;&gt;Frame -->
<g id="edge1" class="edge">
<title>Text&#45;&gt;Frame</title>
<path fill="none" stroke="black" d="M234.65,-519.11C217.51,-504.41 196.78,-486.63 179.05,-471.42"/>
<polygon fill="none" stroke="black" points="232.38,-521.77 242.25,-525.63 236.94,-516.46 232.38,-521.77"/>
</g>
<!-- ButtonView -->
<g id="node4" class="node">
<title>ButtonView</title>
<polygon fill="#f2f2f2" stroke="black" points="178.5,-280.5 178.5,-349.5 278.5,-349.5 278.5,-280.5 178.5,-280.5"/>
<text text-anchor="middle" x="228.5" y="-334.3" font-family="Times,serif" font-size="14.00">ButtonView</text>
<polyline fill="none" stroke="black" points="178.5,-326.5 278.5,-326.5 "/>
<text text-anchor="middle" x="228.5" y="-311.3" font-family="Times,serif" font-size="14.00"> </text>
<polyline fill="none" stroke="black" points="178.5,-303.5 278.5,-303.5 "/>
<text text-anchor="start" x="186.5" y="-288.3" font-family="Times,serif" font-size="14.00">+ Draw()</text>
</g>
<!-- Text&#45;&gt;ButtonView -->
<g id="edge4" class="edge">
<title>Text&#45;&gt;ButtonView</title>
<path fill="none" stroke="black" d="M254.45,-505.56C251.83,-496.84 249.35,-487.69 247.5,-479 238.07,-434.84 233.04,-382.88 230.57,-349.7"/>
<polygon fill="none" stroke="black" points="251.13,-506.66 257.45,-515.16 257.81,-504.58 251.13,-506.66"/>
</g>
<!-- TextInput -->
<g id="node8" class="node">
<title>TextInput</title>
<polygon fill="#f2f2f2" stroke="black" points="256.5,-394.5 256.5,-478.5 366.5,-478.5 366.5,-394.5 256.5,-394.5"/>
<text text-anchor="middle" x="311.5" y="-463.3" font-family="Times,serif" font-size="14.00">TextInput</text>
<polyline fill="none" stroke="black" points="256.5,-455.5 366.5,-455.5 "/>
<text text-anchor="middle" x="311.5" y="-440.3" font-family="Times,serif" font-size="14.00"> </text>
<polyline fill="none" stroke="black" points="256.5,-432.5 366.5,-432.5 "/>
<text text-anchor="start" x="264.5" y="-417.3" font-family="Times,serif" font-size="14.00">+ Draw()</text>
<text text-anchor="start" x="264.5" y="-402.3" font-family="Times,serif" font-size="14.00">+ HandleKey</text>
</g>
<!-- Text&#45;&gt;TextInput -->
<g id="edge2" class="edge">
<title>Text&#45;&gt;TextInput</title>
<path fill="none" stroke="black" d="M285.78,-505.78C289.14,-496.85 292.68,-487.47 296.01,-478.62"/>
<polygon fill="none" stroke="black" points="282.47,-504.65 282.22,-515.24 289.02,-507.12 282.47,-504.65"/>
</g>
<!-- BoolInput -->
<g id="node10" class="node">
<title>BoolInput</title>
<polygon fill="#f2f2f2" stroke="black" points="384.5,-394.5 384.5,-478.5 494.5,-478.5 494.5,-394.5 384.5,-394.5"/>
<text text-anchor="middle" x="439.5" y="-463.3" font-family="Times,serif" font-size="14.00">BoolInput</text>
<polyline fill="none" stroke="black" points="384.5,-455.5 494.5,-455.5 "/>
<text text-anchor="middle" x="439.5" y="-440.3" font-family="Times,serif" font-size="14.00"> </text>
<polyline fill="none" stroke="black" points="384.5,-432.5 494.5,-432.5 "/>
<text text-anchor="start" x="392.5" y="-417.3" font-family="Times,serif" font-size="14.00">+ Draw()</text>
<text text-anchor="start" x="392.5" y="-402.3" font-family="Times,serif" font-size="14.00">+ HandleKey</text>
</g>
<!-- Text&#45;&gt;BoolInput -->
<g id="edge3" class="edge">
<title>Text&#45;&gt;BoolInput</title>
<path fill="none" stroke="black" d="M304.65,-516.32C305.27,-515.87 305.88,-515.43 306.5,-515 334.81,-495.13 345.62,-496.43 375.5,-479 378.36,-477.33 381.27,-475.59 384.2,-473.82"/>
<polygon fill="none" stroke="black" points="302.42,-513.63 296.71,-522.55 306.74,-519.13 302.42,-513.63"/>
</g>
<!-- Pane -->
<g id="node3" class="node">
<title>Pane</title>
<polygon fill="#f2f2f2" stroke="black" points="78.5,-280.5 78.5,-349.5 160.5,-349.5 160.5,-280.5 78.5,-280.5"/>
<text text-anchor="middle" x="119.5" y="-334.3" font-family="Times,serif" font-size="14.00">Pane</text>
<polyline fill="none" stroke="black" points="78.5,-326.5 160.5,-326.5 "/>
<text text-anchor="middle" x="119.5" y="-311.3" font-family="Times,serif" font-size="14.00"> </text>
<polyline fill="none" stroke="black" points="78.5,-303.5 160.5,-303.5 "/>
<text text-anchor="start" x="86.5" y="-288.3" font-family="Times,serif" font-size="14.00">+ Draw()</text>
</g>
<!-- Frame&#45;&gt;Pane -->
<g id="edge6" class="edge">
<title>Frame&#45;&gt;Pane</title>
<path fill="none" stroke="black" d="M132.22,-392.03C129.89,-378.1 127.35,-362.89 125.15,-349.77"/>
<polygon fill="none" stroke="black" points="128.77,-392.61 133.88,-401.89 135.68,-391.45 128.77,-392.61"/>
</g>
<!-- ListView -->
<g id="node5" class="node">
<title>ListView</title>
<polygon fill="#f2f2f2" stroke="black" points="0,-121.5 0,-235.5 121,-235.5 121,-121.5 0,-121.5"/>
<text text-anchor="middle" x="60.5" y="-220.3" font-family="Times,serif" font-size="14.00">ListView</text>
<polyline fill="none" stroke="black" points="0,-212.5 121,-212.5 "/>
<text text-anchor="middle" x="60.5" y="-197.3" font-family="Times,serif" font-size="14.00"> </text>
<polyline fill="none" stroke="black" points="0,-189.5 121,-189.5 "/>
<text text-anchor="start" x="8" y="-174.3" font-family="Times,serif" font-size="14.00">+ Draw()</text>
<text text-anchor="start" x="8" y="-159.3" font-family="Times,serif" font-size="14.00">+ HandleKey()</text>
<text text-anchor="start" x="8" y="-144.3" font-family="Times,serif" font-size="14.00"># onDraw()</text>
<text text-anchor="start" x="8" y="-129.3" font-family="Times,serif" font-size="14.00"># onAction()</text>
</g>
<!-- Pane&#45;&gt;ListView -->
<g id="edge7" class="edge">
<title>Pane&#45;&gt;ListView</title>
<path fill="none" stroke="black" d="M100.73,-271.2C95.77,-259.91 90.35,-247.55 85.14,-235.66"/>
<polygon fill="none" stroke="black" points="97.54,-272.66 104.76,-280.41 103.95,-269.84 97.54,-272.66"/>
</g>
<!-- Group -->
<g id="node11" class="node">
<title>Group</title>
<polygon fill="#f2f2f2" stroke="black" points="139,-160.5 139,-196.5 200,-196.5 200,-160.5 139,-160.5"/>
<text text-anchor="middle" x="169.5" y="-174.8" font-family="Times,serif" font-size="14.00">Group</text>
</g>
<!-- Pane&#45;&gt;Group -->
<g id="edge8" class="edge">
<title>Pane&#45;&gt;Group</title>
<path fill="none" stroke="black" d="M135.6,-270.7C144.95,-245.55 156.21,-215.25 163.11,-196.69"/>
<polygon fill="none" stroke="black" points="132.19,-269.81 131.99,-280.41 138.75,-272.25 132.19,-269.81"/>
</g>
<!-- Dialog -->
<g id="node6" class="node">
<title>Dialog</title>
<polygon fill="#f2f2f2" stroke="black" points="82,-0.5 82,-84.5 207,-84.5 207,-0.5 82,-0.5"/>
<text text-anchor="middle" x="144.5" y="-69.3" font-family="Times,serif" font-size="14.00">Dialog</text>
<polyline fill="none" stroke="black" points="82,-61.5 207,-61.5 "/>
<text text-anchor="middle" x="144.5" y="-46.3" font-family="Times,serif" font-size="14.00"> </text>
<polyline fill="none" stroke="black" points="82,-38.5 207,-38.5 "/>
<text text-anchor="start" x="90" y="-23.3" font-family="Times,serif" font-size="14.00">/+ Draw()</text>
<text text-anchor="start" x="90" y="-8.3" font-family="Times,serif" font-size="14.00">/+ HandleKey()</text>
</g>
<!-- ButtonView&#45;&gt;Dialog -->
<g id="edge10" class="edge">
<title>ButtonView&#45;&gt;Dialog</title>
<path fill="none" stroke="black" d="M231.03,-270.43C231.77,-230.12 228.74,-169.3 208.5,-121 203.11,-108.12 194.83,-95.73 186.01,-84.77"/>
<polygon fill="none" stroke="black" points="227.53,-270.38 230.76,-280.47 234.53,-270.57 227.53,-270.38"/>
</g>
<!-- ListView&#45;&gt;Dialog -->
<g id="edge9" class="edge">
<title>ListView&#45;&gt;Dialog</title>
<path fill="none" stroke="black" d="M101.11,-112.71C107.1,-103.16 113.13,-93.55 118.7,-84.65"/>
<polygon fill="none" stroke="black" points="97.98,-111.12 95.64,-121.45 103.91,-114.83 97.98,-111.12"/>
</g>
<!-- TabGroup -->
<g id="node7" class="node">
<title>TabGroup</title>
<polygon fill="#f2f2f2" stroke="black" points="315,-515.5 315,-584.5 436,-584.5 436,-515.5 315,-515.5"/>
<text text-anchor="middle" x="375.5" y="-569.3" font-family="Times,serif" font-size="14.00">TabGroup</text>
<polyline fill="none" stroke="black" points="315,-561.5 436,-561.5 "/>
<text text-anchor="middle" x="375.5" y="-546.3" font-family="Times,serif" font-size="14.00"> </text>
<polyline fill="none" stroke="black" points="315,-538.5 436,-538.5 "/>
<text text-anchor="start" x="323" y="-523.3" font-family="Times,serif" font-size="14.00">+ HandleKey()</text>
</g>
<!-- NoTextInput -->
<g id="node9" class="node">
<title>NoTextInput</title>
<polygon fill="#f2f2f2" stroke="black" points="297,-272.5 297,-357.5 412,-357.5 412,-272.5 297,-272.5"/>
<text text-anchor="middle" x="354.5" y="-342.3" font-family="Times,serif" font-size="14.00">NoTextInput</text>
<polyline fill="none" stroke="black" points="297,-334.5 412,-334.5 "/>
<text text-anchor="middle" x="354.5" y="-319.3" font-family="Times,serif" font-size="14.00"> </text>
<polyline fill="none" stroke="black" points="297,-311.5 412,-311.5 "/>
<text text-anchor="start" x="305" y="-280.3" font-family="Times,serif" font-size="14.00">/+ HandleKey</text>
</g>
<!-- TextInput&#45;&gt;NoTextInput -->
<g id="edge5" class="edge">
<title>TextInput&#45;&gt;NoTextInput</title>
<path fill="none" stroke="black" d="M329.77,-384.72C333.03,-375.67 336.38,-366.35 339.53,-357.61"/>
<polygon fill="none" stroke="black" points="326.39,-383.78 326.3,-394.37 332.98,-386.15 326.39,-383.78"/>
</g>
</g>
</svg>
