<?xml version="1.0" encoding="UTF-8" standalone="no"?>
<!DOCTYPE svg PUBLIC "-//W3C//DTD SVG 1.1//EN"
 "http://www.w3.org/Graphics/SVG/1.1/DTD/svg11.dtd">
<!-- Generated by graphviz version 2.44.0 (0)
 -->
<!-- Title: hierarchy Pages: 1 -->
<svg width="360pt" height="238pt"
 viewBox="0.00 0.00 360.00 237.69" xmlns="http://www.w3.org/2000/svg" xmlns:xlink="http://www.w3.org/1999/xlink">
<g id="graph0" class="graph" transform="scale(0.87 0.87) rotate(0) translate(4 270)">
<title>hierarchy</title>
<polygon fill="white" stroke="transparent" points="-4,4 -4,-270 411,-270 411,4 -4,4"/>
<!-- csv -->
<g id="node1" class="node">
<title>csv</title>
<polygon fill="#f2f2f2" stroke="black" points="24,-151.5 24,-235.5 107,-235.5 107,-151.5 24,-151.5"/>
<text text-anchor="middle" x="65.5" y="-220.3" font-family="Times,serif" font-size="14.00">CSVFile</text>
<polyline fill="none" stroke="black" points="24,-212.5 107,-212.5 "/>
<text text-anchor="middle" x="65.5" y="-197.3" font-family="Times,serif" font-size="14.00"> </text>
<polyline fill="none" stroke="black" points="24,-189.5 107,-189.5 "/>
<text text-anchor="start" x="32" y="-174.3" font-family="Times,serif" font-size="14.00">+ Read()</text>
<text text-anchor="start" x="32" y="-159.3" font-family="Times,serif" font-size="14.00">+ Write()</text>
</g>
<!-- mdbstate -->
<g id="node5" class="node">
<title>mdbstate</title>
<polygon fill="#f2f2f2" stroke="black" points="0,-8 0,-77 131,-77 131,-8 0,-8"/>
<text text-anchor="middle" x="65.5" y="-61.8" font-family="Times,serif" font-size="14.00">MDBState</text>
<polyline fill="none" stroke="black" points="0,-54 131,-54 "/>
<text text-anchor="middle" x="65.5" y="-38.8" font-family="Times,serif" font-size="14.00"> </text>
<polyline fill="none" stroke="black" points="0,-31 131,-31 "/>
<text text-anchor="start" x="8" y="-15.8" font-family="Times,serif" font-size="14.00">+ GetFilterlist()</text>
</g>
<!-- csv&#45;&gt;mdbstate -->
<g id="edge4" class="edge">
<title>csv&#45;&gt;mdbstate</title>
<path fill="none" stroke="black" d="M65.5,-141.29C65.5,-120.19 65.5,-96.31 65.5,-77.44"/>
<polygon fill="black" stroke="black" points="65.5,-151.39 61,-141.39 65.5,-146.39 65.5,-141.39 65.5,-141.39 65.5,-141.39 65.5,-146.39 70,-141.39 65.5,-151.39 65.5,-151.39"/>
</g>
<!-- config -->
<g id="node2" class="node">
<title>config</title>
<polygon fill="#f2f2f2" stroke="black" points="135,-121.5 135,-265.5 292,-265.5 292,-121.5 135,-121.5"/>
<text text-anchor="middle" x="213.5" y="-250.3" font-family="Times,serif" font-size="14.00">Config</text>
<polyline fill="none" stroke="black" points="135,-242.5 292,-242.5 "/>
<text text-anchor="middle" x="213.5" y="-227.3" font-family="Times,serif" font-size="14.00"> </text>
<polyline fill="none" stroke="black" points="135,-219.5 292,-219.5 "/>
<text text-anchor="start" x="143" y="-204.3" font-family="Times,serif" font-size="14.00">+ Load()</text>
<text text-anchor="start" x="143" y="-189.3" font-family="Times,serif" font-size="14.00">+ Reload()</text>
<text text-anchor="start" x="143" y="-174.3" font-family="Times,serif" font-size="14.00">+ Save()</text>
<text text-anchor="start" x="143" y="-159.3" font-family="Times,serif" font-size="14.00">+ OptionAvailable()</text>
<text text-anchor="start" x="143" y="-144.3" font-family="Times,serif" font-size="14.00">+ Get()</text>
<text text-anchor="start" x="143" y="-129.3" font-family="Times,serif" font-size="14.00">+ Set()</text>
</g>
<!-- musicdb -->
<g id="node3" class="node">
<title>musicdb</title>
<polygon fill="#f2f2f2" stroke="black" points="149,-0.5 149,-84.5 278,-84.5 278,-0.5 149,-0.5"/>
<text text-anchor="middle" x="213.5" y="-69.3" font-family="Times,serif" font-size="14.00">MusicDBConfig</text>
<polyline fill="none" stroke="black" points="149,-61.5 278,-61.5 "/>
<text text-anchor="middle" x="213.5" y="-46.3" font-family="Times,serif" font-size="14.00"> </text>
<polyline fill="none" stroke="black" points="149,-38.5 278,-38.5 "/>
<text text-anchor="start" x="157" y="-23.3" font-family="Times,serif" font-size="14.00">&#45; GetDirectory()</text>
<text text-anchor="start" x="157" y="-8.3" font-family="Times,serif" font-size="14.00">&#45; GetFile()</text>
</g>
<!-- config&#45;&gt;musicdb -->
<g id="edge1" class="edge">
<title>config&#45;&gt;musicdb</title>
<path fill="none" stroke="black" d="M213.5,-111.46C213.5,-102.23 213.5,-93.14 213.5,-84.76"/>
<polygon fill="none" stroke="black" points="210,-111.49 213.5,-121.49 217,-111.49 210,-111.49"/>
</g>
<!-- extern -->
<g id="node4" class="node">
<title>extern</title>
<polygon fill="#f2f2f2" stroke="black" points="296,-8 296,-77 407,-77 407,-8 296,-8"/>
<text text-anchor="middle" x="351.5" y="-61.8" font-family="Times,serif" font-size="14.00">ExternConfig</text>
<polyline fill="none" stroke="black" points="296,-54 407,-54 "/>
<text text-anchor="middle" x="351.5" y="-38.8" font-family="Times,serif" font-size="14.00"> </text>
<polyline fill="none" stroke="black" points="296,-31 407,-31 "/>
<text text-anchor="middle" x="351.5" y="-15.8" font-family="Times,serif" font-size="14.00"> </text>
</g>
<!-- config&#45;&gt;extern -->
<g id="edge2" class="edge">
<title>config&#45;&gt;extern</title>
<path fill="none" stroke="black" d="M286.31,-113.89C298.26,-100.98 310.06,-88.25 320.26,-77.23"/>
<polygon fill="none" stroke="black" points="283.49,-111.78 279.27,-121.49 288.63,-116.53 283.49,-111.78"/>
</g>
<!-- config&#45;&gt;mdbstate -->
<g id="edge3" class="edge">
<title>config&#45;&gt;mdbstate</title>
<path fill="none" stroke="black" d="M135.77,-114.25C122.84,-101.22 110.05,-88.35 99,-77.23"/>
<polygon fill="none" stroke="black" points="133.44,-116.86 142.97,-121.49 138.4,-111.93 133.44,-116.86"/>
</g>
</g>
</svg>
