<?xml version="1.0" encoding="UTF-8" standalone="no"?>
<!DOCTYPE svg PUBLIC "-//W3C//DTD SVG 1.1//EN"
 "http://www.w3.org/Graphics/SVG/1.1/DTD/svg11.dtd">
<!-- Generated by graphviz version 14.1.1 (0)
 -->
<!-- Title: hierarchy Pages: 1 -->
<svg width="360pt" height="403pt"
 viewBox="0.00 0.00 360.00 403.00" xmlns="http://www.w3.org/2000/svg" xmlns:xlink="http://www.w3.org/1999/xlink">
<g id="graph0" class="graph" transform="scale(0.783247 0.783247) rotate(0) translate(4 510.5)">
<title>hierarchy</title>
<polygon fill="white" stroke="none" points="-4,4 -4,-510.5 455.63,-510.5 455.63,4 -4,4"/>
<!-- start -->
<g id="node1" class="node">
<title>start</title>
<ellipse fill="none" stroke="black" cx="280.25" cy="-488.5" rx="37" ry="18"/>
<text xml:space="preserve" text-anchor="middle" x="280.25" y="-483.82" font-family="Times,serif" font-size="14.00">Start</text>
</g>
<!-- albumidgiven -->
<g id="node2" class="node">
<title>albumidgiven</title>
<polygon fill="none" stroke="black" points="280.25,-433.5 108.87,-415.5 280.25,-397.5 451.63,-415.5 280.25,-433.5"/>
<text xml:space="preserve" text-anchor="middle" x="280.25" y="-410.82" font-family="Times,serif" font-size="14.00">Is an Album ID given?</text>
</g>
<!-- start&#45;&gt;albumidgiven -->
<g id="edge1" class="edge">
<title>start&#45;&gt;albumidgiven</title>
<path fill="none" stroke="black" d="M280.25,-470.31C280.25,-462.73 280.25,-453.6 280.25,-445.04"/>
<polygon fill="black" stroke="black" points="283.75,-445.04 280.25,-435.04 276.75,-445.04 283.75,-445.04"/>
</g>
<!-- hasfilterlist -->
<g id="node3" class="node">
<title>hasfilterlist</title>
<polygon fill="none" stroke="black" points="188.25,-344.25 31.01,-326.25 188.25,-308.25 345.49,-326.25 188.25,-344.25"/>
<text xml:space="preserve" text-anchor="middle" x="188.25" y="-321.57" font-family="Times,serif" font-size="14.00">len(tagfilterlist) &gt; 0</text>
</g>
<!-- albumidgiven&#45;&gt;hasfilterlist -->
<g id="edge2" class="edge">
<title>albumidgiven&#45;&gt;hasfilterlist</title>
<path fill="none" stroke="black" d="M263.8,-398.9C249.54,-385.38 228.71,-365.62 212.53,-350.28"/>
<polygon fill="black" stroke="black" points="215.32,-348.1 205.65,-343.76 210.5,-353.18 215.32,-348.1"/>
<text xml:space="preserve" text-anchor="middle" x="252.62" y="-366.2" font-family="Times,serif" font-size="14.00">No</text>
</g>
<!-- getallsongs -->
<g id="node7" class="node">
<title>getallsongs</title>
<polygon fill="none" stroke="black" points="405.25,-109 227.25,-109 227.25,-73 405.25,-73 405.25,-109"/>
<text xml:space="preserve" text-anchor="middle" x="316.25" y="-86.33" font-family="Times,serif" font-size="14.00">Get Songs from Album</text>
</g>
<!-- albumidgiven&#45;&gt;getallsongs -->
<g id="edge7" class="edge">
<title>albumidgiven&#45;&gt;getallsongs</title>
<path fill="none" stroke="black" d="M312.26,-400.5C339.16,-386.31 373.25,-361.57 373.25,-327.25 373.25,-327.25 373.25,-327.25 373.25,-163 373.25,-145.11 362.1,-129.15 349.67,-116.93"/>
<polygon fill="black" stroke="black" points="352.3,-114.58 342.54,-110.46 347.6,-119.77 352.3,-114.58"/>
<text xml:space="preserve" text-anchor="middle" x="385.25" y="-232.32" font-family="Times,serif" font-size="14.00">Yes</text>
</g>
<!-- getfilteredalbumids -->
<g id="node4" class="node">
<title>getfilteredalbumids</title>
<polygon fill="none" stroke="black" points="176.5,-255 0,-255 0,-219 176.5,-219 176.5,-255"/>
<text xml:space="preserve" text-anchor="middle" x="88.25" y="-232.32" font-family="Times,serif" font-size="14.00">Get filtered Album IDs</text>
</g>
<!-- hasfilterlist&#45;&gt;getfilteredalbumids -->
<g id="edge3" class="edge">
<title>hasfilterlist&#45;&gt;getfilteredalbumids</title>
<path fill="none" stroke="black" d="M170.83,-310.05C155.96,-297.08 134.29,-278.17 116.88,-262.98"/>
<polygon fill="black" stroke="black" points="119.19,-260.35 109.36,-256.42 114.59,-265.63 119.19,-260.35"/>
<text xml:space="preserve" text-anchor="middle" x="159.21" y="-276.95" font-family="Times,serif" font-size="14.00">Yes</text>
</g>
<!-- getallalbumids -->
<g id="node5" class="node">
<title>getallalbumids</title>
<polygon fill="none" stroke="black" points="336.25,-255 194.25,-255 194.25,-219 336.25,-219 336.25,-255"/>
<text xml:space="preserve" text-anchor="middle" x="265.25" y="-232.32" font-family="Times,serif" font-size="14.00">Get all Album IDs</text>
</g>
<!-- hasfilterlist&#45;&gt;getallalbumids -->
<g id="edge4" class="edge">
<title>hasfilterlist&#45;&gt;getallalbumids</title>
<path fill="none" stroke="black" d="M202.02,-309.65C213.3,-296.87 229.49,-278.52 242.67,-263.58"/>
<polygon fill="black" stroke="black" points="245.03,-266.21 249.02,-256.39 239.78,-261.57 245.03,-266.21"/>
<text xml:space="preserve" text-anchor="middle" x="243.77" y="-276.95" font-family="Times,serif" font-size="14.00">No</text>
</g>
<!-- selectalbumid -->
<g id="node6" class="node">
<title>selectalbumid</title>
<polygon fill="none" stroke="black" points="345.12,-182 175.38,-182 175.38,-146 345.12,-146 345.12,-182"/>
<text xml:space="preserve" text-anchor="middle" x="260.25" y="-159.32" font-family="Times,serif" font-size="14.00">Select random Album</text>
</g>
<!-- getfilteredalbumids&#45;&gt;selectalbumid -->
<g id="edge5" class="edge">
<title>getfilteredalbumids&#45;&gt;selectalbumid</title>
<path fill="none" stroke="black" d="M130.33,-218.63C153.65,-209 182.86,-196.95 207.68,-186.7"/>
<polygon fill="black" stroke="black" points="208.71,-190.06 216.61,-183.01 206.03,-183.59 208.71,-190.06"/>
</g>
<!-- getallalbumids&#45;&gt;selectalbumid -->
<g id="edge6" class="edge">
<title>getallalbumids&#45;&gt;selectalbumid</title>
<path fill="none" stroke="black" d="M264.04,-218.81C263.5,-211.14 262.85,-201.89 262.24,-193.24"/>
<polygon fill="black" stroke="black" points="265.75,-193.27 261.56,-183.54 258.77,-193.76 265.75,-193.27"/>
</g>
<!-- selectalbumid&#45;&gt;getallsongs -->
<g id="edge8" class="edge">
<title>selectalbumid&#45;&gt;getallsongs</title>
<path fill="none" stroke="black" d="M273.81,-145.81C280.41,-137.44 288.49,-127.2 295.82,-117.9"/>
<polygon fill="black" stroke="black" points="298.44,-120.24 301.88,-110.22 292.94,-115.9 298.44,-120.24"/>
</g>
<!-- selectsong -->
<g id="node8" class="node">
<title>selectsong</title>
<polygon fill="none" stroke="black" points="366.62,-36 265.88,-36 265.88,0 366.62,0 366.62,-36"/>
<text xml:space="preserve" text-anchor="middle" x="316.25" y="-13.32" font-family="Times,serif" font-size="14.00">Select Song</text>
</g>
<!-- getallsongs&#45;&gt;selectsong -->
<g id="edge9" class="edge">
<title>getallsongs&#45;&gt;selectsong</title>
<path fill="none" stroke="black" d="M316.25,-72.81C316.25,-65.23 316.25,-56.1 316.25,-47.54"/>
<polygon fill="black" stroke="black" points="319.75,-47.54 316.25,-37.54 312.75,-47.54 319.75,-47.54"/>
</g>
</g>
</svg>
