<?xml version="1.0" encoding="UTF-8" standalone="no"?>
<!DOCTYPE svg PUBLIC "-//W3C//DTD SVG 1.1//EN"
 "http://www.w3.org/Graphics/SVG/1.1/DTD/svg11.dtd">
<!-- Generated by graphviz version 2.40.1 (20161225.0304)
 -->
<!-- Title: hierarchy Pages: 1 -->
<svg width="360pt" height="419pt"
 viewBox="0.00 0.00 360.00 419.21" xmlns="http://www.w3.org/2000/svg" xmlns:xlink="http://www.w3.org/1999/xlink">
<g id="graph0" class="graph" transform="scale(.7265 .7265) rotate(0) translate(4 573)">
<title>hierarchy</title>
<polygon fill="#ffffff" stroke="transparent" points="-4,4 -4,-573 491.5,-573 491.5,4 -4,4"/>
<!-- Text -->
<g id="node1" class="node">
<title>Text</title>
<polygon fill="#f2f2f2" stroke="#000000" points="234,-499.5 234,-568.5 288,-568.5 288,-499.5 234,-499.5"/>
<text text-anchor="middle" x="261" y="-553.3" font-family="Times,serif" font-size="14.00" fill="#000000">Text</text>
<polyline fill="none" stroke="#000000" points="234,-545.5 288,-545.5 "/>
<text text-anchor="middle" x="261" y="-530.3" font-family="Times,serif" font-size="14.00" fill="#000000"> </text>
<polyline fill="none" stroke="#000000" points="234,-522.5 288,-522.5 "/>
<text text-anchor="middle" x="261" y="-507.3" font-family="Times,serif" font-size="14.00" fill="#000000"> </text>
</g>
<!-- Frame -->
<g id="node2" class="node">
<title>Frame</title>
<polygon fill="#f2f2f2" stroke="#000000" points="99,-386 99,-455 181,-455 181,-386 99,-386"/>
<text text-anchor="middle" x="140" y="-439.8" font-family="Times,serif" font-size="14.00" fill="#000000">Frame</text>
<polyline fill="none" stroke="#000000" points="99,-432 181,-432 "/>
<text text-anchor="middle" x="140" y="-416.8" font-family="Times,serif" font-size="14.00" fill="#000000"> </text>
<polyline fill="none" stroke="#000000" points="99,-409 181,-409 "/>
<text text-anchor="start" x="107" y="-393.8" font-family="Times,serif" font-size="14.00" fill="#000000">+ Draw()</text>
</g>
<!-- Text&#45;&gt;Frame -->
<g id="edge1" class="edge">
<title>Text&#45;&gt;Frame</title>
<path fill="none" stroke="#000000" d="M226.5203,-501.6574C211.0958,-487.189 192.8838,-470.1059 177.1572,-455.3541"/>
<polygon fill="none" stroke="#000000" points="224.1572,-504.2397 233.8452,-508.5284 228.9462,-499.1342 224.1572,-504.2397"/>
</g>
<!-- ButtonView -->
<g id="node4" class="node">
<title>ButtonView</title>
<polygon fill="#f2f2f2" stroke="#000000" points="179.5,-272.5 179.5,-341.5 280.5,-341.5 280.5,-272.5 179.5,-272.5"/>
<text text-anchor="middle" x="230" y="-326.3" font-family="Times,serif" font-size="14.00" fill="#000000">ButtonView</text>
<polyline fill="none" stroke="#000000" points="179.5,-318.5 280.5,-318.5 "/>
<text text-anchor="middle" x="230" y="-303.3" font-family="Times,serif" font-size="14.00" fill="#000000"> </text>
<polyline fill="none" stroke="#000000" points="179.5,-295.5 280.5,-295.5 "/>
<text text-anchor="start" x="187.5" y="-280.3" font-family="Times,serif" font-size="14.00" fill="#000000">+ Draw()</text>
</g>
<!-- Text&#45;&gt;ButtonView -->
<g id="edge4" class="edge">
<title>Text&#45;&gt;ButtonView</title>
<path fill="none" stroke="#000000" d="M245.4743,-489.7278C242.9166,-480.9646 240.5863,-471.7648 239,-463 231.5353,-421.7567 229.8027,-373.4753 229.6022,-341.6731"/>
<polygon fill="none" stroke="#000000" points="242.1579,-490.8516 248.431,-499.3897 248.8515,-488.8032 242.1579,-490.8516"/>
</g>
<!-- TextInput -->
<g id="node8" class="node">
<title>TextInput</title>
<polygon fill="#f2f2f2" stroke="#000000" points="247.5,-378.5 247.5,-462.5 358.5,-462.5 358.5,-378.5 247.5,-378.5"/>
<text text-anchor="middle" x="303" y="-447.3" font-family="Times,serif" font-size="14.00" fill="#000000">TextInput</text>
<polyline fill="none" stroke="#000000" points="247.5,-439.5 358.5,-439.5 "/>
<text text-anchor="middle" x="303" y="-424.3" font-family="Times,serif" font-size="14.00" fill="#000000"> </text>
<polyline fill="none" stroke="#000000" points="247.5,-416.5 358.5,-416.5 "/>
<text text-anchor="start" x="255.5" y="-401.3" font-family="Times,serif" font-size="14.00" fill="#000000">+ Draw()</text>
<text text-anchor="start" x="255.5" y="-386.3" font-family="Times,serif" font-size="14.00" fill="#000000">+ HandleKey</text>
</g>
<!-- Text&#45;&gt;TextInput -->
<g id="edge2" class="edge">
<title>Text&#45;&gt;TextInput</title>
<path fill="none" stroke="#000000" d="M277.349,-489.8189C280.6667,-480.853 284.1476,-471.4465 287.4372,-462.5566"/>
<polygon fill="none" stroke="#000000" points="274.0176,-488.7364 273.8296,-499.3295 280.5826,-491.1657 274.0176,-488.7364"/>
</g>
<!-- BoolInput -->
<g id="node9" class="node">
<title>BoolInput</title>
<polygon fill="#f2f2f2" stroke="#000000" points="376.5,-378.5 376.5,-462.5 487.5,-462.5 487.5,-378.5 376.5,-378.5"/>
<text text-anchor="middle" x="432" y="-447.3" font-family="Times,serif" font-size="14.00" fill="#000000">BoolInput</text>
<polyline fill="none" stroke="#000000" points="376.5,-439.5 487.5,-439.5 "/>
<text text-anchor="middle" x="432" y="-424.3" font-family="Times,serif" font-size="14.00" fill="#000000"> </text>
<polyline fill="none" stroke="#000000" points="376.5,-416.5 487.5,-416.5 "/>
<text text-anchor="start" x="384.5" y="-401.3" font-family="Times,serif" font-size="14.00" fill="#000000">+ Draw()</text>
<text text-anchor="start" x="384.5" y="-386.3" font-family="Times,serif" font-size="14.00" fill="#000000">+ HandleKey</text>
</g>
<!-- Text&#45;&gt;BoolInput -->
<g id="edge3" class="edge">
<title>Text&#45;&gt;BoolInput</title>
<path fill="none" stroke="#000000" d="M296.1624,-499.6048C296.4415,-499.4012 296.7207,-499.1995 297,-499 325.7892,-478.4346 337.4333,-480.8165 368,-463 370.7656,-461.388 373.5751,-459.7047 376.3961,-457.9777"/>
<polygon fill="none" stroke="#000000" points="293.8043,-497.0086 288.1657,-505.9784 298.1672,-502.4827 293.8043,-497.0086"/>
</g>
<!-- Pane -->
<g id="node3" class="node">
<title>Pane</title>
<polygon fill="#f2f2f2" stroke="#000000" points="79,-272.5 79,-341.5 161,-341.5 161,-272.5 79,-272.5"/>
<text text-anchor="middle" x="120" y="-326.3" font-family="Times,serif" font-size="14.00" fill="#000000">Pane</text>
<polyline fill="none" stroke="#000000" points="79,-318.5 161,-318.5 "/>
<text text-anchor="middle" x="120" y="-303.3" font-family="Times,serif" font-size="14.00" fill="#000000"> </text>
<polyline fill="none" stroke="#000000" points="79,-295.5 161,-295.5 "/>
<text text-anchor="start" x="87" y="-280.3" font-family="Times,serif" font-size="14.00" fill="#000000">+ Draw()</text>
</g>
<!-- Frame&#45;&gt;Pane -->
<g id="edge5" class="edge">
<title>Frame&#45;&gt;Pane</title>
<path fill="none" stroke="#000000" d="M132.1104,-375.7267C130.126,-364.4651 128.0254,-352.5443 126.1408,-341.8493"/>
<polygon fill="none" stroke="#000000" points="128.7083,-376.5887 133.8907,-385.8295 135.6021,-375.3739 128.7083,-376.5887"/>
</g>
<!-- ListView -->
<g id="node5" class="node">
<title>ListView</title>
<polygon fill="#f2f2f2" stroke="#000000" points="0,-121.5 0,-235.5 122,-235.5 122,-121.5 0,-121.5"/>
<text text-anchor="middle" x="61" y="-220.3" font-family="Times,serif" font-size="14.00" fill="#000000">ListView</text>
<polyline fill="none" stroke="#000000" points="0,-212.5 122,-212.5 "/>
<text text-anchor="middle" x="61" y="-197.3" font-family="Times,serif" font-size="14.00" fill="#000000"> </text>
<polyline fill="none" stroke="#000000" points="0,-189.5 122,-189.5 "/>
<text text-anchor="start" x="8" y="-174.3" font-family="Times,serif" font-size="14.00" fill="#000000">+ Draw()</text>
<text text-anchor="start" x="8" y="-159.3" font-family="Times,serif" font-size="14.00" fill="#000000">+ HandleKey()</text>
<text text-anchor="start" x="8" y="-144.3" font-family="Times,serif" font-size="14.00" fill="#000000"># onDraw()</text>
<text text-anchor="start" x="8" y="-129.3" font-family="Times,serif" font-size="14.00" fill="#000000"># onAction()</text>
</g>
<!-- Pane&#45;&gt;ListView -->
<g id="edge6" class="edge">
<title>Pane&#45;&gt;ListView</title>
<path fill="none" stroke="#000000" d="M99.7657,-262.9304C95.7238,-254.1273 91.4236,-244.7616 87.2138,-235.5928"/>
<polygon fill="none" stroke="#000000" points="96.6803,-264.5986 104.0338,-272.226 103.0418,-261.6777 96.6803,-264.5986"/>
</g>
<!-- Group -->
<g id="node10" class="node">
<title>Group</title>
<polygon fill="#f2f2f2" stroke="#000000" points="140.5,-160.5 140.5,-196.5 201.5,-196.5 201.5,-160.5 140.5,-160.5"/>
<text text-anchor="middle" x="171" y="-174.8" font-family="Times,serif" font-size="14.00" fill="#000000">Group</text>
</g>
<!-- Pane&#45;&gt;Group -->
<g id="edge7" class="edge">
<title>Pane&#45;&gt;Group</title>
<path fill="none" stroke="#000000" d="M137.5494,-262.7825C146.5388,-240.1325 156.9931,-213.7918 163.7893,-196.6681"/>
<polygon fill="none" stroke="#000000" points="134.2372,-261.6402 133.8013,-272.226 140.7435,-264.2225 134.2372,-261.6402"/>
</g>
<!-- Dialog -->
<g id="node6" class="node">
<title>Dialog</title>
<polygon fill="#f2f2f2" stroke="#000000" points="82,-.5 82,-84.5 208,-84.5 208,-.5 82,-.5"/>
<text text-anchor="middle" x="145" y="-69.3" font-family="Times,serif" font-size="14.00" fill="#000000">Dialog</text>
<polyline fill="none" stroke="#000000" points="82,-61.5 208,-61.5 "/>
<text text-anchor="middle" x="145" y="-46.3" font-family="Times,serif" font-size="14.00" fill="#000000"> </text>
<polyline fill="none" stroke="#000000" points="82,-38.5 208,-38.5 "/>
<text text-anchor="start" x="90" y="-23.3" font-family="Times,serif" font-size="14.00" fill="#000000">/+ Draw()</text>
<text text-anchor="start" x="90" y="-8.3" font-family="Times,serif" font-size="14.00" fill="#000000">/+ HandleKey()</text>
</g>
<!-- ButtonView&#45;&gt;Dialog -->
<g id="edge9" class="edge">
<title>ButtonView&#45;&gt;Dialog</title>
<path fill="none" stroke="#000000" d="M232.2882,-261.8133C232.6134,-222.984 229.1036,-166.2655 210,-121 204.5649,-108.1216 196.2943,-95.716 187.4558,-84.7179"/>
<polygon fill="none" stroke="#000000" points="228.7808,-262.2064 232.1045,-272.2663 235.7797,-262.3294 228.7808,-262.2064"/>
</g>
<!-- ListView&#45;&gt;Dialog -->
<g id="edge8" class="edge">
<title>ListView&#45;&gt;Dialog</title>
<path fill="none" stroke="#000000" d="M101.7116,-112.586C107.5412,-103.1475 113.404,-93.6555 118.85,-84.8381"/>
<polygon fill="none" stroke="#000000" points="98.6573,-110.8707 96.3801,-121.2179 104.6129,-114.5492 98.6573,-110.8707"/>
</g>
<!-- TabGroup -->
<g id="node7" class="node">
<title>TabGroup</title>
<polygon fill="#f2f2f2" stroke="#000000" points="306,-499.5 306,-568.5 428,-568.5 428,-499.5 306,-499.5"/>
<text text-anchor="middle" x="367" y="-553.3" font-family="Times,serif" font-size="14.00" fill="#000000">TabGroup</text>
<polyline fill="none" stroke="#000000" points="306,-545.5 428,-545.5 "/>
<text text-anchor="middle" x="367" y="-530.3" font-family="Times,serif" font-size="14.00" fill="#000000"> </text>
<polyline fill="none" stroke="#000000" points="306,-522.5 428,-522.5 "/>
<text text-anchor="start" x="314" y="-507.3" font-family="Times,serif" font-size="14.00" fill="#000000">+ HandleKey()</text>
</g>
</g>
</svg>
