<?xml version="1.0" encoding="UTF-8" standalone="no"?>
<!DOCTYPE svg PUBLIC "-//W3C//DTD SVG 1.1//EN"
 "http://www.w3.org/Graphics/SVG/1.1/DTD/svg11.dtd">
<!-- Generated by graphviz version 2.44.0 (0)
 -->
<!-- Title: hierarchy Pages: 1 -->
<svg width="360pt" height="333pt"
 viewBox="0.00 0.00 360.00 333.44" xmlns="http://www.w3.org/2000/svg" xmlns:xlink="http://www.w3.org/1999/xlink">
<g id="graph0" class="graph" transform="scale(0.57 0.57) rotate(0) translate(4 586)">
<title>hierarchy</title>
<polygon fill="white" stroke="transparent" points="-4,4 -4,-586 633,-586 633,4 -4,4"/>
<!-- start -->
<g id="node1" class="node">
<title>start</title>
<ellipse fill="none" stroke="black" cx="426" cy="-564" rx="34.39" ry="18"/>
<text text-anchor="middle" x="426" y="-560.3" font-family="Times,serif" font-size="14.00">Start</text>
</g>
<!-- read -->
<g id="node2" class="node">
<title>read</title>
<polygon fill="none" stroke="black" points="507,-509 345,-509 345,-473 507,-473 507,-509"/>
<text text-anchor="middle" x="426" y="-487.3" font-family="Times,serif" font-size="14.00">Read data from pipe</text>
</g>
<!-- start&#45;&gt;read -->
<g id="edge1" class="edge">
<title>start&#45;&gt;read</title>
<path fill="none" stroke="black" d="M426,-545.81C426,-537.79 426,-528.05 426,-519.07"/>
<polygon fill="black" stroke="black" points="429.5,-519.03 426,-509.03 422.5,-519.03 429.5,-519.03"/>
</g>
<!-- isrunningstate -->
<g id="node3" class="node">
<title>isrunningstate</title>
<polygon fill="none" stroke="black" points="426,-163 251,-125 426,-87 601,-125 426,-163"/>
<text text-anchor="middle" x="426" y="-128.8" font-family="Times,serif" font-size="14.00">Is GStreamer Pipeline</text>
<text text-anchor="middle" x="426" y="-113.8" font-family="Times,serif" font-size="14.00">process still running?</text>
</g>
<!-- read&#45;&gt;isrunningstate -->
<g id="edge2" class="edge">
<title>read&#45;&gt;isrunningstate</title>
<path fill="none" stroke="black" stroke-dasharray="5,2" d="M426,-472.89C426,-454.6 426,-424.75 426,-399 426,-399 426,-399 426,-217 426,-202.9 426,-187.57 426,-173.58"/>
<polygon fill="black" stroke="black" points="429.5,-173.19 426,-163.19 422.5,-173.19 429.5,-173.19"/>
<text text-anchor="middle" x="505.5" y="-287.3" font-family="Times,serif" font-size="14.00">Blocking IO Exception</text>
</g>
<!-- isempty -->
<g id="node4" class="node">
<title>isempty</title>
<polygon fill="none" stroke="black" points="164,-436 0,-398 164,-360 328,-398 164,-436"/>
<text text-anchor="middle" x="164" y="-401.8" font-family="Times,serif" font-size="14.00">No further bytes</text>
<text text-anchor="middle" x="164" y="-386.8" font-family="Times,serif" font-size="14.00">to expect from pipe?</text>
</g>
<!-- read&#45;&gt;isempty -->
<g id="edge6" class="edge">
<title>read&#45;&gt;isempty</title>
<path fill="none" stroke="black" d="M377.03,-472.99C337.84,-459.38 282.26,-440.08 237.7,-424.6"/>
<polygon fill="black" stroke="black" points="238.68,-421.23 228.08,-421.26 236.38,-427.85 238.68,-421.23"/>
</g>
<!-- sleep -->
<g id="node8" class="node">
<title>sleep</title>
<polygon fill="none" stroke="black" points="484,-36 368,-36 368,0 484,0 484,-36"/>
<text text-anchor="middle" x="426" y="-14.3" font-family="Times,serif" font-size="14.00">Sleep for 0.1s</text>
</g>
<!-- isrunningstate&#45;&gt;sleep -->
<g id="edge3" class="edge">
<title>isrunningstate&#45;&gt;sleep</title>
<path fill="none" stroke="black" d="M426,-86.98C426,-73.56 426,-58.65 426,-46.22"/>
<polygon fill="black" stroke="black" points="429.5,-46.04 426,-36.04 422.5,-46.04 429.5,-46.04"/>
<text text-anchor="middle" x="438.5" y="-57.8" font-family="Times,serif" font-size="14.00">yes</text>
</g>
<!-- end -->
<g id="node9" class="node">
<title>end</title>
<ellipse fill="none" stroke="black" cx="140" cy="-18" rx="73.39" ry="18"/>
<text text-anchor="middle" x="140" y="-14.3" font-family="Times,serif" font-size="14.00">Return chunk</text>
</g>
<!-- isrunningstate&#45;&gt;end -->
<g id="edge4" class="edge">
<title>isrunningstate&#45;&gt;end</title>
<path fill="none" stroke="black" d="M379.66,-97.01C353.45,-82.64 319.66,-65.59 288,-54 262.28,-44.59 233.1,-37.06 207.5,-31.43"/>
<polygon fill="black" stroke="black" points="208.01,-27.96 197.5,-29.29 206.55,-34.8 208.01,-27.96"/>
<text text-anchor="middle" x="333" y="-57.8" font-family="Times,serif" font-size="14.00">no</text>
</g>
<!-- calcrest -->
<g id="node5" class="node">
<title>calcrest</title>
<polygon fill="none" stroke="black" points="266,-309 62,-309 62,-273 266,-273 266,-309"/>
<text text-anchor="middle" x="164" y="-287.3" font-family="Times,serif" font-size="14.00">Calculate remaining bytes</text>
</g>
<!-- isempty&#45;&gt;calcrest -->
<g id="edge8" class="edge">
<title>isempty&#45;&gt;calcrest</title>
<path fill="none" stroke="black" d="M164,-359.98C164,-346.56 164,-331.65 164,-319.22"/>
<polygon fill="black" stroke="black" points="167.5,-319.04 164,-309.04 160.5,-319.04 167.5,-319.04"/>
<text text-anchor="middle" x="173" y="-330.8" font-family="Times,serif" font-size="14.00">no</text>
</g>
<!-- isempty&#45;&gt;end -->
<g id="edge7" class="edge">
<title>isempty&#45;&gt;end</title>
<path fill="none" stroke="black" d="M94.9,-375.84C57.55,-359.66 19,-333.03 19,-292 19,-292 19,-292 19,-124 19,-83.32 58.49,-54.85 92.35,-37.92"/>
<polygon fill="black" stroke="black" points="94.2,-40.92 101.71,-33.45 91.18,-34.6 94.2,-40.92"/>
<text text-anchor="middle" x="31.5" y="-214.3" font-family="Times,serif" font-size="14.00">yes</text>
</g>
<!-- appendbytes -->
<g id="node6" class="node">
<title>appendbytes</title>
<polygon fill="none" stroke="black" points="266,-236 62,-236 62,-200 266,-200 266,-236"/>
<text text-anchor="middle" x="164" y="-214.3" font-family="Times,serif" font-size="14.00">Collect already read bytes</text>
</g>
<!-- calcrest&#45;&gt;appendbytes -->
<g id="edge9" class="edge">
<title>calcrest&#45;&gt;appendbytes</title>
<path fill="none" stroke="black" d="M164,-272.81C164,-264.79 164,-255.05 164,-246.07"/>
<polygon fill="black" stroke="black" points="167.5,-246.03 164,-236.03 160.5,-246.03 167.5,-246.03"/>
</g>
<!-- bytesremaining -->
<g id="node7" class="node">
<title>bytesremaining</title>
<polygon fill="none" stroke="black" points="140,-163 47,-125 140,-87 233,-125 140,-163"/>
<text text-anchor="middle" x="140" y="-128.8" font-family="Times,serif" font-size="14.00">Remaining</text>
<text text-anchor="middle" x="140" y="-113.8" font-family="Times,serif" font-size="14.00">bytes?</text>
</g>
<!-- appendbytes&#45;&gt;bytesremaining -->
<g id="edge10" class="edge">
<title>appendbytes&#45;&gt;bytesremaining</title>
<path fill="none" stroke="black" d="M159.49,-199.88C157.2,-191.21 154.31,-180.25 151.46,-169.44"/>
<polygon fill="black" stroke="black" points="154.8,-168.41 148.87,-159.63 148.04,-170.19 154.8,-168.41"/>
</g>
<!-- bytesremaining&#45;&gt;sleep -->
<g id="edge11" class="edge">
<title>bytesremaining&#45;&gt;sleep</title>
<path fill="none" stroke="black" d="M173.13,-100.53C196.21,-85.2 228.26,-65.89 259,-54 290.4,-41.85 326.83,-33.59 357.64,-28.16"/>
<polygon fill="black" stroke="black" points="358.59,-31.55 367.86,-26.43 357.42,-24.65 358.59,-31.55"/>
<text text-anchor="middle" x="271.5" y="-57.8" font-family="Times,serif" font-size="14.00">yes</text>
</g>
<!-- bytesremaining&#45;&gt;end -->
<g id="edge12" class="edge">
<title>bytesremaining&#45;&gt;end</title>
<path fill="none" stroke="black" d="M140,-86.98C140,-73.56 140,-58.65 140,-46.22"/>
<polygon fill="black" stroke="black" points="143.5,-46.04 140,-36.04 136.5,-46.04 143.5,-46.04"/>
<text text-anchor="middle" x="149" y="-57.8" font-family="Times,serif" font-size="14.00">no</text>
</g>
<!-- sleep&#45;&gt;read -->
<g id="edge5" class="edge">
<title>sleep&#45;&gt;read</title>
<path fill="none" stroke="black" d="M484.17,-24.47C544.16,-33.69 629,-58.33 629,-124 629,-399 629,-399 629,-399 629,-451.81 571.08,-474.17 517.12,-483.54"/>
<polygon fill="black" stroke="black" points="516.43,-480.1 507.11,-485.14 517.53,-487.02 516.43,-480.1"/>
</g>
</g>
</svg>
