<?xml version="1.0" encoding="UTF-8" standalone="no"?>
<!DOCTYPE svg PUBLIC "-//W3C//DTD SVG 1.1//EN"
 "http://www.w3.org/Graphics/SVG/1.1/DTD/svg11.dtd">
<!-- Generated by graphviz version 2.40.1 (20161225.0304)
 -->
<!-- Title: hierarchy Pages: 1 -->
<svg width="360pt" height="523pt"
 viewBox="0.00 0.00 360.00 523.03" xmlns="http://www.w3.org/2000/svg" xmlns:xlink="http://www.w3.org/1999/xlink">
<g id="graph0" class="graph" transform="scale(.9562 .9562) rotate(0) translate(4 543)">
<title>hierarchy</title>
<polygon fill="#ffffff" stroke="transparent" points="-4,4 -4,-543 372.5,-543 372.5,4 -4,4"/>
<!-- Text -->
<g id="node1" class="node">
<title>Text</title>
<polygon fill="#f2f2f2" stroke="#000000" points="147.5,-469.5 147.5,-538.5 201.5,-538.5 201.5,-469.5 147.5,-469.5"/>
<text text-anchor="middle" x="174.5" y="-523.3" font-family="Times,serif" font-size="14.00" fill="#000000">Text</text>
<polyline fill="none" stroke="#000000" points="147.5,-515.5 201.5,-515.5 "/>
<text text-anchor="middle" x="174.5" y="-500.3" font-family="Times,serif" font-size="14.00" fill="#000000"> </text>
<polyline fill="none" stroke="#000000" points="147.5,-492.5 201.5,-492.5 "/>
<text text-anchor="middle" x="174.5" y="-477.3" font-family="Times,serif" font-size="14.00" fill="#000000"> </text>
</g>
<!-- Frame -->
<g id="node2" class="node">
<title>Frame</title>
<polygon fill="#f2f2f2" stroke="#000000" points="139,-363.5 139,-432.5 210,-432.5 210,-363.5 139,-363.5"/>
<text text-anchor="middle" x="174.5" y="-417.3" font-family="Times,serif" font-size="14.00" fill="#000000">Frame</text>
<polyline fill="none" stroke="#000000" points="139,-409.5 210,-409.5 "/>
<text text-anchor="middle" x="174.5" y="-394.3" font-family="Times,serif" font-size="14.00" fill="#000000"> </text>
<polyline fill="none" stroke="#000000" points="139,-386.5 210,-386.5 "/>
<text text-anchor="start" x="147" y="-371.3" font-family="Times,serif" font-size="14.00" fill="#000000">+ Draw</text>
</g>
<!-- Text&#45;&gt;Frame -->
<g id="edge1" class="edge">
<title>Text&#45;&gt;Frame</title>
<path fill="none" stroke="#000000" d="M174.5,-459.1462C174.5,-450.332 174.5,-441.2098 174.5,-432.7863"/>
<polygon fill="none" stroke="#000000" points="171.0001,-459.2916 174.5,-469.2916 178.0001,-459.2917 171.0001,-459.2916"/>
</g>
<!-- Pane -->
<g id="node3" class="node">
<title>Pane</title>
<polygon fill="#f2f2f2" stroke="#000000" points="139,-257.5 139,-326.5 210,-326.5 210,-257.5 139,-257.5"/>
<text text-anchor="middle" x="174.5" y="-311.3" font-family="Times,serif" font-size="14.00" fill="#000000">Pane</text>
<polyline fill="none" stroke="#000000" points="139,-303.5 210,-303.5 "/>
<text text-anchor="middle" x="174.5" y="-288.3" font-family="Times,serif" font-size="14.00" fill="#000000"> </text>
<polyline fill="none" stroke="#000000" points="139,-280.5 210,-280.5 "/>
<text text-anchor="start" x="147" y="-265.3" font-family="Times,serif" font-size="14.00" fill="#000000">+ Draw</text>
</g>
<!-- Frame&#45;&gt;Pane -->
<g id="edge2" class="edge">
<title>Frame&#45;&gt;Pane</title>
<path fill="none" stroke="#000000" d="M174.5,-353.1462C174.5,-344.332 174.5,-335.2098 174.5,-326.7863"/>
<polygon fill="none" stroke="#000000" points="171.0001,-353.2916 174.5,-363.2916 178.0001,-353.2917 171.0001,-353.2916"/>
</g>
<!-- ButtonView -->
<g id="node4" class="node">
<title>ButtonView</title>
<polygon fill="#f2f2f2" stroke="#000000" points="0,-129 0,-198 101,-198 101,-129 0,-129"/>
<text text-anchor="middle" x="50.5" y="-182.8" font-family="Times,serif" font-size="14.00" fill="#000000">ButtonView</text>
<polyline fill="none" stroke="#000000" points="0,-175 101,-175 "/>
<text text-anchor="middle" x="50.5" y="-159.8" font-family="Times,serif" font-size="14.00" fill="#000000"> </text>
<polyline fill="none" stroke="#000000" points="0,-152 101,-152 "/>
<text text-anchor="start" x="8" y="-136.8" font-family="Times,serif" font-size="14.00" fill="#000000">+ Draw</text>
</g>
<!-- Pane&#45;&gt;ButtonView -->
<g id="edge3" class="edge">
<title>Pane&#45;&gt;ButtonView</title>
<path fill="none" stroke="#000000" d="M133.7244,-249.7446C117.6396,-233.0761 99.3874,-214.1615 84.083,-198.3017"/>
<polygon fill="none" stroke="#000000" points="131.4812,-252.4605 140.9438,-257.226 136.5184,-247.5997 131.4812,-252.4605"/>
</g>
<!-- ListView -->
<g id="node5" class="node">
<title>ListView</title>
<polygon fill="#f2f2f2" stroke="#000000" points="119,-106.5 119,-220.5 230,-220.5 230,-106.5 119,-106.5"/>
<text text-anchor="middle" x="174.5" y="-205.3" font-family="Times,serif" font-size="14.00" fill="#000000">ListView</text>
<polyline fill="none" stroke="#000000" points="119,-197.5 230,-197.5 "/>
<text text-anchor="middle" x="174.5" y="-182.3" font-family="Times,serif" font-size="14.00" fill="#000000"> </text>
<polyline fill="none" stroke="#000000" points="119,-174.5 230,-174.5 "/>
<text text-anchor="start" x="127" y="-159.3" font-family="Times,serif" font-size="14.00" fill="#000000">+ Draw</text>
<text text-anchor="start" x="127" y="-144.3" font-family="Times,serif" font-size="14.00" fill="#000000">+ HandleKey</text>
<text text-anchor="start" x="127" y="-129.3" font-family="Times,serif" font-size="14.00" fill="#000000"># onDraw</text>
<text text-anchor="start" x="127" y="-114.3" font-family="Times,serif" font-size="14.00" fill="#000000"># onAction</text>
</g>
<!-- Pane&#45;&gt;ListView -->
<g id="edge4" class="edge">
<title>Pane&#45;&gt;ListView</title>
<path fill="none" stroke="#000000" d="M174.5,-247.0859C174.5,-238.5297 174.5,-229.469 174.5,-220.5928"/>
<polygon fill="none" stroke="#000000" points="171.0001,-247.226 174.5,-257.226 178.0001,-247.2261 171.0001,-247.226"/>
</g>
<!-- Group -->
<g id="node6" class="node">
<title>Group</title>
<polygon fill="#f2f2f2" stroke="#000000" points="248,-129 248,-198 319,-198 319,-129 248,-129"/>
<text text-anchor="middle" x="283.5" y="-182.8" font-family="Times,serif" font-size="14.00" fill="#000000">Group</text>
<polyline fill="none" stroke="#000000" points="248,-175 319,-175 "/>
<text text-anchor="middle" x="283.5" y="-159.8" font-family="Times,serif" font-size="14.00" fill="#000000"> </text>
<polyline fill="none" stroke="#000000" points="248,-152 319,-152 "/>
<text text-anchor="start" x="256" y="-136.8" font-family="Times,serif" font-size="14.00" fill="#000000">+ Draw</text>
</g>
<!-- Pane&#45;&gt;Group -->
<g id="edge5" class="edge">
<title>Pane&#45;&gt;Group</title>
<path fill="none" stroke="#000000" d="M213.4957,-249.7066C221.868,-240.3594 230.5765,-230.4297 238.5,-221 244.6161,-213.7213 251.011,-205.7721 256.9963,-198.1702"/>
<polygon fill="none" stroke="#000000" points="210.6598,-247.6253 206.5666,-257.3975 215.8604,-252.3108 210.6598,-247.6253"/>
</g>
<!-- HGroup -->
<g id="node7" class="node">
<title>HGroup</title>
<polygon fill="#f2f2f2" stroke="#000000" points="198.5,-.5 198.5,-69.5 274.5,-69.5 274.5,-.5 198.5,-.5"/>
<text text-anchor="middle" x="236.5" y="-54.3" font-family="Times,serif" font-size="14.00" fill="#000000">HGroup</text>
<polyline fill="none" stroke="#000000" points="198.5,-46.5 274.5,-46.5 "/>
<text text-anchor="middle" x="236.5" y="-31.3" font-family="Times,serif" font-size="14.00" fill="#000000"> </text>
<polyline fill="none" stroke="#000000" points="198.5,-23.5 274.5,-23.5 "/>
<text text-anchor="start" x="206.5" y="-8.3" font-family="Times,serif" font-size="14.00" fill="#000000">/+ Draw</text>
</g>
<!-- Group&#45;&gt;HGroup -->
<g id="edge6" class="edge">
<title>Group&#45;&gt;HGroup</title>
<path fill="none" stroke="#000000" d="M267.216,-118.9789C261.3271,-102.8783 254.7686,-84.9471 249.229,-69.8017"/>
<polygon fill="none" stroke="#000000" points="264.059,-120.5368 270.7811,-128.726 270.6331,-118.1322 264.059,-120.5368"/>
</g>
<!-- VGroup -->
<g id="node8" class="node">
<title>VGroup</title>
<polygon fill="#f2f2f2" stroke="#000000" points="292.5,-.5 292.5,-69.5 368.5,-69.5 368.5,-.5 292.5,-.5"/>
<text text-anchor="middle" x="330.5" y="-54.3" font-family="Times,serif" font-size="14.00" fill="#000000">VGroup</text>
<polyline fill="none" stroke="#000000" points="292.5,-46.5 368.5,-46.5 "/>
<text text-anchor="middle" x="330.5" y="-31.3" font-family="Times,serif" font-size="14.00" fill="#000000"> </text>
<polyline fill="none" stroke="#000000" points="292.5,-23.5 368.5,-23.5 "/>
<text text-anchor="start" x="300.5" y="-8.3" font-family="Times,serif" font-size="14.00" fill="#000000">/+ Draw</text>
</g>
<!-- Group&#45;&gt;VGroup -->
<g id="edge7" class="edge">
<title>Group&#45;&gt;VGroup</title>
<path fill="none" stroke="#000000" d="M299.784,-118.9789C305.6729,-102.8783 312.2314,-84.9471 317.771,-69.8017"/>
<polygon fill="none" stroke="#000000" points="296.3669,-118.1322 296.2189,-128.726 302.941,-120.5368 296.3669,-118.1322"/>
</g>
<!-- TabGroup -->
<g id="node9" class="node">
<title>TabGroup</title>
<polygon fill="#f2f2f2" stroke="#000000" points="220,-469.5 220,-538.5 331,-538.5 331,-469.5 220,-469.5"/>
<text text-anchor="middle" x="275.5" y="-523.3" font-family="Times,serif" font-size="14.00" fill="#000000">TabGroup</text>
<polyline fill="none" stroke="#000000" points="220,-515.5 331,-515.5 "/>
<text text-anchor="middle" x="275.5" y="-500.3" font-family="Times,serif" font-size="14.00" fill="#000000"> </text>
<polyline fill="none" stroke="#000000" points="220,-492.5 331,-492.5 "/>
<text text-anchor="start" x="228" y="-477.3" font-family="Times,serif" font-size="14.00" fill="#000000">+ HandleKey</text>
</g>
</g>
</svg>
