<?xml version="1.0" encoding="UTF-8" standalone="no"?>
<!DOCTYPE svg PUBLIC "-//W3C//DTD SVG 1.1//EN"
 "http://www.w3.org/Graphics/SVG/1.1/DTD/svg11.dtd">
<!-- Generated by graphviz version 2.44.0 (0)
 -->
<!-- Title: controlflow Pages: 1 -->
<svg width="1011pt" height="507pt"
 viewBox="0.00 0.00 1011.00 507.17" xmlns="http://www.w3.org/2000/svg" xmlns:xlink="http://www.w3.org/1999/xlink">
<g id="graph0" class="graph" transform="scale(1 1) rotate(0) translate(4 503.17)">
<title>controlflow</title>
<polygon fill="white" stroke="transparent" points="-4,4 -4,-503.17 1007,-503.17 1007,4 -4,4"/>
<g id="clust1" class="cluster">
<title>cluster_OnLoad</title>
<polygon fill="none" stroke="red" points="8,-279 8,-354 142,-354 142,-279 8,-279"/>
<text text-anchor="middle" x="75" y="-338.8" font-family="Times,serif" font-size="14.00">window.onload</text>
</g>
<g id="clust2" class="cluster">
<title>cluster_SocketOpen</title>
<polygon fill="none" stroke="blue" points="150,-279 150,-354 278,-354 278,-279 150,-279"/>
<text text-anchor="middle" x="214" y="-338.8" font-family="Times,serif" font-size="14.00">socket.onopen</text>
</g>
<g id="clust3" class="cluster">
<title>cluster_SocketClose</title>
<polygon fill="none" stroke="blue" points="286,-95 286,-354 574,-354 574,-95 286,-95"/>
<text text-anchor="middle" x="430" y="-338.8" font-family="Times,serif" font-size="14.00">socket.onclose</text>
</g>
<g id="clust4" class="cluster">
<title>cluster_SocketError</title>
<polygon fill="none" stroke="blue" points="582,-194 582,-354 720,-354 720,-194 582,-194"/>
<text text-anchor="middle" x="651" y="-338.8" font-family="Times,serif" font-size="14.00">socket.onerror</text>
</g>
<g id="clust5" class="cluster">
<title>cluster_SocketMessage</title>
<polygon fill="none" stroke="blue" points="728,-8 728,-354 995,-354 995,-8 728,-8"/>
<text text-anchor="middle" x="861.5" y="-338.8" font-family="Times,serif" font-size="14.00">socket.onmessage</text>
</g>
<!-- JS -->
<g id="node1" class="node">
<title>JS</title>
<ellipse fill="none" stroke="black" cx="430" cy="-447.08" rx="48.16" ry="48.16"/>
<ellipse fill="none" stroke="black" cx="430" cy="-447.08" rx="52.17" ry="52.17"/>
<text text-anchor="middle" x="430" y="-450.08" font-family="Times,serif" font-size="10.00">JavaScript</text>
<text text-anchor="middle" x="430" y="-439.08" font-family="Times,serif" font-size="10.00">Engine</text>
</g>
<!-- OL_ConnectToMDB -->
<g id="node2" class="node">
<title>OL_ConnectToMDB</title>
<polygon fill="none" stroke="#008b00" points="133.5,-323 16.5,-323 16.5,-287 133.5,-287 133.5,-323"/>
<text text-anchor="middle" x="75" y="-302.5" font-family="Times,serif" font-size="10.00">ConnectToMusicDB</text>
</g>
<!-- JS&#45;&gt;OL_ConnectToMDB -->
<g id="edge9" class="edge">
<title>JS&#45;&gt;OL_ConnectToMDB</title>
<path fill="none" stroke="black" d="M379.03,-435.47C322.57,-422.45 229.61,-397.23 151.02,-356.56"/>
<polygon fill="black" stroke="black" points="152.48,-353.38 142,-351.79 149.2,-359.56 152.48,-353.38"/>
<text text-anchor="middle" x="236.5" y="-365.8" font-family="Times,serif" font-size="14.00">When loaded</text>
</g>
<!-- SO_onOpen -->
<g id="node3" class="node">
<title>SO_onOpen</title>
<polygon fill="none" stroke="red" points="270,-323 158,-323 158,-287 270,-287 270,-323"/>
<text text-anchor="middle" x="214" y="-302.5" font-family="Times,serif" font-size="10.00">…ConnectionOpen</text>
</g>
<!-- JS&#45;&gt;SO_onOpen -->
<g id="edge10" class="edge">
<title>JS&#45;&gt;SO_onOpen</title>
<path fill="none" stroke="black" d="M385.54,-419.35C358.12,-402.65 322.13,-380.36 286.54,-356.97"/>
<polygon fill="black" stroke="black" points="288.27,-353.92 278,-351.33 284.41,-359.76 288.27,-353.92"/>
<text text-anchor="middle" x="343.5" y="-365.8" font-family="Times,serif" font-size="14.00">on open</text>
</g>
<!-- SC_StopWatchdog -->
<g id="node4" class="node">
<title>SC_StopWatchdog</title>
<polygon fill="none" stroke="#008b00" points="491,-323 369,-323 369,-287 491,-287 491,-323"/>
<text text-anchor="middle" x="430" y="-302.5" font-family="Times,serif" font-size="10.00">MDB_StopWatchdog</text>
</g>
<!-- JS&#45;&gt;SC_StopWatchdog -->
<g id="edge11" class="edge">
<title>JS&#45;&gt;SC_StopWatchdog</title>
<path fill="none" stroke="black" d="M430,-394.72C430,-384.73 430,-374.21 430,-364.03"/>
<polygon fill="black" stroke="black" points="433.5,-364 430,-354 426.5,-364 433.5,-364"/>
<text text-anchor="middle" x="459" y="-365.8" font-family="Times,serif" font-size="14.00">on close</text>
</g>
<!-- SE_StopWatchdog -->
<g id="node8" class="node">
<title>SE_StopWatchdog</title>
<polygon fill="none" stroke="#008b00" points="712,-323 590,-323 590,-287 712,-287 712,-323"/>
<text text-anchor="middle" x="651" y="-302.5" font-family="Times,serif" font-size="10.00">MDB_StopWatchdog</text>
</g>
<!-- JS&#45;&gt;SE_StopWatchdog -->
<g id="edge12" class="edge">
<title>JS&#45;&gt;SE_StopWatchdog</title>
<path fill="none" stroke="black" d="M474.22,-418.97C501.54,-402.13 537.51,-379.79 573.38,-356.94"/>
<polygon fill="black" stroke="black" points="575.46,-359.76 582,-351.43 571.69,-353.86 575.46,-359.76"/>
<text text-anchor="middle" x="591.5" y="-365.8" font-family="Times,serif" font-size="14.00">on error</text>
</g>
<!-- SM_ResetWatchdog -->
<g id="node10" class="node">
<title>SM_ResetWatchdog</title>
<polygon fill="none" stroke="#008b00" points="888,-323 760,-323 760,-287 888,-287 888,-323"/>
<text text-anchor="middle" x="824" y="-302.5" font-family="Times,serif" font-size="10.00">MDB_ResetWatchdog</text>
</g>
<!-- JS&#45;&gt;SM_ResetWatchdog -->
<g id="edge13" class="edge">
<title>JS&#45;&gt;SM_ResetWatchdog</title>
<path fill="none" stroke="black" d="M480.18,-432.75C537.18,-417.08 632.92,-389.16 718.43,-356.14"/>
<polygon fill="black" stroke="black" points="719.96,-359.3 728,-352.4 717.41,-352.78 719.96,-359.3"/>
<text text-anchor="middle" x="742.5" y="-365.8" font-family="Times,serif" font-size="14.00">on message</text>
</g>
<!-- SC_IF -->
<g id="node5" class="node">
<title>SC_IF</title>
<polygon fill="none" stroke="black" points="430,-250 294,-220 430,-190 566,-220 430,-250"/>
<text text-anchor="middle" x="430" y="-223" font-family="Times,serif" font-size="10.00">is readyState</text>
<text text-anchor="middle" x="430" y="-212" font-family="Times,serif" font-size="10.00">CLOASING or CLOSED</text>
</g>
<!-- SC_StopWatchdog&#45;&gt;SC_IF -->
<g id="edge1" class="edge">
<title>SC_StopWatchdog&#45;&gt;SC_IF</title>
<path fill="none" stroke="black" d="M430,-286.8C430,-279.14 430,-269.78 430,-260.55"/>
<polygon fill="black" stroke="black" points="433.5,-260.27 430,-250.27 426.5,-260.27 433.5,-260.27"/>
</g>
<!-- SC_onError -->
<g id="node6" class="node">
<title>SC_onError</title>
<polygon fill="none" stroke="red" points="416.5,-139 305.5,-139 305.5,-103 416.5,-103 416.5,-139"/>
<text text-anchor="middle" x="361" y="-118.5" font-family="Times,serif" font-size="10.00">…ConnectionError</text>
</g>
<!-- SC_IF&#45;&gt;SC_onError -->
<g id="edge2" class="edge">
<title>SC_IF&#45;&gt;SC_onError</title>
<path fill="none" stroke="black" d="M412.05,-193.77C401.93,-179.54 389.32,-161.82 379.17,-147.54"/>
<polygon fill="black" stroke="black" points="381.86,-145.28 373.21,-139.16 376.15,-149.34 381.86,-145.28"/>
<text text-anchor="middle" x="405" y="-160.8" font-family="Times,serif" font-size="14.00">no</text>
</g>
<!-- SC_onClosed -->
<g id="node7" class="node">
<title>SC_onClosed</title>
<polygon fill="none" stroke="red" points="553.5,-139 434.5,-139 434.5,-103 553.5,-103 553.5,-139"/>
<text text-anchor="middle" x="494" y="-118.5" font-family="Times,serif" font-size="10.00">…ConnectionClosed</text>
</g>
<!-- SC_IF&#45;&gt;SC_onClosed -->
<g id="edge3" class="edge">
<title>SC_IF&#45;&gt;SC_onClosed</title>
<path fill="none" stroke="black" d="M446.82,-193.51C456.11,-179.42 467.63,-161.96 476.97,-147.82"/>
<polygon fill="black" stroke="black" points="480.15,-149.35 482.74,-139.07 474.31,-145.49 480.15,-149.35"/>
<text text-anchor="middle" x="481.5" y="-160.8" font-family="Times,serif" font-size="14.00">yes</text>
</g>
<!-- SE_onError -->
<g id="node9" class="node">
<title>SE_onError</title>
<polygon fill="none" stroke="red" points="706.5,-238 595.5,-238 595.5,-202 706.5,-202 706.5,-238"/>
<text text-anchor="middle" x="651" y="-217.5" font-family="Times,serif" font-size="10.00">…ConnectionError</text>
</g>
<!-- SE_StopWatchdog&#45;&gt;SE_onError -->
<g id="edge4" class="edge">
<title>SE_StopWatchdog&#45;&gt;SE_onError</title>
<path fill="none" stroke="black" d="M651,-286.8C651,-275.67 651,-260.94 651,-248.24"/>
<polygon fill="black" stroke="black" points="654.5,-248.18 651,-238.18 647.5,-248.18 654.5,-248.18"/>
</g>
<!-- SM_Decode -->
<g id="node11" class="node">
<title>SM_Decode</title>
<polygon fill="none" stroke="black" points="884.5,-238 793.5,-238 793.5,-202 884.5,-202 884.5,-238"/>
<text text-anchor="middle" x="839" y="-223" font-family="Times,serif" font-size="10.00">Parse received</text>
<text text-anchor="middle" x="839" y="-212" font-family="Times,serif" font-size="10.00">JSON string</text>
</g>
<!-- SM_ResetWatchdog&#45;&gt;SM_Decode -->
<g id="edge5" class="edge">
<title>SM_ResetWatchdog&#45;&gt;SM_Decode</title>
<path fill="none" stroke="black" d="M827.11,-286.8C829.12,-275.67 831.78,-260.94 834.08,-248.24"/>
<polygon fill="black" stroke="black" points="837.56,-248.64 835.9,-238.18 830.67,-247.39 837.56,-248.64"/>
</g>
<!-- SM_IF -->
<g id="node12" class="node">
<title>SM_IF</title>
<polygon fill="none" stroke="black" points="848,-139 736.39,-121 848,-103 959.61,-121 848,-139"/>
<text text-anchor="middle" x="848" y="-118.5" font-family="Times,serif" font-size="10.00">Check method variable</text>
</g>
<!-- SM_Decode&#45;&gt;SM_IF -->
<g id="edge6" class="edge">
<title>SM_Decode&#45;&gt;SM_IF</title>
<path fill="none" stroke="black" d="M840.61,-201.66C841.96,-187.09 843.92,-166 845.48,-149.19"/>
<polygon fill="black" stroke="black" points="849,-149.15 846.44,-138.87 842.03,-148.5 849,-149.15"/>
</g>
<!-- SM_onNotification -->
<g id="node13" class="node">
<title>SM_onNotification</title>
<polygon fill="none" stroke="red" points="822,-52 736,-52 736,-16 822,-16 822,-52"/>
<text text-anchor="middle" x="779" y="-31.5" font-family="Times,serif" font-size="10.00">…Notification</text>
</g>
<!-- SM_IF&#45;&gt;SM_onNotification -->
<g id="edge7" class="edge">
<title>SM_IF&#45;&gt;SM_onNotification</title>
<path fill="none" stroke="black" d="M794.01,-111.55C778.9,-106.42 764.13,-98.19 755,-85 749.85,-77.56 751.72,-68.84 756.14,-60.79"/>
<polygon fill="black" stroke="black" points="759.1,-62.66 761.74,-52.4 753.28,-58.77 759.1,-62.66"/>
<text text-anchor="middle" x="845.5" y="-73.8" font-family="Times,serif" font-size="14.00">method == &quot;notification&quot;</text>
</g>
<!-- SM_onMessage -->
<g id="node14" class="node">
<title>SM_onMessage</title>
<polygon fill="none" stroke="red" points="987,-52 915,-52 915,-16 987,-16 987,-52"/>
<text text-anchor="middle" x="951" y="-31.5" font-family="Times,serif" font-size="10.00">…Message</text>
</g>
<!-- SM_IF&#45;&gt;SM_onMessage -->
<g id="edge8" class="edge">
<title>SM_IF&#45;&gt;SM_onMessage</title>
<path fill="none" stroke="black" d="M893.83,-110.35C909.03,-105.11 924.89,-97.12 936,-85 941.77,-78.71 945.32,-70.27 947.51,-62.12"/>
<polygon fill="black" stroke="black" points="950.98,-62.65 949.62,-52.14 944.13,-61.21 950.98,-62.65"/>
<text text-anchor="middle" x="958.5" y="-73.8" font-family="Times,serif" font-size="14.00">else</text>
</g>
</g>
</svg>
