<?xml version="1.0" encoding="UTF-8" standalone="no"?>
<!DOCTYPE svg PUBLIC "-//W3C//DTD SVG 1.1//EN"
 "http://www.w3.org/Graphics/SVG/1.1/DTD/svg11.dtd">
<!-- Generated by graphviz version 14.1.1 (0)
 -->
<!-- Title: controlflow Pages: 1 -->
<svg width="1007pt" height="523pt"
 viewBox="0.00 0.00 1007.00 523.00" xmlns="http://www.w3.org/2000/svg" xmlns:xlink="http://www.w3.org/1999/xlink">
<g id="graph0" class="graph" transform="scale(1 1) rotate(0) translate(4 518.81)">
<title>controlflow</title>
<polygon fill="white" stroke="none" points="-4,4 -4,-518.81 1003,-518.81 1003,4 -4,4"/>
<g id="clust1" class="cluster">
<title>cluster_OnLoad</title>
<polygon fill="none" stroke="red" points="8,-290.5 8,-367.75 140,-367.75 140,-290.5 8,-290.5"/>
<text xml:space="preserve" text-anchor="middle" x="74" y="-350.45" font-family="Times,serif" font-size="14.00">window.onload</text>
</g>
<g id="clust2" class="cluster">
<title>cluster_SocketOpen</title>
<polygon fill="none" stroke="blue" points="148,-290.5 148,-367.75 276,-367.75 276,-290.5 148,-290.5"/>
<text xml:space="preserve" text-anchor="middle" x="212" y="-350.45" font-family="Times,serif" font-size="14.00">socket.onopen</text>
</g>
<g id="clust3" class="cluster">
<title>cluster_SocketClose</title>
<polygon fill="none" stroke="blue" points="284,-97.25 284,-367.75 570,-367.75 570,-97.25 284,-97.25"/>
<text xml:space="preserve" text-anchor="middle" x="427" y="-350.45" font-family="Times,serif" font-size="14.00">socket.onclose</text>
</g>
<g id="clust4" class="cluster">
<title>cluster_SocketError</title>
<polygon fill="none" stroke="blue" points="578,-202 578,-367.75 716,-367.75 716,-202 578,-202"/>
<text xml:space="preserve" text-anchor="middle" x="647" y="-350.45" font-family="Times,serif" font-size="14.00">socket.onerror</text>
</g>
<g id="clust5" class="cluster">
<title>cluster_SocketMessage</title>
<polygon fill="none" stroke="blue" points="724,-8 724,-367.75 991,-367.75 991,-8 724,-8"/>
<text xml:space="preserve" text-anchor="middle" x="857.5" y="-350.45" font-family="Times,serif" font-size="14.00">socket.onmessage</text>
</g>
<!-- JS -->
<g id="node1" class="node">
<title>JS</title>
<ellipse fill="none" stroke="black" cx="427" cy="-462.91" rx="47.91" ry="47.91"/>
<ellipse fill="none" stroke="black" cx="427" cy="-462.91" rx="51.91" ry="51.91"/>
<text xml:space="preserve" text-anchor="middle" x="427" y="-466.16" font-family="Times,serif" font-size="10.00">JavaScript</text>
<text xml:space="preserve" text-anchor="middle" x="427" y="-453.41" font-family="Times,serif" font-size="10.00">Engine</text>
</g>
<!-- OL_ConnectToMDB -->
<g id="node2" class="node">
<title>OL_ConnectToMDB</title>
<polygon fill="none" stroke="#008b00" points="132.25,-334.5 15.75,-334.5 15.75,-298.5 132.25,-298.5 132.25,-334.5"/>
<text xml:space="preserve" text-anchor="middle" x="74" y="-313.38" font-family="Times,serif" font-size="10.00">ConnectToMusicDB</text>
</g>
<!-- JS&#45;&gt;OL_ConnectToMDB -->
<g id="edge9" class="edge">
<title>JS&#45;&gt;OL_ConnectToMDB</title>
<path fill="none" stroke="black" d="M376.11,-451.55C319.78,-438.69 227.19,-413.39 149.84,-370.93"/>
<polygon fill="black" stroke="black" points="151.75,-367.99 141.32,-366.14 148.31,-374.09 151.75,-367.99"/>
<text xml:space="preserve" text-anchor="middle" x="233.37" y="-379.7" font-family="Times,serif" font-size="14.00">When loaded</text>
</g>
<!-- SO_onOpen -->
<g id="node3" class="node">
<title>SO_onOpen</title>
<polygon fill="none" stroke="red" points="267.62,-334.5 156.38,-334.5 156.38,-298.5 267.62,-298.5 267.62,-334.5"/>
<text xml:space="preserve" text-anchor="middle" x="212" y="-313.38" font-family="Times,serif" font-size="10.00">…ConnectionOpen</text>
</g>
<!-- JS&#45;&gt;SO_onOpen -->
<g id="edge10" class="edge">
<title>JS&#45;&gt;SO_onOpen</title>
<path fill="none" stroke="black" d="M383.08,-434.85C356.02,-417.94 320.49,-395.3 285.39,-371.41"/>
<polygon fill="black" stroke="black" points="287.48,-368.59 277.25,-365.83 283.52,-374.37 287.48,-368.59"/>
<text xml:space="preserve" text-anchor="middle" x="343.9" y="-379.7" font-family="Times,serif" font-size="14.00">on open</text>
</g>
<!-- SC_StopWatchdog -->
<g id="node4" class="node">
<title>SC_StopWatchdog</title>
<polygon fill="none" stroke="#008b00" points="487.88,-334.5 366.12,-334.5 366.12,-298.5 487.88,-298.5 487.88,-334.5"/>
<text xml:space="preserve" text-anchor="middle" x="427" y="-313.38" font-family="Times,serif" font-size="10.00">MDB_StopWatchdog</text>
</g>
<!-- JS&#45;&gt;SC_StopWatchdog -->
<g id="edge11" class="edge">
<title>JS&#45;&gt;SC_StopWatchdog</title>
<path fill="none" stroke="black" d="M427,-410.59C427,-400.36 427,-389.53 427,-379"/>
<polygon fill="black" stroke="black" points="430.5,-379.26 427,-369.26 423.5,-379.26 430.5,-379.26"/>
<text xml:space="preserve" text-anchor="middle" x="455.88" y="-379.7" font-family="Times,serif" font-size="14.00">on close</text>
</g>
<!-- SE_StopWatchdog -->
<g id="node8" class="node">
<title>SE_StopWatchdog</title>
<polygon fill="none" stroke="#008b00" points="707.88,-334.5 586.12,-334.5 586.12,-298.5 707.88,-298.5 707.88,-334.5"/>
<text xml:space="preserve" text-anchor="middle" x="647" y="-313.38" font-family="Times,serif" font-size="10.00">MDB_StopWatchdog</text>
</g>
<!-- JS&#45;&gt;SE_StopWatchdog -->
<g id="edge12" class="edge">
<title>JS&#45;&gt;SE_StopWatchdog</title>
<path fill="none" stroke="black" d="M470.66,-434.47C497.63,-417.41 533.13,-394.74 568.52,-371.36"/>
<polygon fill="black" stroke="black" points="570.34,-374.36 576.74,-365.92 566.47,-368.52 570.34,-374.36"/>
<text xml:space="preserve" text-anchor="middle" x="587.45" y="-379.7" font-family="Times,serif" font-size="14.00">on error</text>
</g>
<!-- SM_ResetWatchdog -->
<g id="node10" class="node">
<title>SM_ResetWatchdog</title>
<polygon fill="none" stroke="#008b00" points="885.5,-334.5 758.5,-334.5 758.5,-298.5 885.5,-298.5 885.5,-334.5"/>
<text xml:space="preserve" text-anchor="middle" x="822" y="-313.38" font-family="Times,serif" font-size="10.00">MDB_ResetWatchdog</text>
</g>
<!-- JS&#45;&gt;SM_ResetWatchdog -->
<g id="edge13" class="edge">
<title>JS&#45;&gt;SM_ResetWatchdog</title>
<path fill="none" stroke="black" d="M477.04,-448.26C533.65,-432.28 628.55,-403.9 713.44,-370.34"/>
<polygon fill="black" stroke="black" points="714.61,-373.63 722.6,-366.67 712.01,-367.14 714.61,-373.63"/>
<text xml:space="preserve" text-anchor="middle" x="738.79" y="-379.7" font-family="Times,serif" font-size="14.00">on message</text>
</g>
<!-- SC_IF -->
<g id="node5" class="node">
<title>SC_IF</title>
<polygon fill="none" stroke="black" points="427,-261.5 291.75,-228 427,-194.5 562.25,-228 427,-261.5"/>
<text xml:space="preserve" text-anchor="middle" x="427" y="-231.25" font-family="Times,serif" font-size="10.00">is readyState</text>
<text xml:space="preserve" text-anchor="middle" x="427" y="-218.5" font-family="Times,serif" font-size="10.00">CLOASING or CLOSED</text>
</g>
<!-- SC_StopWatchdog&#45;&gt;SC_IF -->
<g id="edge1" class="edge">
<title>SC_StopWatchdog&#45;&gt;SC_IF</title>
<path fill="none" stroke="black" d="M427,-298.41C427,-291.07 427,-282.12 427,-273.12"/>
<polygon fill="black" stroke="black" points="430.5,-273.33 427,-263.33 423.5,-273.33 430.5,-273.33"/>
</g>
<!-- SC_onError -->
<g id="node6" class="node">
<title>SC_onError</title>
<polygon fill="none" stroke="red" points="414.25,-141.25 303.75,-141.25 303.75,-105.25 414.25,-105.25 414.25,-141.25"/>
<text xml:space="preserve" text-anchor="middle" x="359" y="-120.12" font-family="Times,serif" font-size="10.00">…ConnectionError</text>
</g>
<!-- SC_IF&#45;&gt;SC_onError -->
<g id="edge2" class="edge">
<title>SC_IF&#45;&gt;SC_onError</title>
<path fill="none" stroke="black" d="M408.24,-198.65C398.4,-183.79 386.42,-165.68 376.74,-151.05"/>
<polygon fill="black" stroke="black" points="379.73,-149.23 371.29,-142.82 373.89,-153.09 379.73,-149.23"/>
<text xml:space="preserve" text-anchor="middle" x="401.62" y="-163.2" font-family="Times,serif" font-size="14.00">no</text>
</g>
<!-- SC_onClosed -->
<g id="node7" class="node">
<title>SC_onClosed</title>
<polygon fill="none" stroke="red" points="550,-141.25 432,-141.25 432,-105.25 550,-105.25 550,-141.25"/>
<text xml:space="preserve" text-anchor="middle" x="491" y="-120.12" font-family="Times,serif" font-size="10.00">…ConnectionClosed</text>
</g>
<!-- SC_IF&#45;&gt;SC_onClosed -->
<g id="edge3" class="edge">
<title>SC_IF&#45;&gt;SC_onClosed</title>
<path fill="none" stroke="black" d="M444.66,-198.65C453.92,-183.79 465.2,-165.68 474.31,-151.05"/>
<polygon fill="black" stroke="black" points="477.1,-153.18 479.42,-142.84 471.16,-149.48 477.1,-153.18"/>
<text xml:space="preserve" text-anchor="middle" x="480.47" y="-163.2" font-family="Times,serif" font-size="14.00">yes</text>
</g>
<!-- SE_onError -->
<g id="node9" class="node">
<title>SE_onError</title>
<polygon fill="none" stroke="red" points="702.25,-246 591.75,-246 591.75,-210 702.25,-210 702.25,-246"/>
<text xml:space="preserve" text-anchor="middle" x="647" y="-224.88" font-family="Times,serif" font-size="10.00">…ConnectionError</text>
</g>
<!-- SE_StopWatchdog&#45;&gt;SE_onError -->
<g id="edge4" class="edge">
<title>SE_StopWatchdog&#45;&gt;SE_onError</title>
<path fill="none" stroke="black" d="M647,-298.41C647,-286.76 647,-271.05 647,-257.52"/>
<polygon fill="black" stroke="black" points="650.5,-257.86 647,-247.86 643.5,-257.86 650.5,-257.86"/>
</g>
<!-- SM_Decode -->
<g id="node11" class="node">
<title>SM_Decode</title>
<polygon fill="none" stroke="black" points="883.12,-246 792.88,-246 792.88,-210 883.12,-210 883.12,-246"/>
<text xml:space="preserve" text-anchor="middle" x="838" y="-231.25" font-family="Times,serif" font-size="10.00">Parse received</text>
<text xml:space="preserve" text-anchor="middle" x="838" y="-218.5" font-family="Times,serif" font-size="10.00">JSON string</text>
</g>
<!-- SM_ResetWatchdog&#45;&gt;SM_Decode -->
<g id="edge5" class="edge">
<title>SM_ResetWatchdog&#45;&gt;SM_Decode</title>
<path fill="none" stroke="black" d="M825.16,-298.41C827.32,-286.76 830.22,-271.05 832.72,-257.52"/>
<polygon fill="black" stroke="black" points="836.14,-258.31 834.52,-247.84 829.25,-257.04 836.14,-258.31"/>
</g>
<!-- SM_IF -->
<g id="node12" class="node">
<title>SM_IF</title>
<polygon fill="none" stroke="black" points="848,-141.25 732.27,-123.25 848,-105.25 963.73,-123.25 848,-141.25"/>
<text xml:space="preserve" text-anchor="middle" x="848" y="-120.12" font-family="Times,serif" font-size="10.00">Check method variable</text>
</g>
<!-- SM_Decode&#45;&gt;SM_IF -->
<g id="edge6" class="edge">
<title>SM_Decode&#45;&gt;SM_IF</title>
<path fill="none" stroke="black" d="M839.7,-209.57C841.21,-194.05 843.45,-171.05 845.22,-152.84"/>
<polygon fill="black" stroke="black" points="848.7,-153.22 846.18,-142.93 841.73,-152.54 848.7,-153.22"/>
</g>
<!-- SM_onNotification -->
<g id="node13" class="node">
<title>SM_onNotification</title>
<polygon fill="none" stroke="red" points="817.5,-52 732.5,-52 732.5,-16 817.5,-16 817.5,-52"/>
<text xml:space="preserve" text-anchor="middle" x="775" y="-30.88" font-family="Times,serif" font-size="10.00">…Notification</text>
</g>
<!-- SM_IF&#45;&gt;SM_onNotification -->
<g id="edge7" class="edge">
<title>SM_IF&#45;&gt;SM_onNotification</title>
<path fill="none" stroke="black" d="M790.36,-113.79C775.18,-108.64 760.48,-100.41 751.25,-87.25 745.82,-79.51 747.68,-70.33 752.17,-61.84"/>
<polygon fill="black" stroke="black" points="755.01,-63.88 757.54,-53.59 749.15,-60.06 755.01,-63.88"/>
<text xml:space="preserve" text-anchor="middle" x="841.62" y="-73.95" font-family="Times,serif" font-size="14.00">method == &quot;notification&quot;</text>
</g>
<!-- SM_onMessage -->
<g id="node14" class="node">
<title>SM_onMessage</title>
<polygon fill="none" stroke="red" points="982.75,-52 911.25,-52 911.25,-16 982.75,-16 982.75,-52"/>
<text xml:space="preserve" text-anchor="middle" x="947" y="-30.88" font-family="Times,serif" font-size="10.00">…Message</text>
</g>
<!-- SM_IF&#45;&gt;SM_onMessage -->
<g id="edge8" class="edge">
<title>SM_IF&#45;&gt;SM_onMessage</title>
<path fill="none" stroke="black" d="M892.73,-111.92C906.98,-106.65 921.7,-98.81 932,-87.25 937.87,-80.66 941.45,-71.92 943.64,-63.47"/>
<polygon fill="black" stroke="black" points="947.03,-64.34 945.54,-53.85 940.17,-62.98 947.03,-64.34"/>
<text xml:space="preserve" text-anchor="middle" x="955.63" y="-73.95" font-family="Times,serif" font-size="14.00">else</text>
</g>
</g>
</svg>
