<?xml version="1.0" encoding="UTF-8" standalone="no"?>
<!DOCTYPE svg PUBLIC "-//W3C//DTD SVG 1.1//EN"
 "http://www.w3.org/Graphics/SVG/1.1/DTD/svg11.dtd">
<!-- Generated by graphviz version 2.40.1 (20161225.0304)
 -->
<!-- Title: hierarchy Pages: 1 -->
<svg width="360pt" height="235pt"
 viewBox="0.00 0.00 360.00 235.42" xmlns="http://www.w3.org/2000/svg" xmlns:xlink="http://www.w3.org/1999/xlink">
<g id="graph0" class="graph" transform="scale(.8592 .8592) rotate(0) translate(4 270)">
<title>hierarchy</title>
<polygon fill="#ffffff" stroke="transparent" points="-4,4 -4,-270 415,-270 415,4 -4,4"/>
<!-- csv -->
<g id="node1" class="node">
<title>csv</title>
<polygon fill="#f2f2f2" stroke="#000000" points="24,-151.5 24,-235.5 107,-235.5 107,-151.5 24,-151.5"/>
<text text-anchor="middle" x="65.5" y="-220.3" font-family="Times,serif" font-size="14.00" fill="#000000">CSVFile</text>
<polyline fill="none" stroke="#000000" points="24,-212.5 107,-212.5 "/>
<text text-anchor="middle" x="65.5" y="-197.3" font-family="Times,serif" font-size="14.00" fill="#000000"> </text>
<polyline fill="none" stroke="#000000" points="24,-189.5 107,-189.5 "/>
<text text-anchor="start" x="32" y="-174.3" font-family="Times,serif" font-size="14.00" fill="#000000">+ Read()</text>
<text text-anchor="start" x="32" y="-159.3" font-family="Times,serif" font-size="14.00" fill="#000000">+ Write()</text>
</g>
<!-- mdbstate -->
<g id="node5" class="node">
<title>mdbstate</title>
<polygon fill="#f2f2f2" stroke="#000000" points="0,-8 0,-77 131,-77 131,-8 0,-8"/>
<text text-anchor="middle" x="65.5" y="-61.8" font-family="Times,serif" font-size="14.00" fill="#000000">MDBState</text>
<polyline fill="none" stroke="#000000" points="0,-54 131,-54 "/>
<text text-anchor="middle" x="65.5" y="-38.8" font-family="Times,serif" font-size="14.00" fill="#000000"> </text>
<polyline fill="none" stroke="#000000" points="0,-31 131,-31 "/>
<text text-anchor="start" x="8" y="-15.8" font-family="Times,serif" font-size="14.00" fill="#000000">+ GetFilterlist()</text>
</g>
<!-- csv&#45;&gt;mdbstate -->
<g id="edge4" class="edge">
<title>csv&#45;&gt;mdbstate</title>
<path fill="none" stroke="#000000" d="M65.5,-141.2869C65.5,-120.0964 65.5,-96.193 65.5,-77.2076"/>
<polygon fill="#000000" stroke="#000000" points="65.5,-151.4381 61.0001,-141.438 65.5,-146.4381 65.5001,-141.4381 65.5001,-141.4381 65.5001,-141.4381 65.5,-146.4381 70.0001,-141.4381 65.5,-151.4381 65.5,-151.4381"/>
</g>
<!-- config -->
<g id="node2" class="node">
<title>config</title>
<polygon fill="#f2f2f2" stroke="#000000" points="135.5,-121.5 135.5,-265.5 293.5,-265.5 293.5,-121.5 135.5,-121.5"/>
<text text-anchor="middle" x="214.5" y="-250.3" font-family="Times,serif" font-size="14.00" fill="#000000">Config</text>
<polyline fill="none" stroke="#000000" points="135.5,-242.5 293.5,-242.5 "/>
<text text-anchor="middle" x="214.5" y="-227.3" font-family="Times,serif" font-size="14.00" fill="#000000"> </text>
<polyline fill="none" stroke="#000000" points="135.5,-219.5 293.5,-219.5 "/>
<text text-anchor="start" x="143.5" y="-204.3" font-family="Times,serif" font-size="14.00" fill="#000000">+ Load()</text>
<text text-anchor="start" x="143.5" y="-189.3" font-family="Times,serif" font-size="14.00" fill="#000000">+ Reload()</text>
<text text-anchor="start" x="143.5" y="-174.3" font-family="Times,serif" font-size="14.00" fill="#000000">+ Save()</text>
<text text-anchor="start" x="143.5" y="-159.3" font-family="Times,serif" font-size="14.00" fill="#000000">+ OptionAvailable()</text>
<text text-anchor="start" x="143.5" y="-144.3" font-family="Times,serif" font-size="14.00" fill="#000000">+ Get()</text>
<text text-anchor="start" x="143.5" y="-129.3" font-family="Times,serif" font-size="14.00" fill="#000000">+ Set()</text>
</g>
<!-- musicdb -->
<g id="node3" class="node">
<title>musicdb</title>
<polygon fill="#f2f2f2" stroke="#000000" points="149.5,-.5 149.5,-84.5 279.5,-84.5 279.5,-.5 149.5,-.5"/>
<text text-anchor="middle" x="214.5" y="-69.3" font-family="Times,serif" font-size="14.00" fill="#000000">MusicDBConfig</text>
<polyline fill="none" stroke="#000000" points="149.5,-61.5 279.5,-61.5 "/>
<text text-anchor="middle" x="214.5" y="-46.3" font-family="Times,serif" font-size="14.00" fill="#000000"> </text>
<polyline fill="none" stroke="#000000" points="149.5,-38.5 279.5,-38.5 "/>
<text text-anchor="start" x="157.5" y="-23.3" font-family="Times,serif" font-size="14.00" fill="#000000">&#45; GetDirectory()</text>
<text text-anchor="start" x="157.5" y="-8.3" font-family="Times,serif" font-size="14.00" fill="#000000">&#45; GetFile()</text>
</g>
<!-- config&#45;&gt;musicdb -->
<g id="edge1" class="edge">
<title>config&#45;&gt;musicdb</title>
<path fill="none" stroke="#000000" d="M214.5,-110.9157C214.5,-101.9254 214.5,-93.0703 214.5,-84.8663"/>
<polygon fill="none" stroke="#000000" points="211.0001,-111.0959 214.5,-121.0959 218.0001,-111.0959 211.0001,-111.0959"/>
</g>
<!-- extern -->
<g id="node4" class="node">
<title>extern</title>
<polygon fill="#f2f2f2" stroke="#000000" points="298,-8 298,-77 411,-77 411,-8 298,-8"/>
<text text-anchor="middle" x="354.5" y="-61.8" font-family="Times,serif" font-size="14.00" fill="#000000">ExternConfig</text>
<polyline fill="none" stroke="#000000" points="298,-54 411,-54 "/>
<text text-anchor="middle" x="354.5" y="-38.8" font-family="Times,serif" font-size="14.00" fill="#000000"> </text>
<polyline fill="none" stroke="#000000" points="298,-31 411,-31 "/>
<text text-anchor="middle" x="354.5" y="-15.8" font-family="Times,serif" font-size="14.00" fill="#000000"> </text>
</g>
<!-- config&#45;&gt;extern -->
<g id="edge2" class="edge">
<title>config&#45;&gt;extern</title>
<path fill="none" stroke="#000000" d="M288.6091,-113.5681C300.4496,-100.7972 312.1329,-88.196 322.2974,-77.2328"/>
<polygon fill="none" stroke="#000000" points="285.862,-111.3831 281.6296,-121.0959 290.9952,-116.1424 285.862,-111.3831"/>
</g>
<!-- config&#45;&gt;mdbstate -->
<g id="edge3" class="edge">
<title>config&#45;&gt;mdbstate</title>
<path fill="none" stroke="#000000" d="M135.9801,-113.9262C123.2576,-101.0329 110.6918,-88.2984 99.7727,-77.2328"/>
<polygon fill="none" stroke="#000000" points="133.5398,-116.4362 143.0549,-121.0959 138.5224,-111.5195 133.5398,-116.4362"/>
</g>
</g>
</svg>
