<?xml version="1.0" encoding="UTF-8" standalone="no"?>
<!DOCTYPE svg PUBLIC "-//W3C//DTD SVG 1.1//EN"
 "http://www.w3.org/Graphics/SVG/1.1/DTD/svg11.dtd">
<!-- Generated by graphviz version 2.40.1 (20161225.0304)
 -->
<!-- Title: hierarchy Pages: 1 -->
<svg width="130pt" height="184pt"
 viewBox="0.00 0.00 130.00 184.00" xmlns="http://www.w3.org/2000/svg" xmlns:xlink="http://www.w3.org/1999/xlink">
<g id="graph0" class="graph" transform="scale(1 1) rotate(0) translate(4 180)">
<title>hierarchy</title>
<polygon fill="#ffffff" stroke="transparent" points="-4,4 -4,-180 126,-180 126,4 -4,4"/>
<!-- filesystem -->
<g id="node1" class="node">
<title>filesystem</title>
<polygon fill="#f2f2f2" stroke="#000000" points="13.5,-106.5 13.5,-175.5 108.5,-175.5 108.5,-106.5 13.5,-106.5"/>
<text text-anchor="middle" x="61" y="-160.3" font-family="Times,serif" font-size="14.00" fill="#000000">Filesystem</text>
<polyline fill="none" stroke="#000000" points="13.5,-152.5 108.5,-152.5 "/>
<text text-anchor="middle" x="61" y="-137.3" font-family="Times,serif" font-size="14.00" fill="#000000"> </text>
<polyline fill="none" stroke="#000000" points="13.5,-129.5 108.5,-129.5 "/>
<text text-anchor="middle" x="61" y="-114.3" font-family="Times,serif" font-size="14.00" fill="#000000"> </text>
</g>
<!-- fileprocessing -->
<g id="node2" class="node">
<title>fileprocessing</title>
<polygon fill="#f2f2f2" stroke="#000000" points="0,-.5 0,-69.5 122,-69.5 122,-.5 0,-.5"/>
<text text-anchor="middle" x="61" y="-54.3" font-family="Times,serif" font-size="14.00" fill="#000000">Fileprocessing</text>
<polyline fill="none" stroke="#000000" points="0,-46.5 122,-46.5 "/>
<text text-anchor="middle" x="61" y="-31.3" font-family="Times,serif" font-size="14.00" fill="#000000"> </text>
<polyline fill="none" stroke="#000000" points="0,-23.5 122,-23.5 "/>
<text text-anchor="middle" x="61" y="-8.3" font-family="Times,serif" font-size="14.00" fill="#000000"> </text>
</g>
<!-- filesystem&#45;&gt;fileprocessing -->
<g id="edge1" class="edge">
<title>filesystem&#45;&gt;fileprocessing</title>
<path fill="none" stroke="#000000" d="M61,-96.1462C61,-87.332 61,-78.2098 61,-69.7863"/>
<polygon fill="none" stroke="#000000" points="57.5001,-96.2916 61,-106.2916 64.5001,-96.2917 57.5001,-96.2916"/>
</g>
</g>
</svg>
