<?xml version="1.0" encoding="UTF-8" standalone="no"?>
<!DOCTYPE svg PUBLIC "-//W3C//DTD SVG 1.1//EN"
 "http://www.w3.org/Graphics/SVG/1.1/DTD/svg11.dtd">
<!-- Generated by graphviz version 2.40.1 (20161225.0304)
 -->
<!-- Title: hierarchy Pages: 1 -->
<svg width="360pt" height="455pt"
 viewBox="0.00 0.00 360.00 454.53" xmlns="http://www.w3.org/2000/svg" xmlns:xlink="http://www.w3.org/1999/xlink">
<g id="graph0" class="graph" transform="scale(.7877 .7877) rotate(0) translate(4 573)">
<title>hierarchy</title>
<polygon fill="#ffffff" stroke="transparent" points="-4,4 -4,-573 453,-573 453,4 -4,4"/>
<!-- Text -->
<g id="node1" class="node">
<title>Text</title>
<polygon fill="#f2f2f2" stroke="#000000" points="179.5,-499.5 179.5,-568.5 233.5,-568.5 233.5,-499.5 179.5,-499.5"/>
<text text-anchor="middle" x="206.5" y="-553.3" font-family="Times,serif" font-size="14.00" fill="#000000">Text</text>
<polyline fill="none" stroke="#000000" points="179.5,-545.5 233.5,-545.5 "/>
<text text-anchor="middle" x="206.5" y="-530.3" font-family="Times,serif" font-size="14.00" fill="#000000"> </text>
<polyline fill="none" stroke="#000000" points="179.5,-522.5 233.5,-522.5 "/>
<text text-anchor="middle" x="206.5" y="-507.3" font-family="Times,serif" font-size="14.00" fill="#000000"> </text>
</g>
<!-- Frame -->
<g id="node2" class="node">
<title>Frame</title>
<polygon fill="#f2f2f2" stroke="#000000" points="108.5,-386 108.5,-455 190.5,-455 190.5,-386 108.5,-386"/>
<text text-anchor="middle" x="149.5" y="-439.8" font-family="Times,serif" font-size="14.00" fill="#000000">Frame</text>
<polyline fill="none" stroke="#000000" points="108.5,-432 190.5,-432 "/>
<text text-anchor="middle" x="149.5" y="-416.8" font-family="Times,serif" font-size="14.00" fill="#000000"> </text>
<polyline fill="none" stroke="#000000" points="108.5,-409 190.5,-409 "/>
<text text-anchor="start" x="116.5" y="-393.8" font-family="Times,serif" font-size="14.00" fill="#000000">+ Draw()</text>
</g>
<!-- Text&#45;&gt;Frame -->
<g id="edge1" class="edge">
<title>Text&#45;&gt;Frame</title>
<path fill="none" stroke="#000000" d="M184.5332,-490.259C178.7262,-478.6961 172.5369,-466.3717 167.0014,-455.3493"/>
<polygon fill="none" stroke="#000000" points="181.4727,-491.9639 189.0884,-499.3295 187.7282,-488.8224 181.4727,-491.9639"/>
</g>
<!-- ButtonView -->
<g id="node4" class="node">
<title>ButtonView</title>
<polygon fill="#f2f2f2" stroke="#000000" points="0,-272.5 0,-341.5 101,-341.5 101,-272.5 0,-272.5"/>
<text text-anchor="middle" x="50.5" y="-326.3" font-family="Times,serif" font-size="14.00" fill="#000000">ButtonView</text>
<polyline fill="none" stroke="#000000" points="0,-318.5 101,-318.5 "/>
<text text-anchor="middle" x="50.5" y="-303.3" font-family="Times,serif" font-size="14.00" fill="#000000"> </text>
<polyline fill="none" stroke="#000000" points="0,-295.5 101,-295.5 "/>
<text text-anchor="start" x="8" y="-280.3" font-family="Times,serif" font-size="14.00" fill="#000000">+ Draw()</text>
</g>
<!-- Text&#45;&gt;ButtonView -->
<g id="edge4" class="edge">
<title>Text&#45;&gt;ButtonView</title>
<path fill="none" stroke="#000000" d="M170.1373,-517.8601C146.8778,-505.8211 117.7506,-487.276 99.5,-463 72.3765,-426.9216 60.0433,-375.4812 54.5913,-341.6788"/>
<polygon fill="none" stroke="#000000" points="168.862,-521.1352 179.3733,-522.4637 171.9848,-514.8703 168.862,-521.1352"/>
</g>
<!-- TextInput -->
<g id="node8" class="node">
<title>TextInput</title>
<polygon fill="#f2f2f2" stroke="#000000" points="209,-378.5 209,-462.5 320,-462.5 320,-378.5 209,-378.5"/>
<text text-anchor="middle" x="264.5" y="-447.3" font-family="Times,serif" font-size="14.00" fill="#000000">TextInput</text>
<polyline fill="none" stroke="#000000" points="209,-439.5 320,-439.5 "/>
<text text-anchor="middle" x="264.5" y="-424.3" font-family="Times,serif" font-size="14.00" fill="#000000"> </text>
<polyline fill="none" stroke="#000000" points="209,-416.5 320,-416.5 "/>
<text text-anchor="start" x="217" y="-401.3" font-family="Times,serif" font-size="14.00" fill="#000000">+ Draw()</text>
<text text-anchor="start" x="217" y="-386.3" font-family="Times,serif" font-size="14.00" fill="#000000">+ HandleKey</text>
</g>
<!-- Text&#45;&gt;TextInput -->
<g id="edge2" class="edge">
<title>Text&#45;&gt;TextInput</title>
<path fill="none" stroke="#000000" d="M228.785,-490.3906C233.4541,-481.2536 238.369,-471.6356 243.0085,-462.5566"/>
<polygon fill="none" stroke="#000000" points="225.6509,-488.8322 224.2171,-499.3295 231.8842,-492.0175 225.6509,-488.8322"/>
</g>
<!-- BoolInput -->
<g id="node9" class="node">
<title>BoolInput</title>
<polygon fill="#f2f2f2" stroke="#000000" points="338,-378.5 338,-462.5 449,-462.5 449,-378.5 338,-378.5"/>
<text text-anchor="middle" x="393.5" y="-447.3" font-family="Times,serif" font-size="14.00" fill="#000000">BoolInput</text>
<polyline fill="none" stroke="#000000" points="338,-439.5 449,-439.5 "/>
<text text-anchor="middle" x="393.5" y="-424.3" font-family="Times,serif" font-size="14.00" fill="#000000"> </text>
<polyline fill="none" stroke="#000000" points="338,-416.5 449,-416.5 "/>
<text text-anchor="start" x="346" y="-401.3" font-family="Times,serif" font-size="14.00" fill="#000000">+ Draw()</text>
<text text-anchor="start" x="346" y="-386.3" font-family="Times,serif" font-size="14.00" fill="#000000">+ HandleKey</text>
</g>
<!-- Text&#45;&gt;BoolInput -->
<g id="edge3" class="edge">
<title>Text&#45;&gt;BoolInput</title>
<path fill="none" stroke="#000000" d="M241.9542,-499.3622C242.136,-499.2405 242.3179,-499.1198 242.5,-499 277.4609,-476.0033 292.5633,-482.6669 329.5,-463 332.2078,-461.5582 334.9456,-460.0325 337.6863,-458.4495"/>
<polygon fill="none" stroke="#000000" points="239.8176,-496.5896 233.9164,-505.3889 244.0169,-502.1902 239.8176,-496.5896"/>
</g>
<!-- Pane -->
<g id="node3" class="node">
<title>Pane</title>
<polygon fill="#f2f2f2" stroke="#000000" points="119.5,-272.5 119.5,-341.5 201.5,-341.5 201.5,-272.5 119.5,-272.5"/>
<text text-anchor="middle" x="160.5" y="-326.3" font-family="Times,serif" font-size="14.00" fill="#000000">Pane</text>
<polyline fill="none" stroke="#000000" points="119.5,-318.5 201.5,-318.5 "/>
<text text-anchor="middle" x="160.5" y="-303.3" font-family="Times,serif" font-size="14.00" fill="#000000"> </text>
<polyline fill="none" stroke="#000000" points="119.5,-295.5 201.5,-295.5 "/>
<text text-anchor="start" x="127.5" y="-280.3" font-family="Times,serif" font-size="14.00" fill="#000000">+ Draw()</text>
</g>
<!-- Frame&#45;&gt;Pane -->
<g id="edge5" class="edge">
<title>Frame&#45;&gt;Pane</title>
<path fill="none" stroke="#000000" d="M153.8393,-375.7267C154.9307,-364.4651 156.086,-352.5443 157.1225,-341.8493"/>
<polygon fill="none" stroke="#000000" points="150.3412,-375.5385 152.8601,-385.8295 157.3085,-376.2138 150.3412,-375.5385"/>
</g>
<!-- ListView -->
<g id="node5" class="node">
<title>ListView</title>
<polygon fill="#f2f2f2" stroke="#000000" points="78.5,-121.5 78.5,-235.5 200.5,-235.5 200.5,-121.5 78.5,-121.5"/>
<text text-anchor="middle" x="139.5" y="-220.3" font-family="Times,serif" font-size="14.00" fill="#000000">ListView</text>
<polyline fill="none" stroke="#000000" points="78.5,-212.5 200.5,-212.5 "/>
<text text-anchor="middle" x="139.5" y="-197.3" font-family="Times,serif" font-size="14.00" fill="#000000"> </text>
<polyline fill="none" stroke="#000000" points="78.5,-189.5 200.5,-189.5 "/>
<text text-anchor="start" x="86.5" y="-174.3" font-family="Times,serif" font-size="14.00" fill="#000000">+ Draw()</text>
<text text-anchor="start" x="86.5" y="-159.3" font-family="Times,serif" font-size="14.00" fill="#000000">+ HandleKey()</text>
<text text-anchor="start" x="86.5" y="-144.3" font-family="Times,serif" font-size="14.00" fill="#000000"># onDraw()</text>
<text text-anchor="start" x="86.5" y="-129.3" font-family="Times,serif" font-size="14.00" fill="#000000"># onAction()</text>
</g>
<!-- Pane&#45;&gt;ListView -->
<g id="edge6" class="edge">
<title>Pane&#45;&gt;ListView</title>
<path fill="none" stroke="#000000" d="M153.1599,-262.0859C151.7617,-253.5297 150.2809,-244.469 148.8303,-235.5928"/>
<polygon fill="none" stroke="#000000" points="149.75,-262.9215 154.8171,-272.226 156.6583,-261.7924 149.75,-262.9215"/>
</g>
<!-- Group -->
<g id="node10" class="node">
<title>Group</title>
<polygon fill="#f2f2f2" stroke="#000000" points="219,-160.5 219,-196.5 280,-196.5 280,-160.5 219,-160.5"/>
<text text-anchor="middle" x="249.5" y="-174.8" font-family="Times,serif" font-size="14.00" fill="#000000">Group</text>
</g>
<!-- Pane&#45;&gt;Group -->
<g id="edge7" class="edge">
<title>Pane&#45;&gt;Group</title>
<path fill="none" stroke="#000000" d="M190.2874,-263.9923C206.1593,-241.0762 224.8448,-214.0976 236.9166,-196.6681"/>
<polygon fill="none" stroke="#000000" points="187.4012,-262.0124 184.5847,-272.226 193.1558,-265.9981 187.4012,-262.0124"/>
</g>
<!-- Dialog -->
<g id="node6" class="node">
<title>Dialog</title>
<polygon fill="#f2f2f2" stroke="#000000" points="27.5,-.5 27.5,-84.5 153.5,-84.5 153.5,-.5 27.5,-.5"/>
<text text-anchor="middle" x="90.5" y="-69.3" font-family="Times,serif" font-size="14.00" fill="#000000">Dialog</text>
<polyline fill="none" stroke="#000000" points="27.5,-61.5 153.5,-61.5 "/>
<text text-anchor="middle" x="90.5" y="-46.3" font-family="Times,serif" font-size="14.00" fill="#000000"> </text>
<polyline fill="none" stroke="#000000" points="27.5,-38.5 153.5,-38.5 "/>
<text text-anchor="start" x="35.5" y="-23.3" font-family="Times,serif" font-size="14.00" fill="#000000">/+ Draw()</text>
<text text-anchor="start" x="35.5" y="-8.3" font-family="Times,serif" font-size="14.00" fill="#000000">/+ HandleKey()</text>
</g>
<!-- ButtonView&#45;&gt;Dialog -->
<g id="edge9" class="edge">
<title>ButtonView&#45;&gt;Dialog</title>
<path fill="none" stroke="#000000" d="M53.0571,-262.3008C55.7012,-224.4465 60.7122,-168.859 69.5,-121 71.6912,-109.0669 74.7801,-96.2923 77.9163,-84.5883"/>
<polygon fill="none" stroke="#000000" points="49.5511,-262.2741 52.3729,-272.4863 56.5353,-262.7434 49.5511,-262.2741"/>
</g>
<!-- ListView&#45;&gt;Dialog -->
<g id="edge8" class="edge">
<title>ListView&#45;&gt;Dialog</title>
<path fill="none" stroke="#000000" d="M115.4392,-111.719C112.1418,-102.567 108.8338,-93.3856 105.7542,-84.8381"/>
<polygon fill="none" stroke="#000000" points="112.1791,-112.9963 118.8616,-121.2179 118.7647,-110.6235 112.1791,-112.9963"/>
</g>
<!-- TabGroup -->
<g id="node7" class="node">
<title>TabGroup</title>
<polygon fill="#f2f2f2" stroke="#000000" points="251.5,-499.5 251.5,-568.5 373.5,-568.5 373.5,-499.5 251.5,-499.5"/>
<text text-anchor="middle" x="312.5" y="-553.3" font-family="Times,serif" font-size="14.00" fill="#000000">TabGroup</text>
<polyline fill="none" stroke="#000000" points="251.5,-545.5 373.5,-545.5 "/>
<text text-anchor="middle" x="312.5" y="-530.3" font-family="Times,serif" font-size="14.00" fill="#000000"> </text>
<polyline fill="none" stroke="#000000" points="251.5,-522.5 373.5,-522.5 "/>
<text text-anchor="start" x="259.5" y="-507.3" font-family="Times,serif" font-size="14.00" fill="#000000">+ HandleKey()</text>
</g>
<!-- HGroup -->
<g id="node11" class="node">
<title>HGroup</title>
<polygon fill="#f2f2f2" stroke="#000000" points="191.5,-24.5 191.5,-60.5 265.5,-60.5 265.5,-24.5 191.5,-24.5"/>
<text text-anchor="middle" x="228.5" y="-38.8" font-family="Times,serif" font-size="14.00" fill="#000000">HGroup</text>
</g>
<!-- Group&#45;&gt;HGroup -->
<g id="edge10" class="edge">
<title>Group&#45;&gt;HGroup</title>
<path fill="none" stroke="#000000" d="M245.1719,-150.4701C241.0131,-123.537 234.8517,-83.6347 231.3002,-60.6344"/>
<polygon fill="none" stroke="#000000" points="241.7262,-151.0915 246.7114,-160.4403 248.6443,-150.0232 241.7262,-151.0915"/>
</g>
<!-- VGroup -->
<g id="node12" class="node">
<title>VGroup</title>
<polygon fill="#f2f2f2" stroke="#000000" points="284,-24.5 284,-60.5 355,-60.5 355,-24.5 284,-24.5"/>
<text text-anchor="middle" x="319.5" y="-38.8" font-family="Times,serif" font-size="14.00" fill="#000000">VGroup</text>
</g>
<!-- Group&#45;&gt;VGroup -->
<g id="edge11" class="edge">
<title>Group&#45;&gt;VGroup</title>
<path fill="none" stroke="#000000" d="M263.3787,-151.5358C277.243,-124.5993 298.1706,-83.94 310.1661,-60.6344"/>
<polygon fill="none" stroke="#000000" points="260.26,-149.9471 258.7955,-160.4403 266.4839,-153.1507 260.26,-149.9471"/>
</g>
</g>
</svg>
