<?xml version="1.0" encoding="UTF-8" standalone="no"?>
<!DOCTYPE svg PUBLIC "-//W3C//DTD SVG 1.1//EN"
 "http://www.w3.org/Graphics/SVG/1.1/DTD/svg11.dtd">
<!-- Generated by graphviz version 2.46.0 (0)
 -->
<!-- Title: hierarchy Pages: 1 -->
<svg width="360pt" height="320pt"
 viewBox="0.00 0.00 360.00 320.24" xmlns="http://www.w3.org/2000/svg" xmlns:xlink="http://www.w3.org/1999/xlink">
<g id="graph0" class="graph" transform="scale(0.71 0.71) rotate(0) translate(4 447)">
<title>hierarchy</title>
<polygon fill="white" stroke="transparent" points="-4,4 -4,-447 503,-447 503,4 -4,4"/>
<!-- start -->
<g id="node1" class="node">
<title>start</title>
<ellipse fill="none" stroke="black" cx="342.5" cy="-425" rx="34.39" ry="18"/>
<text text-anchor="middle" x="342.5" y="-421.3" font-family="Times,serif" font-size="14.00">Start</text>
</g>
<!-- loadmp3 -->
<g id="node2" class="node">
<title>loadmp3</title>
<polygon fill="none" stroke="black" points="399,-370 286,-370 286,-334 399,-334 399,-370"/>
<text text-anchor="middle" x="342.5" y="-348.3" font-family="Times,serif" font-size="14.00">Load mp3 file</text>
</g>
<!-- start&#45;&gt;loadmp3 -->
<g id="edge1" class="edge">
<title>start&#45;&gt;loadmp3</title>
<path fill="none" stroke="black" d="M342.5,-406.81C342.5,-398.79 342.5,-389.05 342.5,-380.07"/>
<polygon fill="black" stroke="black" points="346,-380.03 342.5,-370.03 339,-380.03 346,-380.03"/>
</g>
<!-- getframe -->
<g id="node3" class="node">
<title>getframe</title>
<polygon fill="none" stroke="black" points="405,-297 280,-297 280,-261 405,-261 405,-297"/>
<text text-anchor="middle" x="342.5" y="-275.3" font-family="Times,serif" font-size="14.00">Get next frame</text>
</g>
<!-- loadmp3&#45;&gt;getframe -->
<g id="edge2" class="edge">
<title>loadmp3&#45;&gt;getframe</title>
<path fill="none" stroke="black" d="M342.5,-333.81C342.5,-325.79 342.5,-316.05 342.5,-307.07"/>
<polygon fill="black" stroke="black" points="346,-307.03 342.5,-297.03 339,-307.03 346,-307.03"/>
</g>
<!-- ismuted -->
<g id="node4" class="node">
<title>ismuted</title>
<polygon fill="none" stroke="black" points="151.5,-210 20.12,-192 151.5,-174 282.88,-192 151.5,-210"/>
<text text-anchor="middle" x="151.5" y="-188.3" font-family="Times,serif" font-size="14.00">state == muted ?</text>
</g>
<!-- getframe&#45;&gt;ismuted -->
<g id="edge3" class="edge">
<title>getframe&#45;&gt;ismuted</title>
<path fill="none" stroke="black" d="M279.87,-266.52C258.13,-261.12 234.07,-253.49 213.5,-243 199.23,-235.72 185.17,-224.78 174.06,-215"/>
<polygon fill="black" stroke="black" points="176.28,-212.28 166.53,-208.14 171.57,-217.46 176.28,-212.28"/>
<text text-anchor="middle" x="271" y="-231.8" font-family="Times,serif" font-size="14.00">Frame available</text>
</g>
<!-- end -->
<g id="node9" class="node">
<title>end</title>
<ellipse fill="none" stroke="black" cx="240.5" cy="-18" rx="81.49" ry="18"/>
<text text-anchor="middle" x="240.5" y="-14.3" font-family="Times,serif" font-size="14.00">Stop generator</text>
</g>
<!-- getframe&#45;&gt;end -->
<g id="edge10" class="edge">
<title>getframe&#45;&gt;end</title>
<path fill="none" stroke="black" d="M342.79,-260.76C342.92,-226.82 341.07,-149.21 323.5,-87 319.07,-71.31 318.85,-65.7 307.5,-54 301.91,-48.24 295.16,-43.23 288.14,-38.95"/>
<polygon fill="black" stroke="black" points="289.58,-35.75 279.15,-33.91 286.16,-41.85 289.58,-35.75"/>
<text text-anchor="middle" x="401.5" y="-144.8" font-family="Times,serif" font-size="14.00">No further frames</text>
</g>
<!-- streamsilence -->
<g id="node5" class="node">
<title>streamsilence</title>
<polygon fill="none" stroke="black" points="180,-123 57,-123 57,-87 180,-87 180,-123"/>
<text text-anchor="middle" x="118.5" y="-101.3" font-family="Times,serif" font-size="14.00">Stream silence</text>
</g>
<!-- ismuted&#45;&gt;streamsilence -->
<g id="edge4" class="edge">
<title>ismuted&#45;&gt;streamsilence</title>
<path fill="none" stroke="black" d="M145.14,-174.61C140.53,-162.73 134.19,-146.41 128.85,-132.67"/>
<polygon fill="black" stroke="black" points="132.06,-131.27 125.18,-123.21 125.54,-133.8 132.06,-131.27"/>
<text text-anchor="middle" x="150" y="-144.8" font-family="Times,serif" font-size="14.00">Yes</text>
</g>
<!-- streamframe -->
<g id="node7" class="node">
<title>streamframe</title>
<polygon fill="none" stroke="black" points="314.5,-123 198.5,-123 198.5,-87 314.5,-87 314.5,-123"/>
<text text-anchor="middle" x="256.5" y="-101.3" font-family="Times,serif" font-size="14.00">Stream frame</text>
</g>
<!-- ismuted&#45;&gt;streamframe -->
<g id="edge5" class="edge">
<title>ismuted&#45;&gt;streamframe</title>
<path fill="none" stroke="black" d="M169.79,-176.19C185.58,-163.41 208.7,-144.7 227.09,-129.81"/>
<polygon fill="black" stroke="black" points="229.59,-132.28 235.16,-123.27 225.19,-126.84 229.59,-132.28"/>
<text text-anchor="middle" x="221" y="-144.8" font-family="Times,serif" font-size="14.00">No</text>
</g>
<!-- yieldnextframe -->
<g id="node6" class="node">
<title>yieldnextframe</title>
<polygon fill="none" stroke="black" points="113,-36 0,-36 0,0 113,0 113,-36"/>
<text text-anchor="middle" x="56.5" y="-14.3" font-family="Times,serif" font-size="14.00">Return frame</text>
</g>
<!-- streamsilence&#45;&gt;yieldnextframe -->
<g id="edge6" class="edge">
<title>streamsilence&#45;&gt;yieldnextframe</title>
<path fill="none" stroke="black" d="M105.95,-86.8C97.05,-74.59 84.94,-57.99 74.94,-44.28"/>
<polygon fill="black" stroke="black" points="77.75,-42.19 69.03,-36.18 72.09,-46.32 77.75,-42.19"/>
</g>
<!-- streamsilence&#45;&gt;end -->
<g id="edge11" class="edge">
<title>streamsilence&#45;&gt;end</title>
<path fill="none" stroke="black" d="M135.36,-86.57C145.78,-76.35 159.75,-63.6 173.5,-54 181.09,-48.7 189.57,-43.67 197.89,-39.15"/>
<polygon fill="black" stroke="black" points="199.58,-42.22 206.8,-34.47 196.32,-36.03 199.58,-42.22"/>
<text text-anchor="middle" x="204.5" y="-57.8" font-family="Times,serif" font-size="14.00">On error</text>
</g>
<!-- yieldnextframe&#45;&gt;ismuted -->
<g id="edge8" class="edge">
<title>yieldnextframe&#45;&gt;ismuted</title>
<path fill="none" stroke="black" d="M49.57,-36.01C41.94,-57.62 32.58,-95.42 47.5,-123 60.3,-146.66 85.3,-163.4 107.58,-174.35"/>
<polygon fill="black" stroke="black" points="106.38,-177.65 116.92,-178.7 109.33,-171.31 106.38,-177.65"/>
</g>
<!-- yieldframe -->
<g id="node8" class="node">
<title>yieldframe</title>
<polygon fill="none" stroke="black" points="499,-36 386,-36 386,0 499,0 499,-36"/>
<text text-anchor="middle" x="442.5" y="-14.3" font-family="Times,serif" font-size="14.00">Return frame</text>
</g>
<!-- streamframe&#45;&gt;yieldframe -->
<g id="edge7" class="edge">
<title>streamframe&#45;&gt;yieldframe</title>
<path fill="none" stroke="black" d="M294.14,-86.8C323.48,-73.39 364.38,-54.7 395.81,-40.34"/>
<polygon fill="black" stroke="black" points="397.59,-43.37 405.23,-36.03 394.68,-37 397.59,-43.37"/>
</g>
<!-- streamframe&#45;&gt;end -->
<g id="edge12" class="edge">
<title>streamframe&#45;&gt;end</title>
<path fill="none" stroke="black" d="M247.66,-86.99C245.18,-81.41 242.81,-75.07 241.5,-69 239.95,-61.82 239.32,-53.91 239.16,-46.56"/>
<polygon fill="black" stroke="black" points="242.66,-46.34 239.23,-36.31 235.66,-46.29 242.66,-46.34"/>
<text text-anchor="middle" x="272.5" y="-57.8" font-family="Times,serif" font-size="14.00">On error</text>
</g>
<!-- yieldframe&#45;&gt;getframe -->
<g id="edge9" class="edge">
<title>yieldframe&#45;&gt;getframe</title>
<path fill="none" stroke="black" d="M452.97,-36.08C467.82,-62.66 491.31,-115.08 473.5,-156 454.68,-199.24 412.15,-234.08 380.63,-255.29"/>
<polygon fill="black" stroke="black" points="378.5,-252.5 372.06,-260.91 382.34,-258.35 378.5,-252.5"/>
</g>
</g>
</svg>
