<?xml version="1.0" encoding="UTF-8" standalone="no"?>
<!DOCTYPE svg PUBLIC "-//W3C//DTD SVG 1.1//EN"
 "http://www.w3.org/Graphics/SVG/1.1/DTD/svg11.dtd">
<!-- Generated by graphviz version 2.40.1 (20161225.0304)
 -->
<!-- Title: hierarchy Pages: 1 -->
<svg width="360pt" height="333pt"
 viewBox="0.00 0.00 360.00 332.92" xmlns="http://www.w3.org/2000/svg" xmlns:xlink="http://www.w3.org/1999/xlink">
<g id="graph0" class="graph" transform="scale(.5643 .5643) rotate(0) translate(4 586)">
<title>hierarchy</title>
<polygon fill="#ffffff" stroke="transparent" points="-4,4 -4,-586 634,-586 634,4 -4,4"/>
<!-- start -->
<g id="node1" class="node">
<title>start</title>
<ellipse fill="none" stroke="#000000" cx="426" cy="-564" rx="34.394" ry="18"/>
<text text-anchor="middle" x="426" y="-560.3" font-family="Times,serif" font-size="14.00" fill="#000000">Start</text>
</g>
<!-- read -->
<g id="node2" class="node">
<title>read</title>
<polygon fill="none" stroke="#000000" points="507,-509 345,-509 345,-473 507,-473 507,-509"/>
<text text-anchor="middle" x="426" y="-487.3" font-family="Times,serif" font-size="14.00" fill="#000000">Read data from pipe</text>
</g>
<!-- start&#45;&gt;read -->
<g id="edge1" class="edge">
<title>start&#45;&gt;read</title>
<path fill="none" stroke="#000000" d="M426,-545.9551C426,-537.8828 426,-528.1764 426,-519.1817"/>
<polygon fill="#000000" stroke="#000000" points="429.5001,-519.0903 426,-509.0904 422.5001,-519.0904 429.5001,-519.0903"/>
</g>
<!-- isrunningstate -->
<g id="node3" class="node">
<title>isrunningstate</title>
<polygon fill="none" stroke="#000000" points="426,-163 250,-125 426,-87 602,-125 426,-163"/>
<text text-anchor="middle" x="426" y="-128.8" font-family="Times,serif" font-size="14.00" fill="#000000">Is GStreamer Pipeline</text>
<text text-anchor="middle" x="426" y="-113.8" font-family="Times,serif" font-size="14.00" fill="#000000">process still running?</text>
</g>
<!-- read&#45;&gt;isrunningstate -->
<g id="edge2" class="edge">
<title>read&#45;&gt;isrunningstate</title>
<path fill="none" stroke="#000000" stroke-dasharray="5,2" d="M426,-472.8233C426,-454.0767 426,-423.9948 426,-398 426,-398 426,-398 426,-218 426,-203.4486 426,-187.6164 426,-173.2088"/>
<polygon fill="#000000" stroke="#000000" points="429.5001,-173.0083 426,-163.0083 422.5001,-173.0083 429.5001,-173.0083"/>
<text text-anchor="middle" x="507.5" y="-287.3" font-family="Times,serif" font-size="14.00" fill="#000000">Blocking IO Exception</text>
</g>
<!-- isempty -->
<g id="node4" class="node">
<title>isempty</title>
<polygon fill="none" stroke="#000000" points="164,-436 0,-398 164,-360 328,-398 164,-436"/>
<text text-anchor="middle" x="164" y="-401.8" font-family="Times,serif" font-size="14.00" fill="#000000">No further bytes</text>
<text text-anchor="middle" x="164" y="-386.8" font-family="Times,serif" font-size="14.00" fill="#000000">to expect from pipe?</text>
</g>
<!-- read&#45;&gt;isempty -->
<g id="edge6" class="edge">
<title>read&#45;&gt;isempty</title>
<path fill="none" stroke="#000000" d="M375.1731,-472.9584C336.3545,-459.1793 282.2748,-439.983 238.5614,-424.4664"/>
<polygon fill="#000000" stroke="#000000" points="239.7112,-421.1607 229.1165,-421.1139 237.3696,-427.7574 239.7112,-421.1607"/>
</g>
<!-- sleep -->
<g id="node8" class="node">
<title>sleep</title>
<polygon fill="none" stroke="#000000" points="484,-36 368,-36 368,0 484,0 484,-36"/>
<text text-anchor="middle" x="426" y="-14.3" font-family="Times,serif" font-size="14.00" fill="#000000">Sleep for 0.1s</text>
</g>
<!-- isrunningstate&#45;&gt;sleep -->
<g id="edge3" class="edge">
<title>isrunningstate&#45;&gt;sleep</title>
<path fill="none" stroke="#000000" d="M426,-86.9745C426,-73.5944 426,-58.8013 426,-46.3572"/>
<polygon fill="#000000" stroke="#000000" points="429.5001,-46.1208 426,-36.1208 422.5001,-46.1208 429.5001,-46.1208"/>
<text text-anchor="middle" x="438.5" y="-57.8" font-family="Times,serif" font-size="14.00" fill="#000000">yes</text>
</g>
<!-- end -->
<g id="node9" class="node">
<title>end</title>
<ellipse fill="none" stroke="#000000" cx="139" cy="-18" rx="74.9875" ry="18"/>
<text text-anchor="middle" x="139" y="-14.3" font-family="Times,serif" font-size="14.00" fill="#000000">Return chunk</text>
</g>
<!-- isrunningstate&#45;&gt;end -->
<g id="edge4" class="edge">
<title>isrunningstate&#45;&gt;end</title>
<path fill="none" stroke="#000000" d="M378.3688,-97.1628C352.0976,-82.7163 318.5011,-65.6929 287,-54 261.8314,-44.6577 233.3491,-37.0634 208.1395,-31.3001"/>
<polygon fill="#000000" stroke="#000000" points="208.811,-27.8639 198.2887,-29.1019 207.2864,-34.6959 208.811,-27.8639"/>
<text text-anchor="middle" x="332" y="-57.8" font-family="Times,serif" font-size="14.00" fill="#000000">no</text>
</g>
<!-- calcrest -->
<g id="node5" class="node">
<title>calcrest</title>
<polygon fill="none" stroke="#000000" points="267,-309 61,-309 61,-273 267,-273 267,-309"/>
<text text-anchor="middle" x="164" y="-287.3" font-family="Times,serif" font-size="14.00" fill="#000000">Calculate remaining bytes</text>
</g>
<!-- isempty&#45;&gt;calcrest -->
<g id="edge8" class="edge">
<title>isempty&#45;&gt;calcrest</title>
<path fill="none" stroke="#000000" d="M164,-359.9745C164,-346.5944 164,-331.8013 164,-319.3572"/>
<polygon fill="#000000" stroke="#000000" points="167.5001,-319.1208 164,-309.1208 160.5001,-319.1208 167.5001,-319.1208"/>
<text text-anchor="middle" x="173" y="-330.8" font-family="Times,serif" font-size="14.00" fill="#000000">no</text>
</g>
<!-- isempty&#45;&gt;end -->
<g id="edge7" class="edge">
<title>isempty&#45;&gt;end</title>
<path fill="none" stroke="#000000" d="M93.9934,-376.0154C56.5234,-359.4275 18,-332.3246 18,-291 18,-291 18,-291 18,-125 18,-84.3725 56.7539,-55.4599 90.3975,-38.0147"/>
<polygon fill="#000000" stroke="#000000" points="92.3083,-40.9741 99.7148,-33.3981 89.2004,-34.7018 92.3083,-40.9741"/>
<text text-anchor="middle" x="30.5" y="-214.3" font-family="Times,serif" font-size="14.00" fill="#000000">yes</text>
</g>
<!-- appendbytes -->
<g id="node6" class="node">
<title>appendbytes</title>
<polygon fill="none" stroke="#000000" points="267,-236 61,-236 61,-200 267,-200 267,-236"/>
<text text-anchor="middle" x="164" y="-214.3" font-family="Times,serif" font-size="14.00" fill="#000000">Collect already read bytes</text>
</g>
<!-- calcrest&#45;&gt;appendbytes -->
<g id="edge9" class="edge">
<title>calcrest&#45;&gt;appendbytes</title>
<path fill="none" stroke="#000000" d="M164,-272.9551C164,-264.8828 164,-255.1764 164,-246.1817"/>
<polygon fill="#000000" stroke="#000000" points="167.5001,-246.0903 164,-236.0904 160.5001,-246.0904 167.5001,-246.0903"/>
</g>
<!-- bytesremaining -->
<g id="node7" class="node">
<title>bytesremaining</title>
<polygon fill="none" stroke="#000000" points="139,-163 46,-125 139,-87 232,-125 139,-163"/>
<text text-anchor="middle" x="139" y="-128.8" font-family="Times,serif" font-size="14.00" fill="#000000">Remaining</text>
<text text-anchor="middle" x="139" y="-113.8" font-family="Times,serif" font-size="14.00" fill="#000000">bytes?</text>
</g>
<!-- appendbytes&#45;&gt;bytesremaining -->
<g id="edge10" class="edge">
<title>appendbytes&#45;&gt;bytesremaining</title>
<path fill="none" stroke="#000000" d="M159.0608,-199.6262C156.7075,-190.872 153.7815,-179.9873 150.8984,-169.2619"/>
<polygon fill="#000000" stroke="#000000" points="154.2563,-168.2709 148.2802,-159.5224 147.4963,-170.0882 154.2563,-168.2709"/>
</g>
<!-- bytesremaining&#45;&gt;sleep -->
<g id="edge11" class="edge">
<title>bytesremaining&#45;&gt;sleep</title>
<path fill="none" stroke="#000000" d="M172.8569,-100.7136C195.8679,-85.2591 227.5497,-65.9691 258,-54 289.8137,-41.495 326.8099,-32.9717 357.9737,-27.3711"/>
<polygon fill="#000000" stroke="#000000" points="358.6182,-30.8117 367.8729,-25.6541 357.4219,-23.9146 358.6182,-30.8117"/>
<text text-anchor="middle" x="270.5" y="-57.8" font-family="Times,serif" font-size="14.00" fill="#000000">yes</text>
</g>
<!-- bytesremaining&#45;&gt;end -->
<g id="edge12" class="edge">
<title>bytesremaining&#45;&gt;end</title>
<path fill="none" stroke="#000000" d="M139,-86.9745C139,-73.5944 139,-58.8013 139,-46.3572"/>
<polygon fill="#000000" stroke="#000000" points="142.5001,-46.1208 139,-36.1208 135.5001,-46.1208 142.5001,-46.1208"/>
<text text-anchor="middle" x="148" y="-57.8" font-family="Times,serif" font-size="14.00" fill="#000000">no</text>
</g>
<!-- sleep&#45;&gt;read -->
<g id="edge5" class="edge">
<title>sleep&#45;&gt;read</title>
<path fill="none" stroke="#000000" d="M484.1852,-23.8031C544.482,-33.4068 630,-58.712 630,-125 630,-398 630,-398 630,-398 630,-426.4699 563.3865,-452.7704 506.2899,-470.0844"/>
<polygon fill="#000000" stroke="#000000" points="505.0788,-466.793 496.4909,-472.9977 507.0737,-473.5027 505.0788,-466.793"/>
</g>
</g>
</svg>
