<?xml version="1.0" encoding="UTF-8" standalone="no"?>
<!DOCTYPE svg PUBLIC "-//W3C//DTD SVG 1.1//EN"
 "http://www.w3.org/Graphics/SVG/1.1/DTD/svg11.dtd">
<!-- Generated by graphviz version 14.1.1 (0)
 -->
<!-- Title: hierarchy Pages: 1 -->
<svg width="128pt" height="198pt"
 viewBox="0.00 0.00 128.00 198.00" xmlns="http://www.w3.org/2000/svg" xmlns:xlink="http://www.w3.org/1999/xlink">
<g id="graph0" class="graph" transform="scale(1 1) rotate(0) translate(4 193.5)">
<title>hierarchy</title>
<polygon fill="white" stroke="none" points="-4,4 -4,-193.5 124.25,-193.5 124.25,4 -4,4"/>
<!-- filesystem -->
<g id="node1" class="node">
<title>filesystem</title>
<polygon fill="#f2f2f2" stroke="black" points="13.12,-113.25 13.12,-189 107.12,-189 107.12,-113.25 13.12,-113.25"/>
<text xml:space="preserve" text-anchor="middle" x="60.12" y="-171.7" font-family="Times,serif" font-size="14.00">Filesystem</text>
<polyline fill="none" stroke="black" points="13.12,-163.75 107.12,-163.75"/>
<text xml:space="preserve" text-anchor="middle" x="60.12" y="-146.45" font-family="Times,serif" font-size="14.00"> </text>
<polyline fill="none" stroke="black" points="13.12,-138.5 107.12,-138.5"/>
<text xml:space="preserve" text-anchor="middle" x="60.12" y="-121.2" font-family="Times,serif" font-size="14.00"> </text>
</g>
<!-- fileprocessing -->
<g id="node2" class="node">
<title>fileprocessing</title>
<polygon fill="#f2f2f2" stroke="black" points="0,-0.5 0,-76.25 120.25,-76.25 120.25,-0.5 0,-0.5"/>
<text xml:space="preserve" text-anchor="middle" x="60.12" y="-58.95" font-family="Times,serif" font-size="14.00">Fileprocessing</text>
<polyline fill="none" stroke="black" points="0,-51 120.25,-51"/>
<text xml:space="preserve" text-anchor="middle" x="60.12" y="-33.7" font-family="Times,serif" font-size="14.00"> </text>
<polyline fill="none" stroke="black" points="0,-25.75 120.25,-25.75"/>
<text xml:space="preserve" text-anchor="middle" x="60.12" y="-8.45" font-family="Times,serif" font-size="14.00"> </text>
</g>
<!-- filesystem&#45;&gt;fileprocessing -->
<g id="edge1" class="edge">
<title>filesystem&#45;&gt;fileprocessing</title>
<path fill="none" stroke="black" d="M60.12,-101.7C60.12,-93.3 60.12,-84.69 60.12,-76.65"/>
<polygon fill="none" stroke="black" points="56.63,-101.43 60.13,-111.43 63.63,-101.43 56.63,-101.43"/>
</g>
</g>
</svg>
