<?xml version="1.0" encoding="UTF-8" standalone="no"?>
<!DOCTYPE svg PUBLIC "-//W3C//DTD SVG 1.1//EN"
 "http://www.w3.org/Graphics/SVG/1.1/DTD/svg11.dtd">
<!-- Generated by graphviz version 2.44.0 (0)
 -->
<!-- Title: hierarchy Pages: 1 -->
<svg width="469pt" height="576pt"
 viewBox="0.00 0.00 468.92 576.00" xmlns="http://www.w3.org/2000/svg" xmlns:xlink="http://www.w3.org/1999/xlink">
<g id="graph0" class="graph" transform="scale(0.86 0.86) rotate(0) translate(4 663)">
<title>hierarchy</title>
<polygon fill="white" stroke="transparent" points="-4,4 -4,-663 539,-663 539,4 -4,4"/>
<!-- wssp -->
<g id="node1" class="node">
<title>wssp</title>
<polygon fill="#f2f2f2" stroke="black" points="0,-589.5 0,-658.5 203,-658.5 203,-589.5 0,-589.5"/>
<text text-anchor="middle" x="101.5" y="-643.3" font-family="Times,serif" font-size="14.00">WebSocketServerProtocol</text>
<polyline fill="none" stroke="black" points="0,-635.5 203,-635.5 "/>
<text text-anchor="middle" x="101.5" y="-620.3" font-family="Times,serif" font-size="14.00"> </text>
<polyline fill="none" stroke="black" points="0,-612.5 203,-612.5 "/>
<text text-anchor="middle" x="101.5" y="-597.3" font-family="Times,serif" font-size="14.00"> </text>
</g>
<!-- ws -->
<g id="node2" class="node">
<title>ws</title>
<polygon fill="#f2f2f2" stroke="blue" points="20,-423.5 20,-552.5 183,-552.5 183,-423.5 20,-423.5"/>
<text text-anchor="middle" x="101.5" y="-537.3" font-family="Times,serif" font-size="14.00">WebSocket</text>
<polyline fill="none" stroke="blue" points="20,-529.5 183,-529.5 "/>
<text text-anchor="middle" x="101.5" y="-514.3" font-family="Times,serif" font-size="14.00"> </text>
<polyline fill="none" stroke="blue" points="20,-506.5 183,-506.5 "/>
<text text-anchor="start" x="28" y="-491.3" font-family="Times,serif" font-size="14.00">+ SendPacket()</text>
<text text-anchor="start" x="28" y="-476.3" font-family="Times,serif" font-size="14.00">+ BroadcastPacket()</text>
<text text-anchor="start" x="28" y="-461.3" font-family="Times,serif" font-size="14.00">/&#45; onOpen()</text>
<text text-anchor="start" x="28" y="-446.3" font-family="Times,serif" font-size="14.00">/&#45; onClose()</text>
<text text-anchor="start" x="28" y="-431.3" font-family="Times,serif" font-size="14.00">/&#45; onMessage()</text>
</g>
<!-- wssp&#45;&gt;ws -->
<g id="edge1" class="edge">
<title>wssp&#45;&gt;ws</title>
<path fill="none" stroke="black" d="M101.5,-579.14C101.5,-570.63 101.5,-561.56 101.5,-552.57"/>
<polygon fill="none" stroke="black" points="98,-579.19 101.5,-589.19 105,-579.19 98,-579.19"/>
</g>
<!-- mdbwsp -->
<g id="node4" class="node">
<title>mdbwsp</title>
<polygon fill="#f2f2f2" stroke="black" points="95,-317.5 95,-386.5 320,-386.5 320,-317.5 95,-317.5"/>
<text text-anchor="middle" x="207.5" y="-371.3" font-family="Times,serif" font-size="14.00">MusicDBWebSocketProtoctol</text>
<polyline fill="none" stroke="black" points="95,-363.5 320,-363.5 "/>
<text text-anchor="middle" x="207.5" y="-348.3" font-family="Times,serif" font-size="14.00"> </text>
<polyline fill="none" stroke="black" points="95,-340.5 320,-340.5 "/>
<text text-anchor="middle" x="207.5" y="-325.3" font-family="Times,serif" font-size="14.00"> </text>
</g>
<!-- ws&#45;&gt;mdbwsp -->
<g id="edge2" class="edge">
<title>ws&#45;&gt;mdbwsp</title>
<path fill="none" stroke="black" d="M158.3,-415.2C166.11,-405.32 173.82,-395.58 180.73,-386.85"/>
<polygon fill="none" stroke="black" points="155.48,-413.13 152.02,-423.14 160.97,-417.47 155.48,-413.13"/>
</g>
<!-- mdbwsi -->
<g id="node3" class="node">
<title>mdbwsi</title>
<polygon fill="#f2f2f2" stroke="red" points="201.5,-423.5 201.5,-552.5 425.5,-552.5 425.5,-423.5 201.5,-423.5"/>
<text text-anchor="middle" x="313.5" y="-537.3" font-family="Times,serif" font-size="14.00">MusicDBWebSocketInterface</text>
<polyline fill="none" stroke="red" points="201.5,-529.5 425.5,-529.5 "/>
<text text-anchor="middle" x="313.5" y="-514.3" font-family="Times,serif" font-size="14.00"> </text>
<polyline fill="none" stroke="red" points="201.5,-506.5 425.5,-506.5 "/>
<text text-anchor="start" x="209.5" y="-491.3" font-family="Times,serif" font-size="14.00"># onWSConnect()</text>
<text text-anchor="start" x="209.5" y="-476.3" font-family="Times,serif" font-size="14.00"># onWSDisconnect()</text>
<text text-anchor="start" x="209.5" y="-461.3" font-family="Times,serif" font-size="14.00"># onCall()</text>
<text text-anchor="start" x="209.5" y="-446.3" font-family="Times,serif" font-size="14.00">&#45; onStreamEvent()</text>
<text text-anchor="start" x="209.5" y="-431.3" font-family="Times,serif" font-size="14.00">&#45; onQueueEvent</text>
</g>
<!-- mdbwsi&#45;&gt;mdbwsp -->
<g id="edge3" class="edge">
<title>mdbwsi&#45;&gt;mdbwsp</title>
<path fill="none" stroke="black" d="M256.7,-415.2C248.89,-405.32 241.18,-395.58 234.27,-386.85"/>
<polygon fill="none" stroke="black" points="254.03,-417.47 262.98,-423.14 259.52,-413.13 254.03,-417.47"/>
</g>
<!-- mdbwsf -->
<g id="node6" class="node">
<title>mdbwsf</title>
<polygon fill="#f2f2f2" stroke="black" points="214.5,-166.5 214.5,-280.5 428.5,-280.5 428.5,-166.5 214.5,-166.5"/>
<text text-anchor="middle" x="321.5" y="-265.3" font-family="Times,serif" font-size="14.00">MusicDBWebSocketFactory</text>
<polyline fill="none" stroke="black" points="214.5,-257.5 428.5,-257.5 "/>
<text text-anchor="start" x="222.5" y="-242.3" font-family="Times,serif" font-size="14.00">&#45; clients</text>
<polyline fill="none" stroke="black" points="214.5,-234.5 428.5,-234.5 "/>
<text text-anchor="start" x="222.5" y="-219.3" font-family="Times,serif" font-size="14.00">+ AddToBroadcast()</text>
<text text-anchor="start" x="222.5" y="-204.3" font-family="Times,serif" font-size="14.00">+ RemoveFromBroadcast()</text>
<text text-anchor="start" x="222.5" y="-189.3" font-family="Times,serif" font-size="14.00">+ BroadcastPacket()</text>
<text text-anchor="start" x="222.5" y="-174.3" font-family="Times,serif" font-size="14.00">+ CloseConnections()</text>
</g>
<!-- mdbwsp&#45;&gt;mdbwsf -->
<g id="edge5" class="edge">
<title>mdbwsp&#45;&gt;mdbwsf</title>
<path fill="none" stroke="black" stroke-dasharray="1,5" d="M244.61,-309.82C252.98,-300.53 262,-290.52 270.82,-280.73"/>
<polygon fill="black" stroke="black" points="237.75,-317.43 241.1,-306.99 241.1,-313.72 244.45,-310 244.45,-310 244.45,-310 241.1,-313.72 247.79,-313.02 237.75,-317.43 237.75,-317.43"/>
</g>
<!-- wssf -->
<g id="node5" class="node">
<title>wssf</title>
<polygon fill="#f2f2f2" stroke="black" points="338,-317.5 338,-386.5 535,-386.5 535,-317.5 338,-317.5"/>
<text text-anchor="middle" x="436.5" y="-371.3" font-family="Times,serif" font-size="14.00">WebSocketServerFactory</text>
<polyline fill="none" stroke="black" points="338,-363.5 535,-363.5 "/>
<text text-anchor="middle" x="436.5" y="-348.3" font-family="Times,serif" font-size="14.00"> </text>
<polyline fill="none" stroke="black" points="338,-340.5 535,-340.5 "/>
<text text-anchor="middle" x="436.5" y="-325.3" font-family="Times,serif" font-size="14.00"> </text>
</g>
<!-- wssf&#45;&gt;mdbwsf -->
<g id="edge4" class="edge">
<title>wssf&#45;&gt;mdbwsf</title>
<path fill="none" stroke="black" d="M399.07,-309.82C390.62,-300.53 381.52,-290.52 372.62,-280.73"/>
<polygon fill="none" stroke="black" points="396.67,-312.39 405.98,-317.43 401.85,-307.68 396.67,-312.39"/>
</g>
<!-- mdbwss -->
<g id="node7" class="node">
<title>mdbwss</title>
<polygon fill="#f2f2f2" stroke="black" points="217.5,-0.5 217.5,-129.5 425.5,-129.5 425.5,-0.5 217.5,-0.5"/>
<text text-anchor="middle" x="321.5" y="-114.3" font-family="Times,serif" font-size="14.00">MusicDBWebSocketServer</text>
<polyline fill="none" stroke="black" points="217.5,-106.5 425.5,-106.5 "/>
<text text-anchor="start" x="225.5" y="-91.3" font-family="Times,serif" font-size="14.00">&#45; factory</text>
<text text-anchor="start" x="225.5" y="-76.3" font-family="Times,serif" font-size="14.00">&#45; factory.protocol</text>
<polyline fill="none" stroke="black" points="217.5,-68.5 425.5,-68.5 "/>
<text text-anchor="start" x="225.5" y="-53.3" font-family="Times,serif" font-size="14.00">+ Setup()</text>
<text text-anchor="start" x="225.5" y="-38.3" font-family="Times,serif" font-size="14.00">+ Start()</text>
<text text-anchor="start" x="225.5" y="-23.3" font-family="Times,serif" font-size="14.00">+ Stop()</text>
<text text-anchor="start" x="225.5" y="-8.3" font-family="Times,serif" font-size="14.00">+ HandleEvents()</text>
</g>
<!-- mdbwsf&#45;&gt;mdbwss -->
<g id="edge6" class="edge">
<title>mdbwsf&#45;&gt;mdbwss</title>
<path fill="none" stroke="black" d="M321.5,-156.23C321.5,-147.42 321.5,-138.41 321.5,-129.65"/>
<polygon fill="black" stroke="black" points="321.5,-166.44 317,-156.44 321.5,-161.44 321.5,-156.44 321.5,-156.44 321.5,-156.44 321.5,-161.44 326,-156.44 321.5,-166.44 321.5,-166.44"/>
</g>
</g>
</svg>
