<?xml version="1.0" encoding="UTF-8" standalone="no"?>
<!DOCTYPE svg PUBLIC "-//W3C//DTD SVG 1.1//EN"
 "http://www.w3.org/Graphics/SVG/1.1/DTD/svg11.dtd">
<!-- Generated by graphviz version 14.1.1 (0)
 -->
<!-- Title: hierarchy Pages: 1 -->
<svg width="199pt" height="431pt"
 viewBox="0.00 0.00 199.00 431.00" xmlns="http://www.w3.org/2000/svg" xmlns:xlink="http://www.w3.org/1999/xlink">
<g id="graph0" class="graph" transform="scale(1 1) rotate(0) translate(4 427.25)">
<title>hierarchy</title>
<polygon fill="white" stroke="none" points="-4,4 -4,-427.25 195,-427.25 195,4 -4,4"/>
<!-- files -->
<g id="node1" class="node">
<title>files</title>
<polygon fill="#dfcce4" stroke="#69015a" stroke-width="3" points="131.5,-423.25 0,-423.25 0,-380.75 131.5,-380.75 131.5,-423.25"/>
<text xml:space="preserve" text-anchor="middle" x="65.75" y="-405.95" font-family="Times,serif" font-size="14.00">Audio files</text>
<text xml:space="preserve" text-anchor="middle" x="65.75" y="-388.7" font-family="Times,serif" font-size="14.00">(mp3, m4a, flac)</text>
</g>
<!-- gstreamer -->
<g id="node2" class="node">
<title>gstreamer</title>
<polygon fill="#8ccfb7" stroke="#016c3c" stroke-width="3" points="113.12,-310.25 18.38,-310.25 18.38,-274.25 113.12,-274.25 113.12,-310.25"/>
<text xml:space="preserve" text-anchor="middle" x="65.75" y="-287.57" font-family="Times,serif" font-size="14.00">GStreamer</text>
</g>
<!-- files&#45;&gt;gstreamer -->
<g id="edge1" class="edge">
<title>files&#45;&gt;gstreamer</title>
<path fill="none" stroke="#69015a" stroke-width="3" d="M65.75,-379.45C65.75,-364.14 65.75,-343.3 65.75,-325.95"/>
<polygon fill="#69015a" stroke="#69015a" stroke-width="3" points="69.25,-326.07 65.75,-316.07 62.25,-326.07 69.25,-326.07"/>
<text xml:space="preserve" text-anchor="middle" x="128.38" y="-349.45" font-family="Times,serif" font-size="14.00">Using GStreamer</text>
<text xml:space="preserve" text-anchor="middle" x="128.38" y="-332.2" font-family="Times,serif" font-size="14.00">filesrc element</text>
</g>
<!-- mp3stream -->
<g id="node3" class="node">
<title>mp3stream</title>
<polygon fill="#8ccfb7" stroke="#016c3c" stroke-width="3" points="117.62,-221 13.88,-221 13.88,-178.5 117.62,-178.5 117.62,-221"/>
<text xml:space="preserve" text-anchor="middle" x="65.75" y="-203.7" font-family="Times,serif" font-size="14.00">MP3 stream</text>
<text xml:space="preserve" text-anchor="middle" x="65.75" y="-186.45" font-family="Times,serif" font-size="14.00">(mp3)</text>
</g>
<!-- gstreamer&#45;&gt;mp3stream -->
<g id="edge2" class="edge">
<title>gstreamer&#45;&gt;mp3stream</title>
<path fill="none" stroke="#69015a" stroke-width="3" d="M65.75,-272.94C65.75,-262.51 65.75,-249.08 65.75,-236.64"/>
<polygon fill="#69015a" stroke="#69015a" stroke-width="3" points="69.25,-236.76 65.75,-226.76 62.25,-236.76 69.25,-236.76"/>
<text xml:space="preserve" text-anchor="middle" x="126.5" y="-242.95" font-family="Times,serif" font-size="14.00">Using UNIX Pipe</text>
</g>
<!-- icecast -->
<g id="node4" class="node">
<title>icecast</title>
<polygon fill="#cccccc" stroke="#121212" stroke-width="3" points="98.88,-125.25 32.62,-125.25 32.62,-89.25 98.88,-89.25 98.88,-125.25"/>
<text xml:space="preserve" text-anchor="middle" x="65.75" y="-102.58" font-family="Times,serif" font-size="14.00">Icecast</text>
</g>
<!-- mp3stream&#45;&gt;icecast -->
<g id="edge3" class="edge">
<title>mp3stream&#45;&gt;icecast</title>
<path fill="none" stroke="#69015a" stroke-width="3" d="M65.75,-177.3C65.75,-166.42 65.75,-152.98 65.75,-140.85"/>
<polygon fill="#69015a" stroke="#69015a" stroke-width="3" points="69.25,-141.03 65.75,-131.03 62.25,-141.03 69.25,-141.03"/>
<text xml:space="preserve" text-anchor="middle" x="117.88" y="-147.2" font-family="Times,serif" font-size="14.00">Using libshout</text>
</g>
<!-- listener -->
<g id="node5" class="node">
<title>listener</title>
<polygon fill="#fedcc6" stroke="#683705" stroke-width="3" points="103.38,-36 28.12,-36 28.12,0 103.38,0 103.38,-36"/>
<text xml:space="preserve" text-anchor="middle" x="65.75" y="-13.32" font-family="Times,serif" font-size="14.00">Listener</text>
</g>
<!-- icecast&#45;&gt;listener -->
<g id="edge4" class="edge">
<title>icecast&#45;&gt;listener</title>
<path fill="none" stroke="#69015a" stroke-width="3" d="M65.75,-88.17C65.75,-77.6 65.75,-63.93 65.75,-51.54"/>
<polygon fill="#69015a" stroke="#69015a" stroke-width="3" points="69.25,-51.9 65.75,-41.9 62.25,-51.9 69.25,-51.9"/>
<text xml:space="preserve" text-anchor="middle" x="98.75" y="-57.95" font-family="Times,serif" font-size="14.00">via HTTP</text>
</g>
</g>
</svg>
