<?xml version="1.0" encoding="UTF-8" standalone="no"?>
<!DOCTYPE svg PUBLIC "-//W3C//DTD SVG 1.1//EN"
 "http://www.w3.org/Graphics/SVG/1.1/DTD/svg11.dtd">
<!-- Generated by graphviz version 2.46.0 (0)
 -->
<!-- Title: hierarchy Pages: 1 -->
<svg width="118pt" height="332pt"
 viewBox="0.00 0.00 118.00 332.00" xmlns="http://www.w3.org/2000/svg" xmlns:xlink="http://www.w3.org/1999/xlink">
<g id="graph0" class="graph" transform="scale(1 1) rotate(0) translate(4 328)">
<title>hierarchy</title>
<polygon fill="white" stroke="transparent" points="-4,4 -4,-328 114,-328 114,4 -4,4"/>
<!-- filesrc -->
<g id="node1" class="node">
<title>filesrc</title>
<polygon fill="none" stroke="black" points="85,-324 25,-324 25,-288 85,-288 85,-324"/>
<text text-anchor="middle" x="55" y="-302.3" font-family="Times,serif" font-size="14.00">filesrc</text>
</g>
<!-- decodebin -->
<g id="node2" class="node">
<title>decodebin</title>
<polygon fill="none" stroke="black" points="99.5,-252 10.5,-252 10.5,-216 99.5,-216 99.5,-252"/>
<text text-anchor="middle" x="55" y="-230.3" font-family="Times,serif" font-size="14.00">decodebin</text>
</g>
<!-- filesrc&#45;&gt;decodebin -->
<g id="edge1" class="edge">
<title>filesrc&#45;&gt;decodebin</title>
<path fill="none" stroke="black" d="M55,-287.7C55,-279.98 55,-270.71 55,-262.11"/>
<polygon fill="black" stroke="black" points="58.5,-262.1 55,-252.1 51.5,-262.1 58.5,-262.1"/>
</g>
<!-- audioconvert -->
<g id="node3" class="node">
<title>audioconvert</title>
<polygon fill="none" stroke="black" points="110,-180 0,-180 0,-144 110,-144 110,-180"/>
<text text-anchor="middle" x="55" y="-158.3" font-family="Times,serif" font-size="14.00">audioconvert</text>
</g>
<!-- decodebin&#45;&gt;audioconvert -->
<g id="edge2" class="edge">
<title>decodebin&#45;&gt;audioconvert</title>
<path fill="none" stroke="black" d="M55,-215.7C55,-207.98 55,-198.71 55,-190.11"/>
<polygon fill="black" stroke="black" points="58.5,-190.1 55,-180.1 51.5,-190.1 58.5,-190.1"/>
</g>
<!-- lamemp3enc -->
<g id="node4" class="node">
<title>lamemp3enc</title>
<polygon fill="none" stroke="black" points="108.5,-108 1.5,-108 1.5,-72 108.5,-72 108.5,-108"/>
<text text-anchor="middle" x="55" y="-86.3" font-family="Times,serif" font-size="14.00">lamemp3enc</text>
</g>
<!-- audioconvert&#45;&gt;lamemp3enc -->
<g id="edge3" class="edge">
<title>audioconvert&#45;&gt;lamemp3enc</title>
<path fill="none" stroke="black" d="M55,-143.7C55,-135.98 55,-126.71 55,-118.11"/>
<polygon fill="black" stroke="black" points="58.5,-118.1 55,-108.1 51.5,-118.1 58.5,-118.1"/>
</g>
<!-- fdsink -->
<g id="node5" class="node">
<title>fdsink</title>
<polygon fill="none" stroke="black" points="85,-36 25,-36 25,0 85,0 85,-36"/>
<text text-anchor="middle" x="55" y="-14.3" font-family="Times,serif" font-size="14.00">fdsink</text>
</g>
<!-- lamemp3enc&#45;&gt;fdsink -->
<g id="edge4" class="edge">
<title>lamemp3enc&#45;&gt;fdsink</title>
<path fill="none" stroke="black" d="M55,-71.7C55,-63.98 55,-54.71 55,-46.11"/>
<polygon fill="black" stroke="black" points="58.5,-46.1 55,-36.1 51.5,-46.1 58.5,-46.1"/>
</g>
</g>
</svg>
