<?xml version="1.0" encoding="UTF-8" standalone="no"?>
<!DOCTYPE svg PUBLIC "-//W3C//DTD SVG 1.1//EN"
 "http://www.w3.org/Graphics/SVG/1.1/DTD/svg11.dtd">
<!-- Generated by graphviz version 2.40.1 (20161225.0304)
 -->
<!-- Title: hierarchy Pages: 1 -->
<svg width="118pt" height="332pt"
 viewBox="0.00 0.00 118.00 332.00" xmlns="http://www.w3.org/2000/svg" xmlns:xlink="http://www.w3.org/1999/xlink">
<g id="graph0" class="graph" transform="scale(1 1) rotate(0) translate(4 328)">
<title>hierarchy</title>
<polygon fill="#ffffff" stroke="transparent" points="-4,4 -4,-328 114,-328 114,4 -4,4"/>
<!-- filesrc -->
<g id="node1" class="node">
<title>filesrc</title>
<polygon fill="none" stroke="#000000" points="86,-324 24,-324 24,-288 86,-288 86,-324"/>
<text text-anchor="middle" x="55" y="-302.3" font-family="Times,serif" font-size="14.00" fill="#000000">filesrc</text>
</g>
<!-- decodebin -->
<g id="node2" class="node">
<title>decodebin</title>
<polygon fill="none" stroke="#000000" points="100,-252 10,-252 10,-216 100,-216 100,-252"/>
<text text-anchor="middle" x="55" y="-230.3" font-family="Times,serif" font-size="14.00" fill="#000000">decodebin</text>
</g>
<!-- filesrc&#45;&gt;decodebin -->
<g id="edge1" class="edge">
<title>filesrc&#45;&gt;decodebin</title>
<path fill="none" stroke="#000000" d="M55,-287.8314C55,-280.131 55,-270.9743 55,-262.4166"/>
<polygon fill="#000000" stroke="#000000" points="58.5001,-262.4132 55,-252.4133 51.5001,-262.4133 58.5001,-262.4132"/>
</g>
<!-- audioconvert -->
<g id="node3" class="node">
<title>audioconvert</title>
<polygon fill="none" stroke="#000000" points="110,-180 0,-180 0,-144 110,-144 110,-180"/>
<text text-anchor="middle" x="55" y="-158.3" font-family="Times,serif" font-size="14.00" fill="#000000">audioconvert</text>
</g>
<!-- decodebin&#45;&gt;audioconvert -->
<g id="edge2" class="edge">
<title>decodebin&#45;&gt;audioconvert</title>
<path fill="none" stroke="#000000" d="M55,-215.8314C55,-208.131 55,-198.9743 55,-190.4166"/>
<polygon fill="#000000" stroke="#000000" points="58.5001,-190.4132 55,-180.4133 51.5001,-190.4133 58.5001,-190.4132"/>
</g>
<!-- lamemp3enc -->
<g id="node4" class="node">
<title>lamemp3enc</title>
<polygon fill="none" stroke="#000000" points="109,-108 1,-108 1,-72 109,-72 109,-108"/>
<text text-anchor="middle" x="55" y="-86.3" font-family="Times,serif" font-size="14.00" fill="#000000">lamemp3enc</text>
</g>
<!-- audioconvert&#45;&gt;lamemp3enc -->
<g id="edge3" class="edge">
<title>audioconvert&#45;&gt;lamemp3enc</title>
<path fill="none" stroke="#000000" d="M55,-143.8314C55,-136.131 55,-126.9743 55,-118.4166"/>
<polygon fill="#000000" stroke="#000000" points="58.5001,-118.4132 55,-108.4133 51.5001,-118.4133 58.5001,-118.4132"/>
</g>
<!-- fdsink -->
<g id="node5" class="node">
<title>fdsink</title>
<polygon fill="none" stroke="#000000" points="85.5,-36 24.5,-36 24.5,0 85.5,0 85.5,-36"/>
<text text-anchor="middle" x="55" y="-14.3" font-family="Times,serif" font-size="14.00" fill="#000000">fdsink</text>
</g>
<!-- lamemp3enc&#45;&gt;fdsink -->
<g id="edge4" class="edge">
<title>lamemp3enc&#45;&gt;fdsink</title>
<path fill="none" stroke="#000000" d="M55,-71.8314C55,-64.131 55,-54.9743 55,-46.4166"/>
<polygon fill="#000000" stroke="#000000" points="58.5001,-46.4132 55,-36.4133 51.5001,-46.4133 58.5001,-46.4132"/>
</g>
</g>
</svg>
