<?xml version="1.0" encoding="UTF-8" standalone="no"?>
<!DOCTYPE svg PUBLIC "-//W3C//DTD SVG 1.1//EN"
 "http://www.w3.org/Graphics/SVG/1.1/DTD/svg11.dtd">
<!-- Generated by graphviz version 2.46.0 (0)
 -->
<!-- Title: finite_state_machine Pages: 1 -->
<svg width="576pt" height="264pt"
 viewBox="0.00 0.00 576.00 264.36" xmlns="http://www.w3.org/2000/svg" xmlns:xlink="http://www.w3.org/1999/xlink">
<g id="graph0" class="graph" transform="scale(0.59 0.59) rotate(0) translate(4 443.96)">
<title>finite_state_machine</title>
<polygon fill="white" stroke="transparent" points="-4,4 -4,-443.96 972.05,-443.96 972.05,4 -4,4"/>
<!-- idle -->
<g id="node1" class="node">
<title>idle</title>
<ellipse fill="none" stroke="black" cx="448.05" cy="-414.65" rx="25.13" ry="25.13"/>
<text text-anchor="middle" x="448.05" y="-412.15" font-family="Times,serif" font-size="10.00">IDLE</text>
</g>
<!-- running -->
<g id="node2" class="node">
<title>running</title>
<ellipse fill="none" stroke="black" cx="65.05" cy="-281.54" rx="41.59" ry="41.59"/>
<text text-anchor="middle" x="65.05" y="-279.04" font-family="Times,serif" font-size="10.00">RUNNING</text>
</g>
<!-- idle&#45;&gt;running -->
<g id="edge1" class="edge">
<title>idle&#45;&gt;running</title>
<path fill="none" stroke="black" d="M422.4,-412.19C359.01,-408.24 196.67,-395.94 149.05,-371.34 127.79,-360.36 108.97,-341.83 94.55,-324.53"/>
<polygon fill="black" stroke="black" points="97.25,-322.29 88.25,-316.7 91.8,-326.68 97.25,-322.29"/>
<text text-anchor="middle" x="291.55" y="-360.14" font-family="Times,serif" font-size="14.00">GStreamerInterface.Execute()</text>
<text text-anchor="middle" x="291.55" y="-345.14" font-family="Times,serif" font-size="14.00">/ GStreamer Pipeline State := PLAYING</text>
</g>
<!-- error -->
<g id="node4" class="node">
<title>error</title>
<ellipse fill="none" stroke="black" cx="350.05" cy="-32.38" rx="32.25" ry="32.25"/>
<text text-anchor="middle" x="350.05" y="-29.88" font-family="Times,serif" font-size="10.00">ERROR</text>
</g>
<!-- idle&#45;&gt;error -->
<g id="edge2" class="edge">
<title>idle&#45;&gt;error</title>
<path fill="none" stroke="black" d="M473.73,-414.26C530.08,-414.03 664.25,-404.54 723.05,-323.34 744.84,-293.25 731.44,-275.94 723.05,-239.75 705.48,-164.04 708.38,-129.17 646.05,-82.75 606.62,-53.39 464.46,-40.49 392.47,-35.73"/>
<polygon fill="black" stroke="black" points="392.58,-32.23 382.37,-35.09 392.13,-39.22 392.58,-32.23"/>
<text text-anchor="middle" x="843.05" y="-210.55" font-family="Times,serif" font-size="14.00">Starting GStreamer Pipeline failed</text>
</g>
<!-- cancel -->
<g id="node3" class="node">
<title>cancel</title>
<ellipse fill="none" stroke="black" cx="350.05" cy="-152.25" rx="36.49" ry="36.49"/>
<text text-anchor="middle" x="350.05" y="-149.75" font-family="Times,serif" font-size="10.00">CANCEL</text>
</g>
<!-- running&#45;&gt;cancel -->
<g id="edge3" class="edge">
<title>running&#45;&gt;cancel</title>
<path fill="none" stroke="black" d="M39.54,-248.11C31.63,-233.99 27.43,-218.11 38.05,-206.75 57.96,-185.42 272.57,-198.56 300.05,-188.75 304.87,-187.02 309.65,-184.69 314.23,-182.04"/>
<polygon fill="black" stroke="black" points="316.18,-184.95 322.75,-176.64 312.43,-179.04 316.18,-184.95"/>
<text text-anchor="middle" x="133.05" y="-210.55" font-family="Times,serif" font-size="14.00">GStreamer Error Message</text>
</g>
<!-- running&#45;&gt;cancel -->
<g id="edge4" class="edge">
<title>running&#45;&gt;cancel</title>
<path fill="none" stroke="black" d="M104.97,-269C138.63,-258.59 187.65,-241.86 228.05,-221.75 238.97,-216.31 240.14,-212.22 251.05,-206.75 271.78,-196.34 279.52,-199.56 300.05,-188.75 304.35,-186.48 308.72,-183.89 312.98,-181.16"/>
<polygon fill="black" stroke="black" points="315.17,-183.91 321.53,-175.44 311.28,-178.09 315.17,-183.91"/>
<text text-anchor="middle" x="342.55" y="-210.55" font-family="Times,serif" font-size="14.00">GStreamer EOS Message</text>
</g>
<!-- running&#45;&gt;error -->
<g id="edge6" class="edge">
<title>running&#45;&gt;error</title>
<path fill="none" stroke="black" d="M39.11,-248.61C13.48,-212.93 -17.8,-155.04 13.05,-115.75 49.29,-69.58 225.7,-45.96 307.83,-37.32"/>
<polygon fill="black" stroke="black" points="308.24,-40.8 317.83,-36.3 307.53,-33.84 308.24,-40.8"/>
<text text-anchor="middle" x="159.05" y="-148.55" font-family="Times,serif" font-size="14.00">Tried to start pipeline that was not IDLE</text>
</g>
<!-- cancel&#45;&gt;idle -->
<g id="edge5" class="edge">
<title>cancel&#45;&gt;idle</title>
<path fill="none" stroke="black" d="M384,-165.93C402.08,-174.55 422.84,-187.86 434.05,-206.75 465.88,-260.38 461.04,-336.16 454.59,-379.56"/>
<polygon fill="black" stroke="black" points="451.1,-379.18 452.98,-389.6 458.01,-380.28 451.1,-379.18"/>
<text text-anchor="middle" x="589.55" y="-277.84" font-family="Times,serif" font-size="14.00">/ GStreamer Pipeline State := NULL</text>
</g>
<!-- cancel&#45;&gt;error -->
<g id="edge7" class="edge">
<title>cancel&#45;&gt;error</title>
<path fill="none" stroke="black" d="M350.05,-115.56C350.05,-102.84 350.05,-88.39 350.05,-75.2"/>
<polygon fill="black" stroke="black" points="353.55,-74.94 350.05,-64.94 346.55,-74.94 353.55,-74.94"/>
<text text-anchor="middle" x="496.05" y="-86.55" font-family="Times,serif" font-size="14.00">Tried to start pipeline that was not IDLE</text>
</g>
</g>
</svg>
