<?xml version="1.0" encoding="UTF-8" standalone="no"?>
<!DOCTYPE svg PUBLIC "-//W3C//DTD SVG 1.1//EN"
 "http://www.w3.org/Graphics/SVG/1.1/DTD/svg11.dtd">
<!-- Generated by graphviz version 14.1.1 (0)
 -->
<!-- Title: hierarchy Pages: 1 -->
<svg width="360pt" height="347pt"
 viewBox="0.00 0.00 360.00 347.00" xmlns="http://www.w3.org/2000/svg" xmlns:xlink="http://www.w3.org/1999/xlink">
<g id="graph0" class="graph" transform="scale(0.566929 0.566929) rotate(0) translate(4 608.5)">
<title>hierarchy</title>
<polygon fill="white" stroke="none" points="-4,4 -4,-608.5 631,-608.5 631,4 -4,4"/>
<!-- start -->
<g id="node1" class="node">
<title>start</title>
<ellipse fill="none" stroke="black" cx="425" cy="-586.5" rx="37" ry="18"/>
<text xml:space="preserve" text-anchor="middle" x="425" y="-581.83" font-family="Times,serif" font-size="14.00">Start</text>
</g>
<!-- read -->
<g id="node2" class="node">
<title>read</title>
<polygon fill="none" stroke="black" points="505.75,-531.5 344.25,-531.5 344.25,-495.5 505.75,-495.5 505.75,-531.5"/>
<text xml:space="preserve" text-anchor="middle" x="425" y="-508.82" font-family="Times,serif" font-size="14.00">Read data from pipe</text>
</g>
<!-- start&#45;&gt;read -->
<g id="edge1" class="edge">
<title>start&#45;&gt;read</title>
<path fill="none" stroke="black" d="M425,-568.31C425,-560.73 425,-551.6 425,-543.04"/>
<polygon fill="black" stroke="black" points="428.5,-543.04 425,-533.04 421.5,-543.04 428.5,-543.04"/>
</g>
<!-- isrunningstate -->
<g id="node3" class="node">
<title>isrunningstate</title>
<polygon fill="none" stroke="black" points="425,-174.25 250.75,-131.75 425,-89.25 599.25,-131.75 425,-174.25"/>
<text xml:space="preserve" text-anchor="middle" x="425" y="-135.7" font-family="Times,serif" font-size="14.00">Is GStreamer Pipeline</text>
<text xml:space="preserve" text-anchor="middle" x="425" y="-118.45" font-family="Times,serif" font-size="14.00">process still running?</text>
</g>
<!-- read&#45;&gt;isrunningstate -->
<g id="edge2" class="edge">
<title>read&#45;&gt;isrunningstate</title>
<path fill="none" stroke="black" stroke-dasharray="5,2" d="M425,-495.25C425,-476.12 425,-444.36 425,-417 425,-417 425,-417 425,-228.25 425,-214.52 425,-199.68 425,-185.88"/>
<polygon fill="black" stroke="black" points="428.5,-186.1 425,-176.1 421.5,-186.1 428.5,-186.1"/>
<text xml:space="preserve" text-anchor="middle" x="504.12" y="-297.57" font-family="Times,serif" font-size="14.00">Blocking IO Exception</text>
</g>
<!-- isempty -->
<g id="node4" class="node">
<title>isempty</title>
<polygon fill="none" stroke="black" points="163,-458.5 0,-416 163,-373.5 326,-416 163,-458.5"/>
<text xml:space="preserve" text-anchor="middle" x="163" y="-419.95" font-family="Times,serif" font-size="14.00">No further bytes</text>
<text xml:space="preserve" text-anchor="middle" x="163" y="-402.7" font-family="Times,serif" font-size="14.00">to expect from pipe?</text>
</g>
<!-- read&#45;&gt;isempty -->
<g id="edge6" class="edge">
<title>read&#45;&gt;isempty</title>
<path fill="none" stroke="black" d="M377.25,-495.09C339.21,-481.23 285.17,-461.53 240.88,-445.39"/>
<polygon fill="black" stroke="black" points="242.16,-442.13 231.56,-441.99 239.76,-448.71 242.16,-442.13"/>
</g>
<!-- sleep -->
<g id="node8" class="node">
<title>sleep</title>
<polygon fill="none" stroke="black" points="482.5,-36 367.5,-36 367.5,0 482.5,0 482.5,-36"/>
<text xml:space="preserve" text-anchor="middle" x="425" y="-13.32" font-family="Times,serif" font-size="14.00">Sleep for 0.1s</text>
</g>
<!-- isrunningstate&#45;&gt;sleep -->
<g id="edge3" class="edge">
<title>isrunningstate&#45;&gt;sleep</title>
<path fill="none" stroke="black" d="M425,-88.82C425,-75.02 425,-60.01 425,-47.46"/>
<polygon fill="black" stroke="black" points="428.5,-47.8 425,-37.81 421.5,-47.81 428.5,-47.8"/>
<text xml:space="preserve" text-anchor="middle" x="437" y="-57.95" font-family="Times,serif" font-size="14.00">yes</text>
</g>
<!-- end -->
<g id="node9" class="node">
<title>end</title>
<ellipse fill="none" stroke="black" cx="140" cy="-18" rx="79.09" ry="18"/>
<text xml:space="preserve" text-anchor="middle" x="140" y="-13.32" font-family="Times,serif" font-size="14.00">Return chunk</text>
</g>
<!-- isrunningstate&#45;&gt;end -->
<g id="edge4" class="edge">
<title>isrunningstate&#45;&gt;end</title>
<path fill="none" stroke="black" d="M378.04,-100.4C352.05,-84.71 318.69,-66.31 287,-54 263.25,-44.77 236.36,-37.51 212.14,-32.04"/>
<polygon fill="black" stroke="black" points="213.21,-28.7 202.69,-29.98 211.72,-35.54 213.21,-28.7"/>
<text xml:space="preserve" text-anchor="middle" x="331.18" y="-57.95" font-family="Times,serif" font-size="14.00">no</text>
</g>
<!-- calcrest -->
<g id="node5" class="node">
<title>calcrest</title>
<polygon fill="none" stroke="black" points="264.75,-320.25 61.25,-320.25 61.25,-284.25 264.75,-284.25 264.75,-320.25"/>
<text xml:space="preserve" text-anchor="middle" x="163" y="-297.57" font-family="Times,serif" font-size="14.00">Calculate remaining bytes</text>
</g>
<!-- isempty&#45;&gt;calcrest -->
<g id="edge8" class="edge">
<title>isempty&#45;&gt;calcrest</title>
<path fill="none" stroke="black" d="M163,-373.07C163,-359.27 163,-344.26 163,-331.71"/>
<polygon fill="black" stroke="black" points="166.5,-332.05 163,-322.06 159.5,-332.06 166.5,-332.05"/>
<text xml:space="preserve" text-anchor="middle" x="171.62" y="-342.2" font-family="Times,serif" font-size="14.00">no</text>
</g>
<!-- isempty&#45;&gt;end -->
<g id="edge7" class="edge">
<title>isempty&#45;&gt;end</title>
<path fill="none" stroke="black" d="M94.37,-391.14C57.29,-373.43 19,-345.02 19,-303.25 19,-303.25 19,-303.25 19,-130.75 19,-88.46 59.39,-57.73 93.5,-39.33"/>
<polygon fill="black" stroke="black" points="94.74,-42.62 102.02,-34.93 91.53,-36.4 94.74,-42.62"/>
<text xml:space="preserve" text-anchor="middle" x="31" y="-224.57" font-family="Times,serif" font-size="14.00">yes</text>
</g>
<!-- appendbytes -->
<g id="node6" class="node">
<title>appendbytes</title>
<polygon fill="none" stroke="black" points="264.75,-247.25 61.25,-247.25 61.25,-211.25 264.75,-211.25 264.75,-247.25"/>
<text xml:space="preserve" text-anchor="middle" x="163" y="-224.57" font-family="Times,serif" font-size="14.00">Collect already read bytes</text>
</g>
<!-- calcrest&#45;&gt;appendbytes -->
<g id="edge9" class="edge">
<title>calcrest&#45;&gt;appendbytes</title>
<path fill="none" stroke="black" d="M163,-284.06C163,-276.48 163,-267.35 163,-258.79"/>
<polygon fill="black" stroke="black" points="166.5,-258.79 163,-248.79 159.5,-258.79 166.5,-258.79"/>
</g>
<!-- bytesremaining -->
<g id="node7" class="node">
<title>bytesremaining</title>
<polygon fill="none" stroke="black" points="140,-174.25 47.5,-131.75 140,-89.25 232.5,-131.75 140,-174.25"/>
<text xml:space="preserve" text-anchor="middle" x="140" y="-135.7" font-family="Times,serif" font-size="14.00">Remaining</text>
<text xml:space="preserve" text-anchor="middle" x="140" y="-118.45" font-family="Times,serif" font-size="14.00">bytes?</text>
</g>
<!-- appendbytes&#45;&gt;bytesremaining -->
<g id="edge10" class="edge">
<title>appendbytes&#45;&gt;bytesremaining</title>
<path fill="none" stroke="black" d="M158.89,-211.18C156.86,-202.73 154.29,-192.08 151.71,-181.36"/>
<polygon fill="black" stroke="black" points="155.13,-180.63 149.39,-171.73 148.33,-182.27 155.13,-180.63"/>
</g>
<!-- bytesremaining&#45;&gt;sleep -->
<g id="edge11" class="edge">
<title>bytesremaining&#45;&gt;sleep</title>
<path fill="none" stroke="black" d="M173.55,-104.35C196.43,-87.59 228.08,-66.72 259,-54 289.81,-41.32 325.8,-33.02 356.38,-27.69"/>
<polygon fill="black" stroke="black" points="356.59,-31.2 365.89,-26.11 355.45,-24.3 356.59,-31.2"/>
<text xml:space="preserve" text-anchor="middle" x="271" y="-57.95" font-family="Times,serif" font-size="14.00">yes</text>
</g>
<!-- bytesremaining&#45;&gt;end -->
<g id="edge12" class="edge">
<title>bytesremaining&#45;&gt;end</title>
<path fill="none" stroke="black" d="M140,-88.82C140,-75.02 140,-60.01 140,-47.46"/>
<polygon fill="black" stroke="black" points="143.5,-47.8 140,-37.81 136.5,-47.81 143.5,-47.8"/>
<text xml:space="preserve" text-anchor="middle" x="148.62" y="-57.95" font-family="Times,serif" font-size="14.00">no</text>
</g>
<!-- sleep&#45;&gt;read -->
<g id="edge5" class="edge">
<title>sleep&#45;&gt;read</title>
<path fill="none" stroke="black" d="M482.89,-26.15C542.58,-37.15 627,-64.42 627,-130.75 627,-417 627,-417 627,-417 627,-469.51 570.52,-493.19 517.29,-503.85"/>
<polygon fill="black" stroke="black" points="516.68,-500.4 507.49,-505.66 517.95,-507.28 516.68,-500.4"/>
</g>
</g>
</svg>
