<?xml version="1.0" encoding="UTF-8" standalone="no"?>
<!DOCTYPE svg PUBLIC "-//W3C//DTD SVG 1.1//EN"
 "http://www.w3.org/Graphics/SVG/1.1/DTD/svg11.dtd">
<!-- Generated by graphviz version 2.44.0 (0)
 -->
<!-- Title: finite_state_machine Pages: 1 -->
<svg width="499pt" height="864pt"
 viewBox="0.00 0.00 498.50 864.00" xmlns="http://www.w3.org/2000/svg" xmlns:xlink="http://www.w3.org/1999/xlink">
<g id="graph0" class="graph" transform="scale(0.67 0.67) rotate(0) translate(4 1286.13)">
<title>finite_state_machine</title>
<polygon fill="white" stroke="transparent" points="-4,4 -4,-1286.13 740.37,-1286.13 740.37,4 -4,4"/>
<!-- Listen_on_port -->
<g id="node1" class="node">
<title>Listen_on_port</title>
<ellipse fill="none" stroke="black" cx="435.74" cy="-1240.65" rx="37.46" ry="37.46"/>
<ellipse fill="none" stroke="black" cx="435.74" cy="-1240.65" rx="41.45" ry="41.45"/>
<text text-anchor="middle" x="435.74" y="-1243.65" font-family="Times,serif" font-size="10.00">Listen</text>
<text text-anchor="middle" x="435.74" y="-1232.65" font-family="Times,serif" font-size="10.00">on port</text>
</g>
<!-- __init__ -->
<g id="node3" class="node">
<title>__init__</title>
<ellipse fill="none" stroke="blue" cx="313.74" cy="-1116.39" rx="31.58" ry="31.58"/>
<text text-anchor="middle" x="313.74" y="-1113.89" font-family="Times,serif" font-size="10.00">__init__</text>
</g>
<!-- Listen_on_port&#45;&gt;__init__ -->
<g id="edge1" class="edge">
<title>Listen_on_port&#45;&gt;__init__</title>
<path fill="none" stroke="black" d="M406.83,-1210.68C387.58,-1191.39 362.38,-1166.14 343.05,-1146.77"/>
<polygon fill="black" stroke="black" points="345.5,-1144.27 335.96,-1139.66 340.55,-1149.21 345.5,-1144.27"/>
<text text-anchor="middle" x="415.74" y="-1169.98" font-family="Times,serif" font-size="14.00">access port</text>
</g>
<!-- CB__init__ -->
<g id="node2" class="node">
<title>CB__init__</title>
<ellipse fill="none" stroke="red" cx="498.74" cy="-1116.39" rx="31.58" ry="31.58"/>
<text text-anchor="middle" x="498.74" y="-1113.89" font-family="Times,serif" font-size="10.00">__init__</text>
</g>
<!-- CB__init__&#45;&gt;__init__ -->
<g id="edge3" class="edge">
<title>CB__init__&#45;&gt;__init__</title>
<path fill="none" stroke="black" d="M466.73,-1114.77C454.18,-1114.22 439.66,-1113.66 426.48,-1113.39 408.49,-1113.02 403.99,-1113.02 386,-1113.39 376.22,-1113.59 365.69,-1113.95 355.79,-1114.35"/>
<polygon fill="black" stroke="black" points="355.59,-1110.85 345.75,-1114.77 355.88,-1117.85 355.59,-1110.85"/>
</g>
<!-- __init__&#45;&gt;CB__init__ -->
<g id="edge2" class="edge">
<title>__init__&#45;&gt;CB__init__</title>
<path fill="none" stroke="black" d="M345.54,-1116.39C376.25,-1116.39 422.94,-1116.39 456.7,-1116.39"/>
<polygon fill="black" stroke="black" points="456.73,-1119.89 466.73,-1116.39 456.73,-1112.89 456.73,-1119.89"/>
<text text-anchor="middle" x="406.24" y="-1138.19" font-family="Times,serif" font-size="14.00">create derived</text>
<text text-anchor="middle" x="406.24" y="-1123.19" font-family="Times,serif" font-size="14.00">class object</text>
</g>
<!-- Connecting -->
<g id="node4" class="node">
<title>Connecting</title>
<ellipse fill="none" stroke="black" cx="313.74" cy="-1003.45" rx="44.3" ry="44.3"/>
<text text-anchor="middle" x="313.74" y="-1000.95" font-family="Times,serif" font-size="10.00">Connecting</text>
</g>
<!-- __init__&#45;&gt;Connecting -->
<g id="edge4" class="edge">
<title>__init__&#45;&gt;Connecting</title>
<path fill="none" stroke="black" d="M313.74,-1084.49C313.74,-1076.2 313.74,-1066.99 313.74,-1057.85"/>
<polygon fill="black" stroke="black" points="317.24,-1057.62 313.74,-1047.62 310.24,-1057.62 317.24,-1057.62"/>
</g>
<!-- onOpen -->
<g id="node5" class="node">
<title>onOpen</title>
<ellipse fill="none" stroke="blue" cx="146.74" cy="-855.91" rx="33.61" ry="33.61"/>
<text text-anchor="middle" x="146.74" y="-853.41" font-family="Times,serif" font-size="10.00">onOpen</text>
</g>
<!-- Connecting&#45;&gt;onOpen -->
<g id="edge5" class="edge">
<title>Connecting&#45;&gt;onOpen</title>
<path fill="none" stroke="black" d="M280.74,-973.7C251.46,-948.18 208.91,-911.09 179.65,-885.6"/>
<polygon fill="black" stroke="black" points="181.61,-882.66 171.78,-878.73 177.01,-887.94 181.61,-882.66"/>
<text text-anchor="middle" x="299.24" y="-930.1" font-family="Times,serif" font-size="14.00">open Handshake</text>
</g>
<!-- onOpenHandshakeTimeout -->
<g id="node9" class="node">
<title>onOpenHandshakeTimeout</title>
<ellipse fill="none" stroke="blue" cx="447.74" cy="-689.57" rx="95.9" ry="95.9"/>
<text text-anchor="middle" x="447.74" y="-687.07" font-family="Times,serif" font-size="10.00">onOpenHandschakeTimeout</text>
</g>
<!-- Connecting&#45;&gt;onOpenHandshakeTimeout -->
<g id="edge6" class="edge">
<title>Connecting&#45;&gt;onOpenHandshakeTimeout</title>
<path fill="none" stroke="black" d="M352.77,-982.65C379.97,-966.59 414.38,-941.22 431.74,-908.3 449.68,-874.29 455.91,-833.03 456.9,-795.62"/>
<polygon fill="black" stroke="black" points="460.41,-795.23 457.04,-785.18 453.41,-795.13 460.41,-795.23"/>
<text text-anchor="middle" x="446.74" y="-930.1" font-family="Times,serif" font-size="14.00">timeout</text>
</g>
<!-- onWSConnect -->
<g id="node6" class="node">
<title>onWSConnect</title>
<ellipse fill="none" stroke="red" cx="370.74" cy="-855.91" rx="52.28" ry="52.28"/>
<text text-anchor="middle" x="370.74" y="-853.41" font-family="Times,serif" font-size="10.00">onWSConnect</text>
</g>
<!-- onOpen&#45;&gt;onWSConnect -->
<g id="edge8" class="edge">
<title>onOpen&#45;&gt;onWSConnect</title>
<path fill="none" stroke="black" d="M180.76,-855.91C214.38,-855.91 266.62,-855.91 307.81,-855.91"/>
<polygon fill="black" stroke="black" points="308.03,-859.41 318.03,-855.91 308.03,-852.41 308.03,-859.41"/>
<text text-anchor="middle" x="249.32" y="-862.71" font-family="Times,serif" font-size="14.00">initialize handler</text>
</g>
<!-- Active -->
<g id="node10" class="node">
<title>Active</title>
<ellipse fill="none" stroke="black" cx="163.74" cy="-528.24" rx="47.25" ry="47.25"/>
<text text-anchor="middle" x="163.74" y="-531.24" font-family="Times,serif" font-size="10.00">Autobahn</text>
<text text-anchor="middle" x="163.74" y="-520.24" font-family="Times,serif" font-size="10.00">Magic</text>
</g>
<!-- onOpen&#45;&gt;Active -->
<g id="edge10" class="edge">
<title>onOpen&#45;&gt;Active</title>
<path fill="none" stroke="black" d="M148.45,-822.19C151.33,-766.88 157.21,-654.26 160.78,-585.9"/>
<polygon fill="black" stroke="black" points="164.29,-585.9 161.31,-575.74 157.29,-585.54 164.29,-585.9"/>
<text text-anchor="middle" x="237.24" y="-685.87" font-family="Times,serif" font-size="14.00">successful handshake</text>
</g>
<!-- onWSConnect&#45;&gt;onOpen -->
<g id="edge9" class="edge">
<title>onWSConnect&#45;&gt;onOpen</title>
<path fill="none" stroke="black" d="M318.26,-853.82C290.86,-852.98 256.78,-852.34 226.31,-852.91 214.78,-853.13 202.31,-853.52 190.74,-853.96"/>
<polygon fill="black" stroke="black" points="190.27,-850.47 180.42,-854.36 190.54,-857.47 190.27,-850.47"/>
</g>
<!-- onClose -->
<g id="node7" class="node">
<title>onClose</title>
<ellipse fill="none" stroke="blue" cx="447.74" cy="-354.23" rx="33.61" ry="33.61"/>
<text text-anchor="middle" x="447.74" y="-351.73" font-family="Times,serif" font-size="10.00">onClose</text>
</g>
<!-- onClose&#45;&gt;Listen_on_port -->
<g id="edge21" class="edge">
<title>onClose&#45;&gt;Listen_on_port</title>
<path fill="none" stroke="black" d="M473.2,-376.54C505.98,-406.52 558.74,-464.51 558.74,-527.24 558.74,-1117.39 558.74,-1117.39 558.74,-1117.39 558.74,-1162.49 516.62,-1196.68 481.68,-1217.28"/>
<polygon fill="black" stroke="black" points="479.94,-1214.24 472.98,-1222.22 483.4,-1220.32 479.94,-1214.24"/>
</g>
<!-- onWSDisconnect -->
<g id="node8" class="node">
<title>onWSDisconnect</title>
<ellipse fill="none" stroke="red" cx="675.74" cy="-354.23" rx="60.76" ry="60.76"/>
<text text-anchor="middle" x="675.74" y="-351.73" font-family="Times,serif" font-size="10.00">onWSDisconnect</text>
</g>
<!-- onClose&#45;&gt;onWSDisconnect -->
<g id="edge19" class="edge">
<title>onClose&#45;&gt;onWSDisconnect</title>
<path fill="none" stroke="black" d="M481.38,-354.23C513.7,-354.23 563.54,-354.23 604.66,-354.23"/>
<polygon fill="black" stroke="black" points="604.91,-357.73 614.91,-354.23 604.91,-350.73 604.91,-357.73"/>
<text text-anchor="middle" x="548.2" y="-376.03" font-family="Times,serif" font-size="14.00">clean up</text>
<text text-anchor="middle" x="548.2" y="-361.03" font-family="Times,serif" font-size="14.00">when connected</text>
</g>
<!-- onWSDisconnect&#45;&gt;onClose -->
<g id="edge20" class="edge">
<title>onWSDisconnect&#45;&gt;onClose</title>
<path fill="none" stroke="black" d="M614.86,-351.93C587.64,-351.18 555.16,-350.67 525.9,-351.23 514.77,-351.44 502.77,-351.83 491.58,-352.25"/>
<polygon fill="black" stroke="black" points="491.44,-348.75 481.58,-352.65 491.72,-355.75 491.44,-348.75"/>
</g>
<!-- onOpenHandshakeTimeout&#45;&gt;onClose -->
<g id="edge7" class="edge">
<title>onOpenHandshakeTimeout&#45;&gt;onClose</title>
<path fill="none" stroke="black" d="M447.74,-593.49C447.74,-529.13 447.74,-447.19 447.74,-398.09"/>
<polygon fill="black" stroke="black" points="451.24,-397.84 447.74,-387.84 444.24,-397.84 451.24,-397.84"/>
<text text-anchor="middle" x="466.24" y="-524.54" font-family="Times,serif" font-size="14.00">close</text>
</g>
<!-- Active&#45;&gt;onClose -->
<g id="edge18" class="edge">
<title>Active&#45;&gt;onClose</title>
<path fill="none" stroke="black" d="M207.98,-510.6C234,-499.51 266.62,-483.22 291.74,-462.86 305,-452.11 302.83,-444.04 315.74,-432.86 343.9,-408.47 380.79,-387.51 408.41,-373.55"/>
<polygon fill="black" stroke="black" points="410,-376.67 417.4,-369.08 406.89,-370.4 410,-376.67"/>
<text text-anchor="middle" x="374.74" y="-444.16" font-family="Times,serif" font-size="14.00">close connection</text>
</g>
<!-- onMessage -->
<g id="node11" class="node">
<title>onMessage</title>
<ellipse fill="none" stroke="blue" cx="84.74" cy="-354.23" rx="44.3" ry="44.3"/>
<text text-anchor="middle" x="84.74" y="-351.73" font-family="Times,serif" font-size="10.00">onMessage</text>
</g>
<!-- Active&#45;&gt;onMessage -->
<g id="edge11" class="edge">
<title>Active&#45;&gt;onMessage</title>
<path fill="none" stroke="black" d="M120.18,-508.26C101.71,-497.76 82.09,-482.75 71.74,-462.86 62.67,-445.46 63.15,-424.38 66.9,-405.5"/>
<polygon fill="black" stroke="black" points="70.35,-406.1 69.2,-395.57 63.53,-404.52 70.35,-406.1"/>
<text text-anchor="middle" x="111.24" y="-451.66" font-family="Times,serif" font-size="14.00">got data</text>
<text text-anchor="middle" x="111.24" y="-436.66" font-family="Times,serif" font-size="14.00">from client</text>
</g>
<!-- onCall -->
<g id="node12" class="node">
<title>onCall</title>
<ellipse fill="none" stroke="red" cx="141.74" cy="-198.75" rx="28.69" ry="28.69"/>
<text text-anchor="middle" x="141.74" y="-196.25" font-family="Times,serif" font-size="10.00">onCall</text>
</g>
<!-- onMessage&#45;&gt;onCall -->
<g id="edge12" class="edge">
<title>onMessage&#45;&gt;onCall</title>
<path fill="none" stroke="black" d="M99.86,-312.51C108.75,-288.57 119.89,-258.6 128.44,-235.57"/>
<polygon fill="black" stroke="black" points="131.73,-236.76 131.93,-226.16 125.17,-234.32 131.73,-236.76"/>
</g>
<!-- onCall&#45;&gt;Active -->
<g id="edge13" class="edge">
<title>onCall&#45;&gt;Active</title>
<path fill="none" stroke="black" d="M143.62,-227.84C147.23,-281.56 155.18,-399.83 159.93,-470.59"/>
<polygon fill="black" stroke="black" points="156.45,-470.92 160.61,-480.67 163.43,-470.45 156.45,-470.92"/>
<text text-anchor="middle" x="199.24" y="-350.53" font-family="Times,serif" font-size="14.00">no response</text>
</g>
<!-- SendPacket -->
<g id="node13" class="node">
<title>SendPacket</title>
<ellipse fill="none" stroke="blue" cx="44.74" cy="-59.45" rx="44.98" ry="44.98"/>
<text text-anchor="middle" x="44.74" y="-56.95" font-family="Times,serif" font-size="10.00">SendPacket</text>
</g>
<!-- onCall&#45;&gt;SendPacket -->
<g id="edge14" class="edge">
<title>onCall&#45;&gt;SendPacket</title>
<path fill="none" stroke="black" d="M117,-183.28C105.06,-175.28 91.28,-164.42 81.74,-151.91 72.88,-140.29 65.82,-126.26 60.34,-112.72"/>
<polygon fill="black" stroke="black" points="63.46,-111.08 56.62,-102.98 56.92,-113.58 63.46,-111.08"/>
<text text-anchor="middle" x="114.24" y="-140.71" font-family="Times,serif" font-size="14.00">response</text>
</g>
<!-- BroadcastPacket -->
<g id="node14" class="node">
<title>BroadcastPacket</title>
<ellipse fill="none" stroke="blue" cx="168.74" cy="-59.45" rx="59.41" ry="59.41"/>
<text text-anchor="middle" x="168.74" y="-56.95" font-family="Times,serif" font-size="10.00">BroadcastPacket</text>
</g>
<!-- onCall&#45;&gt;BroadcastPacket -->
<g id="edge15" class="edge">
<title>onCall&#45;&gt;BroadcastPacket</title>
<path fill="none" stroke="black" d="M147.14,-170.3C149.56,-157.97 152.54,-142.84 155.5,-127.79"/>
<polygon fill="black" stroke="black" points="158.94,-128.42 157.43,-117.94 152.07,-127.07 158.94,-128.42"/>
<text text-anchor="middle" x="205.74" y="-140.71" font-family="Times,serif" font-size="14.00">response to all</text>
</g>
<!-- SendPacket&#45;&gt;Active -->
<g id="edge16" class="edge">
<title>SendPacket&#45;&gt;Active</title>
<path fill="none" stroke="black" d="M34.96,-103.17C21.3,-170.76 1.37,-305.88 31.74,-414.86 42.81,-454.61 79.89,-484.02 111.94,-502.76"/>
<polygon fill="black" stroke="black" points="110.39,-505.9 120.82,-507.76 113.82,-499.81 110.39,-505.9"/>
<text text-anchor="middle" x="51.74" y="-264.4" font-family="Times,serif" font-size="14.00">send data</text>
<text text-anchor="middle" x="51.74" y="-249.4" font-family="Times,serif" font-size="14.00">to client</text>
</g>
<!-- BroadcastPacket&#45;&gt;Active -->
<g id="edge17" class="edge">
<title>BroadcastPacket&#45;&gt;Active</title>
<path fill="none" stroke="black" d="M220.35,-89.5C237.06,-101.78 253.61,-117.72 262.74,-136.91 265.6,-142.93 262.94,-145.25 262.74,-151.91 259.18,-268.94 286.72,-304.82 246.74,-414.86 237.23,-441.03 219.57,-466.32 202.97,-486.26"/>
<polygon fill="black" stroke="black" points="200.27,-484.03 196.44,-493.91 205.6,-488.57 200.27,-484.03"/>
<text text-anchor="middle" x="311.74" y="-264.4" font-family="Times,serif" font-size="14.00">send data</text>
<text text-anchor="middle" x="311.74" y="-249.4" font-family="Times,serif" font-size="14.00">to all clients</text>
</g>
</g>
</svg>
