<?xml version="1.0" encoding="UTF-8" standalone="no"?>
<!DOCTYPE svg PUBLIC "-//W3C//DTD SVG 1.1//EN"
 "http://www.w3.org/Graphics/SVG/1.1/DTD/svg11.dtd">
<!-- Generated by graphviz version 14.1.1 (0)
 -->
<!-- Title: finite_state_machine Pages: 1 -->
<svg width="576pt" height="275pt"
 viewBox="0.00 0.00 576.00 275.00" xmlns="http://www.w3.org/2000/svg" xmlns:xlink="http://www.w3.org/1999/xlink">
<g id="graph0" class="graph" transform="scale(0.590966 0.590966) rotate(0) translate(4 461.23)">
<title>finite_state_machine</title>
<polygon fill="white" stroke="none" points="-4,4 -4,-461.23 970.68,-461.23 970.68,4 -4,4"/>
<!-- idle -->
<g id="node1" class="node">
<title>idle</title>
<ellipse fill="none" stroke="black" cx="447.57" cy="-431.38" rx="25.85" ry="25.85"/>
<text xml:space="preserve" text-anchor="middle" x="447.57" y="-428.26" font-family="Times,serif" font-size="10.00">IDLE</text>
</g>
<!-- running -->
<g id="node2" class="node">
<title>running</title>
<ellipse fill="none" stroke="black" cx="65.57" cy="-291.74" rx="43.29" ry="43.29"/>
<text xml:space="preserve" text-anchor="middle" x="65.57" y="-288.62" font-family="Times,serif" font-size="10.00">RUNNING</text>
</g>
<!-- idle&#45;&gt;running -->
<g id="edge1" class="edge">
<title>idle&#45;&gt;running</title>
<path fill="none" stroke="black" d="M421.47,-428.93C357.79,-425.04 196.28,-412.87 149.32,-387.53 127.74,-375.88 109.04,-356.34 94.82,-338.03"/>
<polygon fill="black" stroke="black" points="97.9,-336.3 89.12,-330.38 92.3,-340.49 97.9,-336.3"/>
<text xml:space="preserve" text-anchor="middle" x="291.45" y="-374.23" font-family="Times,serif" font-size="14.00">GStreamerInterface.Execute()</text>
<text xml:space="preserve" text-anchor="middle" x="291.45" y="-356.98" font-family="Times,serif" font-size="14.00">/ GStreamer Pipeline State := PLAYING</text>
</g>
<!-- error -->
<g id="node4" class="node">
<title>error</title>
<ellipse fill="none" stroke="black" cx="351.57" cy="-33.19" rx="33.19" ry="33.19"/>
<text xml:space="preserve" text-anchor="middle" x="351.57" y="-30.07" font-family="Times,serif" font-size="10.00">ERROR</text>
</g>
<!-- idle&#45;&gt;error -->
<g id="edge2" class="edge">
<title>idle&#45;&gt;error</title>
<path fill="none" stroke="black" d="M473.64,-430.46C530.15,-429.03 663.5,-416.73 721.57,-335.03 743.87,-303.67 729.76,-286.05 721.57,-248.45 704.52,-170.11 710.14,-133.24 646.57,-84.39 608.14,-54.85 468.99,-41.7 396.37,-36.75"/>
<polygon fill="black" stroke="black" points="396.61,-33.26 386.4,-36.09 396.15,-40.24 396.61,-33.26"/>
<text xml:space="preserve" text-anchor="middle" x="842.18" y="-217.15" font-family="Times,serif" font-size="14.00">Starting GStreamer Pipeline failed</text>
</g>
<!-- cancel -->
<g id="node3" class="node">
<title>cancel</title>
<ellipse fill="none" stroke="black" cx="351.57" cy="-157.42" rx="37.78" ry="37.78"/>
<text xml:space="preserve" text-anchor="middle" x="351.57" y="-154.29" font-family="Times,serif" font-size="10.00">CANCEL</text>
</g>
<!-- running&#45;&gt;cancel -->
<g id="edge3" class="edge">
<title>running&#45;&gt;cancel</title>
<path fill="none" stroke="black" d="M39.79,-256.59C31.84,-241.74 27.75,-225.07 38.82,-213.2 58.64,-191.97 272.22,-204.95 299.57,-195.2 304.33,-193.51 309.05,-191.25 313.58,-188.68"/>
<polygon fill="black" stroke="black" points="315.29,-191.74 321.89,-183.46 311.56,-185.81 315.29,-191.74"/>
<text xml:space="preserve" text-anchor="middle" x="133.7" y="-217.15" font-family="Times,serif" font-size="14.00">GStreamer Error Message</text>
</g>
<!-- running&#45;&gt;cancel -->
<g id="edge4" class="edge">
<title>running&#45;&gt;cancel</title>
<path fill="none" stroke="black" d="M107.22,-279.07C141.06,-268.72 189.42,-251.92 228.57,-230.45 239.7,-224.35 240.21,-219.32 251.32,-213.2 271.38,-202.17 279.34,-205.9 299.57,-195.2 303.93,-192.9 308.34,-190.29 312.65,-187.54"/>
<polygon fill="black" stroke="black" points="314.26,-190.68 320.64,-182.22 310.38,-184.85 314.26,-190.68"/>
<text xml:space="preserve" text-anchor="middle" x="342.45" y="-217.15" font-family="Times,serif" font-size="14.00">GStreamer EOS Message</text>
</g>
<!-- running&#45;&gt;error -->
<g id="edge6" class="edge">
<title>running&#45;&gt;error</title>
<path fill="none" stroke="black" d="M39.07,-257.25C13.18,-220.17 -18.09,-160.3 13.57,-119.64 49.5,-73.5 223.72,-48.34 307.03,-38.77"/>
<polygon fill="black" stroke="black" points="307.34,-42.25 316.89,-37.66 306.56,-35.3 307.34,-42.25"/>
<text xml:space="preserve" text-anchor="middle" x="159.07" y="-152.74" font-family="Times,serif" font-size="14.00">Tried to start pipeline that was not IDLE</text>
</g>
<!-- cancel&#45;&gt;idle -->
<g id="edge5" class="edge">
<title>cancel&#45;&gt;idle</title>
<path fill="none" stroke="black" d="M386.46,-172.64C403.71,-181.6 423.05,-194.96 433.57,-213.2 466.15,-269.69 461.17,-348.71 454.46,-394.22"/>
<polygon fill="black" stroke="black" points="451.01,-393.66 452.89,-404.08 457.92,-394.76 451.01,-393.66"/>
<text xml:space="preserve" text-anchor="middle" x="589.52" y="-287.07" font-family="Times,serif" font-size="14.00">/ GStreamer Pipeline State := NULL</text>
</g>
<!-- cancel&#45;&gt;error -->
<g id="edge7" class="edge">
<title>cancel&#45;&gt;error</title>
<path fill="none" stroke="black" d="M351.57,-119.42C351.57,-106.24 351.57,-91.29 351.57,-77.62"/>
<polygon fill="black" stroke="black" points="355.07,-78.03 351.57,-68.03 348.07,-78.03 355.07,-78.03"/>
<text xml:space="preserve" text-anchor="middle" x="497.07" y="-88.34" font-family="Times,serif" font-size="14.00">Tried to start pipeline that was not IDLE</text>
</g>
</g>
</svg>
