<?xml version="1.0" encoding="UTF-8" standalone="no"?>
<!DOCTYPE svg PUBLIC "-//W3C//DTD SVG 1.1//EN"
 "http://www.w3.org/Graphics/SVG/1.1/DTD/svg11.dtd">
<!-- Generated by graphviz version 2.40.1 (20161225.0304)
 -->
<!-- Title: hierarchy Pages: 1 -->
<svg width="360pt" height="562pt"
 viewBox="0.00 0.00 360.00 561.63" xmlns="http://www.w3.org/2000/svg" xmlns:xlink="http://www.w3.org/1999/xlink">
<g id="graph0" class="graph" transform="scale(.9801 .9801) rotate(0) translate(4 569)">
<title>hierarchy</title>
<polygon fill="#ffffff" stroke="transparent" points="-4,4 -4,-569 363.291,-569 363.291,4 -4,4"/>
<!-- start -->
<g id="node1" class="node">
<title>start</title>
<ellipse fill="none" stroke="#000000" cx="230.5" cy="-547" rx="34.394" ry="18"/>
<text text-anchor="middle" x="230.5" y="-543.3" font-family="Times,serif" font-size="14.00" fill="#000000">Start</text>
</g>
<!-- readid3header -->
<g id="node2" class="node">
<title>readid3header</title>
<polygon fill="none" stroke="#000000" points="301,-492 160,-492 160,-456 301,-456 301,-492"/>
<text text-anchor="middle" x="230.5" y="-470.3" font-family="Times,serif" font-size="14.00" fill="#000000">Read ID3 Header</text>
</g>
<!-- start&#45;&gt;readid3header -->
<g id="edge1" class="edge">
<title>start&#45;&gt;readid3header</title>
<path fill="none" stroke="#000000" d="M230.5,-528.9551C230.5,-520.8828 230.5,-511.1764 230.5,-502.1817"/>
<polygon fill="#000000" stroke="#000000" points="234.0001,-502.0903 230.5,-492.0904 227.0001,-502.0904 234.0001,-502.0903"/>
</g>
<!-- decodeid3size -->
<g id="node3" class="node">
<title>decodeid3size</title>
<polygon fill="none" stroke="#000000" points="304.5,-419 156.5,-419 156.5,-381 304.5,-381 304.5,-419"/>
<text text-anchor="middle" x="230.5" y="-403.8" font-family="Times,serif" font-size="14.00" fill="#000000">Decode the length</text>
<text text-anchor="middle" x="230.5" y="-388.8" font-family="Times,serif" font-size="14.00" fill="#000000">of the ID3 Tag</text>
</g>
<!-- readid3header&#45;&gt;decodeid3size -->
<g id="edge2" class="edge">
<title>readid3header&#45;&gt;decodeid3size</title>
<path fill="none" stroke="#000000" d="M230.5,-455.7079C230.5,-447.7096 230.5,-438.1287 230.5,-429.1859"/>
<polygon fill="#000000" stroke="#000000" points="234.0001,-429.1139 230.5,-419.114 227.0001,-429.114 234.0001,-429.1139"/>
</g>
<!-- readid3tag -->
<g id="node4" class="node">
<title>readid3tag</title>
<polygon fill="none" stroke="#000000" points="287.5,-344 173.5,-344 173.5,-308 287.5,-308 287.5,-344"/>
<text text-anchor="middle" x="230.5" y="-322.3" font-family="Times,serif" font-size="14.00" fill="#000000">Read ID3 Tag</text>
</g>
<!-- decodeid3size&#45;&gt;readid3tag -->
<g id="edge3" class="edge">
<title>decodeid3size&#45;&gt;readid3tag</title>
<path fill="none" stroke="#000000" d="M230.5,-380.9432C230.5,-372.8174 230.5,-363.1682 230.5,-354.2408"/>
<polygon fill="#000000" stroke="#000000" points="234.0001,-354.2268 230.5,-344.2269 227.0001,-354.2269 234.0001,-354.2268"/>
</g>
<!-- readmp3header -->
<g id="node5" class="node">
<title>readmp3header</title>
<polygon fill="none" stroke="#000000" points="330,-271 131,-271 131,-235 330,-235 330,-271"/>
<text text-anchor="middle" x="230.5" y="-249.3" font-family="Times,serif" font-size="14.00" fill="#000000">Read MP3 Frame Header</text>
</g>
<!-- readid3tag&#45;&gt;readmp3header -->
<g id="edge4" class="edge">
<title>readid3tag&#45;&gt;readmp3header</title>
<path fill="none" stroke="#000000" d="M230.5,-307.9551C230.5,-299.8828 230.5,-290.1764 230.5,-281.1817"/>
<polygon fill="#000000" stroke="#000000" points="234.0001,-281.0903 230.5,-271.0904 227.0001,-281.0904 234.0001,-281.0903"/>
</g>
<!-- analyzeheader -->
<g id="node6" class="node">
<title>analyzeheader</title>
<polygon fill="none" stroke="#000000" points="219,-184 0,-184 0,-148 219,-148 219,-184"/>
<text text-anchor="middle" x="109.5" y="-162.3" font-family="Times,serif" font-size="14.00" fill="#000000">Analyze MP3 Frame Header</text>
</g>
<!-- readmp3header&#45;&gt;analyzeheader -->
<g id="edge5" class="edge">
<title>readmp3header&#45;&gt;analyzeheader</title>
<path fill="none" stroke="#000000" d="M205.4287,-234.9735C187.258,-221.9086 162.5038,-204.1102 142.6932,-189.8662"/>
<polygon fill="#000000" stroke="#000000" points="144.7016,-186.9994 134.5392,-184.0034 140.6151,-192.6829 144.7016,-186.9994"/>
</g>
<!-- end -->
<g id="node9" class="node">
<title>end</title>
<ellipse fill="none" stroke="#000000" cx="266.5" cy="-166" rx="29.4969" ry="18"/>
<text text-anchor="middle" x="266.5" y="-162.3" font-family="Times,serif" font-size="14.00" fill="#000000">End</text>
</g>
<!-- readmp3header&#45;&gt;end -->
<g id="edge9" class="edge">
<title>readmp3header&#45;&gt;end</title>
<path fill="none" stroke="#000000" d="M227.6862,-234.8685C226.892,-224.8128 227.2014,-212.2972 231.5,-202 233.6827,-196.7713 237.0134,-191.8769 240.7684,-187.4842"/>
<polygon fill="#000000" stroke="#000000" points="243.4118,-189.7851 247.8294,-180.1552 238.3707,-184.9284 243.4118,-189.7851"/>
<text text-anchor="middle" x="288" y="-205.8" font-family="Times,serif" font-size="14.00" fill="#000000">No further data</text>
</g>
<!-- readmp3frame -->
<g id="node7" class="node">
<title>readmp3frame</title>
<polygon fill="none" stroke="#000000" points="284,-111 143,-111 143,-75 284,-75 284,-111"/>
<text text-anchor="middle" x="213.5" y="-89.3" font-family="Times,serif" font-size="14.00" fill="#000000">Read MP3 Frame</text>
</g>
<!-- analyzeheader&#45;&gt;readmp3frame -->
<g id="edge6" class="edge">
<title>analyzeheader&#45;&gt;readmp3frame</title>
<path fill="none" stroke="#000000" d="M135.2079,-147.9551C148.583,-138.5667 165.1075,-126.9678 179.5232,-116.8491"/>
<polygon fill="#000000" stroke="#000000" points="181.5533,-119.7003 187.7274,-111.0904 177.5317,-113.9709 181.5533,-119.7003"/>
</g>
<!-- savemp3frame -->
<g id="node8" class="node">
<title>savemp3frame</title>
<polygon fill="none" stroke="#000000" points="357.5,-38 213.5,-38 213.5,0 357.5,0 357.5,-38"/>
<text text-anchor="middle" x="285.5" y="-22.8" font-family="Times,serif" font-size="14.00" fill="#000000">Store MP3 Frame</text>
<text text-anchor="middle" x="285.5" y="-7.8" font-family="Times,serif" font-size="14.00" fill="#000000">in internal list</text>
</g>
<!-- readmp3frame&#45;&gt;savemp3frame -->
<g id="edge7" class="edge">
<title>readmp3frame&#45;&gt;savemp3frame</title>
<path fill="none" stroke="#000000" d="M231.2978,-74.7079C239.9257,-65.8403 250.4465,-55.0272 259.9155,-45.2952"/>
<polygon fill="#000000" stroke="#000000" points="262.4376,-47.722 266.9026,-38.114 257.4205,-42.8405 262.4376,-47.722"/>
</g>
<!-- savemp3frame&#45;&gt;readmp3header -->
<g id="edge8" class="edge">
<title>savemp3frame&#45;&gt;readmp3header</title>
<path fill="none" stroke="#000000" d="M301.2193,-38.0484C330.2571,-75.6695 385.7399,-160.7296 344.5,-217 340.6034,-222.3168 331.6221,-227.2114 320.3192,-231.5662"/>
<polygon fill="#000000" stroke="#000000" points="319.0633,-228.2979 310.8095,-234.9406 321.4043,-234.8949 319.0633,-228.2979"/>
</g>
</g>
</svg>
