<?xml version="1.0" encoding="UTF-8" standalone="no"?>
<!DOCTYPE svg PUBLIC "-//W3C//DTD SVG 1.1//EN"
 "http://www.w3.org/Graphics/SVG/1.1/DTD/svg11.dtd">
<!-- Generated by graphviz version 2.44.0 (0)
 -->
<!-- Title: hierarchy Pages: 1 -->
<svg width="360pt" height="437pt"
 viewBox="0.00 0.00 360.00 437.29" xmlns="http://www.w3.org/2000/svg" xmlns:xlink="http://www.w3.org/1999/xlink">
<g id="graph0" class="graph" transform="scale(0.73 0.73) rotate(0) translate(4 597)">
<title>hierarchy</title>
<polygon fill="white" stroke="transparent" points="-4,4 -4,-597 490.78,-597 490.78,4 -4,4"/>
<!-- start -->
<g id="node1" class="node">
<title>start</title>
<ellipse fill="none" stroke="black" cx="353.5" cy="-575" rx="34.39" ry="18"/>
<text text-anchor="middle" x="353.5" y="-571.3" font-family="Times,serif" font-size="14.00">Start</text>
</g>
<!-- hasalbumid -->
<g id="node2" class="node">
<title>hasalbumid</title>
<polygon fill="none" stroke="black" points="353.5,-520 220.44,-502 353.5,-484 486.56,-502 353.5,-520"/>
<text text-anchor="middle" x="353.5" y="-498.3" font-family="Times,serif" font-size="14.00">albumid == None</text>
</g>
<!-- start&#45;&gt;hasalbumid -->
<g id="edge1" class="edge">
<title>start&#45;&gt;hasalbumid</title>
<path fill="none" stroke="black" d="M353.5,-556.81C353.5,-548.79 353.5,-539.05 353.5,-530.07"/>
<polygon fill="black" stroke="black" points="357,-530.03 353.5,-520.03 350,-530.03 357,-530.03"/>
</g>
<!-- getallalbums -->
<g id="node3" class="node">
<title>getallalbums</title>
<polygon fill="none" stroke="black" points="375,-433 232,-433 232,-397 375,-397 375,-433"/>
<text text-anchor="middle" x="303.5" y="-411.3" font-family="Times,serif" font-size="14.00">Get all Album IDs</text>
</g>
<!-- hasalbumid&#45;&gt;getallalbums -->
<g id="edge3" class="edge">
<title>hasalbumid&#45;&gt;getallalbums</title>
<path fill="none" stroke="black" d="M344.1,-485.01C336.95,-472.86 326.97,-455.9 318.69,-441.83"/>
<polygon fill="black" stroke="black" points="321.64,-439.93 313.55,-433.08 315.6,-443.48 321.64,-439.93"/>
<text text-anchor="middle" x="344" y="-454.8" font-family="Times,serif" font-size="14.00">Yes</text>
</g>
<!-- getallsongs -->
<g id="node7" class="node">
<title>getallsongs</title>
<polygon fill="none" stroke="black" points="478.5,-109 230.5,-109 230.5,-73 478.5,-73 478.5,-109"/>
<text text-anchor="middle" x="354.5" y="-87.3" font-family="Times,serif" font-size="14.00">Get all songs of selected albums</text>
</g>
<!-- hasalbumid&#45;&gt;getallsongs -->
<g id="edge2" class="edge">
<title>hasalbumid&#45;&gt;getallsongs</title>
<path fill="none" stroke="black" d="M369.05,-485.96C383.72,-470.08 403.5,-443.56 403.5,-416 403.5,-416 403.5,-416 403.5,-164 403.5,-146.09 393.01,-129.35 381.74,-116.52"/>
<polygon fill="black" stroke="black" points="384.12,-113.94 374.71,-109.06 379.03,-118.74 384.12,-113.94"/>
<text text-anchor="middle" x="414" y="-292.8" font-family="Times,serif" font-size="14.00">No</text>
</g>
<!-- getalltags -->
<g id="node4" class="node">
<title>getalltags</title>
<polygon fill="none" stroke="black" points="359.5,-360 213.5,-360 213.5,-322 359.5,-322 359.5,-360"/>
<text text-anchor="middle" x="286.5" y="-344.8" font-family="Times,serif" font-size="14.00">Get list of Tag IDs</text>
<text text-anchor="middle" x="286.5" y="-329.8" font-family="Times,serif" font-size="14.00">from filterlist</text>
</g>
<!-- getallalbums&#45;&gt;getalltags -->
<g id="edge4" class="edge">
<title>getallalbums&#45;&gt;getalltags</title>
<path fill="none" stroke="black" d="M299.47,-396.94C297.57,-388.9 295.26,-379.1 293.12,-370.02"/>
<polygon fill="black" stroke="black" points="296.5,-369.13 290.8,-360.2 289.69,-370.74 296.5,-369.13"/>
</g>
<!-- hasfilterlist -->
<g id="node5" class="node">
<title>hasfilterlist</title>
<polygon fill="none" stroke="black" points="236.5,-271 97.91,-253 236.5,-235 375.09,-253 236.5,-271"/>
<text text-anchor="middle" x="236.5" y="-249.3" font-family="Times,serif" font-size="14.00">Is there a filter list</text>
</g>
<!-- getalltags&#45;&gt;hasfilterlist -->
<g id="edge5" class="edge">
<title>getalltags&#45;&gt;hasfilterlist</title>
<path fill="none" stroke="black" d="M275.9,-321.76C268.63,-309.26 258.9,-292.53 250.93,-278.82"/>
<polygon fill="black" stroke="black" points="253.8,-276.78 245.74,-269.9 247.74,-280.3 253.8,-276.78"/>
</g>
<!-- removealbums -->
<g id="node6" class="node">
<title>removealbums</title>
<polygon fill="none" stroke="black" points="189,-184 0,-184 0,-146 189,-146 189,-184"/>
<text text-anchor="middle" x="94.5" y="-168.8" font-family="Times,serif" font-size="14.00">Remove albums without</text>
<text text-anchor="middle" x="94.5" y="-153.8" font-family="Times,serif" font-size="14.00">tags of filter</text>
</g>
<!-- hasfilterlist&#45;&gt;removealbums -->
<g id="edge6" class="edge">
<title>hasfilterlist&#45;&gt;removealbums</title>
<path fill="none" stroke="black" d="M213.37,-237.99C191.65,-224.84 158.73,-204.9 133.04,-189.34"/>
<polygon fill="black" stroke="black" points="134.66,-186.23 124.29,-184.04 131.03,-192.22 134.66,-186.23"/>
<text text-anchor="middle" x="191" y="-205.8" font-family="Times,serif" font-size="14.00">Yes</text>
</g>
<!-- hasfilterlist&#45;&gt;getallsongs -->
<g id="edge7" class="edge">
<title>hasfilterlist&#45;&gt;getallsongs</title>
<path fill="none" stroke="black" d="M262.59,-238.35C282.79,-226.52 310.02,-207.6 326.5,-184 339.97,-164.71 347.09,-138.79 350.78,-119.37"/>
<polygon fill="black" stroke="black" points="354.26,-119.78 352.49,-109.34 347.36,-118.61 354.26,-119.78"/>
<text text-anchor="middle" x="354" y="-161.3" font-family="Times,serif" font-size="14.00">No</text>
</g>
<!-- removealbums&#45;&gt;removealbums -->
<g id="edge8" class="edge">
<title>removealbums&#45;&gt;removealbums</title>
<path fill="none" stroke="black" d="M189.29,-170.72C200.04,-169.65 207,-167.74 207,-165 207,-163.24 204.14,-161.83 199.26,-160.76"/>
<polygon fill="black" stroke="black" points="199.7,-157.28 189.29,-159.28 198.67,-164.21 199.7,-157.28"/>
<text text-anchor="middle" x="262.5" y="-161.3" font-family="Times,serif" font-size="14.00">For each album</text>
</g>
<!-- removealbums&#45;&gt;getallsongs -->
<g id="edge9" class="edge">
<title>removealbums&#45;&gt;getallsongs</title>
<path fill="none" stroke="black" d="M159.77,-145.92C197.19,-135.56 244.22,-122.54 282.69,-111.89"/>
<polygon fill="black" stroke="black" points="284.08,-115.13 292.78,-109.09 282.21,-108.39 284.08,-115.13"/>
</g>
<!-- selectsong -->
<g id="node8" class="node">
<title>selectsong</title>
<polygon fill="none" stroke="black" points="433.5,-36 275.5,-36 275.5,0 433.5,0 433.5,-36"/>
<text text-anchor="middle" x="354.5" y="-14.3" font-family="Times,serif" font-size="14.00">Select random song</text>
</g>
<!-- getallsongs&#45;&gt;selectsong -->
<g id="edge10" class="edge">
<title>getallsongs&#45;&gt;selectsong</title>
<path fill="none" stroke="black" d="M354.5,-72.81C354.5,-64.79 354.5,-55.05 354.5,-46.07"/>
<polygon fill="black" stroke="black" points="358,-46.03 354.5,-36.03 351,-46.03 358,-46.03"/>
</g>
</g>
</svg>
