<?xml version="1.0" encoding="UTF-8" standalone="no"?>
<!DOCTYPE svg PUBLIC "-//W3C//DTD SVG 1.1//EN"
 "http://www.w3.org/Graphics/SVG/1.1/DTD/svg11.dtd">
<!-- Generated by graphviz version 2.40.1 (20161225.0304)
 -->
<!-- Title: hierarchy Pages: 1 -->
<svg width="360pt" height="421pt"
 viewBox="0.00 0.00 360.00 421.48" xmlns="http://www.w3.org/2000/svg" xmlns:xlink="http://www.w3.org/1999/xlink">
<g id="graph0" class="graph" transform="scale(.7108 .7108) rotate(0) translate(4 589)">
<title>hierarchy</title>
<polygon fill="#ffffff" stroke="transparent" points="-4,4 -4,-589 502.5,-589 502.5,4 -4,4"/>
<!-- Text -->
<g id="node1" class="node">
<title>Text</title>
<polygon fill="#f2f2f2" stroke="#000000" points="245,-515.5 245,-584.5 299,-584.5 299,-515.5 245,-515.5"/>
<text text-anchor="middle" x="272" y="-569.3" font-family="Times,serif" font-size="14.00" fill="#000000">Text</text>
<polyline fill="none" stroke="#000000" points="245,-561.5 299,-561.5 "/>
<text text-anchor="middle" x="272" y="-546.3" font-family="Times,serif" font-size="14.00" fill="#000000"> </text>
<polyline fill="none" stroke="#000000" points="245,-538.5 299,-538.5 "/>
<text text-anchor="middle" x="272" y="-523.3" font-family="Times,serif" font-size="14.00" fill="#000000"> </text>
</g>
<!-- Frame -->
<g id="node2" class="node">
<title>Frame</title>
<polygon fill="#f2f2f2" stroke="#000000" points="100,-402 100,-471 182,-471 182,-402 100,-402"/>
<text text-anchor="middle" x="141" y="-455.8" font-family="Times,serif" font-size="14.00" fill="#000000">Frame</text>
<polyline fill="none" stroke="#000000" points="100,-448 182,-448 "/>
<text text-anchor="middle" x="141" y="-432.8" font-family="Times,serif" font-size="14.00" fill="#000000"> </text>
<polyline fill="none" stroke="#000000" points="100,-425 182,-425 "/>
<text text-anchor="start" x="108" y="-409.8" font-family="Times,serif" font-size="14.00" fill="#000000">+ Draw()</text>
</g>
<!-- Text&#45;&gt;Frame -->
<g id="edge1" class="edge">
<title>Text&#45;&gt;Frame</title>
<path fill="none" stroke="#000000" d="M237.204,-519.8523C219.9318,-504.8875 198.9782,-486.733 181.0412,-471.1922"/>
<polygon fill="none" stroke="#000000" points="235.007,-522.5797 244.8567,-526.4827 239.5907,-517.2892 235.007,-522.5797"/>
</g>
<!-- ButtonView -->
<g id="node4" class="node">
<title>ButtonView</title>
<polygon fill="#f2f2f2" stroke="#000000" points="179.5,-280.5 179.5,-349.5 280.5,-349.5 280.5,-280.5 179.5,-280.5"/>
<text text-anchor="middle" x="230" y="-334.3" font-family="Times,serif" font-size="14.00" fill="#000000">ButtonView</text>
<polyline fill="none" stroke="#000000" points="179.5,-326.5 280.5,-326.5 "/>
<text text-anchor="middle" x="230" y="-311.3" font-family="Times,serif" font-size="14.00" fill="#000000"> </text>
<polyline fill="none" stroke="#000000" points="179.5,-303.5 280.5,-303.5 "/>
<text text-anchor="start" x="187.5" y="-288.3" font-family="Times,serif" font-size="14.00" fill="#000000">+ Draw()</text>
</g>
<!-- Text&#45;&gt;ButtonView -->
<g id="edge4" class="edge">
<title>Text&#45;&gt;ButtonView</title>
<path fill="none" stroke="#000000" d="M256.9198,-505.6398C254.3233,-496.8843 251.8648,-487.7098 250,-479 240.5422,-434.8251 235.1517,-382.9299 232.4037,-349.5347"/>
<polygon fill="none" stroke="#000000" points="253.6047,-506.7676 259.8857,-515.2999 260.2964,-504.713 253.6047,-506.7676"/>
</g>
<!-- TextInput -->
<g id="node8" class="node">
<title>TextInput</title>
<polygon fill="#f2f2f2" stroke="#000000" points="258.5,-394.5 258.5,-478.5 369.5,-478.5 369.5,-394.5 258.5,-394.5"/>
<text text-anchor="middle" x="314" y="-463.3" font-family="Times,serif" font-size="14.00" fill="#000000">TextInput</text>
<polyline fill="none" stroke="#000000" points="258.5,-455.5 369.5,-455.5 "/>
<text text-anchor="middle" x="314" y="-440.3" font-family="Times,serif" font-size="14.00" fill="#000000"> </text>
<polyline fill="none" stroke="#000000" points="258.5,-432.5 369.5,-432.5 "/>
<text text-anchor="start" x="266.5" y="-417.3" font-family="Times,serif" font-size="14.00" fill="#000000">+ Draw()</text>
<text text-anchor="start" x="266.5" y="-402.3" font-family="Times,serif" font-size="14.00" fill="#000000">+ HandleKey</text>
</g>
<!-- Text&#45;&gt;TextInput -->
<g id="edge2" class="edge">
<title>Text&#45;&gt;TextInput</title>
<path fill="none" stroke="#000000" d="M288.349,-505.8189C291.6667,-496.853 295.1476,-487.4465 298.4372,-478.5566"/>
<polygon fill="none" stroke="#000000" points="285.0176,-504.7364 284.8296,-515.3295 291.5826,-507.1657 285.0176,-504.7364"/>
</g>
<!-- BoolInput -->
<g id="node10" class="node">
<title>BoolInput</title>
<polygon fill="#f2f2f2" stroke="#000000" points="387.5,-394.5 387.5,-478.5 498.5,-478.5 498.5,-394.5 387.5,-394.5"/>
<text text-anchor="middle" x="443" y="-463.3" font-family="Times,serif" font-size="14.00" fill="#000000">BoolInput</text>
<polyline fill="none" stroke="#000000" points="387.5,-455.5 498.5,-455.5 "/>
<text text-anchor="middle" x="443" y="-440.3" font-family="Times,serif" font-size="14.00" fill="#000000"> </text>
<polyline fill="none" stroke="#000000" points="387.5,-432.5 498.5,-432.5 "/>
<text text-anchor="start" x="395.5" y="-417.3" font-family="Times,serif" font-size="14.00" fill="#000000">+ Draw()</text>
<text text-anchor="start" x="395.5" y="-402.3" font-family="Times,serif" font-size="14.00" fill="#000000">+ HandleKey</text>
</g>
<!-- Text&#45;&gt;BoolInput -->
<g id="edge3" class="edge">
<title>Text&#45;&gt;BoolInput</title>
<path fill="none" stroke="#000000" d="M307.1624,-515.6048C307.4415,-515.4012 307.7207,-515.1995 308,-515 336.7892,-494.4346 348.4333,-496.8165 379,-479 381.7656,-477.388 384.5751,-475.7047 387.3961,-473.9777"/>
<polygon fill="none" stroke="#000000" points="304.8043,-513.0086 299.1657,-521.9784 309.1672,-518.4827 304.8043,-513.0086"/>
</g>
<!-- Pane -->
<g id="node3" class="node">
<title>Pane</title>
<polygon fill="#f2f2f2" stroke="#000000" points="79,-280.5 79,-349.5 161,-349.5 161,-280.5 79,-280.5"/>
<text text-anchor="middle" x="120" y="-334.3" font-family="Times,serif" font-size="14.00" fill="#000000">Pane</text>
<polyline fill="none" stroke="#000000" points="79,-326.5 161,-326.5 "/>
<text text-anchor="middle" x="120" y="-311.3" font-family="Times,serif" font-size="14.00" fill="#000000"> </text>
<polyline fill="none" stroke="#000000" points="79,-303.5 161,-303.5 "/>
<text text-anchor="start" x="87" y="-288.3" font-family="Times,serif" font-size="14.00" fill="#000000">+ Draw()</text>
</g>
<!-- Frame&#45;&gt;Pane -->
<g id="edge6" class="edge">
<title>Frame&#45;&gt;Pane</title>
<path fill="none" stroke="#000000" d="M133.2123,-391.4424C130.8354,-377.6904 128.2594,-362.7866 126.0186,-349.8221"/>
<polygon fill="none" stroke="#000000" points="129.8302,-392.4252 134.9822,-401.683 136.7279,-391.2329 129.8302,-392.4252"/>
</g>
<!-- ListView -->
<g id="node5" class="node">
<title>ListView</title>
<polygon fill="#f2f2f2" stroke="#000000" points="0,-121.5 0,-235.5 122,-235.5 122,-121.5 0,-121.5"/>
<text text-anchor="middle" x="61" y="-220.3" font-family="Times,serif" font-size="14.00" fill="#000000">ListView</text>
<polyline fill="none" stroke="#000000" points="0,-212.5 122,-212.5 "/>
<text text-anchor="middle" x="61" y="-197.3" font-family="Times,serif" font-size="14.00" fill="#000000"> </text>
<polyline fill="none" stroke="#000000" points="0,-189.5 122,-189.5 "/>
<text text-anchor="start" x="8" y="-174.3" font-family="Times,serif" font-size="14.00" fill="#000000">+ Draw()</text>
<text text-anchor="start" x="8" y="-159.3" font-family="Times,serif" font-size="14.00" fill="#000000">+ HandleKey()</text>
<text text-anchor="start" x="8" y="-144.3" font-family="Times,serif" font-size="14.00" fill="#000000"># onDraw()</text>
<text text-anchor="start" x="8" y="-129.3" font-family="Times,serif" font-size="14.00" fill="#000000"># onAction()</text>
</g>
<!-- Pane&#45;&gt;ListView -->
<g id="edge7" class="edge">
<title>Pane&#45;&gt;ListView</title>
<path fill="none" stroke="#000000" d="M100.9738,-270.9817C96.0892,-259.681 90.7645,-247.3618 85.6408,-235.5079"/>
<polygon fill="none" stroke="#000000" points="97.7788,-272.4115 104.9592,-280.2021 104.2042,-269.6342 97.7788,-272.4115"/>
</g>
<!-- Group -->
<g id="node11" class="node">
<title>Group</title>
<polygon fill="#f2f2f2" stroke="#000000" points="140.5,-160.5 140.5,-196.5 201.5,-196.5 201.5,-160.5 140.5,-160.5"/>
<text text-anchor="middle" x="171" y="-174.8" font-family="Times,serif" font-size="14.00" fill="#000000">Group</text>
</g>
<!-- Pane&#45;&gt;Group -->
<g id="edge8" class="edge">
<title>Pane&#45;&gt;Group</title>
<path fill="none" stroke="#000000" d="M136.509,-270.8141C145.9347,-245.5866 157.2398,-215.3287 164.2732,-196.504"/>
<polygon fill="none" stroke="#000000" points="133.2228,-269.6096 133.0014,-280.2021 139.7801,-272.0596 133.2228,-269.6096"/>
</g>
<!-- Dialog -->
<g id="node6" class="node">
<title>Dialog</title>
<polygon fill="#f2f2f2" stroke="#000000" points="82,-.5 82,-84.5 208,-84.5 208,-.5 82,-.5"/>
<text text-anchor="middle" x="145" y="-69.3" font-family="Times,serif" font-size="14.00" fill="#000000">Dialog</text>
<polyline fill="none" stroke="#000000" points="82,-61.5 208,-61.5 "/>
<text text-anchor="middle" x="145" y="-46.3" font-family="Times,serif" font-size="14.00" fill="#000000"> </text>
<polyline fill="none" stroke="#000000" points="82,-38.5 208,-38.5 "/>
<text text-anchor="start" x="90" y="-23.3" font-family="Times,serif" font-size="14.00" fill="#000000">/+ Draw()</text>
<text text-anchor="start" x="90" y="-8.3" font-family="Times,serif" font-size="14.00" fill="#000000">/+ HandleKey()</text>
</g>
<!-- ButtonView&#45;&gt;Dialog -->
<g id="edge10" class="edge">
<title>ButtonView&#45;&gt;Dialog</title>
<path fill="none" stroke="#000000" d="M232.6095,-270.1173C233.3134,-229.5896 230.1805,-169.1114 210,-121 204.5931,-108.1097 196.3333,-95.6996 187.4963,-84.7008"/>
<polygon fill="none" stroke="#000000" points="229.1078,-270.1387 232.3472,-280.2261 236.1055,-270.3203 229.1078,-270.1387"/>
</g>
<!-- ListView&#45;&gt;Dialog -->
<g id="edge9" class="edge">
<title>ListView&#45;&gt;Dialog</title>
<path fill="none" stroke="#000000" d="M101.7116,-112.586C107.5412,-103.1475 113.404,-93.6555 118.85,-84.8381"/>
<polygon fill="none" stroke="#000000" points="98.6573,-110.8707 96.3801,-121.2179 104.6129,-114.5492 98.6573,-110.8707"/>
</g>
<!-- TabGroup -->
<g id="node7" class="node">
<title>TabGroup</title>
<polygon fill="#f2f2f2" stroke="#000000" points="317,-515.5 317,-584.5 439,-584.5 439,-515.5 317,-515.5"/>
<text text-anchor="middle" x="378" y="-569.3" font-family="Times,serif" font-size="14.00" fill="#000000">TabGroup</text>
<polyline fill="none" stroke="#000000" points="317,-561.5 439,-561.5 "/>
<text text-anchor="middle" x="378" y="-546.3" font-family="Times,serif" font-size="14.00" fill="#000000"> </text>
<polyline fill="none" stroke="#000000" points="317,-538.5 439,-538.5 "/>
<text text-anchor="start" x="325" y="-523.3" font-family="Times,serif" font-size="14.00" fill="#000000">+ HandleKey()</text>
</g>
<!-- NoTextInput -->
<g id="node9" class="node">
<title>NoTextInput</title>
<polygon fill="#f2f2f2" stroke="#000000" points="299,-272.5 299,-357.5 415,-357.5 415,-272.5 299,-272.5"/>
<text text-anchor="middle" x="357" y="-342.3" font-family="Times,serif" font-size="14.00" fill="#000000">NoTextInput</text>
<polyline fill="none" stroke="#000000" points="299,-334.5 415,-334.5 "/>
<text text-anchor="middle" x="357" y="-319.3" font-family="Times,serif" font-size="14.00" fill="#000000"> </text>
<polyline fill="none" stroke="#000000" points="299,-311.5 415,-311.5 "/>
<text text-anchor="start" x="307" y="-280.3" font-family="Times,serif" font-size="14.00" fill="#000000">/+ HandleKey</text>
</g>
<!-- TextInput&#45;&gt;NoTextInput -->
<g id="edge5" class="edge">
<title>TextInput&#45;&gt;NoTextInput</title>
<path fill="none" stroke="#000000" d="M332.3073,-384.7711C335.4769,-375.8153 338.7411,-366.5919 341.8162,-357.9031"/>
<polygon fill="none" stroke="#000000" points="328.9556,-383.7514 328.9186,-394.3462 335.5545,-386.0869 328.9556,-383.7514"/>
</g>
</g>
</svg>
