<?xml version="1.0" encoding="UTF-8" standalone="no"?>
<!DOCTYPE svg PUBLIC "-//W3C//DTD SVG 1.1//EN"
 "http://www.w3.org/Graphics/SVG/1.1/DTD/svg11.dtd">
<!-- Generated by graphviz version 14.1.1 (0)
 -->
<!-- Title: hierarchy Pages: 1 -->
<svg width="360pt" height="324pt"
 viewBox="0.00 0.00 360.00 324.00" xmlns="http://www.w3.org/2000/svg" xmlns:xlink="http://www.w3.org/1999/xlink">
<g id="graph0" class="graph" transform="scale(0.707269 0.707269) rotate(0) translate(4 453.75)">
<title>hierarchy</title>
<polygon fill="white" stroke="none" points="-4,4 -4,-453.75 505,-453.75 505,4 -4,4"/>
<!-- start -->
<g id="node1" class="node">
<title>start</title>
<ellipse fill="none" stroke="black" cx="343" cy="-431.75" rx="37" ry="18"/>
<text xml:space="preserve" text-anchor="middle" x="343" y="-427.07" font-family="Times,serif" font-size="14.00">Start</text>
</g>
<!-- loadmp3 -->
<g id="node2" class="node">
<title>loadmp3</title>
<polygon fill="none" stroke="black" points="399.38,-376.75 286.62,-376.75 286.62,-340.75 399.38,-340.75 399.38,-376.75"/>
<text xml:space="preserve" text-anchor="middle" x="343" y="-354.07" font-family="Times,serif" font-size="14.00">Load mp3 file</text>
</g>
<!-- start&#45;&gt;loadmp3 -->
<g id="edge1" class="edge">
<title>start&#45;&gt;loadmp3</title>
<path fill="none" stroke="black" d="M343,-413.56C343,-405.98 343,-396.85 343,-388.29"/>
<polygon fill="black" stroke="black" points="346.5,-388.29 343,-378.29 339.5,-388.29 346.5,-388.29"/>
</g>
<!-- getframe -->
<g id="node3" class="node">
<title>getframe</title>
<polygon fill="none" stroke="black" points="405,-303.75 281,-303.75 281,-267.75 405,-267.75 405,-303.75"/>
<text xml:space="preserve" text-anchor="middle" x="343" y="-281.07" font-family="Times,serif" font-size="14.00">Get next frame</text>
</g>
<!-- loadmp3&#45;&gt;getframe -->
<g id="edge2" class="edge">
<title>loadmp3&#45;&gt;getframe</title>
<path fill="none" stroke="black" d="M343,-340.56C343,-332.98 343,-323.85 343,-315.29"/>
<polygon fill="black" stroke="black" points="346.5,-315.29 343,-305.29 339.5,-315.29 346.5,-315.29"/>
</g>
<!-- ismuted -->
<g id="node4" class="node">
<title>ismuted</title>
<polygon fill="none" stroke="black" points="147,-214.5 5.39,-196.5 147,-178.5 288.61,-196.5 147,-214.5"/>
<text xml:space="preserve" text-anchor="middle" x="147" y="-191.82" font-family="Times,serif" font-size="14.00">state == muted ?</text>
</g>
<!-- getframe&#45;&gt;ismuted -->
<g id="edge3" class="edge">
<title>getframe&#45;&gt;ismuted</title>
<path fill="none" stroke="black" d="M280.6,-273.04C258.91,-267.62 234.87,-260.04 214.25,-249.75 198.86,-242.07 183.57,-230.58 171.46,-220.32"/>
<polygon fill="black" stroke="black" points="173.85,-217.76 164.02,-213.81 169.24,-223.03 173.85,-217.76"/>
<text xml:space="preserve" text-anchor="middle" x="271.62" y="-236.45" font-family="Times,serif" font-size="14.00">Frame available</text>
</g>
<!-- end -->
<g id="node9" class="node">
<title>end</title>
<ellipse fill="none" stroke="black" cx="241" cy="-18" rx="86.98" ry="18"/>
<text xml:space="preserve" text-anchor="middle" x="241" y="-13.32" font-family="Times,serif" font-size="14.00">Stop generator</text>
</g>
<!-- getframe&#45;&gt;end -->
<g id="edge10" class="edge">
<title>getframe&#45;&gt;end</title>
<path fill="none" stroke="black" d="M343.21,-267.42C343.21,-232.89 341.15,-153.32 324,-89.25 319.55,-72.63 319.82,-66.5 308,-54 302.91,-48.62 296.81,-43.91 290.39,-39.84"/>
<polygon fill="black" stroke="black" points="292.55,-37.05 282.14,-35.08 289.05,-43.11 292.55,-37.05"/>
<text xml:space="preserve" text-anchor="middle" x="401.75" y="-147.2" font-family="Times,serif" font-size="14.00">No further frames</text>
</g>
<!-- streamsilence -->
<g id="node5" class="node">
<title>streamsilence</title>
<polygon fill="none" stroke="black" points="181.25,-125.25 58.75,-125.25 58.75,-89.25 181.25,-89.25 181.25,-125.25"/>
<text xml:space="preserve" text-anchor="middle" x="120" y="-102.58" font-family="Times,serif" font-size="14.00">Stream silence</text>
</g>
<!-- ismuted&#45;&gt;streamsilence -->
<g id="edge4" class="edge">
<title>ismuted&#45;&gt;streamsilence</title>
<path fill="none" stroke="black" d="M141.79,-178.68C138.11,-166.76 133.07,-150.49 128.77,-136.59"/>
<polygon fill="black" stroke="black" points="132.12,-135.58 125.82,-127.06 125.43,-137.65 132.12,-135.58"/>
<text xml:space="preserve" text-anchor="middle" x="147.92" y="-147.2" font-family="Times,serif" font-size="14.00">Yes</text>
</g>
<!-- streamframe -->
<g id="node7" class="node">
<title>streamframe</title>
<polygon fill="none" stroke="black" points="314.5,-125.25 199.5,-125.25 199.5,-89.25 314.5,-89.25 314.5,-125.25"/>
<text xml:space="preserve" text-anchor="middle" x="257" y="-102.58" font-family="Times,serif" font-size="14.00">Stream frame</text>
</g>
<!-- ismuted&#45;&gt;streamframe -->
<g id="edge5" class="edge">
<title>ismuted&#45;&gt;streamframe</title>
<path fill="none" stroke="black" d="M165.66,-180.7C182.28,-167.52 206.9,-147.99 226.4,-132.52"/>
<polygon fill="black" stroke="black" points="228.37,-135.42 234.03,-126.47 224.02,-129.94 228.37,-135.42"/>
<text xml:space="preserve" text-anchor="middle" x="221.98" y="-147.2" font-family="Times,serif" font-size="14.00">No</text>
</g>
<!-- yieldnextframe -->
<g id="node6" class="node">
<title>yieldnextframe</title>
<polygon fill="none" stroke="black" points="112,-36 0,-36 0,0 112,0 112,-36"/>
<text xml:space="preserve" text-anchor="middle" x="56" y="-13.32" font-family="Times,serif" font-size="14.00">Return frame</text>
</g>
<!-- streamsilence&#45;&gt;yieldnextframe -->
<g id="edge6" class="edge">
<title>streamsilence&#45;&gt;yieldnextframe</title>
<path fill="none" stroke="black" d="M107.36,-89.01C98.24,-76.58 85.77,-59.58 75.39,-45.44"/>
<polygon fill="black" stroke="black" points="78.25,-43.42 69.51,-37.42 72.61,-47.56 78.25,-43.42"/>
</g>
<!-- streamsilence&#45;&gt;end -->
<g id="edge11" class="edge">
<title>streamsilence&#45;&gt;end</title>
<path fill="none" stroke="black" d="M135.63,-88.96C145.99,-78.1 160.25,-64.27 174.5,-54 181.27,-49.12 188.8,-44.5 196.3,-40.31"/>
<polygon fill="black" stroke="black" points="197.94,-43.4 205.09,-35.59 194.62,-37.23 197.94,-43.4"/>
<text xml:space="preserve" text-anchor="middle" x="205.25" y="-57.95" font-family="Times,serif" font-size="14.00">On error</text>
</g>
<!-- yieldnextframe&#45;&gt;ismuted -->
<g id="edge8" class="edge">
<title>yieldnextframe&#45;&gt;ismuted</title>
<path fill="none" stroke="black" d="M49.93,-36.29C43.32,-58.27 35.47,-96.78 50,-125.25 61.7,-148.17 84.75,-165.34 105.45,-176.97"/>
<polygon fill="black" stroke="black" points="103.55,-179.93 114.03,-181.53 106.84,-173.75 103.55,-179.93"/>
</g>
<!-- yieldframe -->
<g id="node8" class="node">
<title>yieldframe</title>
<polygon fill="none" stroke="black" points="501,-36 389,-36 389,0 501,0 501,-36"/>
<text xml:space="preserve" text-anchor="middle" x="445" y="-13.32" font-family="Times,serif" font-size="14.00">Return frame</text>
</g>
<!-- streamframe&#45;&gt;yieldframe -->
<g id="edge7" class="edge">
<title>streamframe&#45;&gt;yieldframe</title>
<path fill="none" stroke="black" d="M294.59,-88.8C324.05,-75.13 365.24,-56.02 397.07,-41.25"/>
<polygon fill="black" stroke="black" points="398.5,-44.44 406.1,-37.05 395.56,-38.09 398.5,-44.44"/>
</g>
<!-- streamframe&#45;&gt;end -->
<g id="edge12" class="edge">
<title>streamframe&#45;&gt;end</title>
<path fill="none" stroke="black" d="M248.33,-88.85C245.99,-83.35 243.77,-77.17 242.5,-71.25 240.88,-63.68 240.17,-55.35 239.95,-47.61"/>
<polygon fill="black" stroke="black" points="243.45,-47.64 239.94,-37.64 236.45,-47.65 243.45,-47.64"/>
<text xml:space="preserve" text-anchor="middle" x="273.25" y="-57.95" font-family="Times,serif" font-size="14.00">On error</text>
</g>
<!-- yieldframe&#45;&gt;getframe -->
<g id="edge9" class="edge">
<title>yieldframe&#45;&gt;getframe</title>
<path fill="none" stroke="black" d="M454.92,-36.22C469.27,-63.56 492.22,-118.11 474,-160.5 455.32,-203.95 413.15,-239.35 381.67,-261.09"/>
<polygon fill="black" stroke="black" points="379.89,-258.07 373.54,-266.55 383.79,-263.88 379.89,-258.07"/>
</g>
</g>
</svg>
