<?xml version="1.0" encoding="UTF-8" standalone="no"?>
<!DOCTYPE svg PUBLIC "-//W3C//DTD SVG 1.1//EN"
 "http://www.w3.org/Graphics/SVG/1.1/DTD/svg11.dtd">
<!-- Generated by graphviz version 2.40.1 (20161225.0304)
 -->
<!-- Title: hierarchy Pages: 1 -->
<svg width="145pt" height="229pt"
 viewBox="0.00 0.00 145.00 229.00" xmlns="http://www.w3.org/2000/svg" xmlns:xlink="http://www.w3.org/1999/xlink">
<g id="graph0" class="graph" transform="scale(1 1) rotate(0) translate(4 225)">
<title>hierarchy</title>
<polygon fill="#ffffff" stroke="transparent" points="-4,4 -4,-225 141,-225 141,4 -4,4"/>
<!-- api -->
<g id="node1" class="node">
<title>api</title>
<polygon fill="#f2f2f2" stroke="#000000" points="10.5,-106.5 10.5,-220.5 126.5,-220.5 126.5,-106.5 10.5,-106.5"/>
<text text-anchor="middle" x="68.5" y="-205.3" font-family="Times,serif" font-size="14.00" fill="#000000">LycraCrawler</text>
<polyline fill="none" stroke="#000000" points="10.5,-197.5 126.5,-197.5 "/>
<text text-anchor="start" x="18.5" y="-182.3" font-family="Times,serif" font-size="14.00" fill="#000000"># name</text>
<text text-anchor="start" x="18.5" y="-167.3" font-family="Times,serif" font-size="14.00" fill="#000000"># version</text>
<text text-anchor="start" x="18.5" y="-152.3" font-family="Times,serif" font-size="14.00" fill="#000000"># db</text>
<polyline fill="none" stroke="#000000" points="10.5,-144.5 126.5,-144.5 "/>
<text text-anchor="start" x="18.5" y="-129.3" font-family="Times,serif" font-size="14.00" fill="#000000">+ Crawl</text>
<text text-anchor="start" x="18.5" y="-114.3" font-family="Times,serif" font-size="14.00" fill="#000000"># DoCrawl</text>
</g>
<!-- crawler -->
<g id="node2" class="node">
<title>crawler</title>
<polygon fill="#f2f2f2" stroke="#000000" points="0,-.5 0,-69.5 137,-69.5 137,-.5 0,-.5"/>
<text text-anchor="middle" x="68.5" y="-54.3" font-family="Times,serif" font-size="14.00" fill="#000000">ExampleCrawler</text>
<polyline fill="none" stroke="#000000" points="0,-46.5 137,-46.5 "/>
<text text-anchor="middle" x="68.5" y="-31.3" font-family="Times,serif" font-size="14.00" fill="#000000"> </text>
<polyline fill="none" stroke="#000000" points="0,-23.5 137,-23.5 "/>
<text text-anchor="start" x="8" y="-8.3" font-family="Times,serif" font-size="14.00" fill="#000000">/# DoCrawl</text>
</g>
<!-- api&#45;&gt;crawler -->
<g id="edge1" class="edge">
<title>api&#45;&gt;crawler</title>
<path fill="none" stroke="#000000" d="M68.5,-96.12C68.5,-87.021 68.5,-78.006 68.5,-69.807"/>
<polygon fill="none" stroke="#000000" points="65.0001,-96.3897 68.5,-106.3897 72.0001,-96.3897 65.0001,-96.3897"/>
</g>
</g>
</svg>
