<?xml version="1.0" encoding="UTF-8" standalone="no"?>
<!DOCTYPE svg PUBLIC "-//W3C//DTD SVG 1.1//EN"
 "http://www.w3.org/Graphics/SVG/1.1/DTD/svg11.dtd">
<!-- Generated by graphviz version 14.1.1 (0)
 -->
<!-- Title: hierarchy Pages: 1 -->
<svg width="430pt" height="576pt"
 viewBox="0.00 0.00 430.00 576.00" xmlns="http://www.w3.org/2000/svg" xmlns:xlink="http://www.w3.org/1999/xlink">
<g id="graph0" class="graph" transform="scale(0.793935 0.793935) rotate(0) translate(4 721.5)">
<title>hierarchy</title>
<polygon fill="white" stroke="none" points="-4,4 -4,-721.5 537.38,-721.5 537.38,4 -4,4"/>
<!-- wssp -->
<g id="node1" class="node">
<title>wssp</title>
<polygon fill="#f2f2f2" stroke="black" points="0,-641.25 0,-717 202,-717 202,-641.25 0,-641.25"/>
<text xml:space="preserve" text-anchor="middle" x="101" y="-699.7" font-family="Times,serif" font-size="14.00">WebSocketServerProtocol</text>
<polyline fill="none" stroke="black" points="0,-691.75 202,-691.75"/>
<text xml:space="preserve" text-anchor="middle" x="101" y="-674.45" font-family="Times,serif" font-size="14.00"> </text>
<polyline fill="none" stroke="black" points="0,-666.5 202,-666.5"/>
<text xml:space="preserve" text-anchor="middle" x="101" y="-649.2" font-family="Times,serif" font-size="14.00"> </text>
</g>
<!-- ws -->
<g id="node2" class="node">
<title>ws</title>
<polygon fill="#f2f2f2" stroke="blue" points="19.88,-459.5 19.88,-604.25 182.12,-604.25 182.12,-459.5 19.88,-459.5"/>
<text xml:space="preserve" text-anchor="middle" x="101" y="-586.95" font-family="Times,serif" font-size="14.00">WebSocket</text>
<polyline fill="none" stroke="blue" points="19.88,-579 182.12,-579"/>
<text xml:space="preserve" text-anchor="middle" x="101" y="-561.7" font-family="Times,serif" font-size="14.00"> </text>
<polyline fill="none" stroke="blue" points="19.88,-553.75 182.12,-553.75"/>
<text xml:space="preserve" text-anchor="start" x="27.88" y="-536.45" font-family="Times,serif" font-size="14.00">+ SendPacket()</text>
<text xml:space="preserve" text-anchor="start" x="27.88" y="-519.2" font-family="Times,serif" font-size="14.00">+ BroadcastPacket()</text>
<text xml:space="preserve" text-anchor="start" x="27.88" y="-501.95" font-family="Times,serif" font-size="14.00">/&#45; onOpen()</text>
<text xml:space="preserve" text-anchor="start" x="27.88" y="-484.7" font-family="Times,serif" font-size="14.00">/&#45; onClose()</text>
<text xml:space="preserve" text-anchor="start" x="27.88" y="-467.45" font-family="Times,serif" font-size="14.00">/&#45; onMessage()</text>
</g>
<!-- wssp&#45;&gt;ws -->
<g id="edge1" class="edge">
<title>wssp&#45;&gt;ws</title>
<path fill="none" stroke="black" d="M101,-629.66C101,-621.6 101,-613.1 101,-604.61"/>
<polygon fill="none" stroke="black" points="97.5,-629.58 101,-639.58 104.5,-629.58 97.5,-629.58"/>
</g>
<!-- mdbwsp -->
<g id="node4" class="node">
<title>mdbwsp</title>
<polygon fill="#f2f2f2" stroke="black" points="93.75,-346.75 93.75,-422.5 318.25,-422.5 318.25,-346.75 93.75,-346.75"/>
<text xml:space="preserve" text-anchor="middle" x="206" y="-405.2" font-family="Times,serif" font-size="14.00">MusicDBWebSocketProtoctol</text>
<polyline fill="none" stroke="black" points="93.75,-397.25 318.25,-397.25"/>
<text xml:space="preserve" text-anchor="middle" x="206" y="-379.95" font-family="Times,serif" font-size="14.00"> </text>
<polyline fill="none" stroke="black" points="93.75,-372 318.25,-372"/>
<text xml:space="preserve" text-anchor="middle" x="206" y="-354.7" font-family="Times,serif" font-size="14.00"> </text>
</g>
<!-- ws&#45;&gt;mdbwsp -->
<g id="edge2" class="edge">
<title>ws&#45;&gt;mdbwsp</title>
<path fill="none" stroke="black" d="M159.48,-449.98C166.33,-440.5 173.05,-431.21 179.15,-422.77"/>
<polygon fill="none" stroke="black" points="156.79,-447.72 153.77,-457.87 162.47,-451.82 156.79,-447.72"/>
</g>
<!-- mdbwsi -->
<g id="node3" class="node">
<title>mdbwsi</title>
<polygon fill="#f2f2f2" stroke="red" points="200.12,-459.5 200.12,-604.25 423.88,-604.25 423.88,-459.5 200.12,-459.5"/>
<text xml:space="preserve" text-anchor="middle" x="312" y="-586.95" font-family="Times,serif" font-size="14.00">MusicDBWebSocketInterface</text>
<polyline fill="none" stroke="red" points="200.12,-579 423.88,-579"/>
<text xml:space="preserve" text-anchor="middle" x="312" y="-561.7" font-family="Times,serif" font-size="14.00"> </text>
<polyline fill="none" stroke="red" points="200.12,-553.75 423.88,-553.75"/>
<text xml:space="preserve" text-anchor="start" x="208.12" y="-536.45" font-family="Times,serif" font-size="14.00"># onWSConnect()</text>
<text xml:space="preserve" text-anchor="start" x="208.12" y="-519.2" font-family="Times,serif" font-size="14.00"># onWSDisconnect()</text>
<text xml:space="preserve" text-anchor="start" x="208.12" y="-501.95" font-family="Times,serif" font-size="14.00"># onCall()</text>
<text xml:space="preserve" text-anchor="start" x="208.12" y="-484.7" font-family="Times,serif" font-size="14.00">&#45; onStreamEvent()</text>
<text xml:space="preserve" text-anchor="start" x="208.12" y="-467.45" font-family="Times,serif" font-size="14.00">&#45; onQueueEvent</text>
</g>
<!-- mdbwsi&#45;&gt;mdbwsp -->
<g id="edge3" class="edge">
<title>mdbwsi&#45;&gt;mdbwsp</title>
<path fill="none" stroke="black" d="M252.96,-449.98C246.05,-440.5 239.27,-431.21 233.11,-422.77"/>
<polygon fill="none" stroke="black" points="250.01,-451.86 258.73,-457.88 255.66,-447.74 250.01,-451.86"/>
</g>
<!-- mdbwsf -->
<g id="node6" class="node">
<title>mdbwsf</title>
<polygon fill="#f2f2f2" stroke="black" points="213.38,-182.25 213.38,-309.75 426.62,-309.75 426.62,-182.25 213.38,-182.25"/>
<text xml:space="preserve" text-anchor="middle" x="320" y="-292.45" font-family="Times,serif" font-size="14.00">MusicDBWebSocketFactory</text>
<polyline fill="none" stroke="black" points="213.38,-284.5 426.62,-284.5"/>
<text xml:space="preserve" text-anchor="start" x="221.38" y="-267.2" font-family="Times,serif" font-size="14.00">&#45; clients</text>
<polyline fill="none" stroke="black" points="213.38,-259.25 426.62,-259.25"/>
<text xml:space="preserve" text-anchor="start" x="221.38" y="-241.95" font-family="Times,serif" font-size="14.00">+ AddToBroadcast()</text>
<text xml:space="preserve" text-anchor="start" x="221.38" y="-224.7" font-family="Times,serif" font-size="14.00">+ RemoveFromBroadcast()</text>
<text xml:space="preserve" text-anchor="start" x="221.38" y="-207.45" font-family="Times,serif" font-size="14.00">+ BroadcastPacket()</text>
<text xml:space="preserve" text-anchor="start" x="221.38" y="-190.2" font-family="Times,serif" font-size="14.00">+ CloseConnections()</text>
</g>
<!-- mdbwsp&#45;&gt;mdbwsf -->
<g id="edge5" class="edge">
<title>mdbwsp&#45;&gt;mdbwsf</title>
<path fill="none" stroke="black" stroke-dasharray="1,5" d="M244.14,-337.91C251.61,-328.97 259.56,-319.44 267.4,-310.04"/>
<polygon fill="black" stroke="black" points="237.93,-345.36 240.88,-334.79 240.35,-342.45 244.34,-337.68 244.34,-337.68 244.34,-337.68 240.35,-342.45 247.79,-340.56 237.93,-345.36"/>
</g>
<!-- wssf -->
<g id="node5" class="node">
<title>wssf</title>
<polygon fill="#f2f2f2" stroke="black" points="336.62,-346.75 336.62,-422.5 533.38,-422.5 533.38,-346.75 336.62,-346.75"/>
<text xml:space="preserve" text-anchor="middle" x="435" y="-405.2" font-family="Times,serif" font-size="14.00">WebSocketServerFactory</text>
<polyline fill="none" stroke="black" points="336.62,-397.25 533.38,-397.25"/>
<text xml:space="preserve" text-anchor="middle" x="435" y="-379.95" font-family="Times,serif" font-size="14.00"> </text>
<polyline fill="none" stroke="black" points="336.62,-372 533.38,-372"/>
<text xml:space="preserve" text-anchor="middle" x="435" y="-354.7" font-family="Times,serif" font-size="14.00"> </text>
</g>
<!-- wssf&#45;&gt;mdbwsf -->
<g id="edge4" class="edge">
<title>wssf&#45;&gt;mdbwsf</title>
<path fill="none" stroke="black" d="M396.29,-337.64C388.83,-328.77 380.89,-319.34 373.06,-310.04"/>
<polygon fill="none" stroke="black" points="393.48,-339.74 402.6,-345.13 398.84,-335.23 393.48,-339.74"/>
</g>
<!-- mdbwss -->
<g id="node7" class="node">
<title>mdbwss</title>
<polygon fill="#f2f2f2" stroke="black" points="216.38,-0.5 216.38,-145.25 423.62,-145.25 423.62,-0.5 216.38,-0.5"/>
<text xml:space="preserve" text-anchor="middle" x="320" y="-127.95" font-family="Times,serif" font-size="14.00">MusicDBWebSocketServer</text>
<polyline fill="none" stroke="black" points="216.38,-120 423.62,-120"/>
<text xml:space="preserve" text-anchor="start" x="224.38" y="-102.7" font-family="Times,serif" font-size="14.00">&#45; factory</text>
<text xml:space="preserve" text-anchor="start" x="224.38" y="-85.45" font-family="Times,serif" font-size="14.00">&#45; factory.protocol</text>
<polyline fill="none" stroke="black" points="216.38,-77.5 423.62,-77.5"/>
<text xml:space="preserve" text-anchor="start" x="224.38" y="-60.2" font-family="Times,serif" font-size="14.00">+ Setup()</text>
<text xml:space="preserve" text-anchor="start" x="224.38" y="-42.95" font-family="Times,serif" font-size="14.00">+ Start()</text>
<text xml:space="preserve" text-anchor="start" x="224.38" y="-25.7" font-family="Times,serif" font-size="14.00">+ Stop()</text>
<text xml:space="preserve" text-anchor="start" x="224.38" y="-8.45" font-family="Times,serif" font-size="14.00">+ HandleEvents()</text>
</g>
<!-- mdbwsf&#45;&gt;mdbwss -->
<g id="edge6" class="edge">
<title>mdbwsf&#45;&gt;mdbwss</title>
<path fill="none" stroke="black" d="M320,-170.55C320,-162.24 320,-153.78 320,-145.51"/>
<polygon fill="black" stroke="black" points="320,-180.55 315.5,-170.55 320,-176.77 320,-170.55 320,-170.55 320,-170.55 320,-176.77 324.5,-170.55 320,-180.55"/>
</g>
</g>
</svg>
