<?xml version="1.0" encoding="UTF-8" standalone="no"?>
<!DOCTYPE svg PUBLIC "-//W3C//DTD SVG 1.1//EN"
 "http://www.w3.org/Graphics/SVG/1.1/DTD/svg11.dtd">
<!-- Generated by graphviz version 2.40.1 (20161225.0304)
 -->
<!-- Title: hierarchy Pages: 1 -->
<svg width="297pt" height="360pt"
 viewBox="0.00 0.00 296.58 360.00" xmlns="http://www.w3.org/2000/svg" xmlns:xlink="http://www.w3.org/1999/xlink">
<g id="graph0" class="graph" transform="scale(.5397 .5397) rotate(0) translate(4 663)">
<title>hierarchy</title>
<polygon fill="#ffffff" stroke="transparent" points="-4,4 -4,-663 545.5,-663 545.5,4 -4,4"/>
<!-- wssp -->
<g id="node1" class="node">
<title>wssp</title>
<polygon fill="#f2f2f2" stroke="#000000" points="0,-589.5 0,-658.5 205,-658.5 205,-589.5 0,-589.5"/>
<text text-anchor="middle" x="102.5" y="-643.3" font-family="Times,serif" font-size="14.00" fill="#000000">WebSocketServerProtocol</text>
<polyline fill="none" stroke="#000000" points="0,-635.5 205,-635.5 "/>
<text text-anchor="middle" x="102.5" y="-620.3" font-family="Times,serif" font-size="14.00" fill="#000000"> </text>
<polyline fill="none" stroke="#000000" points="0,-612.5 205,-612.5 "/>
<text text-anchor="middle" x="102.5" y="-597.3" font-family="Times,serif" font-size="14.00" fill="#000000"> </text>
</g>
<!-- ws -->
<g id="node2" class="node">
<title>ws</title>
<polygon fill="#f2f2f2" stroke="#0000ff" points="20,-423.5 20,-552.5 185,-552.5 185,-423.5 20,-423.5"/>
<text text-anchor="middle" x="102.5" y="-537.3" font-family="Times,serif" font-size="14.00" fill="#000000">WebSocket</text>
<polyline fill="none" stroke="#0000ff" points="20,-529.5 185,-529.5 "/>
<text text-anchor="middle" x="102.5" y="-514.3" font-family="Times,serif" font-size="14.00" fill="#000000"> </text>
<polyline fill="none" stroke="#0000ff" points="20,-506.5 185,-506.5 "/>
<text text-anchor="start" x="28" y="-491.3" font-family="Times,serif" font-size="14.00" fill="#000000">+ SendPacket()</text>
<text text-anchor="start" x="28" y="-476.3" font-family="Times,serif" font-size="14.00" fill="#000000">+ BroadcastPacket()</text>
<text text-anchor="start" x="28" y="-461.3" font-family="Times,serif" font-size="14.00" fill="#000000">/&#45; onOpen()</text>
<text text-anchor="start" x="28" y="-446.3" font-family="Times,serif" font-size="14.00" fill="#000000">/&#45; onClose()</text>
<text text-anchor="start" x="28" y="-431.3" font-family="Times,serif" font-size="14.00" fill="#000000">/&#45; onMessage()</text>
</g>
<!-- wssp&#45;&gt;ws -->
<g id="edge1" class="edge">
<title>wssp&#45;&gt;ws</title>
<path fill="none" stroke="#000000" d="M102.5,-579.2808C102.5,-570.7839 102.5,-561.7354 102.5,-552.7622"/>
<polygon fill="none" stroke="#000000" points="99.0001,-579.3295 102.5,-589.3296 106.0001,-579.3296 99.0001,-579.3295"/>
</g>
<!-- mdbwsp -->
<g id="node4" class="node">
<title>mdbwsp</title>
<polygon fill="#f2f2f2" stroke="#000000" points="95.5,-317.5 95.5,-386.5 323.5,-386.5 323.5,-317.5 95.5,-317.5"/>
<text text-anchor="middle" x="209.5" y="-371.3" font-family="Times,serif" font-size="14.00" fill="#000000">MusicDBWebSocketProtoctol</text>
<polyline fill="none" stroke="#000000" points="95.5,-363.5 323.5,-363.5 "/>
<text text-anchor="middle" x="209.5" y="-348.3" font-family="Times,serif" font-size="14.00" fill="#000000"> </text>
<polyline fill="none" stroke="#000000" points="95.5,-340.5 323.5,-340.5 "/>
<text text-anchor="middle" x="209.5" y="-325.3" font-family="Times,serif" font-size="14.00" fill="#000000"> </text>
</g>
<!-- ws&#45;&gt;mdbwsp -->
<g id="edge2" class="edge">
<title>ws&#45;&gt;mdbwsp</title>
<path fill="none" stroke="#000000" d="M159.7629,-415.2172C167.5682,-405.2964 175.2662,-395.5121 182.1879,-386.7145"/>
<polygon fill="none" stroke="#000000" points="156.9256,-413.1631 153.493,-423.1865 162.4271,-417.4914 156.9256,-413.1631"/>
</g>
<!-- mdbwsi -->
<g id="node3" class="node">
<title>mdbwsi</title>
<polygon fill="#f2f2f2" stroke="#ff0000" points="203.5,-431 203.5,-545 431.5,-545 431.5,-431 203.5,-431"/>
<text text-anchor="middle" x="317.5" y="-529.8" font-family="Times,serif" font-size="14.00" fill="#000000">MusicDBWebSocketInterface</text>
<polyline fill="none" stroke="#ff0000" points="203.5,-522 431.5,-522 "/>
<text text-anchor="middle" x="317.5" y="-506.8" font-family="Times,serif" font-size="14.00" fill="#000000"> </text>
<polyline fill="none" stroke="#ff0000" points="203.5,-499 431.5,-499 "/>
<text text-anchor="start" x="211.5" y="-483.8" font-family="Times,serif" font-size="14.00" fill="#000000"># onWSConnect()</text>
<text text-anchor="start" x="211.5" y="-468.8" font-family="Times,serif" font-size="14.00" fill="#000000"># onWSDisconnect()</text>
<text text-anchor="start" x="211.5" y="-453.8" font-family="Times,serif" font-size="14.00" fill="#000000"># onCall()</text>
<text text-anchor="start" x="211.5" y="-438.8" font-family="Times,serif" font-size="14.00" fill="#000000">&#45; onMPDEvent()</text>
</g>
<!-- mdbwsi&#45;&gt;mdbwsp -->
<g id="edge3" class="edge">
<title>mdbwsi&#45;&gt;mdbwsp</title>
<path fill="none" stroke="#000000" d="M265.5689,-422.6053C255.7242,-410.2082 245.7876,-397.6956 237.0707,-386.7186"/>
<polygon fill="none" stroke="#000000" points="263.0515,-425.0634 272.0113,-430.7179 268.5333,-420.7102 263.0515,-425.0634"/>
</g>
<!-- mdbwsf -->
<g id="node6" class="node">
<title>mdbwsf</title>
<polygon fill="#f2f2f2" stroke="#000000" points="217,-166.5 217,-280.5 434,-280.5 434,-166.5 217,-166.5"/>
<text text-anchor="middle" x="325.5" y="-265.3" font-family="Times,serif" font-size="14.00" fill="#000000">MusicDBWebSocketFactory</text>
<polyline fill="none" stroke="#000000" points="217,-257.5 434,-257.5 "/>
<text text-anchor="start" x="225" y="-242.3" font-family="Times,serif" font-size="14.00" fill="#000000">&#45; clients</text>
<polyline fill="none" stroke="#000000" points="217,-234.5 434,-234.5 "/>
<text text-anchor="start" x="225" y="-219.3" font-family="Times,serif" font-size="14.00" fill="#000000">+ AddToBroadcast()</text>
<text text-anchor="start" x="225" y="-204.3" font-family="Times,serif" font-size="14.00" fill="#000000">+ RemoveFromBroadcast()</text>
<text text-anchor="start" x="225" y="-189.3" font-family="Times,serif" font-size="14.00" fill="#000000">+ BroadcastPacket()</text>
<text text-anchor="start" x="225" y="-174.3" font-family="Times,serif" font-size="14.00" fill="#000000">+ CloseConnections()</text>
</g>
<!-- mdbwsp&#45;&gt;mdbwsf -->
<g id="edge5" class="edge">
<title>mdbwsp&#45;&gt;mdbwsf</title>
<path fill="none" stroke="#000000" stroke-dasharray="1,5" d="M247.7673,-309.6091C256.1494,-300.3237 265.1558,-290.3468 273.961,-280.5928"/>
<polygon fill="#000000" stroke="#000000" points="240.8913,-317.226 244.2518,-306.7878 244.2417,-313.5146 247.5921,-309.8031 247.5921,-309.8031 247.5921,-309.8031 244.2417,-313.5146 250.9324,-312.8185 240.8913,-317.226 240.8913,-317.226"/>
</g>
<!-- wssf -->
<g id="node5" class="node">
<title>wssf</title>
<polygon fill="#f2f2f2" stroke="#000000" points="341.5,-317.5 341.5,-386.5 541.5,-386.5 541.5,-317.5 341.5,-317.5"/>
<text text-anchor="middle" x="441.5" y="-371.3" font-family="Times,serif" font-size="14.00" fill="#000000">WebSocketServerFactory</text>
<polyline fill="none" stroke="#000000" points="341.5,-363.5 541.5,-363.5 "/>
<text text-anchor="middle" x="441.5" y="-348.3" font-family="Times,serif" font-size="14.00" fill="#000000"> </text>
<polyline fill="none" stroke="#000000" points="341.5,-340.5 541.5,-340.5 "/>
<text text-anchor="middle" x="441.5" y="-325.3" font-family="Times,serif" font-size="14.00" fill="#000000"> </text>
</g>
<!-- wssf&#45;&gt;mdbwsf -->
<g id="edge4" class="edge">
<title>wssf&#45;&gt;mdbwsf</title>
<path fill="none" stroke="#000000" d="M403.2327,-309.6091C394.8506,-300.3237 385.8442,-290.3468 377.039,-280.5928"/>
<polygon fill="none" stroke="#000000" points="400.8099,-312.1484 410.1087,-317.226 406.0059,-307.4578 400.8099,-312.1484"/>
</g>
<!-- mdbwss -->
<g id="node7" class="node">
<title>mdbwss</title>
<polygon fill="#f2f2f2" stroke="#000000" points="220.5,-.5 220.5,-129.5 430.5,-129.5 430.5,-.5 220.5,-.5"/>
<text text-anchor="middle" x="325.5" y="-114.3" font-family="Times,serif" font-size="14.00" fill="#000000">MusicDBWebSocketServer</text>
<polyline fill="none" stroke="#000000" points="220.5,-106.5 430.5,-106.5 "/>
<text text-anchor="start" x="228.5" y="-91.3" font-family="Times,serif" font-size="14.00" fill="#000000">&#45; factory</text>
<text text-anchor="start" x="228.5" y="-76.3" font-family="Times,serif" font-size="14.00" fill="#000000">&#45; factory.protocol</text>
<polyline fill="none" stroke="#000000" points="220.5,-68.5 430.5,-68.5 "/>
<text text-anchor="start" x="228.5" y="-53.3" font-family="Times,serif" font-size="14.00" fill="#000000">+ Setup()</text>
<text text-anchor="start" x="228.5" y="-38.3" font-family="Times,serif" font-size="14.00" fill="#000000">+ Start()</text>
<text text-anchor="start" x="228.5" y="-23.3" font-family="Times,serif" font-size="14.00" fill="#000000">+ Stop()</text>
<text text-anchor="start" x="228.5" y="-8.3" font-family="Times,serif" font-size="14.00" fill="#000000">+ HandleEvents()</text>
</g>
<!-- mdbwsf&#45;&gt;mdbwss -->
<g id="edge6" class="edge">
<title>mdbwsf&#45;&gt;mdbwss</title>
<path fill="none" stroke="#000000" d="M325.5,-156.1085C325.5,-147.3457 325.5,-138.385 325.5,-129.668"/>
<polygon fill="#000000" stroke="#000000" points="325.5,-166.2779 321.0001,-156.2778 325.5,-161.2779 325.5001,-156.2779 325.5001,-156.2779 325.5001,-156.2779 325.5,-161.2779 330.0001,-156.2779 325.5,-166.2779 325.5,-166.2779"/>
</g>
</g>
</svg>
