<?xml version="1.0" encoding="UTF-8" standalone="no"?>
<!DOCTYPE svg PUBLIC "-//W3C//DTD SVG 1.1//EN"
 "http://www.w3.org/Graphics/SVG/1.1/DTD/svg11.dtd">
<!-- Generated by graphviz version 14.1.1 (0)
 -->
<!-- Title: hierarchy Pages: 1 -->
<svg width="278pt" height="232pt"
 viewBox="0.00 0.00 278.00 232.00" xmlns="http://www.w3.org/2000/svg" xmlns:xlink="http://www.w3.org/1999/xlink">
<g id="graph0" class="graph" transform="scale(1 1) rotate(0) translate(4 228)">
<title>hierarchy</title>
<polygon fill="white" stroke="none" points="-4,4 -4,-228 274.25,-228 274.25,4 -4,4"/>
<!-- mdbmod -->
<g id="node1" class="node">
<title>mdbmod</title>
<polygon fill="#f2f2f2" stroke="black" points="2.25,-130.5 2.25,-223.5 268,-223.5 268,-130.5 2.25,-130.5"/>
<text xml:space="preserve" text-anchor="middle" x="135.12" y="-206.2" font-family="Times,serif" font-size="14.00">MDBModule</text>
<polyline fill="none" stroke="black" points="2.25,-198.25 268,-198.25"/>
<text xml:space="preserve" text-anchor="middle" x="135.12" y="-180.95" font-family="Times,serif" font-size="14.00"> </text>
<polyline fill="none" stroke="black" points="2.25,-173 268,-173"/>
<text xml:space="preserve" text-anchor="start" x="10.25" y="-155.7" font-family="Times,serif" font-size="14.00">+ MDBM_CreateArgumentParser()</text>
<text xml:space="preserve" text-anchor="start" x="10.25" y="-138.45" font-family="Times,serif" font-size="14.00">+ MDBM_Main()</text>
</g>
<!-- example -->
<g id="node2" class="node">
<title>example</title>
<polygon fill="#f2f2f2" stroke="black" points="0,-0.5 0,-93.5 270.25,-93.5 270.25,-0.5 0,-0.5"/>
<text xml:space="preserve" text-anchor="middle" x="135.12" y="-76.2" font-family="Times,serif" font-size="14.00">module</text>
<polyline fill="none" stroke="black" points="0,-68.25 270.25,-68.25"/>
<text xml:space="preserve" text-anchor="middle" x="135.12" y="-50.95" font-family="Times,serif" font-size="14.00"> </text>
<polyline fill="none" stroke="black" points="0,-43 270.25,-43"/>
<text xml:space="preserve" text-anchor="start" x="8" y="-25.7" font-family="Times,serif" font-size="14.00">/+ MDBM_CreateArgumentParser()</text>
<text xml:space="preserve" text-anchor="start" x="8" y="-8.45" font-family="Times,serif" font-size="14.00">/+ MDBM_Main()</text>
</g>
<!-- mdbmod&#45;&gt;example -->
<g id="edge1" class="edge">
<title>mdbmod&#45;&gt;example</title>
<path fill="none" stroke="black" d="M135.12,-118.91C135.12,-110.56 135.12,-102.05 135.12,-93.96"/>
<polygon fill="none" stroke="black" points="131.63,-118.64 135.13,-128.64 138.63,-118.64 131.63,-118.64"/>
</g>
</g>
</svg>
