<?xml version="1.0" encoding="UTF-8" standalone="no"?>
<!DOCTYPE svg PUBLIC "-//W3C//DTD SVG 1.1//EN"
 "http://www.w3.org/Graphics/SVG/1.1/DTD/svg11.dtd">
<!-- Generated by graphviz version 2.40.1 (20161225.0304)
 -->
<!-- Title: finite_state_machine Pages: 1 -->
<svg width="196pt" height="360pt"
 viewBox="0.00 0.00 196.03 360.00" xmlns="http://www.w3.org/2000/svg" xmlns:xlink="http://www.w3.org/1999/xlink">
<g id="graph0" class="graph" transform="scale(.2858 .2858) rotate(0) translate(4 1255.5127)">
<title>finite_state_machine</title>
<polygon fill="#ffffff" stroke="transparent" points="-4,4 -4,-1255.5127 681.8387,-1255.5127 681.8387,4 -4,4"/>
<!-- Listen_on_port -->
<g id="node1" class="node">
<title>Listen_on_port</title>
<ellipse fill="none" stroke="#000000" cx="434.5611" cy="-1210.7431" rx="36.5629" ry="36.5629"/>
<ellipse fill="none" stroke="#000000" cx="434.5611" cy="-1210.7431" rx="40.5404" ry="40.5404"/>
<text text-anchor="middle" x="434.5611" y="-1213.7431" font-family="Times,serif" font-size="10.00" fill="#000000">Listen</text>
<text text-anchor="middle" x="434.5611" y="-1202.7431" font-family="Times,serif" font-size="10.00" fill="#000000">on port</text>
</g>
<!-- __init__ -->
<g id="node3" class="node">
<title>__init__</title>
<ellipse fill="none" stroke="#0000ff" cx="312.5611" cy="-1087.7744" rx="31.3996" ry="31.3996"/>
<text text-anchor="middle" x="312.5611" y="-1085.2744" font-family="Times,serif" font-size="10.00" fill="#000000">__init__</text>
</g>
<!-- Listen_on_port&#45;&gt;__init__ -->
<g id="edge1" class="edge">
<title>Listen_on_port&#45;&gt;__init__</title>
<path fill="none" stroke="#000000" d="M405.6488,-1181.6012C386.4047,-1162.2043 361.2042,-1136.8038 341.8775,-1117.3236"/>
<polygon fill="#000000" stroke="#000000" points="344.3103,-1114.8063 334.7826,-1110.1724 339.341,-1119.7365 344.3103,-1114.8063"/>
<text text-anchor="middle" x="415.0611" y="-1140.7736" font-family="Times,serif" font-size="14.00" fill="#000000">access port</text>
</g>
<!-- CB__init__ -->
<g id="node2" class="node">
<title>CB__init__</title>
<ellipse fill="none" stroke="#ff0000" cx="497.5611" cy="-1087.7744" rx="31.3996" ry="31.3996"/>
<text text-anchor="middle" x="497.5611" y="-1085.2744" font-family="Times,serif" font-size="10.00" fill="#000000">__init__</text>
</g>
<!-- CB__init__&#45;&gt;__init__ -->
<g id="edge3" class="edge">
<title>CB__init__&#45;&gt;__init__</title>
<path fill="none" stroke="#000000" d="M466.354,-1086.1918C453.6783,-1085.6229 438.8907,-1085.0531 425.4947,-1084.7744 407.3354,-1084.3966 402.7867,-1084.3966 384.6274,-1084.7744 374.6851,-1084.9813 363.9762,-1085.3485 353.933,-1085.7566"/>
<polygon fill="#000000" stroke="#000000" points="353.6092,-1082.2672 343.7681,-1086.1918 353.9087,-1089.2608 353.6092,-1082.2672"/>
</g>
<!-- __init__&#45;&gt;CB__init__ -->
<g id="edge2" class="edge">
<title>__init__&#45;&gt;CB__init__</title>
<path fill="none" stroke="#000000" d="M343.9438,-1087.7744C374.8671,-1087.7744 422.2853,-1087.7744 456.2559,-1087.7744"/>
<polygon fill="#000000" stroke="#000000" points="456.3337,-1091.2745 466.3336,-1087.7744 456.3336,-1084.2745 456.3337,-1091.2745"/>
<text text-anchor="middle" x="405.0611" y="-1109.5744" font-family="Times,serif" font-size="14.00" fill="#000000">create derived</text>
<text text-anchor="middle" x="405.0611" y="-1094.5744" font-family="Times,serif" font-size="14.00" fill="#000000">class object</text>
</g>
<!-- Connecting -->
<g id="node4" class="node">
<title>Connecting</title>
<ellipse fill="none" stroke="#000000" cx="312.5611" cy="-977.1915" rx="42.2678" ry="42.2678"/>
<text text-anchor="middle" x="312.5611" y="-974.6915" font-family="Times,serif" font-size="10.00" fill="#000000">Connecting</text>
</g>
<!-- __init__&#45;&gt;Connecting -->
<g id="edge4" class="edge">
<title>__init__&#45;&gt;Connecting</title>
<path fill="none" stroke="#000000" d="M312.5611,-1056.3816C312.5611,-1048.1235 312.5611,-1038.9847 312.5611,-1029.937"/>
<polygon fill="#000000" stroke="#000000" points="316.0612,-1029.8123 312.5611,-1019.8123 309.0612,-1029.8123 316.0612,-1029.8123"/>
</g>
<!-- onOpen -->
<g id="node5" class="node">
<title>onOpen</title>
<ellipse fill="none" stroke="#0000ff" cx="150.5611" cy="-833.1828" rx="32.2534" ry="32.2534"/>
<text text-anchor="middle" x="150.5611" y="-830.6828" font-family="Times,serif" font-size="10.00" fill="#000000">onOpen</text>
</g>
<!-- Connecting&#45;&gt;onOpen -->
<g id="edge5" class="edge">
<title>Connecting&#45;&gt;onOpen</title>
<path fill="none" stroke="#000000" d="M280.5551,-948.7401C252.2349,-923.5651 211.1157,-887.0124 182.7427,-861.7905"/>
<polygon fill="#000000" stroke="#000000" points="184.8986,-859.024 175.0994,-854.996 180.2479,-864.2557 184.8986,-859.024"/>
<text text-anchor="middle" x="301.0611" y="-905.6078" font-family="Times,serif" font-size="14.00" fill="#000000">open Handshake</text>
</g>
<!-- onOpenHandshakeTimeout -->
<g id="node9" class="node">
<title>onOpenHandshakeTimeout</title>
<ellipse fill="none" stroke="#0000ff" cx="449.5611" cy="-672.7264" rx="91.6631" ry="91.6631"/>
<text text-anchor="middle" x="449.5611" y="-670.2264" font-family="Times,serif" font-size="10.00" fill="#000000">onOpenHandschakeTimeout</text>
</g>
<!-- Connecting&#45;&gt;onOpenHandshakeTimeout -->
<g id="edge6" class="edge">
<title>Connecting&#45;&gt;onOpenHandshakeTimeout</title>
<path fill="none" stroke="#000000" d="M350.7128,-958.5818C378.5458,-942.8016 414.4431,-917.376 432.5611,-883.8078 450.3182,-850.9081 456.6505,-810.8396 457.8327,-774.4887"/>
<polygon fill="#000000" stroke="#000000" points="461.3348,-774.4112 458.0348,-764.3435 454.3362,-774.2718 461.3348,-774.4112"/>
<text text-anchor="middle" x="447.5611" y="-905.6078" font-family="Times,serif" font-size="14.00" fill="#000000">timeout</text>
</g>
<!-- onWSConnect -->
<g id="node6" class="node">
<title>onWSConnect</title>
<ellipse fill="none" stroke="#ff0000" cx="372.5611" cy="-833.1828" rx="50.7503" ry="50.7503"/>
<text text-anchor="middle" x="372.5611" y="-830.6828" font-family="Times,serif" font-size="10.00" fill="#000000">onWSConnect</text>
</g>
<!-- onOpen&#45;&gt;onWSConnect -->
<g id="edge8" class="edge">
<title>onOpen&#45;&gt;onWSConnect</title>
<path fill="none" stroke="#000000" d="M183.3179,-833.1828C216.8969,-833.1828 269.9128,-833.1828 311.299,-833.1828"/>
<polygon fill="#000000" stroke="#000000" points="311.5515,-836.6829 321.5514,-833.1828 311.5514,-829.6829 311.5515,-836.6829"/>
<text text-anchor="middle" x="252.4368" y="-839.9828" font-family="Times,serif" font-size="14.00" fill="#000000">initialize handler</text>
</g>
<!-- Active -->
<g id="node10" class="node">
<title>Active</title>
<ellipse fill="none" stroke="#000000" cx="162.5611" cy="-518.3472" rx="44.5955" ry="44.5955"/>
<text text-anchor="middle" x="162.5611" y="-521.3472" font-family="Times,serif" font-size="10.00" fill="#000000">Autobahn</text>
<text text-anchor="middle" x="162.5611" y="-510.3472" font-family="Times,serif" font-size="10.00" fill="#000000">Magic</text>
</g>
<!-- onOpen&#45;&gt;Active -->
<g id="edge10" class="edge">
<title>onOpen&#45;&gt;Active</title>
<path fill="none" stroke="#000000" d="M151.8001,-800.6757C153.8492,-746.9139 157.9661,-638.9027 160.4714,-573.1715"/>
<polygon fill="#000000" stroke="#000000" points="163.9756,-573.126 160.8591,-562.9999 156.9807,-572.8593 163.9756,-573.126"/>
<text text-anchor="middle" x="238.0611" y="-669.0264" font-family="Times,serif" font-size="14.00" fill="#000000">successful handshake</text>
</g>
<!-- onWSConnect&#45;&gt;onOpen -->
<g id="edge9" class="edge">
<title>onWSConnect&#45;&gt;onOpen</title>
<path fill="none" stroke="#000000" d="M321.8308,-831.1333C294.4227,-830.2751 259.9944,-829.5975 229.2704,-830.1828 217.5325,-830.4064 204.8154,-830.8174 193.0959,-831.265"/>
<polygon fill="#000000" stroke="#000000" points="192.9559,-827.7677 183.1035,-831.664 193.2352,-834.7622 192.9559,-827.7677"/>
</g>
<!-- onClose -->
<g id="node7" class="node">
<title>onClose</title>
<ellipse fill="none" stroke="#0000ff" cx="449.5611" cy="-349.5219" rx="32.9303" ry="32.9303"/>
<text text-anchor="middle" x="449.5611" y="-347.0219" font-family="Times,serif" font-size="10.00" fill="#000000">onClose</text>
</g>
<!-- onClose&#45;&gt;Listen_on_port -->
<g id="edge21" class="edge">
<title>onClose&#45;&gt;Listen_on_port</title>
<path fill="none" stroke="#000000" d="M474.6478,-371.0383C506.2738,-400.7031 556.5611,-457.4471 556.5611,-518.3472 556.5611,-1087.7744 556.5611,-1087.7744 556.5611,-1087.7744 556.5611,-1132.6343 515.138,-1166.9669 480.5659,-1187.8092"/>
<polygon fill="#000000" stroke="#000000" points="478.3893,-1185.0255 471.4962,-1193.0714 481.9022,-1191.0802 478.3893,-1185.0255"/>
</g>
<!-- onWSDisconnect -->
<g id="node8" class="node">
<title>onWSDisconnect</title>
<ellipse fill="none" stroke="#ff0000" cx="619.5611" cy="-349.5219" rx="58.0561" ry="58.0561"/>
<text text-anchor="middle" x="619.5611" y="-347.0219" font-family="Times,serif" font-size="10.00" fill="#000000">onWSDisconnect</text>
</g>
<!-- onClose&#45;&gt;onWSDisconnect -->
<g id="edge19" class="edge">
<title>onClose&#45;&gt;onWSDisconnect</title>
<path fill="none" stroke="#000000" d="M482.7423,-349.5219C502.1017,-349.5219 527.2604,-349.5219 550.7152,-349.5219"/>
<polygon fill="#000000" stroke="#000000" points="550.9917,-353.022 560.9916,-349.5219 550.9916,-346.022 550.9917,-353.022"/>
<text text-anchor="middle" x="521.9048" y="-356.3219" font-family="Times,serif" font-size="14.00" fill="#000000">clean up</text>
</g>
<!-- onWSDisconnect&#45;&gt;onClose -->
<g id="edge20" class="edge">
<title>onWSDisconnect&#45;&gt;onClose</title>
<path fill="none" stroke="#000000" d="M561.2053,-346.7962C544.2932,-346.3165 525.8006,-346.091 508.7786,-346.5219 503.6365,-346.652 498.2456,-346.8457 492.8989,-347.0731"/>
<polygon fill="#000000" stroke="#000000" points="492.5757,-343.5842 482.7487,-347.5441 492.9003,-350.5767 492.5757,-343.5842"/>
</g>
<!-- onOpenHandshakeTimeout&#45;&gt;onClose -->
<g id="edge7" class="edge">
<title>onOpenHandshakeTimeout&#45;&gt;onClose</title>
<path fill="none" stroke="#000000" d="M449.5611,-580.5415C449.5611,-518.8325 449.5611,-440.45 449.5611,-392.684"/>
<polygon fill="#000000" stroke="#000000" points="453.0612,-392.6827 449.5611,-382.6827 446.0612,-392.6827 453.0612,-392.6827"/>
<text text-anchor="middle" x="468.0611" y="-514.6472" font-family="Times,serif" font-size="14.00" fill="#000000">close</text>
</g>
<!-- Active&#45;&gt;onClose -->
<g id="edge18" class="edge">
<title>Active&#45;&gt;onClose</title>
<path fill="none" stroke="#000000" d="M204.7348,-503.2669C231.0871,-492.5633 264.7888,-476.4406 290.5611,-455.7995 303.8885,-445.1255 301.5585,-436.867 314.5611,-425.7995 343.4765,-401.1873 381.5128,-380.5399 409.8402,-366.9604"/>
<polygon fill="#000000" stroke="#000000" points="411.4877,-370.0534 419.0476,-362.6306 408.5088,-363.7189 411.4877,-370.0534"/>
<text text-anchor="middle" x="375.0611" y="-437.0995" font-family="Times,serif" font-size="14.00" fill="#000000">close connection</text>
</g>
<!-- onMessage -->
<g id="node11" class="node">
<title>onMessage</title>
<ellipse fill="none" stroke="#0000ff" cx="84.5611" cy="-349.5219" rx="42.9448" ry="42.9448"/>
<text text-anchor="middle" x="84.5611" y="-347.0219" font-family="Times,serif" font-size="10.00" fill="#000000">onMessage</text>
</g>
<!-- Active&#45;&gt;onMessage -->
<g id="edge11" class="edge">
<title>Active&#45;&gt;onMessage</title>
<path fill="none" stroke="#000000" d="M120.9561,-501.2329C101.9493,-491.0562 81.3139,-476.1126 70.5611,-455.7995 61.4831,-438.6505 62.1218,-417.8418 66.0682,-399.1989"/>
<polygon fill="#000000" stroke="#000000" points="69.4908,-399.9373 68.4793,-389.3908 62.6932,-398.2662 69.4908,-399.9373"/>
<text text-anchor="middle" x="110.0611" y="-444.5995" font-family="Times,serif" font-size="14.00" fill="#000000">got data</text>
<text text-anchor="middle" x="110.0611" y="-429.5995" font-family="Times,serif" font-size="14.00" fill="#000000">from client</text>
</g>
<!-- onCall -->
<g id="node12" class="node">
<title>onCall</title>
<ellipse fill="none" stroke="#ff0000" cx="140.5611" cy="-196.9884" rx="28.0137" ry="28.0137"/>
<text text-anchor="middle" x="140.5611" y="-194.4884" font-family="Times,serif" font-size="10.00" fill="#000000">onCall</text>
</g>
<!-- onMessage&#45;&gt;onCall -->
<g id="edge12" class="edge">
<title>onMessage&#45;&gt;onCall</title>
<path fill="none" stroke="#000000" d="M99.421,-309.0462C108.0581,-285.5202 118.8526,-256.1181 127.2172,-233.3347"/>
<polygon fill="#000000" stroke="#000000" points="130.5952,-234.289 130.7561,-223.6954 124.024,-231.8765 130.5952,-234.289"/>
</g>
<!-- onCall&#45;&gt;Active -->
<g id="edge13" class="edge">
<title>onCall&#45;&gt;Active</title>
<path fill="none" stroke="#000000" d="M142.5201,-225.6039C146.1742,-278.9809 154.0858,-394.5469 158.802,-463.4379"/>
<polygon fill="#000000" stroke="#000000" points="155.3271,-463.9261 159.5021,-473.6637 162.3108,-463.4479 155.3271,-463.9261"/>
<text text-anchor="middle" x="198.0611" y="-345.8219" font-family="Times,serif" font-size="14.00" fill="#000000">no response</text>
</g>
<!-- SendPacket -->
<g id="node13" class="node">
<title>SendPacket</title>
<ellipse fill="none" stroke="#0000ff" cx="43.5611" cy="-58.8663" rx="43.6222" ry="43.6222"/>
<text text-anchor="middle" x="43.5611" y="-56.3663" font-family="Times,serif" font-size="10.00" fill="#000000">SendPacket</text>
</g>
<!-- onCall&#45;&gt;SendPacket -->
<g id="edge14" class="edge">
<title>onCall&#45;&gt;SendPacket</title>
<path fill="none" stroke="#000000" d="M115.96,-182.8637C103.6573,-174.7743 89.3448,-163.6629 79.5611,-150.7326 70.5752,-138.8568 63.5407,-124.4523 58.1686,-110.6061"/>
<polygon fill="#000000" stroke="#000000" points="61.4317,-109.3383 54.7114,-101.1475 54.8571,-111.7414 61.4317,-109.3383"/>
<text text-anchor="middle" x="112.0611" y="-139.5326" font-family="Times,serif" font-size="14.00" fill="#000000">response</text>
</g>
<!-- BroadcastPacket -->
<g id="node14" class="node">
<title>BroadcastPacket</title>
<ellipse fill="none" stroke="#0000ff" cx="165.5611" cy="-58.8663" rx="58.7329" ry="58.7329"/>
<text text-anchor="middle" x="165.5611" y="-56.3663" font-family="Times,serif" font-size="10.00" fill="#000000">BroadcastPacket</text>
</g>
<!-- onCall&#45;&gt;BroadcastPacket -->
<g id="edge15" class="edge">
<title>onCall&#45;&gt;BroadcastPacket</title>
<path fill="none" stroke="#000000" d="M145.6202,-169.0373C147.8228,-156.8683 150.51,-142.0219 153.1893,-127.2188"/>
<polygon fill="#000000" stroke="#000000" points="156.6998,-127.4744 155.0369,-117.0109 149.8117,-126.2276 156.6998,-127.4744"/>
<text text-anchor="middle" x="204.5611" y="-139.5326" font-family="Times,serif" font-size="14.00" fill="#000000">response to all</text>
</g>
<!-- SendPacket&#45;&gt;Active -->
<g id="edge16" class="edge">
<title>SendPacket&#45;&gt;Active</title>
<path fill="none" stroke="#000000" d="M34.5316,-101.6307C22.153,-168.303 4.4553,-300.5055 32.5611,-407.7995 38.7635,-431.4774 42.5444,-438.2056 59.5611,-455.7995 74.7476,-471.5012 94.6806,-484.7996 112.9618,-495.0432"/>
<polygon fill="#000000" stroke="#000000" points="111.3165,-498.1324 121.7755,-499.8236 114.654,-491.9792 111.3165,-498.1324"/>
<text text-anchor="middle" x="53.5611" y="-262.0442" font-family="Times,serif" font-size="14.00" fill="#000000">send data</text>
<text text-anchor="middle" x="53.5611" y="-247.0442" font-family="Times,serif" font-size="14.00" fill="#000000">to client</text>
</g>
<!-- BroadcastPacket&#45;&gt;Active -->
<g id="edge17" class="edge">
<title>BroadcastPacket&#45;&gt;Active</title>
<path fill="none" stroke="#000000" d="M217.2409,-87.1741C234.6384,-99.5948 252.0388,-115.9096 261.5611,-135.7326 264.4477,-141.7419 261.7682,-144.0691 261.5611,-150.7326 258.0038,-265.1503 285.1456,-300.3884 245.5611,-407.7995 235.8901,-434.0413 217.8254,-459.2989 201.0125,-479.0307"/>
<polygon fill="#000000" stroke="#000000" points="198.3539,-476.754 194.4058,-486.5858 203.6233,-481.362 198.3539,-476.754"/>
<text text-anchor="middle" x="311.0611" y="-262.0442" font-family="Times,serif" font-size="14.00" fill="#000000">send data</text>
<text text-anchor="middle" x="311.0611" y="-247.0442" font-family="Times,serif" font-size="14.00" fill="#000000">to all clients</text>
</g>
</g>
</svg>
