<?xml version="1.0" encoding="UTF-8" standalone="no"?>
<!DOCTYPE svg PUBLIC "-//W3C//DTD SVG 1.1//EN"
 "http://www.w3.org/Graphics/SVG/1.1/DTD/svg11.dtd">
<!-- Generated by graphviz version 2.40.1 (20161225.0304)
 -->
<!-- Title: hierarchy Pages: 1 -->
<svg width="281pt" height="214pt"
 viewBox="0.00 0.00 281.00 214.00" xmlns="http://www.w3.org/2000/svg" xmlns:xlink="http://www.w3.org/1999/xlink">
<g id="graph0" class="graph" transform="scale(1 1) rotate(0) translate(4 210)">
<title>hierarchy</title>
<polygon fill="#ffffff" stroke="transparent" points="-4,4 -4,-210 277,-210 277,4 -4,4"/>
<!-- mdbmod -->
<g id="node1" class="node">
<title>mdbmod</title>
<polygon fill="#f2f2f2" stroke="#000000" points="2,-121.5 2,-205.5 271,-205.5 271,-121.5 2,-121.5"/>
<text text-anchor="middle" x="136.5" y="-190.3" font-family="Times,serif" font-size="14.00" fill="#000000">MDBModule</text>
<polyline fill="none" stroke="#000000" points="2,-182.5 271,-182.5 "/>
<text text-anchor="middle" x="136.5" y="-167.3" font-family="Times,serif" font-size="14.00" fill="#000000"> </text>
<polyline fill="none" stroke="#000000" points="2,-159.5 271,-159.5 "/>
<text text-anchor="start" x="10" y="-144.3" font-family="Times,serif" font-size="14.00" fill="#000000">+ MDBM_CreateArgumentParser()</text>
<text text-anchor="start" x="10" y="-129.3" font-family="Times,serif" font-size="14.00" fill="#000000">+ MDBM_Main()</text>
</g>
<!-- example -->
<g id="node2" class="node">
<title>example</title>
<polygon fill="#f2f2f2" stroke="#000000" points="0,-.5 0,-84.5 273,-84.5 273,-.5 0,-.5"/>
<text text-anchor="middle" x="136.5" y="-69.3" font-family="Times,serif" font-size="14.00" fill="#000000">module</text>
<polyline fill="none" stroke="#000000" points="0,-61.5 273,-61.5 "/>
<text text-anchor="middle" x="136.5" y="-46.3" font-family="Times,serif" font-size="14.00" fill="#000000"> </text>
<polyline fill="none" stroke="#000000" points="0,-38.5 273,-38.5 "/>
<text text-anchor="start" x="8" y="-23.3" font-family="Times,serif" font-size="14.00" fill="#000000">/+ MDBM_CreateArgumentParser()</text>
<text text-anchor="start" x="8" y="-8.3" font-family="Times,serif" font-size="14.00" fill="#000000">/+ MDBM_Main()</text>
</g>
<!-- mdbmod&#45;&gt;example -->
<g id="edge1" class="edge">
<title>mdbmod&#45;&gt;example</title>
<path fill="none" stroke="#000000" d="M136.5,-110.977C136.5,-102.1562 136.5,-93.1052 136.5,-84.5917"/>
<polygon fill="none" stroke="#000000" points="133.0001,-111.18 136.5,-121.1801 140.0001,-111.1801 133.0001,-111.18"/>
</g>
</g>
</svg>
