<?xml version="1.0" encoding="UTF-8" standalone="no"?>
<!DOCTYPE svg PUBLIC "-//W3C//DTD SVG 1.1//EN"
 "http://www.w3.org/Graphics/SVG/1.1/DTD/svg11.dtd">
<!-- Generated by graphviz version 2.44.0 (0)
 -->
<!-- Title: hierarchy Pages: 1 -->
<svg width="360pt" height="564pt"
 viewBox="0.00 0.00 360.00 564.00" xmlns="http://www.w3.org/2000/svg" xmlns:xlink="http://www.w3.org/1999/xlink">
<g id="graph0" class="graph" transform="scale(0.98 0.98) rotate(0) translate(4 569)">
<title>hierarchy</title>
<polygon fill="white" stroke="transparent" points="-4,4 -4,-569 361.74,-569 361.74,4 -4,4"/>
<!-- start -->
<g id="node1" class="node">
<title>start</title>
<ellipse fill="none" stroke="black" cx="230" cy="-547" rx="34.39" ry="18"/>
<text text-anchor="middle" x="230" y="-543.3" font-family="Times,serif" font-size="14.00">Start</text>
</g>
<!-- readid3header -->
<g id="node2" class="node">
<title>readid3header</title>
<polygon fill="none" stroke="black" points="300,-492 160,-492 160,-456 300,-456 300,-492"/>
<text text-anchor="middle" x="230" y="-470.3" font-family="Times,serif" font-size="14.00">Read ID3 Header</text>
</g>
<!-- start&#45;&gt;readid3header -->
<g id="edge1" class="edge">
<title>start&#45;&gt;readid3header</title>
<path fill="none" stroke="black" d="M230,-528.81C230,-520.79 230,-511.05 230,-502.07"/>
<polygon fill="black" stroke="black" points="233.5,-502.03 230,-492.03 226.5,-502.03 233.5,-502.03"/>
</g>
<!-- decodeid3size -->
<g id="node3" class="node">
<title>decodeid3size</title>
<polygon fill="none" stroke="black" points="303.5,-419 156.5,-419 156.5,-381 303.5,-381 303.5,-419"/>
<text text-anchor="middle" x="230" y="-403.8" font-family="Times,serif" font-size="14.00">Decode the length</text>
<text text-anchor="middle" x="230" y="-388.8" font-family="Times,serif" font-size="14.00">of the ID3 Tag</text>
</g>
<!-- readid3header&#45;&gt;decodeid3size -->
<g id="edge2" class="edge">
<title>readid3header&#45;&gt;decodeid3size</title>
<path fill="none" stroke="black" d="M230,-455.94C230,-447.99 230,-438.31 230,-429.31"/>
<polygon fill="black" stroke="black" points="233.5,-429.2 230,-419.2 226.5,-429.2 233.5,-429.2"/>
</g>
<!-- readid3tag -->
<g id="node4" class="node">
<title>readid3tag</title>
<polygon fill="none" stroke="black" points="286.5,-344 173.5,-344 173.5,-308 286.5,-308 286.5,-344"/>
<text text-anchor="middle" x="230" y="-322.3" font-family="Times,serif" font-size="14.00">Read ID3 Tag</text>
</g>
<!-- decodeid3size&#45;&gt;readid3tag -->
<g id="edge3" class="edge">
<title>decodeid3size&#45;&gt;readid3tag</title>
<path fill="none" stroke="black" d="M230,-380.83C230,-372.89 230,-363.41 230,-354.63"/>
<polygon fill="black" stroke="black" points="233.5,-354.42 230,-344.42 226.5,-354.42 233.5,-354.42"/>
</g>
<!-- readmp3header -->
<g id="node5" class="node">
<title>readmp3header</title>
<polygon fill="none" stroke="black" points="329,-271 131,-271 131,-235 329,-235 329,-271"/>
<text text-anchor="middle" x="230" y="-249.3" font-family="Times,serif" font-size="14.00">Read MP3 Frame Header</text>
</g>
<!-- readid3tag&#45;&gt;readmp3header -->
<g id="edge4" class="edge">
<title>readid3tag&#45;&gt;readmp3header</title>
<path fill="none" stroke="black" d="M230,-307.81C230,-299.79 230,-290.05 230,-281.07"/>
<polygon fill="black" stroke="black" points="233.5,-281.03 230,-271.03 226.5,-281.03 233.5,-281.03"/>
</g>
<!-- analyzeheader -->
<g id="node6" class="node">
<title>analyzeheader</title>
<polygon fill="none" stroke="black" points="218,-184 0,-184 0,-148 218,-148 218,-184"/>
<text text-anchor="middle" x="109" y="-162.3" font-family="Times,serif" font-size="14.00">Analyze MP3 Frame Header</text>
</g>
<!-- readmp3header&#45;&gt;analyzeheader -->
<g id="edge5" class="edge">
<title>readmp3header&#45;&gt;analyzeheader</title>
<path fill="none" stroke="black" d="M205.51,-234.8C187.15,-221.9 161.81,-204.1 141.71,-189.98"/>
<polygon fill="black" stroke="black" points="143.64,-187.06 133.45,-184.18 139.62,-192.79 143.64,-187.06"/>
</g>
<!-- end -->
<g id="node9" class="node">
<title>end</title>
<ellipse fill="none" stroke="black" cx="265" cy="-166" rx="29.5" ry="18"/>
<text text-anchor="middle" x="265" y="-162.3" font-family="Times,serif" font-size="14.00">End</text>
</g>
<!-- readmp3header&#45;&gt;end -->
<g id="edge9" class="edge">
<title>readmp3header&#45;&gt;end</title>
<path fill="none" stroke="black" d="M227.29,-234.69C226.47,-224.76 226.72,-212.26 231,-202 233.16,-196.82 236.48,-191.98 240.22,-187.64"/>
<polygon fill="black" stroke="black" points="242.77,-190.04 247.22,-180.43 237.74,-185.17 242.77,-190.04"/>
<text text-anchor="middle" x="287" y="-205.8" font-family="Times,serif" font-size="14.00">No further data</text>
</g>
<!-- readmp3frame -->
<g id="node7" class="node">
<title>readmp3frame</title>
<polygon fill="none" stroke="black" points="282.5,-111 141.5,-111 141.5,-75 282.5,-75 282.5,-111"/>
<text text-anchor="middle" x="212" y="-89.3" font-family="Times,serif" font-size="14.00">Read MP3 Frame</text>
</g>
<!-- analyzeheader&#45;&gt;readmp3frame -->
<g id="edge6" class="edge">
<title>analyzeheader&#45;&gt;readmp3frame</title>
<path fill="none" stroke="black" d="M133.67,-147.99C147.2,-138.67 164.16,-126.97 178.84,-116.86"/>
<polygon fill="black" stroke="black" points="180.93,-119.67 187.17,-111.11 176.95,-113.91 180.93,-119.67"/>
</g>
<!-- savemp3frame -->
<g id="node8" class="node">
<title>savemp3frame</title>
<polygon fill="none" stroke="black" points="356,-38 212,-38 212,0 356,0 356,-38"/>
<text text-anchor="middle" x="284" y="-22.8" font-family="Times,serif" font-size="14.00">Store MP3 Frame</text>
<text text-anchor="middle" x="284" y="-7.8" font-family="Times,serif" font-size="14.00">in internal list</text>
</g>
<!-- readmp3frame&#45;&gt;savemp3frame -->
<g id="edge7" class="edge">
<title>readmp3frame&#45;&gt;savemp3frame</title>
<path fill="none" stroke="black" d="M229.06,-74.94C237.88,-66.12 248.81,-55.19 258.6,-45.4"/>
<polygon fill="black" stroke="black" points="261.2,-47.75 265.8,-38.2 256.25,-42.8 261.2,-47.75"/>
</g>
<!-- savemp3frame&#45;&gt;readmp3header -->
<g id="edge8" class="edge">
<title>savemp3frame&#45;&gt;readmp3header</title>
<path fill="none" stroke="black" d="M299.05,-38.11C327.88,-75.12 384.52,-160.67 343,-217 339.61,-221.6 335.62,-225.61 331.21,-229.11"/>
<polygon fill="black" stroke="black" points="329.09,-226.32 322.84,-234.87 333.06,-232.08 329.09,-226.32"/>
</g>
</g>
</svg>
