<?xml version="1.0" encoding="UTF-8" standalone="no"?>
<!DOCTYPE svg PUBLIC "-//W3C//DTD SVG 1.1//EN"
 "http://www.w3.org/Graphics/SVG/1.1/DTD/svg11.dtd">
<!-- Generated by graphviz version 2.46.0 (0)
 -->
<!-- Title: hierarchy Pages: 1 -->
<svg width="129pt" height="184pt"
 viewBox="0.00 0.00 129.00 184.00" xmlns="http://www.w3.org/2000/svg" xmlns:xlink="http://www.w3.org/1999/xlink">
<g id="graph0" class="graph" transform="scale(1 1) rotate(0) translate(4 180)">
<title>hierarchy</title>
<polygon fill="white" stroke="transparent" points="-4,4 -4,-180 125,-180 125,4 -4,4"/>
<!-- filesystem -->
<g id="node1" class="node">
<title>filesystem</title>
<polygon fill="#f2f2f2" stroke="black" points="13,-106.5 13,-175.5 108,-175.5 108,-106.5 13,-106.5"/>
<text text-anchor="middle" x="60.5" y="-160.3" font-family="Times,serif" font-size="14.00">Filesystem</text>
<polyline fill="none" stroke="black" points="13,-152.5 108,-152.5 "/>
<text text-anchor="middle" x="60.5" y="-137.3" font-family="Times,serif" font-size="14.00"> </text>
<polyline fill="none" stroke="black" points="13,-129.5 108,-129.5 "/>
<text text-anchor="middle" x="60.5" y="-114.3" font-family="Times,serif" font-size="14.00"> </text>
</g>
<!-- fileprocessing -->
<g id="node2" class="node">
<title>fileprocessing</title>
<polygon fill="#f2f2f2" stroke="black" points="0,-0.5 0,-69.5 121,-69.5 121,-0.5 0,-0.5"/>
<text text-anchor="middle" x="60.5" y="-54.3" font-family="Times,serif" font-size="14.00">Fileprocessing</text>
<polyline fill="none" stroke="black" points="0,-46.5 121,-46.5 "/>
<text text-anchor="middle" x="60.5" y="-31.3" font-family="Times,serif" font-size="14.00"> </text>
<polyline fill="none" stroke="black" points="0,-23.5 121,-23.5 "/>
<text text-anchor="middle" x="60.5" y="-8.3" font-family="Times,serif" font-size="14.00"> </text>
</g>
<!-- filesystem&#45;&gt;fileprocessing -->
<g id="edge1" class="edge">
<title>filesystem&#45;&gt;fileprocessing</title>
<path fill="none" stroke="black" d="M60.5,-96.05C60.5,-87.2 60.5,-78.03 60.5,-69.6"/>
<polygon fill="none" stroke="black" points="57,-96.23 60.5,-106.23 64,-96.23 57,-96.23"/>
</g>
</g>
</svg>
