<?xml version="1.0" encoding="UTF-8" standalone="no"?>
<!DOCTYPE svg PUBLIC "-//W3C//DTD SVG 1.1//EN"
 "http://www.w3.org/Graphics/SVG/1.1/DTD/svg11.dtd">
<!-- Generated by graphviz version 2.40.1 (20161225.0304)
 -->
<!-- Title: hierarchy Pages: 1 -->
<svg width="360pt" height="320pt"
 viewBox="0.00 0.00 360.00 320.24" xmlns="http://www.w3.org/2000/svg" xmlns:xlink="http://www.w3.org/1999/xlink">
<g id="graph0" class="graph" transform="scale(.7101 .7101) rotate(0) translate(4 447)">
<title>hierarchy</title>
<polygon fill="#ffffff" stroke="transparent" points="-4,4 -4,-447 503,-447 503,4 -4,4"/>
<!-- start -->
<g id="node1" class="node">
<title>start</title>
<ellipse fill="none" stroke="#000000" cx="342.5" cy="-425" rx="34.394" ry="18"/>
<text text-anchor="middle" x="342.5" y="-421.3" font-family="Times,serif" font-size="14.00" fill="#000000">Start</text>
</g>
<!-- loadmp3 -->
<g id="node2" class="node">
<title>loadmp3</title>
<polygon fill="none" stroke="#000000" points="400,-370 285,-370 285,-334 400,-334 400,-370"/>
<text text-anchor="middle" x="342.5" y="-348.3" font-family="Times,serif" font-size="14.00" fill="#000000">Load mp3 file</text>
</g>
<!-- start&#45;&gt;loadmp3 -->
<g id="edge1" class="edge">
<title>start&#45;&gt;loadmp3</title>
<path fill="none" stroke="#000000" d="M342.5,-406.9551C342.5,-398.8828 342.5,-389.1764 342.5,-380.1817"/>
<polygon fill="#000000" stroke="#000000" points="346.0001,-380.0903 342.5,-370.0904 339.0001,-380.0904 346.0001,-380.0903"/>
</g>
<!-- getframe -->
<g id="node3" class="node">
<title>getframe</title>
<polygon fill="none" stroke="#000000" points="405,-297 280,-297 280,-261 405,-261 405,-297"/>
<text text-anchor="middle" x="342.5" y="-275.3" font-family="Times,serif" font-size="14.00" fill="#000000">Get next frame</text>
</g>
<!-- loadmp3&#45;&gt;getframe -->
<g id="edge2" class="edge">
<title>loadmp3&#45;&gt;getframe</title>
<path fill="none" stroke="#000000" d="M342.5,-333.9551C342.5,-325.8828 342.5,-316.1764 342.5,-307.1817"/>
<polygon fill="#000000" stroke="#000000" points="346.0001,-307.0903 342.5,-297.0904 339.0001,-307.0904 346.0001,-307.0903"/>
</g>
<!-- ismuted -->
<g id="node4" class="node">
<title>ismuted</title>
<polygon fill="none" stroke="#000000" points="151.5,-210 20.121,-192 151.5,-174 282.879,-192 151.5,-210"/>
<text text-anchor="middle" x="151.5" y="-188.3" font-family="Times,serif" font-size="14.00" fill="#000000">state == muted ?</text>
</g>
<!-- getframe&#45;&gt;ismuted -->
<g id="edge3" class="edge">
<title>getframe&#45;&gt;ismuted</title>
<path fill="none" stroke="#000000" d="M279.8183,-267.0713C258.0742,-261.5068 234.0182,-253.6886 213.5,-243 199.3756,-235.6422 185.5079,-224.692 174.4818,-214.8223"/>
<polygon fill="#000000" stroke="#000000" points="176.7095,-212.1152 166.9921,-207.8934 171.9558,-217.2536 176.7095,-212.1152"/>
<text text-anchor="middle" x="271" y="-231.8" font-family="Times,serif" font-size="14.00" fill="#000000">Frame available</text>
</g>
<!-- end -->
<g id="node9" class="node">
<title>end</title>
<ellipse fill="none" stroke="#000000" cx="239.5" cy="-18" rx="81.4863" ry="18"/>
<text text-anchor="middle" x="239.5" y="-14.3" font-family="Times,serif" font-size="14.00" fill="#000000">Stop generator</text>
</g>
<!-- getframe&#45;&gt;end -->
<g id="edge10" class="edge">
<title>getframe&#45;&gt;end</title>
<path fill="none" stroke="#000000" d="M342.8053,-260.8753C342.9309,-226.3491 341.0122,-149.0565 323.5,-87 319.0732,-71.313 318.8195,-65.7281 307.5,-54 301.9558,-48.2557 295.294,-43.2314 288.3388,-38.904"/>
<polygon fill="#000000" stroke="#000000" points="289.8491,-35.7354 279.4337,-33.7936 286.3649,-41.8067 289.8491,-35.7354"/>
<text text-anchor="middle" x="402" y="-144.8" font-family="Times,serif" font-size="14.00" fill="#000000">No further frames</text>
</g>
<!-- streamsilence -->
<g id="node5" class="node">
<title>streamsilence</title>
<polygon fill="none" stroke="#000000" points="180.5,-123 56.5,-123 56.5,-87 180.5,-87 180.5,-123"/>
<text text-anchor="middle" x="118.5" y="-101.3" font-family="Times,serif" font-size="14.00" fill="#000000">Stream silence</text>
</g>
<!-- ismuted&#45;&gt;streamsilence -->
<g id="edge4" class="edge">
<title>ismuted&#45;&gt;streamsilence</title>
<path fill="none" stroke="#000000" d="M144.9803,-174.8116C140.4156,-162.7774 134.2185,-146.4396 128.967,-132.5947"/>
<polygon fill="#000000" stroke="#000000" points="132.1661,-131.1599 125.347,-123.0512 125.6211,-133.6425 132.1661,-131.1599"/>
<text text-anchor="middle" x="150" y="-144.8" font-family="Times,serif" font-size="14.00" fill="#000000">Yes</text>
</g>
<!-- streamframe -->
<g id="node7" class="node">
<title>streamframe</title>
<polygon fill="none" stroke="#000000" points="314.5,-123 198.5,-123 198.5,-87 314.5,-87 314.5,-123"/>
<text text-anchor="middle" x="256.5" y="-101.3" font-family="Times,serif" font-size="14.00" fill="#000000">Stream frame</text>
</g>
<!-- ismuted&#45;&gt;streamframe -->
<g id="edge5" class="edge">
<title>ismuted&#45;&gt;streamframe</title>
<path fill="none" stroke="#000000" d="M170.2719,-176.4461C185.9248,-163.4766 208.5147,-144.7593 226.6463,-129.7359"/>
<polygon fill="#000000" stroke="#000000" points="229.1552,-132.2025 234.6224,-123.1272 224.689,-126.8123 229.1552,-132.2025"/>
<text text-anchor="middle" x="221.5" y="-144.8" font-family="Times,serif" font-size="14.00" fill="#000000">No</text>
</g>
<!-- yieldnextframe -->
<g id="node6" class="node">
<title>yieldnextframe</title>
<polygon fill="none" stroke="#000000" points="113,-36 0,-36 0,0 113,0 113,-36"/>
<text text-anchor="middle" x="56.5" y="-14.3" font-family="Times,serif" font-size="14.00" fill="#000000">Return frame</text>
</g>
<!-- streamsilence&#45;&gt;yieldnextframe -->
<g id="edge6" class="edge">
<title>streamsilence&#45;&gt;yieldnextframe</title>
<path fill="none" stroke="#000000" d="M105.6536,-86.9735C96.8417,-74.6085 85.0083,-58.0036 75.1604,-44.1847"/>
<polygon fill="#000000" stroke="#000000" points="77.9838,-42.1158 69.33,-36.0034 72.2833,-46.1783 77.9838,-42.1158"/>
</g>
<!-- streamsilence&#45;&gt;end -->
<g id="edge11" class="edge">
<title>streamsilence&#45;&gt;end</title>
<path fill="none" stroke="#000000" d="M135.4603,-86.7426C145.6138,-76.4068 159.1138,-63.6568 172.5,-54 179.7361,-48.7799 187.82,-43.8074 195.8002,-39.3155"/>
<polygon fill="#000000" stroke="#000000" points="197.6068,-42.317 204.7151,-34.4606 194.259,-36.1695 197.6068,-42.317"/>
<text text-anchor="middle" x="204" y="-57.8" font-family="Times,serif" font-size="14.00" fill="#000000">On error</text>
</g>
<!-- yieldnextframe&#45;&gt;ismuted -->
<g id="edge8" class="edge">
<title>yieldnextframe&#45;&gt;ismuted</title>
<path fill="none" stroke="#000000" d="M49.1562,-36.3087C41.5877,-58.2834 32.7932,-95.5934 47.5,-123 60.0507,-146.3887 84.4036,-163.1931 106.3898,-174.3591"/>
<polygon fill="#000000" stroke="#000000" points="105.0974,-177.6213 115.6263,-178.8021 108.1319,-171.3131 105.0974,-177.6213"/>
</g>
<!-- yieldframe -->
<g id="node8" class="node">
<title>yieldframe</title>
<polygon fill="none" stroke="#000000" points="499,-36 386,-36 386,0 499,0 499,-36"/>
<text text-anchor="middle" x="442.5" y="-14.3" font-family="Times,serif" font-size="14.00" fill="#000000">Return frame</text>
</g>
<!-- streamframe&#45;&gt;yieldframe -->
<g id="edge7" class="edge">
<title>streamframe&#45;&gt;yieldframe</title>
<path fill="none" stroke="#000000" d="M295.0393,-86.9735C323.9688,-73.442 363.7539,-54.8328 394.7087,-40.354"/>
<polygon fill="#000000" stroke="#000000" points="396.4349,-43.4106 404.0101,-36.0034 393.469,-37.0699 396.4349,-43.4106"/>
</g>
<!-- streamframe&#45;&gt;end -->
<g id="edge12" class="edge">
<title>streamframe&#45;&gt;end</title>
<path fill="none" stroke="#000000" d="M246.7284,-86.7992C244.2112,-81.2419 241.8368,-75.0086 240.5,-69 238.8791,-61.7143 238.2171,-53.698 238.0582,-46.222"/>
<polygon fill="#000000" stroke="#000000" points="241.5586,-46.167 238.1213,-36.1452 234.5587,-46.1231 241.5586,-46.167"/>
<text text-anchor="middle" x="272" y="-57.8" font-family="Times,serif" font-size="14.00" fill="#000000">On error</text>
</g>
<!-- yieldframe&#45;&gt;getframe -->
<g id="edge9" class="edge">
<title>yieldframe&#45;&gt;getframe</title>
<path fill="none" stroke="#000000" d="M453.703,-36.0829C468.9085,-63.0969 492.258,-115.1802 474.5,-156 455.8253,-198.9269 413.9683,-233.6527 382.3604,-255.123"/>
<polygon fill="#000000" stroke="#000000" points="380.1536,-252.3863 373.7449,-260.823 384.0161,-258.2243 380.1536,-252.3863"/>
</g>
</g>
</svg>
