<?xml version="1.0" encoding="UTF-8" standalone="no"?>
<!DOCTYPE svg PUBLIC "-//W3C//DTD SVG 1.1//EN"
 "http://www.w3.org/Graphics/SVG/1.1/DTD/svg11.dtd">
<!-- Generated by graphviz version 2.40.1 (20161225.0304)
 -->
<!-- Title: hierarchy Pages: 1 -->
<svg width="360pt" height="435pt"
 viewBox="0.00 0.00 360.00 434.72" xmlns="http://www.w3.org/2000/svg" xmlns:xlink="http://www.w3.org/1999/xlink">
<g id="graph0" class="graph" transform="scale(.7233 .7233) rotate(0) translate(4 597)">
<title>hierarchy</title>
<polygon fill="#ffffff" stroke="transparent" points="-4,4 -4,-597 493.697,-597 493.697,4 -4,4"/>
<!-- start -->
<g id="node1" class="node">
<title>start</title>
<ellipse fill="none" stroke="#000000" cx="355.5" cy="-575" rx="34.394" ry="18"/>
<text text-anchor="middle" x="355.5" y="-571.3" font-family="Times,serif" font-size="14.00" fill="#000000">Start</text>
</g>
<!-- hasalbumid -->
<g id="node2" class="node">
<title>hasalbumid</title>
<polygon fill="none" stroke="#000000" points="355.5,-520 221.1058,-502 355.5,-484 489.8942,-502 355.5,-520"/>
<text text-anchor="middle" x="355.5" y="-498.3" font-family="Times,serif" font-size="14.00" fill="#000000">albumid == None</text>
</g>
<!-- start&#45;&gt;hasalbumid -->
<g id="edge1" class="edge">
<title>start&#45;&gt;hasalbumid</title>
<path fill="none" stroke="#000000" d="M355.5,-556.9551C355.5,-548.8828 355.5,-539.1764 355.5,-530.1817"/>
<polygon fill="#000000" stroke="#000000" points="359.0001,-530.0903 355.5,-520.0904 352.0001,-530.0904 359.0001,-530.0903"/>
</g>
<!-- getallalbums -->
<g id="node3" class="node">
<title>getallalbums</title>
<polygon fill="none" stroke="#000000" points="377.5,-433 233.5,-433 233.5,-397 377.5,-397 377.5,-433"/>
<text text-anchor="middle" x="305.5" y="-411.3" font-family="Times,serif" font-size="14.00" fill="#000000">Get all Album IDs</text>
</g>
<!-- hasalbumid&#45;&gt;getallalbums -->
<g id="edge3" class="edge">
<title>hasalbumid&#45;&gt;getallalbums</title>
<path fill="none" stroke="#000000" d="M345.8595,-485.2255C338.8293,-472.9931 329.1535,-456.1571 321.0382,-442.0364"/>
<polygon fill="#000000" stroke="#000000" points="323.9915,-440.1509 315.974,-433.2248 317.9224,-443.639 323.9915,-440.1509"/>
<text text-anchor="middle" x="346" y="-454.8" font-family="Times,serif" font-size="14.00" fill="#000000">Yes</text>
</g>
<!-- getallsongs -->
<g id="node7" class="node">
<title>getallsongs</title>
<polygon fill="none" stroke="#000000" points="479.5,-109 231.5,-109 231.5,-73 479.5,-73 479.5,-109"/>
<text text-anchor="middle" x="355.5" y="-87.3" font-family="Times,serif" font-size="14.00" fill="#000000">Get all songs of selected albums</text>
</g>
<!-- hasalbumid&#45;&gt;getallsongs -->
<g id="edge2" class="edge">
<title>hasalbumid&#45;&gt;getallsongs</title>
<path fill="none" stroke="#000000" d="M371.5955,-485.9241C386.2121,-469.5517 405.5,-442.6992 405.5,-415 405.5,-415 405.5,-415 405.5,-165 405.5,-146.8956 395.0979,-129.9115 383.7829,-116.7922"/>
<polygon fill="#000000" stroke="#000000" points="386.0668,-114.1073 376.7045,-109.1476 380.9304,-118.8632 386.0668,-114.1073"/>
<text text-anchor="middle" x="416.5" y="-292.8" font-family="Times,serif" font-size="14.00" fill="#000000">No</text>
</g>
<!-- getalltags -->
<g id="node4" class="node">
<title>getalltags</title>
<polygon fill="none" stroke="#000000" points="361,-360 214,-360 214,-322 361,-322 361,-360"/>
<text text-anchor="middle" x="287.5" y="-344.8" font-family="Times,serif" font-size="14.00" fill="#000000">Get list of Tag IDs</text>
<text text-anchor="middle" x="287.5" y="-329.8" font-family="Times,serif" font-size="14.00" fill="#000000">from filterlist</text>
</g>
<!-- getallalbums&#45;&gt;getalltags -->
<g id="edge4" class="edge">
<title>getallalbums&#45;&gt;getalltags</title>
<path fill="none" stroke="#000000" d="M301.0506,-396.7079C299.0839,-388.6227 296.7238,-378.9202 294.5284,-369.8945"/>
<polygon fill="#000000" stroke="#000000" points="297.9138,-369.0034 292.1493,-360.114 291.1121,-370.6579 297.9138,-369.0034"/>
</g>
<!-- hasfilterlist -->
<g id="node5" class="node">
<title>hasfilterlist</title>
<polygon fill="none" stroke="#000000" points="237.5,-271 97.5759,-253 237.5,-235 377.4241,-253 237.5,-271"/>
<text text-anchor="middle" x="237.5" y="-249.3" font-family="Times,serif" font-size="14.00" fill="#000000">Is there a filter list</text>
</g>
<!-- getalltags&#45;&gt;hasfilterlist -->
<g id="edge5" class="edge">
<title>getalltags&#45;&gt;hasfilterlist</title>
<path fill="none" stroke="#000000" d="M276.6507,-321.9053C269.5099,-309.3374 260.0723,-292.7272 252.2524,-278.9642"/>
<polygon fill="#000000" stroke="#000000" points="255.1284,-276.941 247.1451,-269.9754 249.0422,-280.3991 255.1284,-276.941"/>
</g>
<!-- removealbums -->
<g id="node6" class="node">
<title>removealbums</title>
<polygon fill="none" stroke="#000000" points="189,-184 0,-184 0,-146 189,-146 189,-184"/>
<text text-anchor="middle" x="94.5" y="-168.8" font-family="Times,serif" font-size="14.00" fill="#000000">Remove albums without</text>
<text text-anchor="middle" x="94.5" y="-153.8" font-family="Times,serif" font-size="14.00" fill="#000000">tags of filter</text>
</g>
<!-- hasfilterlist&#45;&gt;removealbums -->
<g id="edge6" class="edge">
<title>hasfilterlist&#45;&gt;removealbums</title>
<path fill="none" stroke="#000000" d="M213.242,-238.072C191.644,-224.7809 159.6364,-205.084 134.2932,-189.4881"/>
<polygon fill="#000000" stroke="#000000" points="135.9859,-186.4202 125.6349,-184.16 132.3172,-192.3818 135.9859,-186.4202"/>
<text text-anchor="middle" x="192" y="-205.8" font-family="Times,serif" font-size="14.00" fill="#000000">Yes</text>
</g>
<!-- hasfilterlist&#45;&gt;getallsongs -->
<g id="edge7" class="edge">
<title>hasfilterlist&#45;&gt;getallsongs</title>
<path fill="none" stroke="#000000" d="M264.8526,-238.3293C284.9224,-226.2423 311.3845,-207.326 327.5,-184 340.8434,-164.6864 347.9547,-138.875 351.666,-119.345"/>
<polygon fill="#000000" stroke="#000000" points="355.1613,-119.6691 353.3961,-109.2224 348.2613,-118.4898 355.1613,-119.6691"/>
<text text-anchor="middle" x="355.5" y="-161.3" font-family="Times,serif" font-size="14.00" fill="#000000">No</text>
</g>
<!-- removealbums&#45;&gt;removealbums -->
<g id="edge8" class="edge">
<title>removealbums&#45;&gt;removealbums</title>
<path fill="none" stroke="#000000" d="M189.2944,-170.72C200.0374,-169.6489 207,-167.7422 207,-165 207,-163.2433 204.1426,-161.8295 199.2643,-160.7585"/>
<polygon fill="#000000" stroke="#000000" points="199.6997,-157.2849 189.2944,-159.28 198.6727,-164.2092 199.6997,-157.2849"/>
<text text-anchor="middle" x="263" y="-161.3" font-family="Times,serif" font-size="14.00" fill="#000000">For each album</text>
</g>
<!-- removealbums&#45;&gt;getallsongs -->
<g id="edge9" class="edge">
<title>removealbums&#45;&gt;getallsongs</title>
<path fill="none" stroke="#000000" d="M161.714,-145.9432C198.4562,-135.5258 244.0296,-122.6046 281.7483,-111.9104"/>
<polygon fill="#000000" stroke="#000000" points="282.994,-115.1953 291.66,-109.1002 281.0845,-108.4607 282.994,-115.1953"/>
</g>
<!-- selectsong -->
<g id="node8" class="node">
<title>selectsong</title>
<polygon fill="none" stroke="#000000" points="435,-36 276,-36 276,0 435,0 435,-36"/>
<text text-anchor="middle" x="355.5" y="-14.3" font-family="Times,serif" font-size="14.00" fill="#000000">Select random song</text>
</g>
<!-- getallsongs&#45;&gt;selectsong -->
<g id="edge10" class="edge">
<title>getallsongs&#45;&gt;selectsong</title>
<path fill="none" stroke="#000000" d="M355.5,-72.9551C355.5,-64.8828 355.5,-55.1764 355.5,-46.1817"/>
<polygon fill="#000000" stroke="#000000" points="359.0001,-46.0903 355.5,-36.0904 352.0001,-46.0904 359.0001,-46.0903"/>
</g>
</g>
</svg>
