<?xml version="1.0" encoding="UTF-8" standalone="no"?>
<!DOCTYPE svg PUBLIC "-//W3C//DTD SVG 1.1//EN"
 "http://www.w3.org/Graphics/SVG/1.1/DTD/svg11.dtd">
<!-- Generated by graphviz version 14.1.1 (0)
 -->
<!-- Title: finite_state_machine Pages: 1 -->
<svg width="490pt" height="864pt"
 viewBox="0.00 0.00 490.00 864.00" xmlns="http://www.w3.org/2000/svg" xmlns:xlink="http://www.w3.org/1999/xlink">
<g id="graph0" class="graph" transform="scale(0.650867 0.650867) rotate(0) translate(4 1323.46)">
<title>finite_state_machine</title>
<polygon fill="white" stroke="none" points="-4,4 -4,-1323.46 749.61,-1323.46 749.61,4 -4,4"/>
<!-- Listen_on_port -->
<g id="node1" class="node">
<title>Listen_on_port</title>
<ellipse fill="none" stroke="black" cx="442.04" cy="-1278.16" rx="37.3" ry="37.3"/>
<ellipse fill="none" stroke="black" cx="442.04" cy="-1278.16" rx="41.3" ry="41.3"/>
<text xml:space="preserve" text-anchor="middle" x="442.04" y="-1281.41" font-family="Times,serif" font-size="10.00">Listen</text>
<text xml:space="preserve" text-anchor="middle" x="442.04" y="-1268.66" font-family="Times,serif" font-size="10.00">on port</text>
</g>
<!-- __init__ -->
<g id="node3" class="node">
<title>__init__</title>
<ellipse fill="none" stroke="blue" cx="318.04" cy="-1150.88" rx="32.73" ry="32.73"/>
<text xml:space="preserve" text-anchor="middle" x="318.04" y="-1147.75" font-family="Times,serif" font-size="10.00">__init__</text>
</g>
<!-- Listen_on_port&#45;&gt;__init__ -->
<g id="edge1" class="edge">
<title>Listen_on_port&#45;&gt;__init__</title>
<path fill="none" stroke="black" d="M413.28,-1248.1C394,-1228.62 368.63,-1202.99 348.92,-1183.08"/>
<polygon fill="black" stroke="black" points="351.45,-1180.65 341.92,-1176 346.47,-1185.57 351.45,-1180.65"/>
<text xml:space="preserve" text-anchor="middle" x="424.26" y="-1205.56" font-family="Times,serif" font-size="14.00">access port</text>
</g>
<!-- CB__init__ -->
<g id="node2" class="node">
<title>CB__init__</title>
<ellipse fill="none" stroke="red" cx="505.04" cy="-1150.88" rx="32.73" ry="32.73"/>
<text xml:space="preserve" text-anchor="middle" x="505.04" y="-1147.75" font-family="Times,serif" font-size="10.00">__init__</text>
</g>
<!-- CB__init__&#45;&gt;__init__ -->
<g id="edge3" class="edge">
<title>CB__init__&#45;&gt;__init__</title>
<path fill="none" stroke="black" d="M471.87,-1149.23C459.32,-1148.68 444.9,-1148.14 431.8,-1147.88 413.8,-1147.51 409.29,-1147.51 391.29,-1147.88 381.97,-1148.07 371.99,-1148.39 362.49,-1148.76"/>
<polygon fill="black" stroke="black" points="362.57,-1145.26 352.73,-1149.17 362.86,-1152.25 362.57,-1145.26"/>
</g>
<!-- __init__&#45;&gt;CB__init__ -->
<g id="edge2" class="edge">
<title>__init__&#45;&gt;CB__init__</title>
<path fill="none" stroke="black" d="M351.04,-1150.88C381.53,-1150.88 427.04,-1150.88 460.69,-1150.88"/>
<polygon fill="black" stroke="black" points="460.54,-1154.38 470.54,-1150.88 460.54,-1147.38 460.54,-1154.38"/>
<text xml:space="preserve" text-anchor="middle" x="411.54" y="-1175.08" font-family="Times,serif" font-size="14.00">create derived</text>
<text xml:space="preserve" text-anchor="middle" x="411.54" y="-1157.83" font-family="Times,serif" font-size="14.00">class object</text>
</g>
<!-- Connecting -->
<g id="node4" class="node">
<title>Connecting</title>
<ellipse fill="none" stroke="black" cx="318.04" cy="-1035.56" rx="45.58" ry="45.58"/>
<text xml:space="preserve" text-anchor="middle" x="318.04" y="-1032.43" font-family="Times,serif" font-size="10.00">Connecting</text>
</g>
<!-- __init__&#45;&gt;Connecting -->
<g id="edge4" class="edge">
<title>__init__&#45;&gt;Connecting</title>
<path fill="none" stroke="black" d="M318.04,-1117.71C318.04,-1109.97 318.04,-1101.48 318.04,-1092.99"/>
<polygon fill="black" stroke="black" points="321.54,-1093.01 318.04,-1083.01 314.54,-1093.01 321.54,-1093.01"/>
</g>
<!-- onOpen -->
<g id="node5" class="node">
<title>onOpen</title>
<ellipse fill="none" stroke="blue" cx="147.04" cy="-882.88" rx="34.57" ry="34.57"/>
<text xml:space="preserve" text-anchor="middle" x="147.04" y="-879.75" font-family="Times,serif" font-size="10.00">onOpen</text>
</g>
<!-- Connecting&#45;&gt;onOpen -->
<g id="edge5" class="edge">
<title>Connecting&#45;&gt;onOpen</title>
<path fill="none" stroke="black" d="M284.26,-1004.79C254.4,-978.48 211.08,-940.3 181.13,-913.92"/>
<polygon fill="black" stroke="black" points="183.63,-911.45 173.81,-907.47 179,-916.71 183.63,-911.45"/>
<text xml:space="preserve" text-anchor="middle" x="302.03" y="-958.67" font-family="Times,serif" font-size="14.00">open Handshake</text>
</g>
<!-- onOpenHandshakeTimeout -->
<g id="node9" class="node">
<title>onOpenHandshakeTimeout</title>
<ellipse fill="none" stroke="blue" cx="452.04" cy="-711.76" rx="99.27" ry="99.27"/>
<text xml:space="preserve" text-anchor="middle" x="452.04" y="-708.64" font-family="Times,serif" font-size="10.00">onOpenHandschakeTimeout</text>
</g>
<!-- Connecting&#45;&gt;onOpenHandshakeTimeout -->
<g id="edge6" class="edge">
<title>Connecting&#45;&gt;onOpenHandshakeTimeout</title>
<path fill="none" stroke="black" d="M358.07,-1013.37C385.45,-996.54 419.8,-970.26 437.04,-936.72 454.88,-902.02 461.06,-860.21 461.97,-822.16"/>
<polygon fill="black" stroke="black" points="465.47,-822.56 462.08,-812.52 458.47,-822.48 465.47,-822.56"/>
<text xml:space="preserve" text-anchor="middle" x="452.07" y="-958.67" font-family="Times,serif" font-size="14.00">timeout</text>
</g>
<!-- onWSConnect -->
<g id="node6" class="node">
<title>onWSConnect</title>
<ellipse fill="none" stroke="red" cx="374.04" cy="-882.88" rx="53.84" ry="53.84"/>
<text xml:space="preserve" text-anchor="middle" x="374.04" y="-879.75" font-family="Times,serif" font-size="10.00">onWSConnect</text>
</g>
<!-- onOpen&#45;&gt;onWSConnect -->
<g id="edge8" class="edge">
<title>onOpen&#45;&gt;onWSConnect</title>
<path fill="none" stroke="black" d="M182.01,-882.88C215.66,-882.88 267.37,-882.88 308.66,-882.88"/>
<polygon fill="black" stroke="black" points="308.49,-886.38 318.49,-882.88 308.49,-879.38 308.49,-886.38"/>
<text xml:space="preserve" text-anchor="middle" x="250.91" y="-889.83" font-family="Times,serif" font-size="14.00">initialize handler</text>
</g>
<!-- Active -->
<g id="node10" class="node">
<title>Active</title>
<ellipse fill="none" stroke="black" cx="168.04" cy="-547.64" rx="46.85" ry="46.85"/>
<text xml:space="preserve" text-anchor="middle" x="168.04" y="-550.89" font-family="Times,serif" font-size="10.00">Autobahn</text>
<text xml:space="preserve" text-anchor="middle" x="168.04" y="-538.14" font-family="Times,serif" font-size="10.00">Magic</text>
</g>
<!-- onOpen&#45;&gt;Active -->
<g id="edge10" class="edge">
<title>onOpen&#45;&gt;Active</title>
<path fill="none" stroke="black" d="M149.17,-848.09C152.76,-791.2 160.04,-675.66 164.43,-605.91"/>
<polygon fill="black" stroke="black" points="167.91,-606.41 165.04,-596.21 160.92,-605.97 167.91,-606.41"/>
<text xml:space="preserve" text-anchor="middle" x="240.76" y="-707.09" font-family="Times,serif" font-size="14.00">successful handshake</text>
</g>
<!-- onWSConnect&#45;&gt;onOpen -->
<g id="edge9" class="edge">
<title>onWSConnect&#45;&gt;onOpen</title>
<path fill="none" stroke="black" d="M319.88,-880.76C292.31,-879.94 258.27,-879.31 227.81,-879.88 216.67,-880.09 204.67,-880.45 193.41,-880.86"/>
<polygon fill="black" stroke="black" points="193.39,-877.36 183.53,-881.24 193.66,-884.35 193.39,-877.36"/>
</g>
<!-- onClose -->
<g id="node7" class="node">
<title>onClose</title>
<ellipse fill="none" stroke="blue" cx="452.04" cy="-367.73" rx="34.57" ry="34.57"/>
<text xml:space="preserve" text-anchor="middle" x="452.04" y="-364.61" font-family="Times,serif" font-size="10.00">onClose</text>
</g>
<!-- onClose&#45;&gt;Listen_on_port -->
<g id="edge21" class="edge">
<title>onClose&#45;&gt;Listen_on_port</title>
<path fill="none" stroke="black" d="M478.2,-390.81C511.85,-421.86 566.04,-481.89 566.04,-546.64 566.04,-1151.88 566.04,-1151.88 566.04,-1151.88 566.04,-1197.47 524.04,-1232.43 488.93,-1253.69"/>
<polygon fill="black" stroke="black" points="487.44,-1250.51 480.56,-1258.56 490.96,-1256.56 487.44,-1250.51"/>
</g>
<!-- onWSDisconnect -->
<g id="node8" class="node">
<title>onWSDisconnect</title>
<ellipse fill="none" stroke="red" cx="683.04" cy="-367.73" rx="62.56" ry="62.56"/>
<text xml:space="preserve" text-anchor="middle" x="683.04" y="-364.61" font-family="Times,serif" font-size="10.00">onWSDisconnect</text>
</g>
<!-- onClose&#45;&gt;onWSDisconnect -->
<g id="edge19" class="edge">
<title>onClose&#45;&gt;onWSDisconnect</title>
<path fill="none" stroke="black" d="M486.88,-367.73C519.02,-367.73 567.81,-367.73 608.69,-367.73"/>
<polygon fill="black" stroke="black" points="608.48,-371.23 618.48,-367.73 608.48,-364.23 608.48,-371.23"/>
<text xml:space="preserve" text-anchor="middle" x="553.55" y="-391.93" font-family="Times,serif" font-size="14.00">clean up</text>
<text xml:space="preserve" text-anchor="middle" x="553.55" y="-374.68" font-family="Times,serif" font-size="14.00">when connected</text>
</g>
<!-- onWSDisconnect&#45;&gt;onClose -->
<g id="edge20" class="edge">
<title>onWSDisconnect&#45;&gt;onClose</title>
<path fill="none" stroke="black" d="M620.26,-365.4C592.92,-364.67 560.49,-364.18 531.24,-364.73 520.53,-364.93 509.01,-365.29 498.16,-365.69"/>
<polygon fill="black" stroke="black" points="498.1,-362.19 488.24,-366.07 498.37,-369.18 498.1,-362.19"/>
</g>
<!-- onOpenHandshakeTimeout&#45;&gt;onClose -->
<g id="edge7" class="edge">
<title>onOpenHandshakeTimeout&#45;&gt;onClose</title>
<path fill="none" stroke="black" d="M452.04,-612.29C452.04,-546.88 452.04,-464.1 452.04,-413.84"/>
<polygon fill="black" stroke="black" points="455.54,-413.92 452.04,-403.92 448.54,-413.92 455.54,-413.92"/>
<text xml:space="preserve" text-anchor="middle" x="470.04" y="-542.96" font-family="Times,serif" font-size="14.00">close</text>
</g>
<!-- Active&#45;&gt;onClose -->
<g id="edge18" class="edge">
<title>Active&#45;&gt;onClose</title>
<path fill="none" stroke="black" d="M212.15,-531.01C238.44,-520.23 271.38,-504.01 296.04,-482.79 310.25,-470.57 306.59,-461.08 320.29,-448.29 347.06,-423.32 382.91,-402.29 410.45,-388.14"/>
<polygon fill="black" stroke="black" points="411.85,-391.35 419.22,-383.73 408.71,-385.1 411.85,-391.35"/>
<text xml:space="preserve" text-anchor="middle" x="379.17" y="-460.87" font-family="Times,serif" font-size="14.00">close connection</text>
</g>
<!-- onMessage -->
<g id="node11" class="node">
<title>onMessage</title>
<ellipse fill="none" stroke="blue" cx="87.04" cy="-367.73" rx="45.58" ry="45.58"/>
<text xml:space="preserve" text-anchor="middle" x="87.04" y="-364.61" font-family="Times,serif" font-size="10.00">onMessage</text>
</g>
<!-- Active&#45;&gt;onMessage -->
<g id="edge11" class="edge">
<title>Active&#45;&gt;onMessage</title>
<path fill="none" stroke="black" d="M125.43,-528.06C107.02,-517.63 87.37,-502.66 77.04,-482.79 67.53,-464.5 67.37,-442.31 70.54,-422.38"/>
<polygon fill="black" stroke="black" points="73.94,-423.23 72.39,-412.75 67.07,-421.91 73.94,-423.23"/>
<text xml:space="preserve" text-anchor="middle" x="116.04" y="-469.49" font-family="Times,serif" font-size="14.00">got data</text>
<text xml:space="preserve" text-anchor="middle" x="116.04" y="-452.24" font-family="Times,serif" font-size="14.00">from client</text>
</g>
<!-- onCall -->
<g id="node12" class="node">
<title>onCall</title>
<ellipse fill="none" stroke="red" cx="145.04" cy="-205.15" rx="29.52" ry="29.52"/>
<text xml:space="preserve" text-anchor="middle" x="145.04" y="-202.02" font-family="Times,serif" font-size="10.00">onCall</text>
</g>
<!-- onMessage&#45;&gt;onCall -->
<g id="edge12" class="edge">
<title>onMessage&#45;&gt;onCall</title>
<path fill="none" stroke="black" d="M102.28,-324.54C111.3,-299.56 122.64,-268.17 131.37,-243.99"/>
<polygon fill="black" stroke="black" points="134.57,-245.46 134.67,-234.86 127.98,-243.08 134.57,-245.46"/>
</g>
<!-- onCall&#45;&gt;Active -->
<g id="edge13" class="edge">
<title>onCall&#45;&gt;Active</title>
<path fill="none" stroke="black" d="M146.99,-234.93C150.77,-291 159.21,-415.83 164.17,-489.37"/>
<polygon fill="black" stroke="black" points="160.67,-489.47 164.84,-499.21 167.66,-489 160.67,-489.47"/>
<text xml:space="preserve" text-anchor="middle" x="203.07" y="-363.06" font-family="Times,serif" font-size="14.00">no response</text>
</g>
<!-- SendPacket -->
<g id="node13" class="node">
<title>SendPacket</title>
<ellipse fill="none" stroke="blue" cx="46.04" cy="-61.19" rx="46.04" ry="46.04"/>
<text xml:space="preserve" text-anchor="middle" x="46.04" y="-58.06" font-family="Times,serif" font-size="10.00">SendPacket</text>
</g>
<!-- onCall&#45;&gt;SendPacket -->
<g id="edge14" class="edge">
<title>onCall&#45;&gt;SendPacket</title>
<path fill="none" stroke="black" d="M120.16,-188.58C108.74,-180.46 95.73,-169.71 86.54,-157.62 77.07,-145.17 69.37,-130.18 63.32,-115.8"/>
<polygon fill="black" stroke="black" points="66.72,-114.88 59.76,-106.89 60.22,-117.47 66.72,-114.88"/>
<text xml:space="preserve" text-anchor="middle" x="118.79" y="-144.32" font-family="Times,serif" font-size="14.00">response</text>
</g>
<!-- BroadcastPacket -->
<g id="node14" class="node">
<title>BroadcastPacket</title>
<ellipse fill="none" stroke="blue" cx="174.04" cy="-61.19" rx="61.19" ry="61.19"/>
<text xml:space="preserve" text-anchor="middle" x="174.04" y="-58.06" font-family="Times,serif" font-size="10.00">BroadcastPacket</text>
</g>
<!-- onCall&#45;&gt;BroadcastPacket -->
<g id="edge15" class="edge">
<title>onCall&#45;&gt;BroadcastPacket</title>
<path fill="none" stroke="black" d="M150.84,-175.76C153.4,-163.26 156.52,-147.96 159.64,-132.69"/>
<polygon fill="black" stroke="black" points="163.03,-133.6 161.6,-123.1 156.17,-132.2 163.03,-133.6"/>
<text xml:space="preserve" text-anchor="middle" x="210.31" y="-144.32" font-family="Times,serif" font-size="14.00">response to all</text>
</g>
<!-- SendPacket&#45;&gt;Active -->
<g id="edge16" class="edge">
<title>SendPacket&#45;&gt;Active</title>
<path fill="none" stroke="black" d="M35.61,-106.33C20.95,-176.53 -0.54,-317.22 32.04,-430.29 43.95,-471.6 82.7,-502.24 115.81,-521.68"/>
<polygon fill="black" stroke="black" points="113.67,-524.49 124.1,-526.36 117.12,-518.39 113.67,-524.49"/>
<text xml:space="preserve" text-anchor="middle" x="50.84" y="-273.87" font-family="Times,serif" font-size="14.00">send data</text>
<text xml:space="preserve" text-anchor="middle" x="50.84" y="-256.62" font-family="Times,serif" font-size="14.00">to client</text>
</g>
<!-- BroadcastPacket&#45;&gt;Active -->
<g id="edge17" class="edge">
<title>BroadcastPacket&#45;&gt;Active</title>
<path fill="none" stroke="black" d="M226.62,-93.36C242.64,-105.78 258.32,-121.63 267.04,-140.37 270.28,-147.32 267.28,-149.96 267.04,-157.62 263.26,-278.99 290.32,-315.75 250.04,-430.29 240.62,-457.1 223.12,-483.3 206.7,-504.03"/>
<polygon fill="black" stroke="black" points="204.06,-501.71 200.46,-511.68 209.49,-506.14 204.06,-501.71"/>
<text xml:space="preserve" text-anchor="middle" x="315.65" y="-273.87" font-family="Times,serif" font-size="14.00">send data</text>
<text xml:space="preserve" text-anchor="middle" x="315.65" y="-256.62" font-family="Times,serif" font-size="14.00">to all clients</text>
</g>
</g>
</svg>
