<?xml version="1.0" encoding="UTF-8" standalone="no"?>
<!DOCTYPE svg PUBLIC "-//W3C//DTD SVG 1.1//EN"
 "http://www.w3.org/Graphics/SVG/1.1/DTD/svg11.dtd">
<!-- Generated by graphviz version 14.1.1 (0)
 -->
<!-- Title: hierarchy Pages: 1 -->
<svg width="117pt" height="332pt"
 viewBox="0.00 0.00 117.00 332.00" xmlns="http://www.w3.org/2000/svg" xmlns:xlink="http://www.w3.org/1999/xlink">
<g id="graph0" class="graph" transform="scale(1 1) rotate(0) translate(4 328)">
<title>hierarchy</title>
<polygon fill="white" stroke="none" points="-4,4 -4,-328 113,-328 113,4 -4,4"/>
<!-- filesrc -->
<g id="node1" class="node">
<title>filesrc</title>
<polygon fill="none" stroke="black" points="84.25,-324 24.75,-324 24.75,-288 84.25,-288 84.25,-324"/>
<text xml:space="preserve" text-anchor="middle" x="54.5" y="-301.32" font-family="Times,serif" font-size="14.00">filesrc</text>
</g>
<!-- decodebin -->
<g id="node2" class="node">
<title>decodebin</title>
<polygon fill="none" stroke="black" points="98.88,-252 10.12,-252 10.12,-216 98.88,-216 98.88,-252"/>
<text xml:space="preserve" text-anchor="middle" x="54.5" y="-229.32" font-family="Times,serif" font-size="14.00">decodebin</text>
</g>
<!-- filesrc&#45;&gt;decodebin -->
<g id="edge1" class="edge">
<title>filesrc&#45;&gt;decodebin</title>
<path fill="none" stroke="black" d="M54.5,-287.7C54.5,-280.41 54.5,-271.73 54.5,-263.54"/>
<polygon fill="black" stroke="black" points="58,-263.62 54.5,-253.62 51,-263.62 58,-263.62"/>
</g>
<!-- audioconvert -->
<g id="node3" class="node">
<title>audioconvert</title>
<polygon fill="none" stroke="black" points="109,-180 0,-180 0,-144 109,-144 109,-180"/>
<text xml:space="preserve" text-anchor="middle" x="54.5" y="-157.32" font-family="Times,serif" font-size="14.00">audioconvert</text>
</g>
<!-- decodebin&#45;&gt;audioconvert -->
<g id="edge2" class="edge">
<title>decodebin&#45;&gt;audioconvert</title>
<path fill="none" stroke="black" d="M54.5,-215.7C54.5,-208.41 54.5,-199.73 54.5,-191.54"/>
<polygon fill="black" stroke="black" points="58,-191.62 54.5,-181.62 51,-191.62 58,-191.62"/>
</g>
<!-- lamemp3enc -->
<g id="node4" class="node">
<title>lamemp3enc</title>
<polygon fill="none" stroke="black" points="107.88,-108 1.12,-108 1.12,-72 107.88,-72 107.88,-108"/>
<text xml:space="preserve" text-anchor="middle" x="54.5" y="-85.33" font-family="Times,serif" font-size="14.00">lamemp3enc</text>
</g>
<!-- audioconvert&#45;&gt;lamemp3enc -->
<g id="edge3" class="edge">
<title>audioconvert&#45;&gt;lamemp3enc</title>
<path fill="none" stroke="black" d="M54.5,-143.7C54.5,-136.41 54.5,-127.73 54.5,-119.54"/>
<polygon fill="black" stroke="black" points="58,-119.62 54.5,-109.62 51,-119.62 58,-119.62"/>
</g>
<!-- fdsink -->
<g id="node5" class="node">
<title>fdsink</title>
<polygon fill="none" stroke="black" points="84.25,-36 24.75,-36 24.75,0 84.25,0 84.25,-36"/>
<text xml:space="preserve" text-anchor="middle" x="54.5" y="-13.32" font-family="Times,serif" font-size="14.00">fdsink</text>
</g>
<!-- lamemp3enc&#45;&gt;fdsink -->
<g id="edge4" class="edge">
<title>lamemp3enc&#45;&gt;fdsink</title>
<path fill="none" stroke="black" d="M54.5,-71.7C54.5,-64.41 54.5,-55.73 54.5,-47.54"/>
<polygon fill="black" stroke="black" points="58,-47.62 54.5,-37.62 51,-47.62 58,-47.62"/>
</g>
</g>
</svg>
