<?xml version="1.0" encoding="UTF-8" standalone="no"?>
<!DOCTYPE svg PUBLIC "-//W3C//DTD SVG 1.1//EN"
 "http://www.w3.org/Graphics/SVG/1.1/DTD/svg11.dtd">
<!-- Generated by graphviz version 2.40.1 (20161225.0304)
 -->
<!-- Title: controlflow Pages: 1 -->
<svg width="1006pt" height="620pt"
 viewBox="0.00 0.00 1006.00 619.75" xmlns="http://www.w3.org/2000/svg" xmlns:xlink="http://www.w3.org/1999/xlink">
<g id="graph0" class="graph" transform="scale(1 1) rotate(0) translate(4 615.7523)">
<title>controlflow</title>
<polygon fill="#ffffff" stroke="transparent" points="-4,4 -4,-615.7523 1002,-615.7523 1002,4 -4,4"/>
<g id="clust1" class="cluster">
<title>cluster_OnLoad</title>
<polygon fill="none" stroke="#ff0000" points="8,-393 8,-468 138,-468 138,-393 8,-393"/>
<text text-anchor="middle" x="73" y="-452.8" font-family="Times,serif" font-size="14.00" fill="#000000">window.onload</text>
</g>
<g id="clust2" class="cluster">
<title>cluster_SocketOpen</title>
<polygon fill="none" stroke="#0000ff" points="146,-393 146,-468 270,-468 270,-393 146,-393"/>
<text text-anchor="middle" x="208" y="-452.8" font-family="Times,serif" font-size="14.00" fill="#000000">socket.onopen</text>
</g>
<g id="clust3" class="cluster">
<title>cluster_SocketClose</title>
<polygon fill="none" stroke="#0000ff" points="278,-133 278,-468 558,-468 558,-133 278,-133"/>
<text text-anchor="middle" x="418" y="-452.8" font-family="Times,serif" font-size="14.00" fill="#000000">socket.onclose</text>
</g>
<g id="clust4" class="cluster">
<title>cluster_SocketError</title>
<polygon fill="none" stroke="#0000ff" points="566,-270 566,-468 700,-468 700,-270 566,-270"/>
<text text-anchor="middle" x="633" y="-452.8" font-family="Times,serif" font-size="14.00" fill="#000000">socket.onerror</text>
</g>
<g id="clust5" class="cluster">
<title>cluster_SocketMessage</title>
<polygon fill="none" stroke="#0000ff" points="708,-8 708,-468 990,-468 990,-8 708,-8"/>
<text text-anchor="middle" x="849" y="-452.8" font-family="Times,serif" font-size="14.00" fill="#000000">socket.onmessage</text>
</g>
<!-- JS -->
<g id="node1" class="node">
<title>JS</title>
<ellipse fill="none" stroke="#000000" cx="418" cy="-560.3762" rx="47.2622" ry="47.2622"/>
<ellipse fill="none" stroke="#000000" cx="418" cy="-560.3762" rx="51.2526" ry="51.2526"/>
<text text-anchor="middle" x="418" y="-563.3762" font-family="Times,serif" font-size="10.00" fill="#000000">JavaScript</text>
<text text-anchor="middle" x="418" y="-552.3762" font-family="Times,serif" font-size="10.00" fill="#000000">Engine</text>
</g>
<!-- OL_ConnectToMDB -->
<g id="node2" class="node">
<title>OL_ConnectToMDB</title>
<polygon fill="none" stroke="#008b00" points="129.5,-437 16.5,-437 16.5,-401 129.5,-401 129.5,-437"/>
<text text-anchor="middle" x="73" y="-416.5" font-family="Times,serif" font-size="10.00" fill="#000000">ConnectToMusicDB</text>
</g>
<!-- JS&#45;&gt;OL_ConnectToMDB -->
<g id="edge9" class="edge">
<title>JS&#45;&gt;OL_ConnectToMDB</title>
<path fill="none" stroke="#000000" d="M367.6055,-549.9619C312.4844,-537.2028 222.4276,-512.2902 147.107,-470.7855"/>
<polygon fill="#000000" stroke="#000000" points="148.4265,-467.5111 137.998,-465.6414 144.9844,-473.6064 148.4265,-467.5111"/>
<text text-anchor="middle" x="232" y="-479.8" font-family="Times,serif" font-size="14.00" fill="#000000">When loaded</text>
</g>
<!-- SO_onOpen -->
<g id="node3" class="node">
<title>SO_onOpen</title>
<polygon fill="none" stroke="#ff0000" points="262,-437 154,-437 154,-401 262,-401 262,-437"/>
<text text-anchor="middle" x="208" y="-416.5" font-family="Times,serif" font-size="10.00" fill="#000000">…ConnectionOpen</text>
</g>
<!-- JS&#45;&gt;SO_onOpen -->
<g id="edge10" class="edge">
<title>JS&#45;&gt;SO_onOpen</title>
<path fill="none" stroke="#000000" d="M374.0117,-533.2471C347.3685,-516.5694 312.6158,-494.3825 278.2491,-470.8881"/>
<polygon fill="#000000" stroke="#000000" points="280.2189,-467.995 269.9954,-465.2145 276.2536,-473.7636 280.2189,-467.995"/>
<text text-anchor="middle" x="334.5" y="-479.8" font-family="Times,serif" font-size="14.00" fill="#000000">on open</text>
</g>
<!-- SC_StopWatchdog -->
<g id="node4" class="node">
<title>SC_StopWatchdog</title>
<polygon fill="none" stroke="#008b00" points="476.5,-437 359.5,-437 359.5,-401 476.5,-401 476.5,-437"/>
<text text-anchor="middle" x="418" y="-416.5" font-family="Times,serif" font-size="10.00" fill="#000000">MDB_StopWatchdog</text>
</g>
<!-- JS&#45;&gt;SC_StopWatchdog -->
<g id="edge11" class="edge">
<title>JS&#45;&gt;SC_StopWatchdog</title>
<path fill="none" stroke="#000000" d="M418,-508.9362C418,-498.9171 418,-488.3396 418,-478.096"/>
<polygon fill="#000000" stroke="#000000" points="421.5001,-477.9967 418,-467.9967 414.5001,-477.9968 421.5001,-477.9967"/>
<text text-anchor="middle" x="447.5" y="-479.8" font-family="Times,serif" font-size="14.00" fill="#000000">on close</text>
</g>
<!-- SE_StopWatchdog -->
<g id="node8" class="node">
<title>SE_StopWatchdog</title>
<polygon fill="none" stroke="#008b00" points="691.5,-437 574.5,-437 574.5,-401 691.5,-401 691.5,-437"/>
<text text-anchor="middle" x="633" y="-416.5" font-family="Times,serif" font-size="10.00" fill="#000000">MDB_StopWatchdog</text>
</g>
<!-- JS&#45;&gt;SE_StopWatchdog -->
<g id="edge12" class="edge">
<title>JS&#45;&gt;SE_StopWatchdog</title>
<path fill="none" stroke="#000000" d="M461.7277,-532.8628C488.2719,-516.0391 522.999,-493.8144 557.6712,-470.8586"/>
<polygon fill="#000000" stroke="#000000" points="559.6095,-473.7729 566.0048,-465.3259 555.7377,-467.9411 559.6095,-473.7729"/>
<text text-anchor="middle" x="575.5" y="-479.8" font-family="Times,serif" font-size="14.00" fill="#000000">on error</text>
</g>
<!-- SM_ResetWatchdog -->
<g id="node10" class="node">
<title>SM_ResetWatchdog</title>
<polygon fill="none" stroke="#008b00" points="862.5,-437 739.5,-437 739.5,-401 862.5,-401 862.5,-437"/>
<text text-anchor="middle" x="801" y="-416.5" font-family="Times,serif" font-size="10.00" fill="#000000">MDB_ResetWatchdog</text>
</g>
<!-- JS&#45;&gt;SM_ResetWatchdog -->
<g id="edge13" class="edge">
<title>JS&#45;&gt;SM_ResetWatchdog</title>
<path fill="none" stroke="#000000" d="M467.6682,-546.8782C523.2408,-531.2168 615.8527,-503.4437 698.4953,-470.1982"/>
<polygon fill="#000000" stroke="#000000" points="700.0592,-473.3406 708.0032,-466.3304 697.4214,-466.8565 700.0592,-473.3406"/>
<text text-anchor="middle" x="723.5" y="-479.8" font-family="Times,serif" font-size="14.00" fill="#000000">on message</text>
</g>
<!-- SC_IF -->
<g id="node5" class="node">
<title>SC_IF</title>
<polygon fill="none" stroke="#000000" points="418,-326 286,-296 418,-266 550,-296 418,-326"/>
<text text-anchor="middle" x="418" y="-299" font-family="Times,serif" font-size="10.00" fill="#000000">is readyState</text>
<text text-anchor="middle" x="418" y="-288" font-family="Times,serif" font-size="10.00" fill="#000000">CLOASING or CLOSED</text>
</g>
<!-- SC_StopWatchdog&#45;&gt;SC_IF -->
<g id="edge1" class="edge">
<title>SC_StopWatchdog&#45;&gt;SC_IF</title>
<path fill="none" stroke="#000000" d="M418,-400.8509C418,-383.8904 418,-357.9798 418,-336.1603"/>
<polygon fill="#000000" stroke="#000000" points="421.5001,-336.1531 418,-326.1532 414.5001,-336.1532 421.5001,-336.1531"/>
</g>
<!-- SC_onError -->
<g id="node6" class="node">
<title>SC_onError</title>
<polygon fill="none" stroke="#ff0000" points="405,-177 297,-177 297,-141 405,-141 405,-177"/>
<text text-anchor="middle" x="351" y="-156.5" font-family="Times,serif" font-size="10.00" fill="#000000">…ConnectionError</text>
</g>
<!-- SC_IF&#45;&gt;SC_onError -->
<g id="edge2" class="edge">
<title>SC_IF&#45;&gt;SC_onError</title>
<path fill="none" stroke="#000000" d="M404.763,-268.9332C393.0986,-245.0822 376.1843,-210.4962 364.455,-186.5126"/>
<polygon fill="#000000" stroke="#000000" points="367.467,-184.7045 359.9295,-177.2589 361.1787,-187.7799 367.467,-184.7045"/>
<text text-anchor="middle" x="395" y="-217.8" font-family="Times,serif" font-size="14.00" fill="#000000">no</text>
</g>
<!-- SC_onClosed -->
<g id="node7" class="node">
<title>SC_onClosed</title>
<polygon fill="none" stroke="#ff0000" points="539,-177 423,-177 423,-141 539,-141 539,-177"/>
<text text-anchor="middle" x="481" y="-156.5" font-family="Times,serif" font-size="10.00" fill="#000000">…ConnectionClosed</text>
</g>
<!-- SC_IF&#45;&gt;SC_onClosed -->
<g id="edge3" class="edge">
<title>SC_IF&#45;&gt;SC_onClosed</title>
<path fill="none" stroke="#000000" d="M430.5976,-268.6053C441.5804,-244.7219 457.4282,-210.2592 468.4091,-186.3802"/>
<polygon fill="#000000" stroke="#000000" points="471.6471,-187.7159 472.6453,-177.1682 465.2874,-184.7913 471.6471,-187.7159"/>
<text text-anchor="middle" x="467.5" y="-217.8" font-family="Times,serif" font-size="14.00" fill="#000000">yes</text>
</g>
<!-- SE_onError -->
<g id="node9" class="node">
<title>SE_onError</title>
<polygon fill="none" stroke="#ff0000" points="687,-314 579,-314 579,-278 687,-278 687,-314"/>
<text text-anchor="middle" x="633" y="-293.5" font-family="Times,serif" font-size="10.00" fill="#000000">…ConnectionError</text>
</g>
<!-- SE_StopWatchdog&#45;&gt;SE_onError -->
<g id="edge4" class="edge">
<title>SE_StopWatchdog&#45;&gt;SE_onError</title>
<path fill="none" stroke="#000000" d="M633,-400.8509C633,-380.6843 633,-347.8643 633,-324.3133"/>
<polygon fill="#000000" stroke="#000000" points="636.5001,-324.2235 633,-314.2235 629.5001,-324.2236 636.5001,-324.2235"/>
</g>
<!-- SM_Decode -->
<g id="node11" class="node">
<title>SM_Decode</title>
<polygon fill="none" stroke="#000000" points="859.5,-314 770.5,-314 770.5,-278 859.5,-278 859.5,-314"/>
<text text-anchor="middle" x="815" y="-299" font-family="Times,serif" font-size="10.00" fill="#000000">Parse received</text>
<text text-anchor="middle" x="815" y="-288" font-family="Times,serif" font-size="10.00" fill="#000000">JSON string</text>
</g>
<!-- SM_ResetWatchdog&#45;&gt;SM_Decode -->
<g id="edge5" class="edge">
<title>SM_ResetWatchdog&#45;&gt;SM_Decode</title>
<path fill="none" stroke="#000000" d="M803.0657,-400.8509C805.3611,-380.6843 809.0967,-347.8643 811.7773,-324.3133"/>
<polygon fill="#000000" stroke="#000000" points="815.2723,-324.5552 812.9258,-314.2235 808.3172,-323.7635 815.2723,-324.5552"/>
</g>
<!-- SM_IF -->
<g id="node12" class="node">
<title>SM_IF</title>
<polygon fill="none" stroke="#000000" points="824,-177 715.5508,-159 824,-141 932.4492,-159 824,-177"/>
<text text-anchor="middle" x="824" y="-156.5" font-family="Times,serif" font-size="10.00" fill="#000000">Check method variable</text>
</g>
<!-- SM_Decode&#45;&gt;SM_IF -->
<g id="edge6" class="edge">
<title>SM_Decode&#45;&gt;SM_IF</title>
<path fill="none" stroke="#000000" d="M816.1951,-277.8075C817.7232,-254.5465 820.3845,-214.0365 822.1689,-186.8728"/>
<polygon fill="#000000" stroke="#000000" points="825.6654,-187.0404 822.8285,-176.8324 818.6804,-186.5814 825.6654,-187.0404"/>
</g>
<!-- SM_onNotification -->
<g id="node13" class="node">
<title>SM_onNotification</title>
<polygon fill="none" stroke="#ff0000" points="800,-52 716,-52 716,-16 800,-16 800,-52"/>
<text text-anchor="middle" x="758" y="-31.5" font-family="Times,serif" font-size="10.00" fill="#000000">…Notification</text>
</g>
<!-- SM_IF&#45;&gt;SM_onNotification -->
<g id="edge7" class="edge">
<title>SM_IF&#45;&gt;SM_onNotification</title>
<path fill="none" stroke="#000000" d="M793.8892,-145.8483C777.078,-136.7449 757.6301,-122.8565 748,-104 741.415,-91.106 743.0197,-75.2357 746.6658,-61.868"/>
<polygon fill="#000000" stroke="#000000" points="750.0375,-62.8151 749.7501,-52.2242 743.3702,-60.6827 750.0375,-62.8151"/>
<text text-anchor="middle" x="839.5" y="-92.8" font-family="Times,serif" font-size="14.00" fill="#000000">method == &quot;notification&quot;</text>
</g>
<!-- SM_onMessage -->
<g id="node14" class="node">
<title>SM_onMessage</title>
<polygon fill="none" stroke="#ff0000" points="981.5,-52 910.5,-52 910.5,-16 981.5,-16 981.5,-52"/>
<text text-anchor="middle" x="946" y="-31.5" font-family="Times,serif" font-size="10.00" fill="#000000">…Message</text>
</g>
<!-- SM_IF&#45;&gt;SM_onMessage -->
<g id="edge8" class="edge">
<title>SM_IF&#45;&gt;SM_onMessage</title>
<path fill="none" stroke="#000000" d="M864.5128,-147.7141C887.3665,-139.2971 914.5544,-125.4746 931,-104 940.0928,-92.1266 943.9518,-75.9498 945.4881,-62.1384"/>
<polygon fill="#000000" stroke="#000000" points="948.9792,-62.3877 946.2585,-52.1482 941.9999,-61.8494 948.9792,-62.3877"/>
<text text-anchor="middle" x="953.5" y="-92.8" font-family="Times,serif" font-size="14.00" fill="#000000">else</text>
</g>
</g>
</svg>
