<?xml version="1.0" encoding="UTF-8" standalone="no"?>
<!DOCTYPE svg PUBLIC "-//W3C//DTD SVG 1.1//EN"
 "http://www.w3.org/Graphics/SVG/1.1/DTD/svg11.dtd">
<!-- Generated by graphviz version 2.46.0 (0)
 -->
<!-- Title: hierarchy Pages: 1 -->
<svg width="144pt" height="229pt"
 viewBox="0.00 0.00 144.00 229.00" xmlns="http://www.w3.org/2000/svg" xmlns:xlink="http://www.w3.org/1999/xlink">
<g id="graph0" class="graph" transform="scale(1 1) rotate(0) translate(4 225)">
<title>hierarchy</title>
<polygon fill="white" stroke="transparent" points="-4,4 -4,-225 140,-225 140,4 -4,4"/>
<!-- api -->
<g id="node1" class="node">
<title>api</title>
<polygon fill="#f2f2f2" stroke="black" points="11.5,-106.5 11.5,-220.5 124.5,-220.5 124.5,-106.5 11.5,-106.5"/>
<text text-anchor="middle" x="68" y="-205.3" font-family="Times,serif" font-size="14.00">LycraCrawler</text>
<polyline fill="none" stroke="black" points="11.5,-197.5 124.5,-197.5 "/>
<text text-anchor="start" x="19.5" y="-182.3" font-family="Times,serif" font-size="14.00"># name</text>
<text text-anchor="start" x="19.5" y="-167.3" font-family="Times,serif" font-size="14.00"># version</text>
<text text-anchor="start" x="19.5" y="-152.3" font-family="Times,serif" font-size="14.00"># db</text>
<polyline fill="none" stroke="black" points="11.5,-144.5 124.5,-144.5 "/>
<text text-anchor="start" x="19.5" y="-129.3" font-family="Times,serif" font-size="14.00">+ Crawl</text>
<text text-anchor="start" x="19.5" y="-114.3" font-family="Times,serif" font-size="14.00"># DoCrawl</text>
</g>
<!-- crawler -->
<g id="node2" class="node">
<title>crawler</title>
<polygon fill="#f2f2f2" stroke="black" points="0,-0.5 0,-69.5 136,-69.5 136,-0.5 0,-0.5"/>
<text text-anchor="middle" x="68" y="-54.3" font-family="Times,serif" font-size="14.00">ExampleCrawler</text>
<polyline fill="none" stroke="black" points="0,-46.5 136,-46.5 "/>
<text text-anchor="middle" x="68" y="-31.3" font-family="Times,serif" font-size="14.00"> </text>
<polyline fill="none" stroke="black" points="0,-23.5 136,-23.5 "/>
<text text-anchor="start" x="8" y="-8.3" font-family="Times,serif" font-size="14.00">/# DoCrawl</text>
</g>
<!-- api&#45;&gt;crawler -->
<g id="edge1" class="edge">
<title>api&#45;&gt;crawler</title>
<path fill="none" stroke="black" d="M68,-96.25C68,-87 68,-77.83 68,-69.55"/>
<polygon fill="none" stroke="black" points="64.5,-96.28 68,-106.28 71.5,-96.28 64.5,-96.28"/>
</g>
</g>
</svg>
