<?xml version="1.0" encoding="UTF-8" standalone="no"?>
<!DOCTYPE svg PUBLIC "-//W3C//DTD SVG 1.1//EN"
 "http://www.w3.org/Graphics/SVG/1.1/DTD/svg11.dtd">
<!-- Generated by graphviz version 2.40.1 (20161225.0304)
 -->
<!-- Title: hierarchy Pages: 1 -->
<svg width="360pt" height="426pt"
 viewBox="0.00 0.00 360.00 425.66" xmlns="http://www.w3.org/2000/svg" xmlns:xlink="http://www.w3.org/1999/xlink">
<g id="graph0" class="graph" transform="scale(.7377 .7377) rotate(0) translate(4 573)">
<title>hierarchy</title>
<polygon fill="#ffffff" stroke="transparent" points="-4,4 -4,-573 484,-573 484,4 -4,4"/>
<!-- Text -->
<g id="node1" class="node">
<title>Text</title>
<polygon fill="#f2f2f2" stroke="#000000" points="268.5,-499.5 268.5,-568.5 322.5,-568.5 322.5,-499.5 268.5,-499.5"/>
<text text-anchor="middle" x="295.5" y="-553.3" font-family="Times,serif" font-size="14.00" fill="#000000">Text</text>
<polyline fill="none" stroke="#000000" points="268.5,-545.5 322.5,-545.5 "/>
<text text-anchor="middle" x="295.5" y="-530.3" font-family="Times,serif" font-size="14.00" fill="#000000"> </text>
<polyline fill="none" stroke="#000000" points="268.5,-522.5 322.5,-522.5 "/>
<text text-anchor="middle" x="295.5" y="-507.3" font-family="Times,serif" font-size="14.00" fill="#000000"> </text>
</g>
<!-- Frame -->
<g id="node2" class="node">
<title>Frame</title>
<polygon fill="#f2f2f2" stroke="#000000" points="139.5,-386 139.5,-455 221.5,-455 221.5,-386 139.5,-386"/>
<text text-anchor="middle" x="180.5" y="-439.8" font-family="Times,serif" font-size="14.00" fill="#000000">Frame</text>
<polyline fill="none" stroke="#000000" points="139.5,-432 221.5,-432 "/>
<text text-anchor="middle" x="180.5" y="-416.8" font-family="Times,serif" font-size="14.00" fill="#000000"> </text>
<polyline fill="none" stroke="#000000" points="139.5,-409 221.5,-409 "/>
<text text-anchor="start" x="147.5" y="-393.8" font-family="Times,serif" font-size="14.00" fill="#000000">+ Draw()</text>
</g>
<!-- Text&#45;&gt;Frame -->
<g id="edge1" class="edge">
<title>Text&#45;&gt;Frame</title>
<path fill="none" stroke="#000000" d="M261.0127,-499.9625C246.7395,-485.8755 230.2006,-469.5523 215.8392,-455.3783"/>
<polygon fill="none" stroke="#000000" points="258.6707,-502.5686 268.2466,-507.1021 263.5878,-497.5865 258.6707,-502.5686"/>
</g>
<!-- TextInput -->
<g id="node11" class="node">
<title>TextInput</title>
<polygon fill="#f2f2f2" stroke="#000000" points="240,-378.5 240,-462.5 351,-462.5 351,-378.5 240,-378.5"/>
<text text-anchor="middle" x="295.5" y="-447.3" font-family="Times,serif" font-size="14.00" fill="#000000">TextInput</text>
<polyline fill="none" stroke="#000000" points="240,-439.5 351,-439.5 "/>
<text text-anchor="middle" x="295.5" y="-424.3" font-family="Times,serif" font-size="14.00" fill="#000000"> </text>
<polyline fill="none" stroke="#000000" points="240,-416.5 351,-416.5 "/>
<text text-anchor="start" x="248" y="-401.3" font-family="Times,serif" font-size="14.00" fill="#000000">+ Draw()</text>
<text text-anchor="start" x="248" y="-386.3" font-family="Times,serif" font-size="14.00" fill="#000000">+ HandleKey</text>
</g>
<!-- Text&#45;&gt;TextInput -->
<g id="edge2" class="edge">
<title>Text&#45;&gt;TextInput</title>
<path fill="none" stroke="#000000" d="M295.5,-489.246C295.5,-480.453 295.5,-471.2574 295.5,-462.5566"/>
<polygon fill="none" stroke="#000000" points="292.0001,-489.3295 295.5,-499.3295 299.0001,-489.3296 292.0001,-489.3295"/>
</g>
<!-- BoolInput -->
<g id="node12" class="node">
<title>BoolInput</title>
<polygon fill="#f2f2f2" stroke="#000000" points="369,-378.5 369,-462.5 480,-462.5 480,-378.5 369,-378.5"/>
<text text-anchor="middle" x="424.5" y="-447.3" font-family="Times,serif" font-size="14.00" fill="#000000">BoolInput</text>
<polyline fill="none" stroke="#000000" points="369,-439.5 480,-439.5 "/>
<text text-anchor="middle" x="424.5" y="-424.3" font-family="Times,serif" font-size="14.00" fill="#000000"> </text>
<polyline fill="none" stroke="#000000" points="369,-416.5 480,-416.5 "/>
<text text-anchor="start" x="377" y="-401.3" font-family="Times,serif" font-size="14.00" fill="#000000">+ Draw()</text>
<text text-anchor="start" x="377" y="-386.3" font-family="Times,serif" font-size="14.00" fill="#000000">+ HandleKey</text>
</g>
<!-- Text&#45;&gt;BoolInput -->
<g id="edge3" class="edge">
<title>Text&#45;&gt;BoolInput</title>
<path fill="none" stroke="#000000" d="M330.1618,-500.2176C330.6097,-499.8084 331.0559,-499.4024 331.5,-499 344.8086,-486.9409 359.5322,-474.2356 373.264,-462.6426"/>
<polygon fill="none" stroke="#000000" points="327.7624,-497.6694 322.8276,-507.0449 332.5319,-502.7931 327.7624,-497.6694"/>
</g>
<!-- Pane -->
<g id="node3" class="node">
<title>Pane</title>
<polygon fill="#f2f2f2" stroke="#000000" points="139.5,-272.5 139.5,-341.5 221.5,-341.5 221.5,-272.5 139.5,-272.5"/>
<text text-anchor="middle" x="180.5" y="-326.3" font-family="Times,serif" font-size="14.00" fill="#000000">Pane</text>
<polyline fill="none" stroke="#000000" points="139.5,-318.5 221.5,-318.5 "/>
<text text-anchor="middle" x="180.5" y="-303.3" font-family="Times,serif" font-size="14.00" fill="#000000"> </text>
<polyline fill="none" stroke="#000000" points="139.5,-295.5 221.5,-295.5 "/>
<text text-anchor="start" x="147.5" y="-280.3" font-family="Times,serif" font-size="14.00" fill="#000000">+ Draw()</text>
</g>
<!-- Frame&#45;&gt;Pane -->
<g id="edge4" class="edge">
<title>Frame&#45;&gt;Pane</title>
<path fill="none" stroke="#000000" d="M180.5,-375.7267C180.5,-364.4651 180.5,-352.5443 180.5,-341.8493"/>
<polygon fill="none" stroke="#000000" points="177.0001,-375.8295 180.5,-385.8295 184.0001,-375.8296 177.0001,-375.8295"/>
</g>
<!-- ButtonView -->
<g id="node4" class="node">
<title>ButtonView</title>
<polygon fill="#f2f2f2" stroke="#000000" points="0,-144 0,-213 101,-213 101,-144 0,-144"/>
<text text-anchor="middle" x="50.5" y="-197.8" font-family="Times,serif" font-size="14.00" fill="#000000">ButtonView</text>
<polyline fill="none" stroke="#000000" points="0,-190 101,-190 "/>
<text text-anchor="middle" x="50.5" y="-174.8" font-family="Times,serif" font-size="14.00" fill="#000000"> </text>
<polyline fill="none" stroke="#000000" points="0,-167 101,-167 "/>
<text text-anchor="start" x="8" y="-151.8" font-family="Times,serif" font-size="14.00" fill="#000000">+ Draw()</text>
</g>
<!-- Pane&#45;&gt;ButtonView -->
<g id="edge5" class="edge">
<title>Pane&#45;&gt;ButtonView</title>
<path fill="none" stroke="#000000" d="M138.2066,-265.1946C121.2333,-248.4172 101.8974,-229.3044 85.708,-213.3017"/>
<polygon fill="none" stroke="#000000" points="135.7476,-267.6853 145.3201,-272.226 140.6686,-262.7069 135.7476,-267.6853"/>
</g>
<!-- ListView -->
<g id="node5" class="node">
<title>ListView</title>
<polygon fill="#f2f2f2" stroke="#000000" points="119.5,-121.5 119.5,-235.5 241.5,-235.5 241.5,-121.5 119.5,-121.5"/>
<text text-anchor="middle" x="180.5" y="-220.3" font-family="Times,serif" font-size="14.00" fill="#000000">ListView</text>
<polyline fill="none" stroke="#000000" points="119.5,-212.5 241.5,-212.5 "/>
<text text-anchor="middle" x="180.5" y="-197.3" font-family="Times,serif" font-size="14.00" fill="#000000"> </text>
<polyline fill="none" stroke="#000000" points="119.5,-189.5 241.5,-189.5 "/>
<text text-anchor="start" x="127.5" y="-174.3" font-family="Times,serif" font-size="14.00" fill="#000000">+ Draw()</text>
<text text-anchor="start" x="127.5" y="-159.3" font-family="Times,serif" font-size="14.00" fill="#000000">+ HandleKey()</text>
<text text-anchor="start" x="127.5" y="-144.3" font-family="Times,serif" font-size="14.00" fill="#000000"># onDraw()</text>
<text text-anchor="start" x="127.5" y="-129.3" font-family="Times,serif" font-size="14.00" fill="#000000"># onAction()</text>
</g>
<!-- Pane&#45;&gt;ListView -->
<g id="edge6" class="edge">
<title>Pane&#45;&gt;ListView</title>
<path fill="none" stroke="#000000" d="M180.5,-262.0859C180.5,-253.5297 180.5,-244.469 180.5,-235.5928"/>
<polygon fill="none" stroke="#000000" points="177.0001,-262.226 180.5,-272.226 184.0001,-262.2261 177.0001,-262.226"/>
</g>
<!-- Group -->
<g id="node7" class="node">
<title>Group</title>
<polygon fill="#f2f2f2" stroke="#000000" points="259.5,-144 259.5,-213 341.5,-213 341.5,-144 259.5,-144"/>
<text text-anchor="middle" x="300.5" y="-197.8" font-family="Times,serif" font-size="14.00" fill="#000000">Group</text>
<polyline fill="none" stroke="#000000" points="259.5,-190 341.5,-190 "/>
<text text-anchor="middle" x="300.5" y="-174.8" font-family="Times,serif" font-size="14.00" fill="#000000"> </text>
<polyline fill="none" stroke="#000000" points="259.5,-167 341.5,-167 "/>
<text text-anchor="start" x="267.5" y="-151.8" font-family="Times,serif" font-size="14.00" fill="#000000">+ Draw()</text>
</g>
<!-- Pane&#45;&gt;Group -->
<g id="edge7" class="edge">
<title>Pane&#45;&gt;Group</title>
<path fill="none" stroke="#000000" d="M222.5072,-265.2613C231.8372,-255.7517 241.5963,-245.6146 250.5,-236 257.2414,-228.7203 264.3243,-220.7708 270.97,-213.1688"/>
<polygon fill="none" stroke="#000000" points="220.0055,-262.8136 215.4774,-272.3921 224.9904,-267.7279 220.0055,-262.8136"/>
</g>
<!-- Dialog -->
<g id="node6" class="node">
<title>Dialog</title>
<polygon fill="#f2f2f2" stroke="#000000" points="50.5,-.5 50.5,-84.5 176.5,-84.5 176.5,-.5 50.5,-.5"/>
<text text-anchor="middle" x="113.5" y="-69.3" font-family="Times,serif" font-size="14.00" fill="#000000">Dialog</text>
<polyline fill="none" stroke="#000000" points="50.5,-61.5 176.5,-61.5 "/>
<text text-anchor="middle" x="113.5" y="-46.3" font-family="Times,serif" font-size="14.00" fill="#000000"> </text>
<polyline fill="none" stroke="#000000" points="50.5,-38.5 176.5,-38.5 "/>
<text text-anchor="start" x="58.5" y="-23.3" font-family="Times,serif" font-size="14.00" fill="#000000">/+ Draw()</text>
<text text-anchor="start" x="58.5" y="-8.3" font-family="Times,serif" font-size="14.00" fill="#000000">/+ HandleKey()</text>
</g>
<!-- ButtonView&#45;&gt;Dialog -->
<g id="edge9" class="edge">
<title>ButtonView&#45;&gt;Dialog</title>
<path fill="none" stroke="#000000" d="M70.7907,-134.6979C78.1863,-118.7328 86.5299,-100.7212 93.8673,-84.8817"/>
<polygon fill="#000000" stroke="#000000" points="66.5606,-143.8296 66.6807,-132.8643 68.6622,-139.2927 70.7639,-134.7558 70.7639,-134.7558 70.7639,-134.7558 68.6622,-139.2927 74.8471,-136.6473 66.5606,-143.8296 66.5606,-143.8296"/>
</g>
<!-- ListView&#45;&gt;Dialog -->
<g id="edge8" class="edge">
<title>ListView&#45;&gt;Dialog</title>
<path fill="none" stroke="#000000" d="M147.7429,-112.008C143.1871,-102.7604 138.613,-93.4755 134.3577,-84.8381"/>
<polygon fill="none" stroke="#000000" points="144.7211,-113.7942 152.2802,-121.2179 151.0005,-110.7006 144.7211,-113.7942"/>
</g>
<!-- HGroup -->
<g id="node8" class="node">
<title>HGroup</title>
<polygon fill="#f2f2f2" stroke="#000000" points="205.5,-8 205.5,-77 291.5,-77 291.5,-8 205.5,-8"/>
<text text-anchor="middle" x="248.5" y="-61.8" font-family="Times,serif" font-size="14.00" fill="#000000">HGroup</text>
<polyline fill="none" stroke="#000000" points="205.5,-54 291.5,-54 "/>
<text text-anchor="middle" x="248.5" y="-38.8" font-family="Times,serif" font-size="14.00" fill="#000000"> </text>
<polyline fill="none" stroke="#000000" points="205.5,-31 291.5,-31 "/>
<text text-anchor="start" x="213.5" y="-15.8" font-family="Times,serif" font-size="14.00" fill="#000000">/+ Draw()</text>
</g>
<!-- Group&#45;&gt;HGroup -->
<g id="edge10" class="edge">
<title>Group&#45;&gt;HGroup</title>
<path fill="none" stroke="#000000" d="M283.638,-134.3993C276.5355,-115.8237 268.3907,-94.522 261.7321,-77.1071"/>
<polygon fill="none" stroke="#000000" points="280.403,-135.739 287.2437,-143.8296 286.9414,-133.239 280.403,-135.739"/>
</g>
<!-- VGroup -->
<g id="node9" class="node">
<title>VGroup</title>
<polygon fill="#f2f2f2" stroke="#000000" points="309.5,-8 309.5,-77 395.5,-77 395.5,-8 309.5,-8"/>
<text text-anchor="middle" x="352.5" y="-61.8" font-family="Times,serif" font-size="14.00" fill="#000000">VGroup</text>
<polyline fill="none" stroke="#000000" points="309.5,-54 395.5,-54 "/>
<text text-anchor="middle" x="352.5" y="-38.8" font-family="Times,serif" font-size="14.00" fill="#000000"> </text>
<polyline fill="none" stroke="#000000" points="309.5,-31 395.5,-31 "/>
<text text-anchor="start" x="317.5" y="-15.8" font-family="Times,serif" font-size="14.00" fill="#000000">/+ Draw()</text>
</g>
<!-- Group&#45;&gt;VGroup -->
<g id="edge11" class="edge">
<title>Group&#45;&gt;VGroup</title>
<path fill="none" stroke="#000000" d="M317.362,-134.3993C324.4645,-115.8237 332.6093,-94.522 339.2679,-77.1071"/>
<polygon fill="none" stroke="#000000" points="314.0586,-133.239 313.7563,-143.8296 320.597,-135.739 314.0586,-133.239"/>
</g>
<!-- TabGroup -->
<g id="node10" class="node">
<title>TabGroup</title>
<polygon fill="#f2f2f2" stroke="#000000" points="340.5,-499.5 340.5,-568.5 462.5,-568.5 462.5,-499.5 340.5,-499.5"/>
<text text-anchor="middle" x="401.5" y="-553.3" font-family="Times,serif" font-size="14.00" fill="#000000">TabGroup</text>
<polyline fill="none" stroke="#000000" points="340.5,-545.5 462.5,-545.5 "/>
<text text-anchor="middle" x="401.5" y="-530.3" font-family="Times,serif" font-size="14.00" fill="#000000"> </text>
<polyline fill="none" stroke="#000000" points="340.5,-522.5 462.5,-522.5 "/>
<text text-anchor="start" x="348.5" y="-507.3" font-family="Times,serif" font-size="14.00" fill="#000000">+ HandleKey()</text>
</g>
</g>
</svg>
