<?xml version="1.0" encoding="UTF-8" standalone="no"?>
<!DOCTYPE svg PUBLIC "-//W3C//DTD SVG 1.1//EN"
 "http://www.w3.org/Graphics/SVG/1.1/DTD/svg11.dtd">
<!-- Generated by graphviz version 2.40.1 (20161225.0304)
 -->
<!-- Title: hierarchy Pages: 1 -->
<svg width="360pt" height="442pt"
 viewBox="0.00 0.00 360.00 442.23" xmlns="http://www.w3.org/2000/svg" xmlns:xlink="http://www.w3.org/1999/xlink">
<g id="graph0" class="graph" transform="scale(.7869 .7869) rotate(0) translate(4 558)">
<title>hierarchy</title>
<polygon fill="#ffffff" stroke="transparent" points="-4,4 -4,-558 453.5,-558 453.5,4 -4,4"/>
<!-- Text -->
<g id="node1" class="node">
<title>Text</title>
<polygon fill="#f2f2f2" stroke="#000000" points="153.5,-484.5 153.5,-553.5 207.5,-553.5 207.5,-484.5 153.5,-484.5"/>
<text text-anchor="middle" x="180.5" y="-538.3" font-family="Times,serif" font-size="14.00" fill="#000000">Text</text>
<polyline fill="none" stroke="#000000" points="153.5,-530.5 207.5,-530.5 "/>
<text text-anchor="middle" x="180.5" y="-515.3" font-family="Times,serif" font-size="14.00" fill="#000000"> </text>
<polyline fill="none" stroke="#000000" points="153.5,-507.5 207.5,-507.5 "/>
<text text-anchor="middle" x="180.5" y="-492.3" font-family="Times,serif" font-size="14.00" fill="#000000"> </text>
</g>
<!-- Frame -->
<g id="node2" class="node">
<title>Frame</title>
<polygon fill="#f2f2f2" stroke="#000000" points="139.5,-378.5 139.5,-447.5 221.5,-447.5 221.5,-378.5 139.5,-378.5"/>
<text text-anchor="middle" x="180.5" y="-432.3" font-family="Times,serif" font-size="14.00" fill="#000000">Frame</text>
<polyline fill="none" stroke="#000000" points="139.5,-424.5 221.5,-424.5 "/>
<text text-anchor="middle" x="180.5" y="-409.3" font-family="Times,serif" font-size="14.00" fill="#000000"> </text>
<polyline fill="none" stroke="#000000" points="139.5,-401.5 221.5,-401.5 "/>
<text text-anchor="start" x="147.5" y="-386.3" font-family="Times,serif" font-size="14.00" fill="#000000">+ Draw()</text>
</g>
<!-- Text&#45;&gt;Frame -->
<g id="edge1" class="edge">
<title>Text&#45;&gt;Frame</title>
<path fill="none" stroke="#000000" d="M180.5,-474.1462C180.5,-465.332 180.5,-456.2098 180.5,-447.7863"/>
<polygon fill="none" stroke="#000000" points="177.0001,-474.2916 180.5,-484.2916 184.0001,-474.2917 177.0001,-474.2916"/>
</g>
<!-- Pane -->
<g id="node3" class="node">
<title>Pane</title>
<polygon fill="#f2f2f2" stroke="#000000" points="139.5,-272.5 139.5,-341.5 221.5,-341.5 221.5,-272.5 139.5,-272.5"/>
<text text-anchor="middle" x="180.5" y="-326.3" font-family="Times,serif" font-size="14.00" fill="#000000">Pane</text>
<polyline fill="none" stroke="#000000" points="139.5,-318.5 221.5,-318.5 "/>
<text text-anchor="middle" x="180.5" y="-303.3" font-family="Times,serif" font-size="14.00" fill="#000000"> </text>
<polyline fill="none" stroke="#000000" points="139.5,-295.5 221.5,-295.5 "/>
<text text-anchor="start" x="147.5" y="-280.3" font-family="Times,serif" font-size="14.00" fill="#000000">+ Draw()</text>
</g>
<!-- Frame&#45;&gt;Pane -->
<g id="edge2" class="edge">
<title>Frame&#45;&gt;Pane</title>
<path fill="none" stroke="#000000" d="M180.5,-368.1462C180.5,-359.332 180.5,-350.2098 180.5,-341.7863"/>
<polygon fill="none" stroke="#000000" points="177.0001,-368.2916 180.5,-378.2916 184.0001,-368.2917 177.0001,-368.2916"/>
</g>
<!-- ButtonView -->
<g id="node4" class="node">
<title>ButtonView</title>
<polygon fill="#f2f2f2" stroke="#000000" points="0,-144 0,-213 101,-213 101,-144 0,-144"/>
<text text-anchor="middle" x="50.5" y="-197.8" font-family="Times,serif" font-size="14.00" fill="#000000">ButtonView</text>
<polyline fill="none" stroke="#000000" points="0,-190 101,-190 "/>
<text text-anchor="middle" x="50.5" y="-174.8" font-family="Times,serif" font-size="14.00" fill="#000000"> </text>
<polyline fill="none" stroke="#000000" points="0,-167 101,-167 "/>
<text text-anchor="start" x="8" y="-151.8" font-family="Times,serif" font-size="14.00" fill="#000000">+ Draw()</text>
</g>
<!-- Pane&#45;&gt;ButtonView -->
<g id="edge3" class="edge">
<title>Pane&#45;&gt;ButtonView</title>
<path fill="none" stroke="#000000" d="M138.2066,-265.1946C121.2333,-248.4172 101.8974,-229.3044 85.708,-213.3017"/>
<polygon fill="none" stroke="#000000" points="135.7476,-267.6853 145.3201,-272.226 140.6686,-262.7069 135.7476,-267.6853"/>
</g>
<!-- ListView -->
<g id="node5" class="node">
<title>ListView</title>
<polygon fill="#f2f2f2" stroke="#000000" points="119.5,-121.5 119.5,-235.5 241.5,-235.5 241.5,-121.5 119.5,-121.5"/>
<text text-anchor="middle" x="180.5" y="-220.3" font-family="Times,serif" font-size="14.00" fill="#000000">ListView</text>
<polyline fill="none" stroke="#000000" points="119.5,-212.5 241.5,-212.5 "/>
<text text-anchor="middle" x="180.5" y="-197.3" font-family="Times,serif" font-size="14.00" fill="#000000"> </text>
<polyline fill="none" stroke="#000000" points="119.5,-189.5 241.5,-189.5 "/>
<text text-anchor="start" x="127.5" y="-174.3" font-family="Times,serif" font-size="14.00" fill="#000000">+ Draw()</text>
<text text-anchor="start" x="127.5" y="-159.3" font-family="Times,serif" font-size="14.00" fill="#000000">+ HandleKey()</text>
<text text-anchor="start" x="127.5" y="-144.3" font-family="Times,serif" font-size="14.00" fill="#000000"># onDraw()</text>
<text text-anchor="start" x="127.5" y="-129.3" font-family="Times,serif" font-size="14.00" fill="#000000"># onAction()</text>
</g>
<!-- Pane&#45;&gt;ListView -->
<g id="edge4" class="edge">
<title>Pane&#45;&gt;ListView</title>
<path fill="none" stroke="#000000" d="M180.5,-262.0859C180.5,-253.5297 180.5,-244.469 180.5,-235.5928"/>
<polygon fill="none" stroke="#000000" points="177.0001,-262.226 180.5,-272.226 184.0001,-262.2261 177.0001,-262.226"/>
</g>
<!-- Group -->
<g id="node7" class="node">
<title>Group</title>
<polygon fill="#f2f2f2" stroke="#000000" points="261.5,-144 261.5,-213 343.5,-213 343.5,-144 261.5,-144"/>
<text text-anchor="middle" x="302.5" y="-197.8" font-family="Times,serif" font-size="14.00" fill="#000000">Group</text>
<polyline fill="none" stroke="#000000" points="261.5,-190 343.5,-190 "/>
<text text-anchor="middle" x="302.5" y="-174.8" font-family="Times,serif" font-size="14.00" fill="#000000"> </text>
<polyline fill="none" stroke="#000000" points="261.5,-167 343.5,-167 "/>
<text text-anchor="start" x="269.5" y="-151.8" font-family="Times,serif" font-size="14.00" fill="#000000">+ Draw()</text>
</g>
<!-- Pane&#45;&gt;Group -->
<g id="edge5" class="edge">
<title>Pane&#45;&gt;Group</title>
<path fill="none" stroke="#000000" d="M222.3686,-265.1317C231.706,-255.6289 241.5032,-245.5275 250.5,-236 257.4306,-228.6606 264.7635,-220.6864 271.6681,-213.0793"/>
<polygon fill="none" stroke="#000000" points="219.8669,-262.6839 215.3387,-272.2624 224.8517,-267.5983 219.8669,-262.6839"/>
</g>
<!-- Dialog -->
<g id="node6" class="node">
<title>Dialog</title>
<polygon fill="#f2f2f2" stroke="#000000" points="115.5,-.5 115.5,-84.5 241.5,-84.5 241.5,-.5 115.5,-.5"/>
<text text-anchor="middle" x="178.5" y="-69.3" font-family="Times,serif" font-size="14.00" fill="#000000">Dialog</text>
<polyline fill="none" stroke="#000000" points="115.5,-61.5 241.5,-61.5 "/>
<text text-anchor="middle" x="178.5" y="-46.3" font-family="Times,serif" font-size="14.00" fill="#000000"> </text>
<polyline fill="none" stroke="#000000" points="115.5,-38.5 241.5,-38.5 "/>
<text text-anchor="start" x="123.5" y="-23.3" font-family="Times,serif" font-size="14.00" fill="#000000">/+ Draw()</text>
<text text-anchor="start" x="123.5" y="-8.3" font-family="Times,serif" font-size="14.00" fill="#000000">/+ HandleKey()</text>
</g>
<!-- ListView&#45;&gt;Dialog -->
<g id="edge6" class="edge">
<title>ListView&#45;&gt;Dialog</title>
<path fill="none" stroke="#000000" d="M179.5094,-111.141C179.3777,-102.1807 179.2457,-93.2056 179.1226,-84.8381"/>
<polygon fill="none" stroke="#000000" points="176.0109,-111.2705 179.6576,-121.2179 183.0101,-111.1675 176.0109,-111.2705"/>
</g>
<!-- HGroup -->
<g id="node8" class="node">
<title>HGroup</title>
<polygon fill="#f2f2f2" stroke="#000000" points="259.5,-8 259.5,-77 345.5,-77 345.5,-8 259.5,-8"/>
<text text-anchor="middle" x="302.5" y="-61.8" font-family="Times,serif" font-size="14.00" fill="#000000">HGroup</text>
<polyline fill="none" stroke="#000000" points="259.5,-54 345.5,-54 "/>
<text text-anchor="middle" x="302.5" y="-38.8" font-family="Times,serif" font-size="14.00" fill="#000000"> </text>
<polyline fill="none" stroke="#000000" points="259.5,-31 345.5,-31 "/>
<text text-anchor="start" x="267.5" y="-15.8" font-family="Times,serif" font-size="14.00" fill="#000000">/+ Draw()</text>
</g>
<!-- Group&#45;&gt;HGroup -->
<g id="edge7" class="edge">
<title>Group&#45;&gt;HGroup</title>
<path fill="none" stroke="#000000" d="M302.5,-133.6308C302.5,-115.2381 302.5,-94.2823 302.5,-77.1071"/>
<polygon fill="none" stroke="#000000" points="299.0001,-133.8295 302.5,-143.8296 306.0001,-133.8296 299.0001,-133.8295"/>
</g>
<!-- VGroup -->
<g id="node9" class="node">
<title>VGroup</title>
<polygon fill="#f2f2f2" stroke="#000000" points="363.5,-8 363.5,-77 449.5,-77 449.5,-8 363.5,-8"/>
<text text-anchor="middle" x="406.5" y="-61.8" font-family="Times,serif" font-size="14.00" fill="#000000">VGroup</text>
<polyline fill="none" stroke="#000000" points="363.5,-54 449.5,-54 "/>
<text text-anchor="middle" x="406.5" y="-38.8" font-family="Times,serif" font-size="14.00" fill="#000000"> </text>
<polyline fill="none" stroke="#000000" points="363.5,-31 449.5,-31 "/>
<text text-anchor="start" x="371.5" y="-15.8" font-family="Times,serif" font-size="14.00" fill="#000000">/+ Draw()</text>
</g>
<!-- Group&#45;&gt;VGroup -->
<g id="edge8" class="edge">
<title>Group&#45;&gt;VGroup</title>
<path fill="none" stroke="#000000" d="M335.25,-135.673C349.6802,-116.8029 366.4131,-94.9214 380.0357,-77.1071"/>
<polygon fill="none" stroke="#000000" points="332.307,-133.7599 329.0127,-143.8296 337.8675,-138.0121 332.307,-133.7599"/>
</g>
<!-- TabGroup -->
<g id="node10" class="node">
<title>TabGroup</title>
<polygon fill="#f2f2f2" stroke="#000000" points="225.5,-484.5 225.5,-553.5 347.5,-553.5 347.5,-484.5 225.5,-484.5"/>
<text text-anchor="middle" x="286.5" y="-538.3" font-family="Times,serif" font-size="14.00" fill="#000000">TabGroup</text>
<polyline fill="none" stroke="#000000" points="225.5,-530.5 347.5,-530.5 "/>
<text text-anchor="middle" x="286.5" y="-515.3" font-family="Times,serif" font-size="14.00" fill="#000000"> </text>
<polyline fill="none" stroke="#000000" points="225.5,-507.5 347.5,-507.5 "/>
<text text-anchor="start" x="233.5" y="-492.3" font-family="Times,serif" font-size="14.00" fill="#000000">+ HandleKey()</text>
</g>
</g>
</svg>
