<?xml version="1.0" encoding="UTF-8" standalone="no"?>
<!DOCTYPE svg PUBLIC "-//W3C//DTD SVG 1.1//EN"
 "http://www.w3.org/Graphics/SVG/1.1/DTD/svg11.dtd">
<!-- Generated by graphviz version 14.1.1 (0)
 -->
<!-- Title: hierarchy Pages: 1 -->
<svg width="360pt" height="261pt"
 viewBox="0.00 0.00 360.00 261.00" xmlns="http://www.w3.org/2000/svg" xmlns:xlink="http://www.w3.org/1999/xlink">
<g id="graph0" class="graph" transform="scale(0.868254 0.868254) rotate(0) translate(4 297)">
<title>hierarchy</title>
<polygon fill="white" stroke="none" points="-4,4 -4,-297 410.62,-297 410.62,4 -4,4"/>
<!-- csv -->
<g id="node1" class="node">
<title>csv</title>
<polygon fill="#f2f2f2" stroke="black" points="24.38,-165 24.38,-258 106.38,-258 106.38,-165 24.38,-165"/>
<text xml:space="preserve" text-anchor="middle" x="65.38" y="-240.7" font-family="Times,serif" font-size="14.00">CSVFile</text>
<polyline fill="none" stroke="black" points="24.38,-232.75 106.38,-232.75"/>
<text xml:space="preserve" text-anchor="middle" x="65.38" y="-215.45" font-family="Times,serif" font-size="14.00"> </text>
<polyline fill="none" stroke="black" points="24.38,-207.5 106.38,-207.5"/>
<text xml:space="preserve" text-anchor="start" x="32.38" y="-190.2" font-family="Times,serif" font-size="14.00">+ Read()</text>
<text xml:space="preserve" text-anchor="start" x="32.38" y="-172.95" font-family="Times,serif" font-size="14.00">+ Write()</text>
</g>
<!-- mdbstate -->
<g id="node5" class="node">
<title>mdbstate</title>
<polygon fill="#f2f2f2" stroke="black" points="0,-9.12 0,-84.88 130.75,-84.88 130.75,-9.12 0,-9.12"/>
<text xml:space="preserve" text-anchor="middle" x="65.38" y="-67.58" font-family="Times,serif" font-size="14.00">MDBState</text>
<polyline fill="none" stroke="black" points="0,-59.62 130.75,-59.62"/>
<text xml:space="preserve" text-anchor="middle" x="65.38" y="-42.33" font-family="Times,serif" font-size="14.00"> </text>
<polyline fill="none" stroke="black" points="0,-34.38 130.75,-34.38"/>
<text xml:space="preserve" text-anchor="start" x="8" y="-17.07" font-family="Times,serif" font-size="14.00">+ GetFilterlist()</text>
</g>
<!-- csv&#45;&gt;mdbstate -->
<g id="edge4" class="edge">
<title>csv&#45;&gt;mdbstate</title>
<path fill="none" stroke="black" d="M65.38,-153.89C65.38,-131.12 65.38,-105.49 65.38,-85.16"/>
<polygon fill="black" stroke="black" points="65.38,-163.58 60.88,-153.58 65.38,-159.8 65.38,-153.58 65.38,-153.58 65.38,-153.58 65.38,-159.8 69.88,-153.58 65.38,-163.58"/>
</g>
<!-- config -->
<g id="node2" class="node">
<title>config</title>
<polygon fill="#f2f2f2" stroke="black" points="135.25,-130.5 135.25,-292.5 291.5,-292.5 291.5,-130.5 135.25,-130.5"/>
<text xml:space="preserve" text-anchor="middle" x="213.38" y="-275.2" font-family="Times,serif" font-size="14.00">Config</text>
<polyline fill="none" stroke="black" points="135.25,-267.25 291.5,-267.25"/>
<text xml:space="preserve" text-anchor="middle" x="213.38" y="-249.95" font-family="Times,serif" font-size="14.00"> </text>
<polyline fill="none" stroke="black" points="135.25,-242 291.5,-242"/>
<text xml:space="preserve" text-anchor="start" x="143.25" y="-224.7" font-family="Times,serif" font-size="14.00">+ Load()</text>
<text xml:space="preserve" text-anchor="start" x="143.25" y="-207.45" font-family="Times,serif" font-size="14.00">+ Reload()</text>
<text xml:space="preserve" text-anchor="start" x="143.25" y="-190.2" font-family="Times,serif" font-size="14.00">+ Save()</text>
<text xml:space="preserve" text-anchor="start" x="143.25" y="-172.95" font-family="Times,serif" font-size="14.00">+ OptionAvailable()</text>
<text xml:space="preserve" text-anchor="start" x="143.25" y="-155.7" font-family="Times,serif" font-size="14.00">+ Get()</text>
<text xml:space="preserve" text-anchor="start" x="143.25" y="-138.45" font-family="Times,serif" font-size="14.00">+ Set()</text>
</g>
<!-- musicdb -->
<g id="node3" class="node">
<title>musicdb</title>
<polygon fill="#f2f2f2" stroke="black" points="149.12,-0.5 149.12,-93.5 277.62,-93.5 277.62,-0.5 149.12,-0.5"/>
<text xml:space="preserve" text-anchor="middle" x="213.38" y="-76.2" font-family="Times,serif" font-size="14.00">MusicDBConfig</text>
<polyline fill="none" stroke="black" points="149.12,-68.25 277.62,-68.25"/>
<text xml:space="preserve" text-anchor="middle" x="213.38" y="-50.95" font-family="Times,serif" font-size="14.00"> </text>
<polyline fill="none" stroke="black" points="149.12,-43 277.62,-43"/>
<text xml:space="preserve" text-anchor="start" x="157.12" y="-25.7" font-family="Times,serif" font-size="14.00">&#45; GetDirectory()</text>
<text xml:space="preserve" text-anchor="start" x="157.12" y="-8.45" font-family="Times,serif" font-size="14.00">&#45; GetFile()</text>
</g>
<!-- config&#45;&gt;musicdb -->
<g id="edge1" class="edge">
<title>config&#45;&gt;musicdb</title>
<path fill="none" stroke="black" d="M213.38,-118.83C213.38,-110.22 213.38,-101.76 213.38,-93.87"/>
<polygon fill="none" stroke="black" points="209.88,-118.69 213.38,-128.69 216.88,-118.69 209.88,-118.69"/>
</g>
<!-- extern -->
<g id="node4" class="node">
<title>extern</title>
<polygon fill="#f2f2f2" stroke="black" points="296.12,-9.12 296.12,-84.88 406.62,-84.88 406.62,-9.12 296.12,-9.12"/>
<text xml:space="preserve" text-anchor="middle" x="351.38" y="-67.58" font-family="Times,serif" font-size="14.00">ExternConfig</text>
<polyline fill="none" stroke="black" points="296.12,-59.62 406.62,-59.62"/>
<text xml:space="preserve" text-anchor="middle" x="351.38" y="-42.33" font-family="Times,serif" font-size="14.00"> </text>
<polyline fill="none" stroke="black" points="296.12,-34.38 406.62,-34.38"/>
<text xml:space="preserve" text-anchor="middle" x="351.38" y="-17.07" font-family="Times,serif" font-size="14.00"> </text>
</g>
<!-- config&#45;&gt;extern -->
<g id="edge2" class="edge">
<title>config&#45;&gt;extern</title>
<path fill="none" stroke="black" d="M288.81,-121.68C299.79,-108.74 310.56,-96.06 319.98,-84.97"/>
<polygon fill="none" stroke="black" points="286.35,-119.16 282.55,-129.05 291.69,-123.69 286.35,-119.16"/>
</g>
<!-- config&#45;&gt;mdbstate -->
<g id="edge3" class="edge">
<title>config&#45;&gt;mdbstate</title>
<path fill="none" stroke="black" d="M132.81,-122.05C120.91,-108.98 109.24,-96.17 99.04,-84.97"/>
<polygon fill="none" stroke="black" points="129.9,-124.05 139.22,-129.08 135.08,-119.33 129.9,-124.05"/>
</g>
</g>
</svg>
