<?xml version="1.0" encoding="UTF-8" standalone="no"?>
<!DOCTYPE svg PUBLIC "-//W3C//DTD SVG 1.1//EN"
 "http://www.w3.org/Graphics/SVG/1.1/DTD/svg11.dtd">
<!-- Generated by graphviz version 2.40.1 (20161225.0304)
 -->
<!-- Title: hierarchy Pages: 1 -->
<svg width="360pt" height="488pt"
 viewBox="0.00 0.00 360.00 488.03" xmlns="http://www.w3.org/2000/svg" xmlns:xlink="http://www.w3.org/1999/xlink">
<g id="graph0" class="graph" transform="scale(.8922 .8922) rotate(0) translate(4 543)">
<title>hierarchy</title>
<polygon fill="#ffffff" stroke="transparent" points="-4,4 -4,-543 399.5,-543 399.5,4 -4,4"/>
<!-- Text -->
<g id="node1" class="node">
<title>Text</title>
<polygon fill="#f2f2f2" stroke="#000000" points="153.5,-469.5 153.5,-538.5 207.5,-538.5 207.5,-469.5 153.5,-469.5"/>
<text text-anchor="middle" x="180.5" y="-523.3" font-family="Times,serif" font-size="14.00" fill="#000000">Text</text>
<polyline fill="none" stroke="#000000" points="153.5,-515.5 207.5,-515.5 "/>
<text text-anchor="middle" x="180.5" y="-500.3" font-family="Times,serif" font-size="14.00" fill="#000000"> </text>
<polyline fill="none" stroke="#000000" points="153.5,-492.5 207.5,-492.5 "/>
<text text-anchor="middle" x="180.5" y="-477.3" font-family="Times,serif" font-size="14.00" fill="#000000"> </text>
</g>
<!-- Frame -->
<g id="node2" class="node">
<title>Frame</title>
<polygon fill="#f2f2f2" stroke="#000000" points="139.5,-363.5 139.5,-432.5 221.5,-432.5 221.5,-363.5 139.5,-363.5"/>
<text text-anchor="middle" x="180.5" y="-417.3" font-family="Times,serif" font-size="14.00" fill="#000000">Frame</text>
<polyline fill="none" stroke="#000000" points="139.5,-409.5 221.5,-409.5 "/>
<text text-anchor="middle" x="180.5" y="-394.3" font-family="Times,serif" font-size="14.00" fill="#000000"> </text>
<polyline fill="none" stroke="#000000" points="139.5,-386.5 221.5,-386.5 "/>
<text text-anchor="start" x="147.5" y="-371.3" font-family="Times,serif" font-size="14.00" fill="#000000">+ Draw()</text>
</g>
<!-- Text&#45;&gt;Frame -->
<g id="edge1" class="edge">
<title>Text&#45;&gt;Frame</title>
<path fill="none" stroke="#000000" d="M180.5,-459.1462C180.5,-450.332 180.5,-441.2098 180.5,-432.7863"/>
<polygon fill="none" stroke="#000000" points="177.0001,-459.2916 180.5,-469.2916 184.0001,-459.2917 177.0001,-459.2916"/>
</g>
<!-- Pane -->
<g id="node3" class="node">
<title>Pane</title>
<polygon fill="#f2f2f2" stroke="#000000" points="139.5,-257.5 139.5,-326.5 221.5,-326.5 221.5,-257.5 139.5,-257.5"/>
<text text-anchor="middle" x="180.5" y="-311.3" font-family="Times,serif" font-size="14.00" fill="#000000">Pane</text>
<polyline fill="none" stroke="#000000" points="139.5,-303.5 221.5,-303.5 "/>
<text text-anchor="middle" x="180.5" y="-288.3" font-family="Times,serif" font-size="14.00" fill="#000000"> </text>
<polyline fill="none" stroke="#000000" points="139.5,-280.5 221.5,-280.5 "/>
<text text-anchor="start" x="147.5" y="-265.3" font-family="Times,serif" font-size="14.00" fill="#000000">+ Draw()</text>
</g>
<!-- Frame&#45;&gt;Pane -->
<g id="edge2" class="edge">
<title>Frame&#45;&gt;Pane</title>
<path fill="none" stroke="#000000" d="M180.5,-353.1462C180.5,-344.332 180.5,-335.2098 180.5,-326.7863"/>
<polygon fill="none" stroke="#000000" points="177.0001,-353.2916 180.5,-363.2916 184.0001,-353.2917 177.0001,-353.2916"/>
</g>
<!-- ButtonView -->
<g id="node4" class="node">
<title>ButtonView</title>
<polygon fill="#f2f2f2" stroke="#000000" points="0,-129 0,-198 101,-198 101,-129 0,-129"/>
<text text-anchor="middle" x="50.5" y="-182.8" font-family="Times,serif" font-size="14.00" fill="#000000">ButtonView</text>
<polyline fill="none" stroke="#000000" points="0,-175 101,-175 "/>
<text text-anchor="middle" x="50.5" y="-159.8" font-family="Times,serif" font-size="14.00" fill="#000000"> </text>
<polyline fill="none" stroke="#000000" points="0,-152 101,-152 "/>
<text text-anchor="start" x="8" y="-136.8" font-family="Times,serif" font-size="14.00" fill="#000000">+ Draw()</text>
</g>
<!-- Pane&#45;&gt;ButtonView -->
<g id="edge3" class="edge">
<title>Pane&#45;&gt;ButtonView</title>
<path fill="none" stroke="#000000" d="M138.2066,-250.1946C121.2333,-233.4172 101.8974,-214.3044 85.708,-198.3017"/>
<polygon fill="none" stroke="#000000" points="135.7476,-252.6853 145.3201,-257.226 140.6686,-247.7069 135.7476,-252.6853"/>
</g>
<!-- ListView -->
<g id="node5" class="node">
<title>ListView</title>
<polygon fill="#f2f2f2" stroke="#000000" points="119.5,-106.5 119.5,-220.5 241.5,-220.5 241.5,-106.5 119.5,-106.5"/>
<text text-anchor="middle" x="180.5" y="-205.3" font-family="Times,serif" font-size="14.00" fill="#000000">ListView</text>
<polyline fill="none" stroke="#000000" points="119.5,-197.5 241.5,-197.5 "/>
<text text-anchor="middle" x="180.5" y="-182.3" font-family="Times,serif" font-size="14.00" fill="#000000"> </text>
<polyline fill="none" stroke="#000000" points="119.5,-174.5 241.5,-174.5 "/>
<text text-anchor="start" x="127.5" y="-159.3" font-family="Times,serif" font-size="14.00" fill="#000000">+ Draw()</text>
<text text-anchor="start" x="127.5" y="-144.3" font-family="Times,serif" font-size="14.00" fill="#000000">+ HandleKey()</text>
<text text-anchor="start" x="127.5" y="-129.3" font-family="Times,serif" font-size="14.00" fill="#000000"># onDraw()</text>
<text text-anchor="start" x="127.5" y="-114.3" font-family="Times,serif" font-size="14.00" fill="#000000"># onAction()</text>
</g>
<!-- Pane&#45;&gt;ListView -->
<g id="edge4" class="edge">
<title>Pane&#45;&gt;ListView</title>
<path fill="none" stroke="#000000" d="M180.5,-247.0859C180.5,-238.5297 180.5,-229.469 180.5,-220.5928"/>
<polygon fill="none" stroke="#000000" points="177.0001,-247.226 180.5,-257.226 184.0001,-247.2261 177.0001,-247.226"/>
</g>
<!-- Group -->
<g id="node6" class="node">
<title>Group</title>
<polygon fill="#f2f2f2" stroke="#000000" points="259.5,-129 259.5,-198 341.5,-198 341.5,-129 259.5,-129"/>
<text text-anchor="middle" x="300.5" y="-182.8" font-family="Times,serif" font-size="14.00" fill="#000000">Group</text>
<polyline fill="none" stroke="#000000" points="259.5,-175 341.5,-175 "/>
<text text-anchor="middle" x="300.5" y="-159.8" font-family="Times,serif" font-size="14.00" fill="#000000"> </text>
<polyline fill="none" stroke="#000000" points="259.5,-152 341.5,-152 "/>
<text text-anchor="start" x="267.5" y="-136.8" font-family="Times,serif" font-size="14.00" fill="#000000">+ Draw()</text>
</g>
<!-- Pane&#45;&gt;Group -->
<g id="edge5" class="edge">
<title>Pane&#45;&gt;Group</title>
<path fill="none" stroke="#000000" d="M222.5072,-250.2613C231.8372,-240.7517 241.5963,-230.6146 250.5,-221 257.2414,-213.7203 264.3243,-205.7708 270.97,-198.1688"/>
<polygon fill="none" stroke="#000000" points="220.0055,-247.8136 215.4774,-257.3921 224.9904,-252.7279 220.0055,-247.8136"/>
</g>
<!-- HGroup -->
<g id="node7" class="node">
<title>HGroup</title>
<polygon fill="#f2f2f2" stroke="#000000" points="205.5,-.5 205.5,-69.5 291.5,-69.5 291.5,-.5 205.5,-.5"/>
<text text-anchor="middle" x="248.5" y="-54.3" font-family="Times,serif" font-size="14.00" fill="#000000">HGroup</text>
<polyline fill="none" stroke="#000000" points="205.5,-46.5 291.5,-46.5 "/>
<text text-anchor="middle" x="248.5" y="-31.3" font-family="Times,serif" font-size="14.00" fill="#000000"> </text>
<polyline fill="none" stroke="#000000" points="205.5,-23.5 291.5,-23.5 "/>
<text text-anchor="start" x="213.5" y="-8.3" font-family="Times,serif" font-size="14.00" fill="#000000">/+ Draw()</text>
</g>
<!-- Group&#45;&gt;HGroup -->
<g id="edge6" class="edge">
<title>Group&#45;&gt;HGroup</title>
<path fill="none" stroke="#000000" d="M282.6679,-119.4341C276.1053,-103.2169 268.7699,-85.09 262.5832,-69.8017"/>
<polygon fill="none" stroke="#000000" points="279.4324,-120.7692 286.4281,-128.726 285.9212,-118.1433 279.4324,-120.7692"/>
</g>
<!-- VGroup -->
<g id="node8" class="node">
<title>VGroup</title>
<polygon fill="#f2f2f2" stroke="#000000" points="309.5,-.5 309.5,-69.5 395.5,-69.5 395.5,-.5 309.5,-.5"/>
<text text-anchor="middle" x="352.5" y="-54.3" font-family="Times,serif" font-size="14.00" fill="#000000">VGroup</text>
<polyline fill="none" stroke="#000000" points="309.5,-46.5 395.5,-46.5 "/>
<text text-anchor="middle" x="352.5" y="-31.3" font-family="Times,serif" font-size="14.00" fill="#000000"> </text>
<polyline fill="none" stroke="#000000" points="309.5,-23.5 395.5,-23.5 "/>
<text text-anchor="start" x="317.5" y="-8.3" font-family="Times,serif" font-size="14.00" fill="#000000">/+ Draw()</text>
</g>
<!-- Group&#45;&gt;VGroup -->
<g id="edge7" class="edge">
<title>Group&#45;&gt;VGroup</title>
<path fill="none" stroke="#000000" d="M318.3321,-119.4341C324.8947,-103.2169 332.2301,-85.09 338.4168,-69.8017"/>
<polygon fill="none" stroke="#000000" points="315.0788,-118.1433 314.5719,-128.726 321.5676,-120.7692 315.0788,-118.1433"/>
</g>
<!-- TabGroup -->
<g id="node9" class="node">
<title>TabGroup</title>
<polygon fill="#f2f2f2" stroke="#000000" points="225.5,-469.5 225.5,-538.5 347.5,-538.5 347.5,-469.5 225.5,-469.5"/>
<text text-anchor="middle" x="286.5" y="-523.3" font-family="Times,serif" font-size="14.00" fill="#000000">TabGroup</text>
<polyline fill="none" stroke="#000000" points="225.5,-515.5 347.5,-515.5 "/>
<text text-anchor="middle" x="286.5" y="-500.3" font-family="Times,serif" font-size="14.00" fill="#000000"> </text>
<polyline fill="none" stroke="#000000" points="225.5,-492.5 347.5,-492.5 "/>
<text text-anchor="start" x="233.5" y="-477.3" font-family="Times,serif" font-size="14.00" fill="#000000">+ HandleKey()</text>
</g>
</g>
</svg>
