<?xml version="1.0" encoding="UTF-8" standalone="no"?>
<!DOCTYPE svg PUBLIC "-//W3C//DTD SVG 1.1//EN"
 "http://www.w3.org/Graphics/SVG/1.1/DTD/svg11.dtd">
<!-- Generated by graphviz version 14.1.1 (0)
 -->
<!-- Title: hierarchy Pages: 1 -->
<svg width="360pt" height="344pt"
 viewBox="0.00 0.00 360.00 344.00" xmlns="http://www.w3.org/2000/svg" xmlns:xlink="http://www.w3.org/1999/xlink">
<g id="graph0" class="graph" transform="scale(0.977355 0.977355) rotate(0) translate(4 348.25)">
<title>hierarchy</title>
<polygon fill="white" stroke="none" points="-4,4 -4,-348.25 364.34,-348.25 364.34,4 -4,4"/>
<!-- start -->
<g id="node1" class="node">
<title>start</title>
<ellipse fill="none" stroke="black" cx="232.5" cy="-326.25" rx="37" ry="18"/>
<text xml:space="preserve" text-anchor="middle" x="232.5" y="-321.57" font-family="Times,serif" font-size="14.00">Start</text>
</g>
<!-- readmp3header -->
<g id="node2" class="node">
<title>readmp3header</title>
<polygon fill="none" stroke="black" points="331.25,-271.25 133.75,-271.25 133.75,-235.25 331.25,-235.25 331.25,-271.25"/>
<text xml:space="preserve" text-anchor="middle" x="232.5" y="-248.57" font-family="Times,serif" font-size="14.00">Read MP3 Frame Header</text>
</g>
<!-- start&#45;&gt;readmp3header -->
<g id="edge1" class="edge">
<title>start&#45;&gt;readmp3header</title>
<path fill="none" stroke="black" d="M232.5,-308.06C232.5,-300.48 232.5,-291.35 232.5,-282.79"/>
<polygon fill="black" stroke="black" points="236,-282.79 232.5,-272.79 229,-282.79 236,-282.79"/>
</g>
<!-- analyzeheader -->
<g id="node3" class="node">
<title>analyzeheader</title>
<polygon fill="none" stroke="black" points="217,-182 0,-182 0,-146 217,-146 217,-182"/>
<text xml:space="preserve" text-anchor="middle" x="108.5" y="-159.32" font-family="Times,serif" font-size="14.00">Analyze MP3 Frame Header</text>
</g>
<!-- readmp3header&#45;&gt;analyzeheader -->
<g id="edge2" class="edge">
<title>readmp3header&#45;&gt;analyzeheader</title>
<path fill="none" stroke="black" d="M207.7,-234.8C189.03,-221.67 163.22,-203.5 142.61,-189"/>
<polygon fill="black" stroke="black" points="144.68,-186.18 134.49,-183.29 140.65,-191.9 144.68,-186.18"/>
</g>
<!-- end -->
<g id="node6" class="node">
<title>end</title>
<ellipse fill="none" stroke="black" cx="266.5" cy="-164" rx="31.22" ry="18"/>
<text xml:space="preserve" text-anchor="middle" x="266.5" y="-159.32" font-family="Times,serif" font-size="14.00">End</text>
</g>
<!-- readmp3header&#45;&gt;end -->
<g id="edge6" class="edge">
<title>readmp3header&#45;&gt;end</title>
<path fill="none" stroke="black" d="M229.91,-235.15C229.03,-224.63 229.22,-211.09 233.75,-200 235.56,-195.58 238.2,-191.38 241.21,-187.53"/>
<polygon fill="black" stroke="black" points="243.59,-190.13 247.68,-180.35 238.38,-185.44 243.59,-190.13"/>
<text xml:space="preserve" text-anchor="middle" x="289.62" y="-203.95" font-family="Times,serif" font-size="14.00">No further data</text>
</g>
<!-- readmp3frame -->
<g id="node4" class="node">
<title>readmp3frame</title>
<polygon fill="none" stroke="black" points="284.75,-109 144.25,-109 144.25,-73 284.75,-73 284.75,-109"/>
<text xml:space="preserve" text-anchor="middle" x="214.5" y="-86.33" font-family="Times,serif" font-size="14.00">Read MP3 Frame</text>
</g>
<!-- analyzeheader&#45;&gt;readmp3frame -->
<g id="edge3" class="edge">
<title>analyzeheader&#45;&gt;readmp3frame</title>
<path fill="none" stroke="black" d="M134.43,-145.63C147.91,-136.61 164.57,-125.44 179.2,-115.64"/>
<polygon fill="black" stroke="black" points="180.85,-118.75 187.21,-110.28 176.96,-112.93 180.85,-118.75"/>
</g>
<!-- savemp3frame -->
<g id="node5" class="node">
<title>savemp3frame</title>
<polygon fill="none" stroke="black" points="356.38,-36 216.62,-36 216.62,0 356.38,0 356.38,-36"/>
<text xml:space="preserve" text-anchor="middle" x="286.5" y="-13.32" font-family="Times,serif" font-size="14.00">Yield MP3 Frame</text>
</g>
<!-- readmp3frame&#45;&gt;savemp3frame -->
<g id="edge4" class="edge">
<title>readmp3frame&#45;&gt;savemp3frame</title>
<path fill="none" stroke="black" d="M231.93,-72.81C240.62,-64.24 251.3,-53.71 260.9,-44.24"/>
<polygon fill="black" stroke="black" points="263.24,-46.85 267.9,-37.34 258.33,-41.87 263.24,-46.85"/>
</g>
<!-- savemp3frame&#45;&gt;readmp3header -->
<g id="edge5" class="edge">
<title>savemp3frame&#45;&gt;readmp3header</title>
<path fill="none" stroke="black" d="M300.93,-36.38C329.62,-73.16 387.58,-160.16 345.5,-217.25 342.44,-221.41 338.88,-225.09 334.97,-228.34"/>
<polygon fill="black" stroke="black" points="333.22,-225.28 327.1,-233.93 337.28,-230.99 333.22,-225.28"/>
</g>
</g>
</svg>
