<?xml version="1.0" encoding="UTF-8" standalone="no"?>
<!DOCTYPE svg PUBLIC "-//W3C//DTD SVG 1.1//EN"
 "http://www.w3.org/Graphics/SVG/1.1/DTD/svg11.dtd">
<!-- Generated by graphviz version 2.40.1 (20161225.0304)
 -->
<!-- Title: hierarchy Pages: 1 -->
<svg width="201pt" height="411pt"
 viewBox="0.00 0.00 201.00 411.00" xmlns="http://www.w3.org/2000/svg" xmlns:xlink="http://www.w3.org/1999/xlink">
<g id="graph0" class="graph" transform="scale(1 1) rotate(0) translate(4 407)">
<title>hierarchy</title>
<polygon fill="#ffffff" stroke="transparent" points="-4,4 -4,-407 197,-407 197,4 -4,4"/>
<!-- files -->
<g id="node1" class="node">
<title>files</title>
<polygon fill="#dfcce4" stroke="#69015a" stroke-width="3" points="134,-403 0,-403 0,-365 134,-365 134,-403"/>
<text text-anchor="middle" x="67" y="-387.8" font-family="Times,serif" font-size="14.00" fill="#000000">Audio files</text>
<text text-anchor="middle" x="67" y="-372.8" font-family="Times,serif" font-size="14.00" fill="#000000">(mp3, m4a, flac)</text>
</g>
<!-- gstreamer -->
<g id="node2" class="node">
<title>gstreamer</title>
<polygon fill="#8ccfb7" stroke="#016c3c" stroke-width="3" points="114.5,-299 19.5,-299 19.5,-263 114.5,-263 114.5,-299"/>
<text text-anchor="middle" x="67" y="-277.3" font-family="Times,serif" font-size="14.00" fill="#000000">GStreamer</text>
</g>
<!-- files&#45;&gt;gstreamer -->
<g id="edge1" class="edge">
<title>files&#45;&gt;gstreamer</title>
<path fill="none" stroke="#69015a" stroke-width="3" d="M67,-364.6265C67,-349.0872 67,-327.0507 67,-309.4996"/>
<polygon fill="#69015a" stroke="#69015a" stroke-width="3" points="70.5001,-309.2493 67,-299.2494 63.5001,-309.2494 70.5001,-309.2493"/>
<text text-anchor="middle" x="130" y="-335.8" font-family="Times,serif" font-size="14.00" fill="#000000">Using GStreamer</text>
<text text-anchor="middle" x="130" y="-320.8" font-family="Times,serif" font-size="14.00" fill="#000000">filesrc element</text>
</g>
<!-- mp3stream -->
<g id="node3" class="node">
<title>mp3stream</title>
<polygon fill="#8ccfb7" stroke="#016c3c" stroke-width="3" points="119,-212 15,-212 15,-174 119,-174 119,-212"/>
<text text-anchor="middle" x="67" y="-196.8" font-family="Times,serif" font-size="14.00" fill="#000000">MP3 stream</text>
<text text-anchor="middle" x="67" y="-181.8" font-family="Times,serif" font-size="14.00" fill="#000000">(mp3)</text>
</g>
<!-- gstreamer&#45;&gt;mp3stream -->
<g id="edge2" class="edge">
<title>gstreamer&#45;&gt;mp3stream</title>
<path fill="none" stroke="#69015a" stroke-width="3" d="M67,-262.7663C67,-251.0875 67,-235.6692 67,-222.2978"/>
<polygon fill="#69015a" stroke="#69015a" stroke-width="3" points="70.5001,-222.1235 67,-212.1235 63.5001,-222.1235 70.5001,-222.1235"/>
<text text-anchor="middle" x="129" y="-233.8" font-family="Times,serif" font-size="14.00" fill="#000000">Using UNIX Pipe</text>
</g>
<!-- icecast -->
<g id="node4" class="node">
<title>icecast</title>
<polygon fill="#cccccc" stroke="#121212" stroke-width="3" points="101.5,-123 32.5,-123 32.5,-87 101.5,-87 101.5,-123"/>
<text text-anchor="middle" x="67" y="-101.3" font-family="Times,serif" font-size="14.00" fill="#000000">Icecast</text>
</g>
<!-- mp3stream&#45;&gt;icecast -->
<g id="edge3" class="edge">
<title>mp3stream&#45;&gt;icecast</title>
<path fill="none" stroke="#69015a" stroke-width="3" d="M67,-173.9053C67,-162.019 67,-146.517 67,-133.2275"/>
<polygon fill="#69015a" stroke="#69015a" stroke-width="3" points="70.5001,-133.1552 67,-123.1553 63.5001,-133.1553 70.5001,-133.1552"/>
<text text-anchor="middle" x="119.5" y="-144.8" font-family="Times,serif" font-size="14.00" fill="#000000">Using libshout</text>
</g>
<!-- listener -->
<g id="node5" class="node">
<title>listener</title>
<polygon fill="#fedcc6" stroke="#683705" stroke-width="3" points="105.5,-36 28.5,-36 28.5,0 105.5,0 105.5,-36"/>
<text text-anchor="middle" x="67" y="-14.3" font-family="Times,serif" font-size="14.00" fill="#000000">Listener</text>
</g>
<!-- icecast&#45;&gt;listener -->
<g id="edge4" class="edge">
<title>icecast&#45;&gt;listener</title>
<path fill="none" stroke="#69015a" stroke-width="3" d="M67,-86.9735C67,-75.1918 67,-59.5607 67,-46.1581"/>
<polygon fill="#69015a" stroke="#69015a" stroke-width="3" points="70.5001,-46.0033 67,-36.0034 63.5001,-46.0034 70.5001,-46.0033"/>
<text text-anchor="middle" x="101" y="-57.8" font-family="Times,serif" font-size="14.00" fill="#000000">via HTTP</text>
</g>
</g>
</svg>
