<?xml version="1.0" encoding="UTF-8"?>
<!DOCTYPE svg PUBLIC "-//W3C//DTD SVG 1.1//EN" "http://www.w3.org/Graphics/SVG/1.1/DTD/svg11.dtd">
<svg version="1.2" width="94mm" height="94mm" viewBox="0 0 9400 9400" preserveAspectRatio="xMidYMid" fill-rule="evenodd" stroke-width="28.222" stroke-linejoin="round" xmlns="http://www.w3.org/2000/svg" xmlns:ooo="http://xml.openoffice.org/svg/export" xmlns:xlink="http://www.w3.org/1999/xlink" xmlns:presentation="http://sun.com/xmlns/staroffice/presentation" xmlns:smil="http://www.w3.org/2001/SMIL20/" xmlns:anim="urn:oasis:names:tc:opendocument:xmlns:animation:1.0" xml:space="preserve">
 <defs class="ClipPathGroup">
  <clipPath id="presentation_clip_path" clipPathUnits="userSpaceOnUse">
   <rect x="0" y="0" width="9400" height="9400"/>
  </clipPath>
  <clipPath id="presentation_clip_path_shrink" clipPathUnits="userSpaceOnUse">
   <rect x="9" y="9" width="9382" height="9382"/>
  </clipPath>
 </defs>
 <defs class="TextShapeIndex">
  <g ooo:slide="id1" ooo:id-list="id3 id4 id5 id6 id7 id8 id9 id10 id11 id12 id13 id14 id15 id16 id17 id18 id19 id20 id21 id22 id23 id24 id25 id26 id27"/>
 </defs>
 <defs class="EmbeddedBulletChars">
  <g id="bullet-char-template-57356" transform="scale(0.00048828125,-0.00048828125)">
   <path d="M 580,1141 L 1163,571 580,0 -4,571 580,1141 Z"/>
  </g>
  <g id="bullet-char-template-57354" transform="scale(0.00048828125,-0.00048828125)">
   <path d="M 8,1128 L 1137,1128 1137,0 8,0 8,1128 Z"/>
  </g>
  <g id="bullet-char-template-10146" transform="scale(0.00048828125,-0.00048828125)">
   <path d="M 174,0 L 602,739 174,1481 1456,739 174,0 Z M 1358,739 L 309,1346 659,739 1358,739 Z"/>
  </g>
  <g id="bullet-char-template-10132" transform="scale(0.00048828125,-0.00048828125)">
   <path d="M 2015,739 L 1276,0 717,0 1260,543 174,543 174,936 1260,936 717,1481 1274,1481 2015,739 Z"/>
  </g>
  <g id="bullet-char-template-10007" transform="scale(0.00048828125,-0.00048828125)">
   <path d="M 0,-2 C -7,14 -16,27 -25,37 L 356,567 C 262,823 215,952 215,954 215,979 228,992 255,992 264,992 276,990 289,987 310,991 331,999 354,1012 L 381,999 492,748 772,1049 836,1024 860,1049 C 881,1039 901,1025 922,1006 886,937 835,863 770,784 769,783 710,716 594,584 L 774,223 C 774,196 753,168 711,139 L 727,119 C 717,90 699,76 672,76 641,76 570,178 457,381 L 164,-76 C 142,-110 111,-127 72,-127 30,-127 9,-110 8,-76 1,-67 -2,-52 -2,-32 -2,-23 -1,-13 0,-2 Z"/>
  </g>
  <g id="bullet-char-template-10004" transform="scale(0.00048828125,-0.00048828125)">
   <path d="M 285,-33 C 182,-33 111,30 74,156 52,228 41,333 41,471 41,549 55,616 82,672 116,743 169,778 240,778 293,778 328,747 346,684 L 369,508 C 377,444 397,411 428,410 L 1163,1116 C 1174,1127 1196,1133 1229,1133 1271,1133 1292,1118 1292,1087 L 1292,965 C 1292,929 1282,901 1262,881 L 442,47 C 390,-6 338,-33 285,-33 Z"/>
  </g>
  <g id="bullet-char-template-9679" transform="scale(0.00048828125,-0.00048828125)">
   <path d="M 813,0 C 632,0 489,54 383,161 276,268 223,411 223,592 223,773 276,916 383,1023 489,1130 632,1184 813,1184 992,1184 1136,1130 1245,1023 1353,916 1407,772 1407,592 1407,412 1353,268 1245,161 1136,54 992,0 813,0 Z"/>
  </g>
  <g id="bullet-char-template-8226" transform="scale(0.00048828125,-0.00048828125)">
   <path d="M 346,457 C 273,457 209,483 155,535 101,586 74,649 74,723 74,796 101,859 155,911 209,963 273,989 346,989 419,989 480,963 531,910 582,859 608,796 608,723 608,648 583,586 532,535 482,483 420,457 346,457 Z"/>
  </g>
  <g id="bullet-char-template-8211" transform="scale(0.00048828125,-0.00048828125)">
   <path d="M -4,459 L 1135,459 1135,606 -4,606 -4,459 Z"/>
  </g>
  <g id="bullet-char-template-61548" transform="scale(0.00048828125,-0.00048828125)">
   <path d="M 173,740 C 173,903 231,1043 346,1159 462,1274 601,1332 765,1332 928,1332 1067,1274 1183,1159 1299,1043 1357,903 1357,740 1357,577 1299,437 1183,322 1067,206 928,148 765,148 601,148 462,206 346,322 231,437 173,577 173,740 Z"/>
  </g>
 </defs>
 <g>
  <g id="id2" class="Master_Slide">
   <g id="bg-id2" class="Background"/>
   <g id="bo-id2" class="BackgroundObjects"/>
  </g>
 </g>
 <g class="SlideGroup">
  <g>
   <g id="container-id1">
    <g id="id1" class="Slide" clip-path="url(#presentation_clip_path)">
     <g class="Page">
      <g class="com.sun.star.drawing.CustomShape">
       <g id="id3">
        <rect class="BoundingBox" stroke="none" fill="none" x="1099" y="3099" width="304" height="304"/>
        <path fill="rgb(238,238,238)" stroke="none" d="M 1401,3251 C 1401,3277 1394,3303 1381,3326 1368,3349 1349,3368 1326,3381 1303,3394 1277,3401 1251,3401 1224,3401 1198,3394 1175,3381 1152,3368 1133,3349 1120,3326 1107,3303 1100,3277 1100,3251 1100,3224 1107,3198 1120,3175 1133,3152 1152,3133 1175,3120 1198,3107 1224,3100 1251,3100 1277,3100 1303,3107 1326,3120 1349,3133 1368,3152 1381,3175 1394,3198 1401,3224 1401,3251 L 1401,3251 Z"/>
        <path fill="none" stroke="rgb(238,238,238)" d="M 1401,3251 C 1401,3277 1394,3303 1381,3326 1368,3349 1349,3368 1326,3381 1303,3394 1277,3401 1251,3401 1224,3401 1198,3394 1175,3381 1152,3368 1133,3349 1120,3326 1107,3303 1100,3277 1100,3251 1100,3224 1107,3198 1120,3175 1133,3152 1152,3133 1175,3120 1198,3107 1224,3100 1251,3100 1277,3100 1303,3107 1326,3120 1349,3133 1368,3152 1381,3175 1394,3198 1401,3224 1401,3251 Z"/>
       </g>
      </g>
      <g class="com.sun.star.drawing.CustomShape">
       <g id="id4">
        <rect class="BoundingBox" stroke="none" fill="none" x="4549" y="801" width="304" height="304"/>
        <path fill="rgb(238,238,238)" stroke="none" d="M 4851,953 C 4851,979 4844,1005 4831,1028 4818,1051 4799,1070 4776,1083 4753,1096 4727,1103 4701,1103 4674,1103 4648,1096 4625,1083 4602,1070 4583,1051 4570,1028 4557,1005 4550,979 4550,953 4550,926 4557,900 4570,877 4583,854 4602,835 4625,822 4648,809 4674,802 4701,802 4727,802 4753,809 4776,822 4799,835 4818,854 4831,877 4844,900 4851,926 4851,952 L 4851,953 Z"/>
        <path fill="none" stroke="rgb(238,238,238)" d="M 4851,953 C 4851,979 4844,1005 4831,1028 4818,1051 4799,1070 4776,1083 4753,1096 4727,1103 4701,1103 4674,1103 4648,1096 4625,1083 4602,1070 4583,1051 4570,1028 4557,1005 4550,979 4550,953 4550,926 4557,900 4570,877 4583,854 4602,835 4625,822 4648,809 4674,802 4701,802 4727,802 4753,809 4776,822 4799,835 4818,854 4831,877 4844,900 4851,926 4851,952 L 4851,953 Z"/>
       </g>
      </g>
      <g class="com.sun.star.drawing.CustomShape">
       <g id="id5">
        <rect class="BoundingBox" stroke="none" fill="none" x="4549" y="3649" width="304" height="304"/>
        <path fill="rgb(238,238,238)" stroke="none" d="M 4851,3801 C 4851,3827 4844,3853 4831,3876 4818,3899 4799,3918 4776,3931 4753,3944 4727,3951 4701,3951 4674,3951 4648,3944 4625,3931 4602,3918 4583,3899 4570,3876 4557,3853 4550,3827 4550,3801 4550,3774 4557,3748 4570,3725 4583,3702 4602,3683 4625,3670 4648,3657 4674,3650 4701,3650 4727,3650 4753,3657 4776,3670 4799,3683 4818,3702 4831,3725 4844,3748 4851,3774 4851,3801 L 4851,3801 Z"/>
        <path fill="none" stroke="rgb(238,238,238)" d="M 4851,3801 C 4851,3827 4844,3853 4831,3876 4818,3899 4799,3918 4776,3931 4753,3944 4727,3951 4701,3951 4674,3951 4648,3944 4625,3931 4602,3918 4583,3899 4570,3876 4557,3853 4550,3827 4550,3801 4550,3774 4557,3748 4570,3725 4583,3702 4602,3683 4625,3670 4648,3657 4674,3650 4701,3650 4727,3650 4753,3657 4776,3670 4799,3683 4818,3702 4831,3725 4844,3748 4851,3774 4851,3801 Z"/>
       </g>
      </g>
      <g class="com.sun.star.drawing.ConnectorShape">
       <g id="id6">
        <rect class="BoundingBox" stroke="none" fill="none" x="1029" y="2879" width="3893" height="1293"/>
        <path fill="none" stroke="rgb(102,102,102)" stroke-width="741" stroke-linejoin="round" d="M 1400,3250 L 4550,3800"/>
       </g>
      </g>
      <g class="com.sun.star.drawing.ConnectorShape">
       <g id="id7">
        <rect class="BoundingBox" stroke="none" fill="none" x="879" y="581" width="4043" height="2891"/>
        <path fill="none" stroke="rgb(102,102,102)" stroke-width="741" stroke-linejoin="round" d="M 1250,3100 L 4550,952"/>
       </g>
      </g>
      <g class="com.sun.star.drawing.ConnectorShape">
       <g id="id8">
        <rect class="BoundingBox" stroke="none" fill="none" x="4329" y="731" width="743" height="3291"/>
        <path fill="none" stroke="rgb(102,102,102)" stroke-width="741" stroke-linejoin="round" d="M 4700,1102 L 4700,3650"/>
       </g>
      </g>
      <g class="com.sun.star.drawing.CustomShape">
       <g id="id9">
        <rect class="BoundingBox" stroke="none" fill="none" x="1099" y="6100" width="304" height="304"/>
        <path fill="rgb(238,238,238)" stroke="none" d="M 1401,6252 C 1401,6278 1394,6304 1381,6327 1368,6350 1349,6369 1326,6382 1303,6395 1277,6402 1251,6402 1224,6402 1198,6395 1175,6382 1152,6369 1133,6350 1120,6327 1107,6304 1100,6278 1100,6252 1100,6225 1107,6199 1120,6176 1133,6153 1152,6134 1175,6121 1198,6108 1224,6101 1251,6101 1277,6101 1303,6108 1326,6121 1349,6134 1368,6153 1381,6176 1394,6199 1401,6225 1401,6252 L 1401,6252 Z"/>
        <path fill="none" stroke="rgb(238,238,238)" d="M 1401,6252 C 1401,6278 1394,6304 1381,6327 1368,6350 1349,6369 1326,6382 1303,6395 1277,6402 1251,6402 1224,6402 1198,6395 1175,6382 1152,6369 1133,6350 1120,6327 1107,6304 1100,6278 1100,6252 1100,6225 1107,6199 1120,6176 1133,6153 1152,6134 1175,6121 1198,6108 1224,6101 1251,6101 1277,6101 1303,6108 1326,6121 1349,6134 1368,6153 1381,6176 1394,6199 1401,6225 1401,6252 Z"/>
       </g>
      </g>
      <g class="com.sun.star.drawing.CustomShape">
       <g id="id10">
        <rect class="BoundingBox" stroke="none" fill="none" x="4549" y="8301" width="304" height="304"/>
        <path fill="rgb(238,238,238)" stroke="none" d="M 4851,8453 C 4851,8479 4844,8505 4831,8528 4818,8551 4799,8570 4776,8583 4753,8596 4727,8603 4701,8603 4674,8603 4648,8596 4625,8583 4602,8570 4583,8551 4570,8528 4557,8505 4550,8479 4550,8453 4550,8426 4557,8400 4570,8377 4583,8354 4602,8335 4625,8322 4648,8309 4674,8302 4701,8302 4727,8302 4753,8309 4776,8322 4799,8335 4818,8354 4831,8377 4844,8400 4851,8426 4851,8453 L 4851,8453 Z"/>
        <path fill="none" stroke="rgb(238,238,238)" d="M 4851,8453 C 4851,8479 4844,8505 4831,8528 4818,8551 4799,8570 4776,8583 4753,8596 4727,8603 4701,8603 4674,8603 4648,8596 4625,8583 4602,8570 4583,8551 4570,8528 4557,8505 4550,8479 4550,8453 4550,8426 4557,8400 4570,8377 4583,8354 4602,8335 4625,8322 4648,8309 4674,8302 4701,8302 4727,8302 4753,8309 4776,8322 4799,8335 4818,8354 4831,8377 4844,8400 4851,8426 4851,8453 Z"/>
       </g>
      </g>
      <g class="com.sun.star.drawing.CustomShape">
       <g id="id11">
        <rect class="BoundingBox" stroke="none" fill="none" x="7999" y="6101" width="304" height="304"/>
        <path fill="rgb(238,238,238)" stroke="none" d="M 8301,6253 C 8301,6279 8294,6305 8281,6328 8268,6351 8249,6370 8226,6383 8203,6396 8177,6403 8151,6403 8124,6403 8098,6396 8075,6383 8052,6370 8033,6351 8020,6328 8007,6305 8000,6279 8000,6253 8000,6226 8007,6200 8020,6177 8033,6154 8052,6135 8075,6122 8098,6109 8124,6102 8151,6102 8177,6102 8203,6109 8226,6122 8249,6135 8268,6154 8281,6177 8294,6200 8301,6226 8301,6253 L 8301,6253 Z"/>
        <path fill="none" stroke="rgb(238,238,238)" d="M 8301,6253 C 8301,6279 8294,6305 8281,6328 8268,6351 8249,6370 8226,6383 8203,6396 8177,6403 8151,6403 8124,6403 8098,6396 8075,6383 8052,6370 8033,6351 8020,6328 8007,6305 8000,6279 8000,6253 8000,6226 8007,6200 8020,6177 8033,6154 8052,6135 8075,6122 8098,6109 8124,6102 8151,6102 8177,6102 8203,6109 8226,6122 8249,6135 8268,6154 8281,6177 8294,6200 8301,6226 8301,6253 Z"/>
       </g>
      </g>
      <g class="com.sun.star.drawing.CustomShape">
       <g id="id12">
        <rect class="BoundingBox" stroke="none" fill="none" x="7999" y="3100" width="304" height="304"/>
        <path fill="rgb(238,238,238)" stroke="none" d="M 8301,3252 C 8301,3278 8294,3304 8281,3327 8268,3350 8249,3369 8226,3382 8203,3395 8177,3402 8151,3402 8124,3402 8098,3395 8075,3382 8052,3369 8033,3350 8020,3327 8007,3304 8000,3278 8000,3252 8000,3225 8007,3199 8020,3176 8033,3153 8052,3134 8075,3121 8098,3108 8124,3101 8151,3101 8177,3101 8203,3108 8226,3121 8249,3134 8268,3153 8281,3176 8294,3199 8301,3225 8301,3252 L 8301,3252 Z"/>
        <path fill="none" stroke="rgb(238,238,238)" d="M 8301,3252 C 8301,3278 8294,3304 8281,3327 8268,3350 8249,3369 8226,3382 8203,3395 8177,3402 8151,3402 8124,3402 8098,3395 8075,3382 8052,3369 8033,3350 8020,3327 8007,3304 8000,3278 8000,3252 8000,3225 8007,3199 8020,3176 8033,3153 8052,3134 8075,3121 8098,3108 8124,3101 8151,3101 8177,3101 8203,3108 8226,3121 8249,3134 8268,3153 8281,3176 8294,3199 8301,3225 8301,3252 Z"/>
       </g>
      </g>
      <g class="com.sun.star.drawing.ConnectorShape">
       <g id="id13">
        <rect class="BoundingBox" stroke="none" fill="none" x="4479" y="5987" width="3937" height="2837"/>
        <path fill="none" stroke="rgb(102,102,102)" stroke-width="741" stroke-linejoin="round" d="M 4850,8452 L 8044,6358"/>
       </g>
      </g>
      <g class="com.sun.star.drawing.ConnectorShape">
       <g id="id14">
        <rect class="BoundingBox" stroke="none" fill="none" x="1029" y="3535" width="3937" height="3088"/>
        <path fill="none" stroke="rgb(102,102,102)" stroke-width="741" stroke-linejoin="round" d="M 1400,6251 L 4594,3906"/>
       </g>
      </g>
      <g class="com.sun.star.drawing.ConnectorShape">
       <g id="id15">
        <rect class="BoundingBox" stroke="none" fill="none" x="985" y="5986" width="3937" height="2838"/>
        <path fill="none" stroke="rgb(102,102,102)" stroke-width="741" stroke-linejoin="round" d="M 1356,6357 L 4550,8452"/>
       </g>
      </g>
      <g class="com.sun.star.drawing.ConnectorShape">
       <g id="id16">
        <rect class="BoundingBox" stroke="none" fill="none" x="4479" y="2880" width="3893" height="1292"/>
        <path fill="none" stroke="rgb(102,102,102)" stroke-width="741" stroke-linejoin="round" d="M 4850,3800 L 8000,3251"/>
       </g>
      </g>
      <g class="com.sun.star.drawing.ConnectorShape">
       <g id="id17">
        <rect class="BoundingBox" stroke="none" fill="none" x="4435" y="3535" width="3937" height="3089"/>
        <path fill="none" stroke="rgb(102,102,102)" stroke-width="741" stroke-linejoin="round" d="M 4806,3906 L 8000,6252"/>
       </g>
      </g>
      <g class="com.sun.star.drawing.ConnectorShape">
       <g id="id18">
        <rect class="BoundingBox" stroke="none" fill="none" x="879" y="3029" width="743" height="3444"/>
        <path fill="none" stroke="rgb(102,102,102)" stroke-width="741" stroke-linejoin="round" d="M 1250,6101 L 1250,3400"/>
       </g>
      </g>
      <g class="com.sun.star.drawing.ConnectorShape">
       <g id="id19">
        <rect class="BoundingBox" stroke="none" fill="none" x="7779" y="3030" width="743" height="3444"/>
        <path fill="none" stroke="rgb(102,102,102)" stroke-width="741" stroke-linejoin="round" d="M 8150,6102 L 8150,3401"/>
       </g>
      </g>
      <g class="com.sun.star.drawing.ConnectorShape">
       <g id="id20">
        <rect class="BoundingBox" stroke="none" fill="none" x="4479" y="581" width="4043" height="2892"/>
        <path fill="none" stroke="rgb(102,102,102)" stroke-width="741" stroke-linejoin="round" d="M 8150,3101 L 4850,952"/>
       </g>
      </g>
      <g class="com.sun.star.drawing.CustomShape">
       <g id="id21">
        <rect class="BoundingBox" stroke="none" fill="none" x="299" y="2300" width="1903" height="1902"/>
        <g>
         <defs>
          <linearGradient id="gradient1" x1="601" y1="2126" x2="1900" y2="4375" gradientUnits="userSpaceOnUse">
           <stop offset="0" style="stop-color:rgb(122,143,200)"/>
           <stop offset="1" style="stop-color:rgb(31,51,150)"/>
          </linearGradient>
         </defs>
         <path style="fill:url(#gradient1)" d="M 2201,3251 L 2199,3313 2193,3375 2183,3436 2169,3497 2151,3556 2129,3614 2103,3671 2074,3726 2041,3779 2004,3829 1965,3877 1923,3923 1877,3965 1829,4004 1779,4041 1726,4074 1671,4103 1614,4129 1556,4151 1497,4169 1436,4183 1375,4193 1313,4199 1251,4201 1188,4199 1126,4193 1065,4183 1004,4169 945,4151 887,4129 830,4103 775,4074 722,4041 672,4004 624,3965 578,3923 536,3877 497,3829 460,3779 427,3726 398,3671 372,3614 350,3556 332,3497 318,3436 308,3375 302,3313 300,3251 302,3188 308,3126 318,3065 332,3004 350,2945 372,2887 398,2830 427,2775 460,2722 497,2672 536,2624 578,2578 624,2536 672,2497 722,2460 775,2427 830,2398 887,2372 945,2350 1004,2332 1065,2318 1126,2308 1188,2302 1250,2300 1313,2302 1375,2308 1436,2318 1497,2332 1556,2350 1614,2372 1671,2398 1726,2427 1779,2460 1829,2497 1877,2536 1923,2578 1965,2624 2004,2672 2041,2722 2074,2775 2103,2830 2129,2887 2151,2945 2169,3004 2183,3065 2193,3126 2199,3188 2201,3250 2201,3251 Z"/>
        </g>
       </g>
      </g>
      <g class="com.sun.star.drawing.CustomShape">
       <g id="id22">
        <rect class="BoundingBox" stroke="none" fill="none" x="7199" y="2301" width="1903" height="1902"/>
        <g>
         <defs>
          <linearGradient id="gradient2" x1="7501" y1="2127" x2="8800" y2="4376" gradientUnits="userSpaceOnUse">
           <stop offset="0" style="stop-color:rgb(122,143,200)"/>
           <stop offset="1" style="stop-color:rgb(31,51,150)"/>
          </linearGradient>
         </defs>
         <path style="fill:url(#gradient2)" d="M 9101,3252 L 9099,3314 9093,3376 9083,3437 9069,3498 9051,3557 9029,3615 9003,3672 8974,3727 8941,3780 8904,3830 8865,3878 8823,3924 8777,3966 8729,4005 8679,4042 8626,4075 8571,4104 8514,4130 8456,4152 8397,4170 8336,4184 8275,4194 8213,4200 8150,4202 8088,4200 8026,4194 7965,4184 7904,4170 7845,4152 7787,4130 7730,4104 7675,4075 7622,4042 7572,4005 7524,3966 7478,3924 7436,3878 7397,3830 7360,3780 7327,3727 7298,3672 7272,3615 7250,3557 7232,3498 7218,3437 7208,3376 7202,3314 7200,3252 7202,3189 7208,3127 7218,3066 7232,3005 7250,2946 7272,2888 7298,2831 7327,2776 7360,2723 7397,2673 7436,2625 7478,2579 7524,2537 7572,2498 7622,2461 7675,2428 7730,2399 7787,2373 7845,2351 7904,2333 7965,2319 8026,2309 8088,2303 8150,2301 8213,2303 8275,2309 8336,2319 8397,2333 8456,2351 8514,2373 8571,2399 8626,2428 8679,2461 8729,2498 8777,2537 8823,2579 8865,2625 8904,2673 8941,2723 8974,2776 9003,2831 9029,2888 9051,2946 9069,3005 9083,3066 9093,3127 9099,3189 9101,3251 9101,3252 Z"/>
        </g>
       </g>
      </g>
      <g class="com.sun.star.drawing.CustomShape">
       <g id="id23">
        <rect class="BoundingBox" stroke="none" fill="none" x="299" y="5301" width="1903" height="1902"/>
        <g>
         <defs>
          <linearGradient id="gradient3" x1="601" y1="5127" x2="1900" y2="7376" gradientUnits="userSpaceOnUse">
           <stop offset="0" style="stop-color:rgb(122,143,200)"/>
           <stop offset="1" style="stop-color:rgb(31,51,150)"/>
          </linearGradient>
         </defs>
         <path style="fill:url(#gradient3)" d="M 2201,6252 L 2199,6314 2193,6376 2183,6437 2169,6498 2151,6557 2129,6615 2103,6672 2074,6727 2041,6780 2004,6830 1965,6878 1923,6924 1877,6966 1829,7005 1779,7042 1726,7075 1671,7104 1614,7130 1556,7152 1497,7170 1436,7184 1375,7194 1313,7200 1251,7202 1188,7200 1126,7194 1065,7184 1004,7170 945,7152 887,7130 830,7104 775,7075 722,7042 672,7005 624,6966 578,6924 536,6878 497,6830 460,6780 427,6727 398,6672 372,6615 350,6557 332,6498 318,6437 308,6376 302,6314 300,6252 302,6189 308,6127 318,6066 332,6005 350,5946 372,5888 398,5831 427,5776 460,5723 497,5673 536,5625 578,5579 624,5537 672,5498 722,5461 775,5428 830,5399 887,5373 945,5351 1004,5333 1065,5319 1126,5309 1188,5303 1250,5301 1313,5303 1375,5309 1436,5319 1497,5333 1556,5351 1614,5373 1671,5399 1726,5428 1779,5461 1829,5498 1877,5537 1923,5579 1965,5625 2004,5673 2041,5723 2074,5776 2103,5831 2129,5888 2151,5946 2169,6005 2183,6066 2193,6127 2199,6189 2201,6251 2201,6252 Z"/>
        </g>
       </g>
      </g>
      <g class="com.sun.star.drawing.CustomShape">
       <g id="id24">
        <rect class="BoundingBox" stroke="none" fill="none" x="7199" y="5302" width="1903" height="1902"/>
        <g>
         <defs>
          <linearGradient id="gradient4" x1="7501" y1="5128" x2="8800" y2="7377" gradientUnits="userSpaceOnUse">
           <stop offset="0" style="stop-color:rgb(122,143,200)"/>
           <stop offset="1" style="stop-color:rgb(31,51,150)"/>
          </linearGradient>
         </defs>
         <path style="fill:url(#gradient4)" d="M 9101,6252 L 9099,6315 9093,6377 9083,6438 9069,6499 9051,6558 9029,6616 9003,6673 8974,6728 8941,6781 8904,6831 8865,6879 8823,6925 8777,6967 8729,7006 8679,7043 8626,7076 8571,7105 8514,7131 8456,7153 8397,7171 8336,7185 8275,7195 8213,7201 8150,7203 8088,7201 8026,7195 7965,7185 7904,7171 7845,7153 7787,7131 7730,7105 7675,7076 7622,7043 7572,7006 7524,6967 7478,6925 7436,6879 7397,6831 7360,6781 7327,6728 7298,6673 7272,6616 7250,6558 7232,6499 7218,6438 7208,6377 7202,6315 7200,6253 7202,6190 7208,6128 7218,6067 7232,6006 7250,5947 7272,5889 7298,5832 7327,5777 7360,5724 7397,5674 7436,5626 7478,5580 7524,5538 7572,5499 7622,5462 7675,5429 7730,5400 7787,5374 7845,5352 7904,5334 7965,5320 8026,5310 8088,5304 8150,5302 8213,5304 8275,5310 8336,5320 8397,5334 8456,5352 8514,5374 8571,5400 8626,5429 8679,5462 8729,5499 8777,5538 8823,5580 8865,5626 8904,5674 8941,5724 8974,5777 9003,5832 9029,5889 9051,5947 9069,6006 9083,6067 9093,6128 9099,6190 9101,6252 9101,6252 Z"/>
        </g>
       </g>
      </g>
      <g class="com.sun.star.drawing.CustomShape">
       <g id="id25">
        <rect class="BoundingBox" stroke="none" fill="none" x="3750" y="2850" width="1902" height="1902"/>
        <g>
         <defs>
          <linearGradient id="gradient5" x1="4051" y1="2676" x2="5350" y2="4925" gradientUnits="userSpaceOnUse">
           <stop offset="0" style="stop-color:rgb(200,122,128)"/>
           <stop offset="1" style="stop-color:rgb(150,32,32)"/>
          </linearGradient>
         </defs>
         <path style="fill:url(#gradient5)" d="M 5651,3801 L 5649,3863 5643,3925 5633,3986 5619,4047 5601,4106 5579,4164 5553,4221 5524,4276 5491,4329 5454,4379 5415,4427 5373,4473 5327,4515 5279,4554 5229,4591 5176,4624 5121,4653 5064,4679 5006,4701 4947,4719 4886,4733 4825,4743 4763,4749 4701,4751 4638,4749 4576,4743 4515,4733 4454,4719 4395,4701 4337,4679 4280,4653 4225,4624 4172,4591 4122,4554 4074,4515 4028,4473 3986,4427 3947,4379 3910,4329 3877,4276 3848,4221 3822,4164 3800,4106 3782,4047 3768,3986 3758,3925 3752,3863 3750,3801 3752,3738 3758,3676 3768,3615 3782,3554 3800,3495 3822,3437 3848,3380 3877,3325 3910,3272 3947,3222 3986,3174 4028,3128 4074,3086 4122,3047 4172,3010 4225,2977 4280,2948 4337,2922 4395,2900 4454,2882 4515,2868 4576,2858 4638,2852 4700,2850 4763,2852 4825,2858 4886,2868 4947,2882 5006,2900 5064,2922 5121,2948 5176,2977 5229,3010 5279,3047 5327,3086 5373,3128 5415,3174 5454,3222 5491,3272 5524,3325 5553,3380 5579,3437 5601,3495 5619,3554 5633,3615 5643,3676 5649,3738 5651,3800 5651,3801 Z"/>
        </g>
       </g>
      </g>
      <g class="com.sun.star.drawing.CustomShape">
       <g id="id26">
        <rect class="BoundingBox" stroke="none" fill="none" x="3750" y="2" width="1902" height="1902"/>
        <g>
         <defs>
          <linearGradient id="gradient6" x1="4051" y1="-172" x2="5350" y2="2077" gradientUnits="userSpaceOnUse">
           <stop offset="0" style="stop-color:rgb(156,200,122)"/>
           <stop offset="1" style="stop-color:rgb(71,150,31)"/>
          </linearGradient>
         </defs>
         <path style="fill:url(#gradient6)" d="M 5651,953 L 5649,1015 5643,1077 5633,1138 5619,1199 5601,1258 5579,1316 5553,1373 5524,1428 5491,1481 5454,1531 5415,1579 5373,1625 5327,1667 5279,1706 5229,1743 5176,1776 5121,1805 5064,1831 5006,1853 4947,1871 4886,1885 4825,1895 4763,1901 4701,1903 4638,1901 4576,1895 4515,1885 4454,1871 4395,1853 4337,1831 4280,1805 4225,1776 4172,1743 4122,1706 4074,1667 4028,1625 3986,1579 3947,1531 3910,1481 3877,1428 3848,1373 3822,1316 3800,1258 3782,1199 3768,1138 3758,1077 3752,1015 3750,953 3752,890 3758,828 3768,767 3782,706 3800,647 3822,589 3848,532 3877,477 3910,424 3947,374 3986,326 4028,280 4074,238 4122,199 4172,162 4225,129 4280,100 4337,74 4395,52 4454,34 4515,20 4576,10 4638,4 4700,2 4763,4 4825,10 4886,20 4947,34 5006,52 5064,74 5121,100 5176,129 5229,162 5279,199 5327,238 5373,280 5415,326 5454,374 5491,424 5524,477 5553,532 5579,589 5601,647 5619,706 5633,767 5643,828 5649,890 5651,952 5651,953 Z"/>
        </g>
       </g>
      </g>
      <g class="com.sun.star.drawing.CustomShape">
       <g id="id27">
        <rect class="BoundingBox" stroke="none" fill="none" x="3750" y="7502" width="1902" height="1902"/>
        <g>
         <defs>
          <linearGradient id="gradient7" x1="4051" y1="7328" x2="5350" y2="9577" gradientUnits="userSpaceOnUse">
           <stop offset="0" style="stop-color:rgb(200,122,128)"/>
           <stop offset="1" style="stop-color:rgb(150,32,32)"/>
          </linearGradient>
         </defs>
         <path style="fill:url(#gradient7)" d="M 5651,8453 L 5649,8515 5643,8577 5633,8638 5619,8699 5601,8758 5579,8816 5553,8873 5524,8928 5491,8981 5454,9031 5415,9079 5373,9125 5327,9167 5279,9206 5229,9243 5176,9276 5121,9305 5064,9331 5006,9353 4947,9371 4886,9385 4825,9395 4763,9401 4701,9403 4638,9401 4576,9395 4515,9385 4454,9371 4395,9353 4337,9331 4280,9305 4225,9276 4172,9243 4122,9206 4074,9167 4028,9125 3986,9079 3947,9031 3910,8981 3877,8928 3848,8873 3822,8816 3800,8758 3782,8699 3768,8638 3758,8577 3752,8515 3750,8453 3752,8390 3758,8328 3768,8267 3782,8206 3800,8147 3822,8089 3848,8032 3877,7977 3910,7924 3947,7874 3986,7826 4028,7780 4074,7738 4122,7699 4172,7662 4225,7629 4280,7600 4337,7574 4395,7552 4454,7534 4515,7520 4576,7510 4638,7504 4700,7502 4763,7504 4825,7510 4886,7520 4947,7534 5006,7552 5064,7574 5121,7600 5176,7629 5229,7662 5279,7699 5327,7738 5373,7780 5415,7826 5454,7874 5491,7924 5524,7977 5553,8032 5579,8089 5601,8147 5619,8206 5633,8267 5643,8328 5649,8390 5651,8452 5651,8453 Z"/>
        </g>
       </g>
      </g>
     </g>
    </g>
   </g>
  </g>
 </g>
</svg>